M48
; DRILL file {KiCad 7.0.2} date Fri Jun  9 00:36:23 2023
; FORMAT={-:-/ absolute / metric / decimal}
; #@! TF.CreationDate,2023-06-09T00:36:23-07:00
; #@! TF.GenerationSoftware,Kicad,Pcbnew,7.0.2
; #@! TF.FileFunction,Plated,1,4,PTH
FMAT,2
METRIC
; #@! TA.AperFunction,Plated,PTH,ViaDrill
T1C0.400
; #@! TA.AperFunction,Plated,PTH,ComponentDrill
T2C0.800
; #@! TA.AperFunction,Plated,PTH,ComponentDrill
T3C0.991
; #@! TA.AperFunction,Plated,PTH,ComponentDrill
T4C1.020
; #@! TA.AperFunction,Plated,PTH,ComponentDrill
T5C1.100
; #@! TA.AperFunction,Plated,PTH,ComponentDrill
T6C1.200
; #@! TA.AperFunction,Plated,PTH,ComponentDrill
T7C1.397
; #@! TA.AperFunction,Plated,PTH,ComponentDrill
T8C1.524
; #@! TA.AperFunction,Plated,PTH,ComponentDrill
T9C1.600
%
G90
G05
T1
X71.0Y-112.0
X71.0Y-115.0
X71.0Y-118.0
X71.0Y-121.0
X71.0Y-124.0
X71.0Y-127.0
X71.0Y-130.0
X71.0Y-133.0
X71.0Y-136.0
X71.0Y-139.0
X71.0Y-142.0
X73.0Y-111.0
X74.0Y-142.0
X76.0Y-111.0
X77.0Y-142.0
X79.0Y-111.0
X79.25Y-119.5
X80.0Y-92.5
X80.0Y-118.0
X80.0Y-143.0
X80.775Y-114.5
X81.0Y-146.0
X81.0Y-149.0
X81.0Y-152.0
X81.5Y-118.0
X82.75Y-116.5
X83.0Y-99.0
X83.0Y-112.75
X83.5Y-139.0
X84.0Y-116.0
X84.0Y-137.5
X84.0Y-140.5
X84.0Y-152.0
X84.25Y-112.75
X84.5Y-73.0
X85.5Y-118.0
X86.5Y-115.5
X87.0Y-118.0
X87.0Y-137.5
X87.0Y-140.5
X87.5Y-139.0
X87.88Y-129.27
X87.88Y-131.1
X88.0Y-122.25
X88.0Y-125.0
X89.0Y-111.0
X91.0Y-118.0
X91.436Y-129.314
X91.436Y-131.1
X92.0Y-111.0
X92.45Y-115.55
X92.5Y-114.5
X92.75Y-112.5
X94.992Y-129.258
X94.992Y-131.1
X95.0Y-115.55
X95.0Y-117.5
X96.5Y-111.0
X97.5Y-116.5
X97.5Y-139.0
X97.75Y-111.0
X98.0Y-137.5
X98.0Y-140.5
X98.5Y-115.75
X100.25Y-112.0
X101.0Y-137.5
X101.0Y-140.5
X101.5Y-139.0
X102.0Y-111.0
X102.1Y-131.1
X102.104Y-129.2
X103.5Y-120.75
X103.5Y-123.75
X103.75Y-100.5
X104.0Y-128.5
X104.75Y-120.75
X104.75Y-123.75
X105.0Y-111.0
X105.66Y-129.225
X105.66Y-131.1
X106.0Y-120.75
X106.0Y-123.75
X106.25Y-114.25
X107.4Y-136.9
X109.0Y-111.0
X109.0Y-152.0
X112.0Y-111.0
X113.0Y-138.0
X113.95Y-115.55
X114.0Y-114.5
X114.25Y-112.5
X115.5Y-129.5
X116.5Y-115.55
X116.5Y-117.5
X116.5Y-120.75
X117.0Y-149.5
X118.0Y-111.0
X118.5Y-138.0
X119.25Y-111.0
X119.25Y-116.5
X120.0Y-115.75
X120.0Y-152.0
X120.75Y-145.75
X121.25Y-126.75
X121.75Y-112.5
X122.0Y-151.5
X123.0Y-111.0
X123.0Y-122.25
X123.5Y-146.0
X123.5Y-147.0
X123.75Y-148.75
X124.0Y-145.25
X125.25Y-122.25
X125.5Y-143.5
X125.5Y-148.5
X125.75Y-100.5
X126.5Y-143.0
X126.5Y-144.0
X126.75Y-120.75
X126.75Y-145.25
X128.0Y-140.5
X128.0Y-145.5
X128.27Y-114.25
X129.0Y-128.0
X129.0Y-137.5
X129.75Y-122.25
X130.2Y-140.5
X130.2Y-145.5
X131.0Y-111.0
X131.0Y-120.75
X133.0Y-124.5
X133.0Y-128.0
X134.0Y-111.0
X134.75Y-124.5
X134.75Y-128.0
X136.5Y-117.0
X136.5Y-124.5
X136.5Y-128.0
X137.0Y-109.0
X137.0Y-137.0
X137.0Y-149.0
X138.5Y-124.5
X138.5Y-130.0
X140.0Y-69.0
X140.0Y-70.5
X140.0Y-72.0
X140.0Y-73.5
X140.0Y-75.0
X140.0Y-76.5
X140.0Y-78.0
X140.0Y-79.5
X140.0Y-81.0
X140.0Y-82.5
X140.0Y-84.5
X140.0Y-86.5
X140.0Y-107.0
X140.5Y-143.0
X141.0Y-71.25
X141.0Y-98.0
X141.0Y-101.0
X141.0Y-104.0
X141.5Y-124.5
X141.5Y-130.0
X142.0Y-86.5
X142.5Y-97.75
X142.5Y-149.0
X143.0Y-84.0
X143.0Y-85.5
X143.0Y-86.5
X143.0Y-108.0
X143.3Y-115.569
X143.5Y-114.5
X143.7Y-112.569
X144.0Y-86.5
X144.0Y-124.5
X144.0Y-130.0
X144.725Y-102.275
X145.0Y-84.0
X145.0Y-85.5
X145.0Y-86.5
X145.0Y-152.0
X145.5Y-68.0
X145.5Y-70.0
X145.5Y-149.0
X145.7Y-104.0
X145.95Y-115.569
X145.988Y-109.275
X146.0Y-71.25
X146.0Y-86.5
X146.0Y-117.5
X146.5Y-69.0
X146.62Y-106.25
X147.0Y-70.5
X147.0Y-72.0
X147.0Y-73.5
X147.0Y-75.0
X147.0Y-76.5
X147.0Y-78.0
X147.0Y-79.5
X147.0Y-81.0
X147.0Y-82.5
X147.0Y-84.0
X147.0Y-85.5
X147.0Y-86.5
X147.0Y-138.0
X147.25Y-110.75
X148.5Y-116.5
X148.5Y-151.0
X148.75Y-123.75
X149.0Y-70.5
X149.0Y-72.0
X149.0Y-73.5
X149.0Y-75.0
X149.0Y-76.5
X149.0Y-78.0
X149.0Y-79.5
X149.0Y-81.0
X149.0Y-82.5
X149.0Y-84.0
X149.0Y-85.5
X149.0Y-86.5
X149.25Y-111.0
X149.45Y-115.819
X149.5Y-69.0
X149.5Y-124.5
X150.0Y-71.25
X150.0Y-86.5
X150.0Y-104.0
X150.25Y-125.25
X150.5Y-68.0
X150.5Y-70.0
X150.5Y-106.5
X151.0Y-84.0
X151.0Y-85.5
X151.0Y-86.5
X151.25Y-112.5
X151.5Y-100.55
X151.5Y-121.25
X152.0Y-86.5
X152.0Y-108.0
X152.0Y-111.5
X152.25Y-122.0
X153.0Y-84.0
X153.0Y-85.5
X153.0Y-86.5
X153.0Y-122.75
X153.0Y-131.5
X153.5Y-137.5
X154.0Y-86.5
X154.0Y-101.5
X154.0Y-103.5
X154.5Y-108.0
X154.5Y-141.5
X155.0Y-71.25
X155.0Y-96.0
X155.25Y-115.75
X155.4Y-148.2
X156.0Y-69.0
X156.0Y-70.5
X156.0Y-72.0
X156.0Y-73.5
X156.0Y-75.0
X156.0Y-76.5
X156.0Y-78.0
X156.0Y-79.5
X156.0Y-81.0
X156.0Y-82.5
X156.0Y-84.5
X156.0Y-86.5
X156.0Y-100.0
X156.0Y-103.5
X156.0Y-152.0
X156.25Y-147.0
X157.0Y-123.0
X158.0Y-96.0
X159.0Y-146.0
X159.0Y-149.0
X159.0Y-152.0
X160.0Y-143.0
X160.95Y-101.5
X161.0Y-96.0
X163.0Y-142.0
X163.45Y-102.0
X164.0Y-96.0
X166.0Y-142.0
X167.0Y-96.0
X168.5Y-100.0
X168.5Y-103.5
X169.0Y-98.0
X169.0Y-102.0
X169.0Y-105.0
X169.0Y-108.0
X169.0Y-111.0
X169.0Y-114.0
X169.0Y-117.0
X169.0Y-120.0
X169.0Y-123.0
X169.0Y-126.0
X169.0Y-129.0
X169.0Y-132.0
X169.0Y-135.0
X169.0Y-138.0
X169.0Y-141.0
T2
X115.5Y-132.42
X115.5Y-142.58
X120.5Y-133.5
X120.5Y-142.0
X123.0Y-133.5
X123.0Y-142.0
T3
X85.5Y-139.0
X89.0Y-134.0
X92.5Y-139.0
X96.0Y-134.0
X99.5Y-139.0
X103.0Y-134.0
X106.5Y-139.0
X110.0Y-134.0
T4
X134.76Y-134.0
X134.76Y-136.54
X134.76Y-139.08
X134.76Y-141.62
X134.76Y-144.16
X134.76Y-146.7
X134.76Y-149.24
X150.0Y-134.0
X150.0Y-136.54
X150.0Y-139.08
X150.0Y-141.62
X150.0Y-144.16
X150.0Y-146.7
X150.0Y-149.24
T5
X104.11Y-82.46
X104.11Y-85.0
X104.11Y-87.54
X126.055Y-82.46
X126.055Y-85.0
X126.055Y-87.54
T6
X72.68Y-73.0
X72.68Y-78.5
X72.68Y-84.0
X72.68Y-89.5
X93.0Y-73.0
X93.0Y-78.5
X93.0Y-84.0
X93.0Y-89.5
T7
X84.54Y-62.7
X89.62Y-62.7
T8
X97.08Y-63.0
X102.08Y-63.0
X107.08Y-63.0
X112.08Y-63.0
X119.08Y-63.0
X124.08Y-63.0
X129.08Y-63.0
X134.08Y-63.0
T9
X143.0Y-59.897
X143.0Y-70.057
X153.16Y-59.897
X153.16Y-70.057
T0
M30
