%TF.GenerationSoftware,KiCad,Pcbnew,7.0.2*%
%TF.CreationDate,2023-06-09T00:35:45-07:00*%
%TF.ProjectId,Thyristor_Control_Board,54687972-6973-4746-9f72-5f436f6e7472,A*%
%TF.SameCoordinates,Original*%
%TF.FileFunction,Copper,L3,Inr*%
%TF.FilePolarity,Positive*%
%FSLAX46Y46*%
G04 Gerber Fmt 4.6, Leading zero omitted, Abs format (unit mm)*
G04 Created by KiCad (PCBNEW 7.0.2) date 2023-06-09 00:35:45*
%MOMM*%
%LPD*%
G01*
G04 APERTURE LIST*
%TA.AperFunction,ComponentPad*%
%ADD10C,2.032000*%
%TD*%
%TA.AperFunction,ComponentPad*%
%ADD11C,1.600000*%
%TD*%
%TA.AperFunction,ComponentPad*%
%ADD12O,1.600000X1.600000*%
%TD*%
%TA.AperFunction,ComponentPad*%
%ADD13R,2.000000X1.905000*%
%TD*%
%TA.AperFunction,ComponentPad*%
%ADD14O,2.000000X1.905000*%
%TD*%
%TA.AperFunction,ComponentPad*%
%ADD15C,2.400000*%
%TD*%
%TA.AperFunction,ComponentPad*%
%ADD16O,2.400000X2.400000*%
%TD*%
%TA.AperFunction,ComponentPad*%
%ADD17R,1.600000X1.600000*%
%TD*%
%TA.AperFunction,ComponentPad*%
%ADD18C,1.908048*%
%TD*%
%TA.AperFunction,ComponentPad*%
%ADD19C,1.800000*%
%TD*%
%TA.AperFunction,ComponentPad*%
%ADD20C,1.498600*%
%TD*%
%TA.AperFunction,ComponentPad*%
%ADD21C,3.000000*%
%TD*%
%TA.AperFunction,ViaPad*%
%ADD22C,0.800000*%
%TD*%
%TA.AperFunction,Conductor*%
%ADD23C,1.000000*%
%TD*%
%TA.AperFunction,Conductor*%
%ADD24C,0.250000*%
%TD*%
%TA.AperFunction,Conductor*%
%ADD25C,2.000000*%
%TD*%
%TA.AperFunction,Conductor*%
%ADD26C,3.000000*%
%TD*%
G04 APERTURE END LIST*
D10*
X134080000Y-63000000D03*
X129080000Y-63000000D03*
X124080000Y-63000000D03*
X119080000Y-63000000D03*
D11*
X115500000Y-142580000D03*
D12*
X115500000Y-132420000D03*
D10*
X112080000Y-62999999D03*
X107080000Y-62999999D03*
X102080000Y-62999999D03*
X97080000Y-62999999D03*
D13*
X104110000Y-82460000D03*
D14*
X104110000Y-85000000D03*
X104110000Y-87540000D03*
D13*
X126055000Y-82460000D03*
D14*
X126055000Y-85000000D03*
X126055000Y-87540000D03*
D15*
X72680000Y-78500000D03*
D16*
X93000000Y-78500000D03*
D17*
X120500000Y-142000000D03*
D11*
X123000000Y-142000000D03*
D18*
X89620000Y-62700000D03*
X84540000Y-62700000D03*
D17*
X120500000Y-133500000D03*
D11*
X123000000Y-133500000D03*
D19*
X150000000Y-149240000D03*
X150000000Y-146700000D03*
X150000000Y-144160000D03*
X150000000Y-141620000D03*
X150000000Y-139080000D03*
X150000000Y-136540000D03*
X150000000Y-134000000D03*
X134760000Y-134000000D03*
X134760000Y-136540000D03*
X134760000Y-139080000D03*
X134760000Y-141620000D03*
X134760000Y-144160000D03*
X134760000Y-146700000D03*
X134760000Y-149240000D03*
D20*
X85499994Y-139000000D03*
X88999995Y-134000000D03*
X92499995Y-139000000D03*
X95999996Y-134000000D03*
X99499996Y-139000000D03*
X102999997Y-134000000D03*
X106500000Y-139000000D03*
X110000001Y-134000000D03*
D15*
X72680000Y-84000000D03*
D16*
X93000000Y-84000000D03*
D21*
X153160000Y-70056701D03*
X153160000Y-59896701D03*
X143000000Y-70056701D03*
X143000000Y-59896701D03*
D15*
X93000000Y-89500000D03*
D16*
X72680000Y-89500000D03*
D15*
X72680000Y-73000000D03*
D16*
X93000000Y-73000000D03*
D22*
X153000000Y-131500000D03*
X154500000Y-141500000D03*
X141500000Y-130000000D03*
X141500000Y-124500000D03*
X144000000Y-124500000D03*
X144000000Y-130000000D03*
X152000000Y-111500000D03*
X143000000Y-108000000D03*
X133000000Y-128000000D03*
X133000000Y-124500000D03*
X138500000Y-130000000D03*
X85500000Y-118000000D03*
X138500000Y-124500000D03*
X84250000Y-112750000D03*
X83000000Y-112750000D03*
X136500000Y-124500000D03*
X136500000Y-128000000D03*
X81500000Y-118000000D03*
X87000000Y-118000000D03*
X126500000Y-144000000D03*
X79250000Y-119500000D03*
X150500000Y-106500000D03*
X84000000Y-116000000D03*
X152000000Y-108000000D03*
X145987701Y-109275500D03*
X146620500Y-106250000D03*
X126500000Y-143000000D03*
X156250000Y-147000000D03*
X125500000Y-143500000D03*
X80000000Y-118000000D03*
X86500000Y-115500000D03*
X116500000Y-115550000D03*
X81000000Y-152000000D03*
X145700000Y-104000000D03*
X82750000Y-116500000D03*
X128000000Y-140500000D03*
X140500000Y-143000000D03*
X169000000Y-138000000D03*
X115500000Y-129500000D03*
X98000000Y-140500000D03*
X169000000Y-102000000D03*
X97500000Y-139000000D03*
X71000000Y-118000000D03*
X91436000Y-131100000D03*
X159000000Y-146000000D03*
X74000000Y-142000000D03*
X120750000Y-145750000D03*
X157000000Y-123000000D03*
X147000000Y-138000000D03*
X118500000Y-138000000D03*
X80000000Y-143000000D03*
X105000000Y-111000000D03*
X166000000Y-142000000D03*
X91000000Y-118000000D03*
X156000000Y-100000000D03*
X117000000Y-149500000D03*
X169000000Y-126000000D03*
X87880000Y-129270000D03*
X123000000Y-122250000D03*
X141000000Y-98000000D03*
X141000000Y-101000000D03*
X134000000Y-111000000D03*
X141000000Y-104000000D03*
X134750000Y-128000000D03*
X169000000Y-105000000D03*
X92450000Y-115550000D03*
X169000000Y-117000000D03*
X71000000Y-127000000D03*
X154500000Y-108000000D03*
X71000000Y-139000000D03*
X140000000Y-107000000D03*
X89000000Y-111000000D03*
X88000000Y-125000000D03*
X169000000Y-123000000D03*
X156000000Y-152000000D03*
X143700000Y-112568750D03*
X114250000Y-112500000D03*
X169000000Y-129000000D03*
X158000000Y-96000000D03*
X87880000Y-131100000D03*
X84000000Y-140500000D03*
X149450000Y-115818750D03*
X92000000Y-111000000D03*
X123000000Y-111000000D03*
X109000000Y-152000000D03*
X116500000Y-120750000D03*
X87000000Y-140500000D03*
X169000000Y-114000000D03*
X80775500Y-114500000D03*
X120000000Y-152000000D03*
X94992000Y-129258000D03*
X145000000Y-152000000D03*
X105660000Y-129224500D03*
X129000000Y-128000000D03*
X169000000Y-135000000D03*
X154000000Y-103500000D03*
X161000000Y-96000000D03*
X113000000Y-138000000D03*
X160000000Y-143000000D03*
X71000000Y-136000000D03*
X169000000Y-108000000D03*
X84000000Y-152000000D03*
X159000000Y-149000000D03*
X77000000Y-142000000D03*
X144725000Y-102275000D03*
X169000000Y-132000000D03*
X129000000Y-137500000D03*
X131000000Y-111000000D03*
X128000000Y-145500000D03*
X76000000Y-111000000D03*
X116500000Y-117500000D03*
X87000000Y-137500000D03*
X94992000Y-131100000D03*
X163000000Y-142000000D03*
X95000000Y-117500000D03*
X71000000Y-112000000D03*
X136500000Y-117000000D03*
X98500000Y-115750000D03*
X169000000Y-111000000D03*
X169000000Y-98000000D03*
X155400000Y-148200000D03*
X81000000Y-146000000D03*
X112000000Y-111000000D03*
X71000000Y-133000000D03*
X71000000Y-142000000D03*
X102100000Y-131100000D03*
X150000000Y-104000000D03*
X71000000Y-130000000D03*
X83500000Y-139000000D03*
X137000000Y-109000000D03*
X169000000Y-120000000D03*
X142500000Y-149000000D03*
X153500000Y-137500000D03*
X143300000Y-115568750D03*
X88000000Y-122250000D03*
X71000000Y-121000000D03*
X146000000Y-117500000D03*
X102000000Y-111000000D03*
X156000000Y-103500000D03*
X84000000Y-137500000D03*
X123750000Y-148750000D03*
X87500000Y-139000000D03*
X145950000Y-115568750D03*
X155250000Y-115750000D03*
X155000000Y-96000000D03*
X95000000Y-115550000D03*
X101000000Y-137500000D03*
X81000000Y-149000000D03*
X142500000Y-97750000D03*
X120000000Y-115750000D03*
X168500000Y-103500000D03*
X130200000Y-140500000D03*
X92750000Y-112500000D03*
X167000000Y-96000000D03*
X128270000Y-114250000D03*
X91436000Y-129314000D03*
X101000000Y-140500000D03*
X169000000Y-141000000D03*
X71000000Y-124000000D03*
X101500000Y-139000000D03*
X134750000Y-124500000D03*
X109000000Y-111000000D03*
X137000000Y-149000000D03*
X113950000Y-115550000D03*
X79000000Y-111000000D03*
X71000000Y-115000000D03*
X106250000Y-114250000D03*
X102104000Y-129200000D03*
X105660000Y-131100000D03*
X159000000Y-152000000D03*
X98000000Y-137500000D03*
X73000000Y-111000000D03*
X121250000Y-126750000D03*
X168500000Y-100000000D03*
X130200000Y-145500000D03*
X107400000Y-136900000D03*
X164000000Y-96000000D03*
X124000000Y-145250000D03*
X163450000Y-102000000D03*
X151500000Y-100550000D03*
X151250000Y-112500000D03*
X121750000Y-112500000D03*
X131000000Y-120750000D03*
X149250000Y-111000000D03*
X129750000Y-122250000D03*
X154000000Y-101500000D03*
X149500000Y-124500000D03*
X118000000Y-111000000D03*
X106000000Y-123750000D03*
X119250000Y-111000000D03*
X123500000Y-146000000D03*
X125250000Y-122250000D03*
X152250000Y-122000000D03*
X103500000Y-120750000D03*
X100250000Y-112000000D03*
X126750000Y-120750000D03*
X151500000Y-121250000D03*
X125500000Y-148500000D03*
X148750000Y-123750000D03*
X104750000Y-123750000D03*
X96500000Y-111000000D03*
X150250000Y-125250000D03*
X97750000Y-111000000D03*
X153000000Y-122750000D03*
X123500000Y-147000000D03*
X104750000Y-120750000D03*
X160950000Y-101500000D03*
X147250000Y-110750000D03*
X103500000Y-123750000D03*
X106000000Y-120750000D03*
X126750000Y-145250000D03*
X148500000Y-116500000D03*
X104000000Y-128500000D03*
X143500000Y-114500000D03*
X150000000Y-86500000D03*
X153000000Y-85500000D03*
X149000000Y-78000000D03*
X156000000Y-84500000D03*
X151000000Y-85500000D03*
X149000000Y-76500000D03*
X149000000Y-82500000D03*
X156000000Y-82500000D03*
X153000000Y-86500000D03*
X156000000Y-81000000D03*
X150500000Y-68000000D03*
X156000000Y-86500000D03*
X149000000Y-73500000D03*
X149000000Y-81000000D03*
X151000000Y-86500000D03*
X156000000Y-76500000D03*
X149000000Y-75000000D03*
X150000000Y-71250000D03*
X156000000Y-79500000D03*
X156000000Y-78000000D03*
X149000000Y-72000000D03*
X156000000Y-72000000D03*
X150500000Y-70000000D03*
X151000000Y-84000000D03*
X156000000Y-75000000D03*
X155000000Y-71250000D03*
X156000000Y-70500000D03*
X156000000Y-73500000D03*
X152000000Y-86500000D03*
X149500000Y-69000000D03*
X149000000Y-84000000D03*
X154000000Y-86500000D03*
X149000000Y-86500000D03*
X149000000Y-79500000D03*
X149000000Y-85500000D03*
X153000000Y-84000000D03*
X156000000Y-69000000D03*
X149000000Y-70500000D03*
X140000000Y-84500000D03*
X140000000Y-72000000D03*
X145000000Y-86500000D03*
X147000000Y-79500000D03*
X143000000Y-86500000D03*
X147000000Y-78000000D03*
X140000000Y-82500000D03*
X145000000Y-85500000D03*
X140000000Y-86500000D03*
X145500000Y-70000000D03*
X142000000Y-86500000D03*
X140000000Y-79500000D03*
X143000000Y-85500000D03*
X144000000Y-86500000D03*
X141000000Y-71250000D03*
X146500000Y-69000000D03*
X147000000Y-76500000D03*
X145000000Y-84000000D03*
X143000000Y-84000000D03*
X147000000Y-70500000D03*
X140000000Y-69000000D03*
X140000000Y-75000000D03*
X147000000Y-82500000D03*
X147000000Y-84000000D03*
X147000000Y-73500000D03*
X146000000Y-86500000D03*
X147000000Y-85500000D03*
X140000000Y-70500000D03*
X145500000Y-68000000D03*
X146000000Y-71250000D03*
X140000000Y-73500000D03*
X147000000Y-75000000D03*
X140000000Y-81000000D03*
X147000000Y-81000000D03*
X140000000Y-78000000D03*
X147000000Y-86500000D03*
X147000000Y-72000000D03*
X140000000Y-76500000D03*
X103750000Y-100500000D03*
X125750000Y-100500000D03*
X145500000Y-149000000D03*
X122000000Y-151500000D03*
X114000000Y-114500000D03*
X119250000Y-116500000D03*
X84500000Y-73000000D03*
X80000000Y-92500000D03*
X148500000Y-151000000D03*
X137000000Y-137000000D03*
X92500000Y-114500000D03*
X97500000Y-116500000D03*
X83000000Y-99000000D03*
D23*
X156250000Y-128250000D02*
X149000000Y-121000000D01*
X86000000Y-116000000D02*
X86500000Y-115500000D01*
X126500000Y-143000000D02*
X126000000Y-143000000D01*
X126500000Y-129000000D02*
X123500000Y-126000000D01*
X139000000Y-110500000D02*
X132000000Y-117500000D01*
X84000000Y-117055635D02*
X81930635Y-119125000D01*
X84000000Y-116000000D02*
X84000000Y-117055635D01*
X126000000Y-143000000D02*
X125500000Y-143500000D01*
X156250000Y-147000000D02*
X156250000Y-128250000D01*
X135500000Y-121000000D02*
X132000000Y-117500000D01*
X149000000Y-121000000D02*
X135500000Y-121000000D01*
X81930635Y-119125000D02*
X79625000Y-119125000D01*
X80000000Y-118750000D02*
X80000000Y-118000000D01*
X84000000Y-116000000D02*
X86000000Y-116000000D01*
X80000000Y-118750000D02*
X79250000Y-119500000D01*
X123500000Y-126000000D02*
X119500000Y-122000000D01*
X144763201Y-110500000D02*
X139000000Y-110500000D01*
X132000000Y-117500000D02*
X123500000Y-126000000D01*
X146620500Y-106250000D02*
X150250000Y-106250000D01*
X87000000Y-117500000D02*
X85500000Y-116000000D01*
X126500000Y-144000000D02*
X126500000Y-143000000D01*
X87000000Y-118000000D02*
X87000000Y-117500000D01*
X91000000Y-122000000D02*
X87000000Y-118000000D01*
X145987701Y-109275500D02*
X144763201Y-110500000D01*
X119500000Y-122000000D02*
X91000000Y-122000000D01*
X126000000Y-144000000D02*
X125500000Y-143500000D01*
X85500000Y-116000000D02*
X84000000Y-116000000D01*
X145987701Y-109275500D02*
X145987701Y-106882799D01*
X126500000Y-144000000D02*
X126000000Y-144000000D01*
X150500000Y-106500000D02*
X152000000Y-108000000D01*
X145987701Y-106882799D02*
X146620500Y-106250000D01*
X79625000Y-119125000D02*
X80000000Y-118750000D01*
X126500000Y-143000000D02*
X126500000Y-129000000D01*
X150250000Y-106250000D02*
X150500000Y-106500000D01*
D24*
X120500000Y-152500000D02*
X124500000Y-152500000D01*
D23*
X169000000Y-142000000D02*
X169000000Y-141000000D01*
X159000000Y-144000000D02*
X160000000Y-143000000D01*
X163000000Y-142000000D02*
X166000000Y-142000000D01*
X112000000Y-111000000D02*
X116000000Y-111000000D01*
X111900000Y-110900000D02*
X100000000Y-110900000D01*
X169000000Y-98000000D02*
X169000000Y-96000000D01*
D24*
X124500000Y-152500000D02*
X125000000Y-152000000D01*
D23*
X160000000Y-143000000D02*
X161000000Y-142000000D01*
D24*
X116000000Y-111000000D02*
X116000000Y-110125000D01*
X100000000Y-110125000D02*
X100000000Y-110900000D01*
D23*
X158900000Y-152100000D02*
X159000000Y-152000000D01*
X92000000Y-111000000D02*
X71000000Y-111000000D01*
X81000000Y-152000000D02*
X120000000Y-152000000D01*
D24*
X94500000Y-111000000D02*
X94500000Y-110125000D01*
D23*
X112000000Y-111000000D02*
X111900000Y-110900000D01*
X161000000Y-142000000D02*
X163000000Y-142000000D01*
X133000000Y-111000000D02*
X121000000Y-111000000D01*
X159000000Y-152000000D02*
X159000000Y-146000000D01*
X140500000Y-105500000D02*
X133000000Y-111000000D01*
X71000000Y-142000000D02*
X77000000Y-142000000D01*
X81000000Y-144000000D02*
X81000000Y-146000000D01*
X92000000Y-111000000D02*
X94500000Y-111000000D01*
X140500000Y-96000000D02*
X140500000Y-105500000D01*
D24*
X120000000Y-152000000D02*
X120500000Y-152500000D01*
D23*
X145000000Y-152000000D02*
X125000000Y-152000000D01*
X81000000Y-146000000D02*
X81000000Y-152000000D01*
X145100000Y-152100000D02*
X158900000Y-152100000D01*
X155000000Y-96000000D02*
X140500000Y-96000000D01*
D24*
X121000000Y-110125000D02*
X121000000Y-111000000D01*
D23*
X169000000Y-141000000D02*
X169000000Y-98000000D01*
X71000000Y-111000000D02*
X71000000Y-139000000D01*
X166000000Y-142000000D02*
X169000000Y-142000000D01*
X79000000Y-142000000D02*
X80000000Y-143000000D01*
D24*
X116000000Y-110125000D02*
X121000000Y-110125000D01*
X94500000Y-110125000D02*
X100000000Y-110125000D01*
D23*
X80000000Y-143000000D02*
X81000000Y-144000000D01*
X77000000Y-142000000D02*
X79000000Y-142000000D01*
X159000000Y-146000000D02*
X159000000Y-144000000D01*
X145000000Y-152000000D02*
X145100000Y-152100000D01*
X169000000Y-96000000D02*
X155000000Y-96000000D01*
X71000000Y-139000000D02*
X71000000Y-142000000D01*
D25*
X124075000Y-72070000D02*
X124075000Y-62990000D01*
X126050000Y-74045000D02*
X124075000Y-72070000D01*
X126050000Y-82450000D02*
X126050000Y-74045000D01*
X130990000Y-84200000D02*
X130190000Y-85000000D01*
X130190000Y-85000000D02*
X126055000Y-85000000D01*
X130990000Y-84200000D02*
X130990000Y-72200000D01*
X129070000Y-70280000D02*
X129070000Y-63199999D01*
X130990000Y-72200000D02*
X129070000Y-70280000D01*
D26*
X153160000Y-70056701D02*
X153160000Y-59896701D01*
X143000000Y-70000000D02*
X143000000Y-59840000D01*
D25*
X104105000Y-74045000D02*
X102130000Y-72070000D01*
X104105000Y-82450000D02*
X104105000Y-74045000D01*
X102130000Y-72070000D02*
X102130000Y-62990000D01*
X108990000Y-84000000D02*
X108990000Y-72000000D01*
X107990000Y-85000000D02*
X108990000Y-84000000D01*
X107070000Y-70080000D02*
X107070000Y-62999999D01*
X104100000Y-85000000D02*
X107990000Y-85000000D01*
X108990000Y-72000000D02*
X107070000Y-70080000D01*
%TA.AperFunction,Conductor*%
G36*
X144023542Y-66019685D02*
G01*
X144033965Y-66027172D01*
X147703462Y-68962770D01*
X147743514Y-69020020D01*
X147750000Y-69059597D01*
X147750000Y-89448637D01*
X147730315Y-89515676D01*
X147713681Y-89536318D01*
X147536319Y-89713681D01*
X147474996Y-89747166D01*
X147448638Y-89750000D01*
X143051362Y-89750000D01*
X142984323Y-89730315D01*
X142963681Y-89713681D01*
X142786319Y-89536318D01*
X142752834Y-89474995D01*
X142750000Y-89448637D01*
X142750000Y-87250000D01*
X142500000Y-87000000D01*
X139301362Y-87000000D01*
X139234323Y-86980315D01*
X139213681Y-86963681D01*
X139036319Y-86786319D01*
X139002834Y-86724996D01*
X139000000Y-86698638D01*
X139000000Y-68558078D01*
X139019685Y-68491039D01*
X139044617Y-68462819D01*
X141965511Y-66028741D01*
X142029614Y-66000945D01*
X142044894Y-66000000D01*
X143956503Y-66000000D01*
X144023542Y-66019685D01*
G37*
%TD.AperFunction*%
%TA.AperFunction,Conductor*%
G36*
X154515677Y-66019685D02*
G01*
X154536319Y-66036319D01*
X156963682Y-68463682D01*
X156997166Y-68525003D01*
X157000000Y-68551361D01*
X157000000Y-86698638D01*
X156980315Y-86765677D01*
X156963681Y-86786319D01*
X156786319Y-86963681D01*
X156724996Y-86997166D01*
X156698638Y-87000000D01*
X153499999Y-87000000D01*
X153250000Y-87249999D01*
X153250000Y-89448638D01*
X153230315Y-89515677D01*
X153213681Y-89536319D01*
X153036319Y-89713681D01*
X152974996Y-89747166D01*
X152948638Y-89750000D01*
X148551362Y-89750000D01*
X148484323Y-89730315D01*
X148463681Y-89713681D01*
X148286319Y-89536318D01*
X148252834Y-89474995D01*
X148250000Y-89448637D01*
X148250000Y-69059597D01*
X148269685Y-68992558D01*
X148296536Y-68962771D01*
X151966034Y-66027171D01*
X152030681Y-66000664D01*
X152043497Y-66000000D01*
X154448638Y-66000000D01*
X154515677Y-66019685D01*
G37*
%TD.AperFunction*%
%TA.AperFunction,Conductor*%
G36*
X168145788Y-96719454D02*
G01*
X168226570Y-96773430D01*
X168280546Y-96854212D01*
X168299500Y-96949500D01*
X168299500Y-99274141D01*
X168280546Y-99369429D01*
X168226570Y-99450211D01*
X168202082Y-99471686D01*
X168071716Y-99571719D01*
X167975465Y-99697156D01*
X167914956Y-99843238D01*
X167894317Y-100000000D01*
X167914956Y-100156761D01*
X167975465Y-100302843D01*
X168071717Y-100428282D01*
X168202081Y-100528313D01*
X168266140Y-100601357D01*
X168297370Y-100693356D01*
X168299500Y-100725858D01*
X168299500Y-102774141D01*
X168280546Y-102869429D01*
X168226570Y-102950211D01*
X168202082Y-102971686D01*
X168071716Y-103071719D01*
X167975465Y-103197156D01*
X167914956Y-103343238D01*
X167894317Y-103500000D01*
X167914956Y-103656761D01*
X167975465Y-103802843D01*
X168071717Y-103928282D01*
X168202081Y-104028313D01*
X168266140Y-104101357D01*
X168297370Y-104193356D01*
X168299500Y-104225858D01*
X168299500Y-141050500D01*
X168280546Y-141145788D01*
X168226570Y-141226570D01*
X168145788Y-141280546D01*
X168050500Y-141299500D01*
X161028699Y-141299500D01*
X161013665Y-141299046D01*
X161003460Y-141298428D01*
X160957394Y-141295642D01*
X160957393Y-141295642D01*
X160957390Y-141295642D01*
X160901927Y-141305805D01*
X160887067Y-141308067D01*
X160830398Y-141314948D01*
X160790736Y-141326004D01*
X160738654Y-141349444D01*
X160724763Y-141355197D01*
X160671388Y-141375439D01*
X160635523Y-141395668D01*
X160590564Y-141430890D01*
X160578455Y-141439800D01*
X160532069Y-141471818D01*
X160494693Y-141514006D01*
X160484387Y-141524955D01*
X159474710Y-142534633D01*
X159474706Y-142534637D01*
X158524955Y-143484386D01*
X158514007Y-143494692D01*
X158471815Y-143532071D01*
X158439788Y-143578469D01*
X158430885Y-143590568D01*
X158419046Y-143605682D01*
X158395667Y-143635523D01*
X158375442Y-143671383D01*
X158355195Y-143724769D01*
X158349441Y-143738660D01*
X158326004Y-143790734D01*
X158314948Y-143830399D01*
X158308066Y-143887072D01*
X158305805Y-143901930D01*
X158295642Y-143957394D01*
X158299046Y-144013664D01*
X158299500Y-144028698D01*
X158299500Y-151150500D01*
X158280546Y-151245788D01*
X158226570Y-151326570D01*
X158145788Y-151380546D01*
X158050500Y-151399500D01*
X156055683Y-151399500D01*
X156023183Y-151397370D01*
X156000000Y-151394318D01*
X155976816Y-151397370D01*
X155944317Y-151399500D01*
X149337017Y-151399500D01*
X149241729Y-151380546D01*
X149160947Y-151326570D01*
X149106971Y-151245788D01*
X149088017Y-151150500D01*
X149090147Y-151117998D01*
X149099034Y-151050500D01*
X149105682Y-151000000D01*
X149085044Y-150843238D01*
X149024536Y-150697159D01*
X149024534Y-150697156D01*
X148928282Y-150571717D01*
X148802843Y-150475465D01*
X148802841Y-150475464D01*
X148656762Y-150414956D01*
X148638524Y-150412554D01*
X148500000Y-150394317D01*
X148343238Y-150414956D01*
X148197156Y-150475465D01*
X148071717Y-150571717D01*
X147975465Y-150697156D01*
X147914956Y-150843238D01*
X147894317Y-150999999D01*
X147909853Y-151117998D01*
X147903499Y-151214945D01*
X147860528Y-151302081D01*
X147787483Y-151366140D01*
X147695485Y-151397370D01*
X147662983Y-151399500D01*
X145437682Y-151399500D01*
X145349382Y-151383318D01*
X145275220Y-151355191D01*
X145261334Y-151349438D01*
X145242967Y-151341173D01*
X145209262Y-151326003D01*
X145169607Y-151314949D01*
X145112933Y-151308067D01*
X145098071Y-151305805D01*
X145042608Y-151295642D01*
X145042606Y-151295642D01*
X145003610Y-151298001D01*
X144986335Y-151299046D01*
X144971301Y-151299500D01*
X124957628Y-151299500D01*
X124831128Y-151314860D01*
X124831126Y-151314860D01*
X124831124Y-151314861D01*
X124672070Y-151375181D01*
X124532071Y-151471815D01*
X124419265Y-151599149D01*
X124340210Y-151749773D01*
X124299500Y-151914945D01*
X124299500Y-151925500D01*
X124280546Y-152020788D01*
X124226570Y-152101570D01*
X124145788Y-152155546D01*
X124050500Y-152174500D01*
X122743244Y-152174500D01*
X122647956Y-152155546D01*
X122567174Y-152101570D01*
X122513198Y-152020788D01*
X122494244Y-151925500D01*
X122513198Y-151830212D01*
X122513198Y-151830211D01*
X122524533Y-151802843D01*
X122524536Y-151802841D01*
X122585044Y-151656762D01*
X122605682Y-151500000D01*
X122585044Y-151343238D01*
X122524536Y-151197159D01*
X122524534Y-151197156D01*
X122428282Y-151071717D01*
X122302843Y-150975465D01*
X122302841Y-150975464D01*
X122156762Y-150914956D01*
X122138524Y-150912554D01*
X122000000Y-150894317D01*
X121843238Y-150914956D01*
X121697156Y-150975465D01*
X121571717Y-151071717D01*
X121475465Y-151197156D01*
X121414956Y-151343238D01*
X121394317Y-151500000D01*
X121407371Y-151599148D01*
X121414956Y-151656762D01*
X121475464Y-151802841D01*
X121475465Y-151802843D01*
X121486802Y-151830211D01*
X121505756Y-151925499D01*
X121486802Y-152020787D01*
X121432826Y-152101569D01*
X121352045Y-152155546D01*
X121256757Y-152174500D01*
X120949500Y-152174500D01*
X120854212Y-152155546D01*
X120773430Y-152101570D01*
X120719454Y-152020788D01*
X120700500Y-151925500D01*
X120700500Y-151914945D01*
X120700500Y-151914944D01*
X120659790Y-151749775D01*
X120580734Y-151599148D01*
X120492897Y-151500000D01*
X120467928Y-151471815D01*
X120327929Y-151375181D01*
X120168875Y-151314861D01*
X120168874Y-151314860D01*
X120168872Y-151314860D01*
X120042372Y-151299500D01*
X120034854Y-151299500D01*
X81949500Y-151299500D01*
X81854212Y-151280546D01*
X81773430Y-151226570D01*
X81719454Y-151145788D01*
X81700500Y-151050500D01*
X81700500Y-149500000D01*
X116394317Y-149500000D01*
X116414956Y-149656761D01*
X116475465Y-149802843D01*
X116571717Y-149928282D01*
X116645087Y-149984580D01*
X116697159Y-150024536D01*
X116843238Y-150085044D01*
X117000000Y-150105682D01*
X117156762Y-150085044D01*
X117302841Y-150024536D01*
X117428282Y-149928282D01*
X117524536Y-149802841D01*
X117585044Y-149656762D01*
X117605682Y-149500000D01*
X117585044Y-149343238D01*
X117524536Y-149197159D01*
X117524534Y-149197156D01*
X117428282Y-149071717D01*
X117302843Y-148975465D01*
X117302841Y-148975464D01*
X117156762Y-148914956D01*
X117138524Y-148912554D01*
X117000000Y-148894317D01*
X116843238Y-148914956D01*
X116697156Y-148975465D01*
X116571717Y-149071717D01*
X116475465Y-149197156D01*
X116414956Y-149343238D01*
X116394317Y-149500000D01*
X81700500Y-149500000D01*
X81700500Y-148749999D01*
X123144317Y-148749999D01*
X123156265Y-148840750D01*
X123164956Y-148906762D01*
X123193414Y-148975465D01*
X123225465Y-149052843D01*
X123321717Y-149178282D01*
X123447156Y-149274534D01*
X123447159Y-149274536D01*
X123593238Y-149335044D01*
X123750000Y-149355682D01*
X123906762Y-149335044D01*
X124052841Y-149274536D01*
X124097849Y-149240000D01*
X133654784Y-149240000D01*
X133673603Y-149443085D01*
X133729417Y-149639249D01*
X133820327Y-149821821D01*
X133943236Y-149984580D01*
X134093958Y-150121981D01*
X134267359Y-150229346D01*
X134267361Y-150229346D01*
X134267363Y-150229348D01*
X134457544Y-150303024D01*
X134457547Y-150303025D01*
X134658022Y-150340500D01*
X134658024Y-150340500D01*
X134861978Y-150340500D01*
X135062452Y-150303025D01*
X135062453Y-150303024D01*
X135062456Y-150303024D01*
X135252637Y-150229348D01*
X135426041Y-150121981D01*
X135576764Y-149984579D01*
X135699673Y-149821821D01*
X135790582Y-149639250D01*
X135846397Y-149443083D01*
X135865215Y-149240000D01*
X135846397Y-149036917D01*
X135835893Y-149000000D01*
X136394317Y-149000000D01*
X136412554Y-149138524D01*
X136414956Y-149156762D01*
X136463739Y-149274534D01*
X136475465Y-149302843D01*
X136571717Y-149428282D01*
X136697156Y-149524534D01*
X136697159Y-149524536D01*
X136843238Y-149585044D01*
X137000000Y-149605682D01*
X137156762Y-149585044D01*
X137302841Y-149524536D01*
X137428282Y-149428282D01*
X137524536Y-149302841D01*
X137585044Y-149156762D01*
X137605682Y-149000000D01*
X141894317Y-149000000D01*
X141912554Y-149138524D01*
X141914956Y-149156762D01*
X141963739Y-149274534D01*
X141975465Y-149302843D01*
X142071717Y-149428282D01*
X142197156Y-149524534D01*
X142197159Y-149524536D01*
X142343238Y-149585044D01*
X142500000Y-149605682D01*
X142656762Y-149585044D01*
X142802841Y-149524536D01*
X142928282Y-149428282D01*
X143024536Y-149302841D01*
X143085044Y-149156762D01*
X143105682Y-149000000D01*
X144894317Y-149000000D01*
X144912554Y-149138524D01*
X144914956Y-149156762D01*
X144963739Y-149274534D01*
X144975465Y-149302843D01*
X145071717Y-149428282D01*
X145197156Y-149524534D01*
X145197159Y-149524536D01*
X145343238Y-149585044D01*
X145500000Y-149605682D01*
X145656762Y-149585044D01*
X145802841Y-149524536D01*
X145928282Y-149428282D01*
X146024536Y-149302841D01*
X146050566Y-149239999D01*
X148894784Y-149239999D01*
X148913603Y-149443085D01*
X148969417Y-149639249D01*
X149060327Y-149821821D01*
X149183236Y-149984580D01*
X149333958Y-150121981D01*
X149507359Y-150229346D01*
X149507361Y-150229346D01*
X149507363Y-150229348D01*
X149697544Y-150303024D01*
X149697547Y-150303025D01*
X149898022Y-150340500D01*
X149898024Y-150340500D01*
X150101978Y-150340500D01*
X150302452Y-150303025D01*
X150302453Y-150303024D01*
X150302456Y-150303024D01*
X150492637Y-150229348D01*
X150666041Y-150121981D01*
X150816764Y-149984579D01*
X150939673Y-149821821D01*
X151030582Y-149639250D01*
X151086397Y-149443083D01*
X151105215Y-149240000D01*
X151086397Y-149036917D01*
X151030582Y-148840750D01*
X150939673Y-148658179D01*
X150822369Y-148502843D01*
X150816763Y-148495419D01*
X150666041Y-148358018D01*
X150492640Y-148250653D01*
X150367531Y-148202186D01*
X150285525Y-148150090D01*
X150229696Y-148070577D01*
X150208546Y-147975752D01*
X150225294Y-147880051D01*
X150277390Y-147798045D01*
X150356903Y-147742216D01*
X150367531Y-147737814D01*
X150369608Y-147737009D01*
X150492637Y-147689348D01*
X150666041Y-147581981D01*
X150816764Y-147444579D01*
X150939673Y-147281821D01*
X151030582Y-147099250D01*
X151086397Y-146903083D01*
X151105215Y-146700000D01*
X151086397Y-146496917D01*
X151030582Y-146300750D01*
X150939673Y-146118179D01*
X150818431Y-145957628D01*
X150816763Y-145955419D01*
X150666041Y-145818018D01*
X150492640Y-145710653D01*
X150367531Y-145662186D01*
X150285525Y-145610090D01*
X150229696Y-145530577D01*
X150208546Y-145435752D01*
X150225294Y-145340051D01*
X150277390Y-145258045D01*
X150356903Y-145202216D01*
X150367531Y-145197814D01*
X150369608Y-145197009D01*
X150492637Y-145149348D01*
X150666041Y-145041981D01*
X150816764Y-144904579D01*
X150939673Y-144741821D01*
X151030582Y-144559250D01*
X151086397Y-144363083D01*
X151105215Y-144160000D01*
X151086397Y-143956917D01*
X151030582Y-143760750D01*
X150939673Y-143578179D01*
X150868844Y-143484386D01*
X150816763Y-143415419D01*
X150666041Y-143278018D01*
X150492640Y-143170653D01*
X150367531Y-143122186D01*
X150285525Y-143070090D01*
X150229696Y-142990577D01*
X150208546Y-142895752D01*
X150225294Y-142800051D01*
X150277390Y-142718045D01*
X150356903Y-142662216D01*
X150367531Y-142657814D01*
X150380383Y-142652835D01*
X150492637Y-142609348D01*
X150666041Y-142501981D01*
X150816764Y-142364579D01*
X150939673Y-142201821D01*
X151030582Y-142019250D01*
X151086397Y-141823083D01*
X151105215Y-141620000D01*
X151086397Y-141416917D01*
X151030582Y-141220750D01*
X150939673Y-141038179D01*
X150892313Y-140975464D01*
X150816763Y-140875419D01*
X150666041Y-140738018D01*
X150492640Y-140630653D01*
X150367531Y-140582186D01*
X150285525Y-140530090D01*
X150229696Y-140450577D01*
X150208546Y-140355752D01*
X150225294Y-140260051D01*
X150277390Y-140178045D01*
X150356903Y-140122216D01*
X150367531Y-140117814D01*
X150369608Y-140117009D01*
X150492637Y-140069348D01*
X150666041Y-139961981D01*
X150694478Y-139936057D01*
X150816763Y-139824580D01*
X150834431Y-139801184D01*
X150939673Y-139661821D01*
X151030582Y-139479250D01*
X151086397Y-139283083D01*
X151105215Y-139080000D01*
X151086397Y-138876917D01*
X151030582Y-138680750D01*
X150939673Y-138498179D01*
X150876825Y-138414955D01*
X150816763Y-138335419D01*
X150666041Y-138198018D01*
X150492640Y-138090653D01*
X150367531Y-138042186D01*
X150285525Y-137990090D01*
X150229696Y-137910577D01*
X150208546Y-137815752D01*
X150225294Y-137720051D01*
X150277390Y-137638045D01*
X150356903Y-137582216D01*
X150367531Y-137577814D01*
X150369608Y-137577009D01*
X150492637Y-137529348D01*
X150540036Y-137500000D01*
X152894317Y-137500000D01*
X152905514Y-137585043D01*
X152914956Y-137656762D01*
X152975464Y-137802841D01*
X152975465Y-137802843D01*
X153071717Y-137928282D01*
X153197156Y-138024534D01*
X153197159Y-138024536D01*
X153343238Y-138085044D01*
X153500000Y-138105682D01*
X153656762Y-138085044D01*
X153802841Y-138024536D01*
X153928282Y-137928282D01*
X154024536Y-137802841D01*
X154085044Y-137656762D01*
X154105682Y-137500000D01*
X154085044Y-137343238D01*
X154024536Y-137197159D01*
X154024534Y-137197156D01*
X153928282Y-137071717D01*
X153802843Y-136975465D01*
X153802841Y-136975464D01*
X153656762Y-136914956D01*
X153638524Y-136912554D01*
X153500000Y-136894317D01*
X153343238Y-136914956D01*
X153197156Y-136975465D01*
X153071717Y-137071717D01*
X152975465Y-137197156D01*
X152914956Y-137343238D01*
X152894317Y-137500000D01*
X150540036Y-137500000D01*
X150666041Y-137421981D01*
X150816764Y-137284579D01*
X150939673Y-137121821D01*
X151030582Y-136939250D01*
X151086397Y-136743083D01*
X151105215Y-136540000D01*
X151086397Y-136336917D01*
X151030582Y-136140750D01*
X150939673Y-135958179D01*
X150899822Y-135905409D01*
X150816763Y-135795419D01*
X150666041Y-135658018D01*
X150492640Y-135550653D01*
X150367531Y-135502186D01*
X150285525Y-135450090D01*
X150229696Y-135370577D01*
X150208546Y-135275752D01*
X150225294Y-135180051D01*
X150277390Y-135098045D01*
X150356903Y-135042216D01*
X150367531Y-135037814D01*
X150369608Y-135037009D01*
X150492637Y-134989348D01*
X150666041Y-134881981D01*
X150816764Y-134744579D01*
X150939673Y-134581821D01*
X151030582Y-134399250D01*
X151086397Y-134203083D01*
X151105215Y-134000000D01*
X151086397Y-133796917D01*
X151030582Y-133600750D01*
X150939673Y-133418179D01*
X150869413Y-133325139D01*
X150816763Y-133255419D01*
X150666041Y-133118018D01*
X150492640Y-133010653D01*
X150302452Y-132936974D01*
X150101978Y-132899500D01*
X150101976Y-132899500D01*
X149898024Y-132899500D01*
X149898022Y-132899500D01*
X149697547Y-132936974D01*
X149507359Y-133010653D01*
X149333958Y-133118018D01*
X149183236Y-133255419D01*
X149060327Y-133418178D01*
X148969417Y-133600750D01*
X148913603Y-133796914D01*
X148894784Y-134000000D01*
X148913603Y-134203085D01*
X148969417Y-134399249D01*
X149060327Y-134581821D01*
X149183236Y-134744580D01*
X149333958Y-134881981D01*
X149507359Y-134989346D01*
X149507361Y-134989346D01*
X149507363Y-134989348D01*
X149573500Y-135014969D01*
X149632468Y-135037814D01*
X149714475Y-135089911D01*
X149770303Y-135169424D01*
X149791453Y-135264249D01*
X149774705Y-135359949D01*
X149722608Y-135441956D01*
X149643095Y-135497784D01*
X149632468Y-135502186D01*
X149507359Y-135550653D01*
X149333958Y-135658018D01*
X149183236Y-135795419D01*
X149060327Y-135958178D01*
X148969417Y-136140750D01*
X148913603Y-136336914D01*
X148894784Y-136540000D01*
X148913603Y-136743085D01*
X148969417Y-136939249D01*
X149060327Y-137121821D01*
X149183236Y-137284580D01*
X149333958Y-137421981D01*
X149507359Y-137529346D01*
X149507361Y-137529346D01*
X149507363Y-137529348D01*
X149573500Y-137554969D01*
X149632468Y-137577814D01*
X149714475Y-137629911D01*
X149770303Y-137709424D01*
X149791453Y-137804249D01*
X149774705Y-137899949D01*
X149722608Y-137981956D01*
X149643095Y-138037784D01*
X149632468Y-138042186D01*
X149507359Y-138090653D01*
X149333958Y-138198018D01*
X149183236Y-138335419D01*
X149060327Y-138498178D01*
X148969417Y-138680750D01*
X148913603Y-138876914D01*
X148894784Y-139080000D01*
X148913603Y-139283085D01*
X148969417Y-139479249D01*
X149060327Y-139661821D01*
X149183236Y-139824580D01*
X149333958Y-139961981D01*
X149507359Y-140069346D01*
X149507361Y-140069346D01*
X149507363Y-140069348D01*
X149566240Y-140092157D01*
X149632468Y-140117814D01*
X149714475Y-140169911D01*
X149770303Y-140249424D01*
X149791453Y-140344249D01*
X149774705Y-140439949D01*
X149722608Y-140521956D01*
X149643095Y-140577784D01*
X149632468Y-140582186D01*
X149507359Y-140630653D01*
X149333958Y-140738018D01*
X149183236Y-140875419D01*
X149060327Y-141038178D01*
X148969417Y-141220750D01*
X148913603Y-141416914D01*
X148894784Y-141620000D01*
X148913603Y-141823085D01*
X148969417Y-142019249D01*
X149060327Y-142201821D01*
X149183236Y-142364580D01*
X149333958Y-142501981D01*
X149507359Y-142609346D01*
X149507361Y-142609346D01*
X149507363Y-142609348D01*
X149547296Y-142624818D01*
X149632468Y-142657814D01*
X149714475Y-142709911D01*
X149770303Y-142789424D01*
X149791453Y-142884249D01*
X149774705Y-142979949D01*
X149722608Y-143061956D01*
X149643095Y-143117784D01*
X149632468Y-143122186D01*
X149507359Y-143170653D01*
X149333958Y-143278018D01*
X149183236Y-143415419D01*
X149060327Y-143578178D01*
X148969417Y-143760750D01*
X148913603Y-143956914D01*
X148894784Y-144159999D01*
X148913603Y-144363085D01*
X148969417Y-144559249D01*
X149060327Y-144741821D01*
X149183236Y-144904580D01*
X149333958Y-145041981D01*
X149507359Y-145149346D01*
X149507361Y-145149346D01*
X149507363Y-145149348D01*
X149573500Y-145174969D01*
X149632468Y-145197814D01*
X149714475Y-145249911D01*
X149770303Y-145329424D01*
X149791453Y-145424249D01*
X149774705Y-145519949D01*
X149722608Y-145601956D01*
X149643095Y-145657784D01*
X149632468Y-145662186D01*
X149507359Y-145710653D01*
X149333958Y-145818018D01*
X149183236Y-145955419D01*
X149060327Y-146118178D01*
X148969417Y-146300750D01*
X148913603Y-146496914D01*
X148894784Y-146699999D01*
X148913603Y-146903085D01*
X148969417Y-147099249D01*
X149060327Y-147281821D01*
X149183236Y-147444580D01*
X149333958Y-147581981D01*
X149507359Y-147689346D01*
X149507361Y-147689346D01*
X149507363Y-147689348D01*
X149536150Y-147700500D01*
X149632468Y-147737814D01*
X149714475Y-147789911D01*
X149770303Y-147869424D01*
X149791453Y-147964249D01*
X149774705Y-148059949D01*
X149722608Y-148141956D01*
X149643095Y-148197784D01*
X149632468Y-148202186D01*
X149507359Y-148250653D01*
X149333958Y-148358018D01*
X149183236Y-148495419D01*
X149060327Y-148658178D01*
X148969417Y-148840750D01*
X148913603Y-149036914D01*
X148894784Y-149239999D01*
X146050566Y-149239999D01*
X146085044Y-149156762D01*
X146105682Y-149000000D01*
X146085044Y-148843238D01*
X146024536Y-148697159D01*
X145994625Y-148658178D01*
X145928282Y-148571717D01*
X145802843Y-148475465D01*
X145802841Y-148475464D01*
X145656762Y-148414956D01*
X145638524Y-148412554D01*
X145500000Y-148394317D01*
X145343238Y-148414956D01*
X145197156Y-148475465D01*
X145071717Y-148571717D01*
X144975465Y-148697156D01*
X144914956Y-148843238D01*
X144894317Y-149000000D01*
X143105682Y-149000000D01*
X143085044Y-148843238D01*
X143024536Y-148697159D01*
X142994625Y-148658178D01*
X142928282Y-148571717D01*
X142802843Y-148475465D01*
X142802841Y-148475464D01*
X142656762Y-148414956D01*
X142638524Y-148412554D01*
X142500000Y-148394317D01*
X142343238Y-148414956D01*
X142197156Y-148475465D01*
X142071717Y-148571717D01*
X141975465Y-148697156D01*
X141914956Y-148843238D01*
X141894317Y-149000000D01*
X137605682Y-149000000D01*
X137585044Y-148843238D01*
X137524536Y-148697159D01*
X137494625Y-148658178D01*
X137428282Y-148571717D01*
X137302843Y-148475465D01*
X137302841Y-148475464D01*
X137156762Y-148414956D01*
X137138524Y-148412554D01*
X137000000Y-148394317D01*
X136843238Y-148414956D01*
X136697156Y-148475465D01*
X136571717Y-148571717D01*
X136475465Y-148697156D01*
X136414956Y-148843238D01*
X136394317Y-149000000D01*
X135835893Y-149000000D01*
X135790582Y-148840750D01*
X135699673Y-148658179D01*
X135582369Y-148502843D01*
X135576763Y-148495419D01*
X135426041Y-148358018D01*
X135252640Y-148250653D01*
X135127531Y-148202186D01*
X135045525Y-148150090D01*
X134989696Y-148070577D01*
X134968546Y-147975752D01*
X134985294Y-147880051D01*
X135037390Y-147798045D01*
X135116903Y-147742216D01*
X135127531Y-147737814D01*
X135129608Y-147737009D01*
X135252637Y-147689348D01*
X135426041Y-147581981D01*
X135576764Y-147444579D01*
X135699673Y-147281821D01*
X135790582Y-147099250D01*
X135846397Y-146903083D01*
X135865215Y-146700000D01*
X135846397Y-146496917D01*
X135790582Y-146300750D01*
X135699673Y-146118179D01*
X135578431Y-145957628D01*
X135576763Y-145955419D01*
X135426041Y-145818018D01*
X135252640Y-145710653D01*
X135127531Y-145662186D01*
X135045525Y-145610090D01*
X134989696Y-145530577D01*
X134968546Y-145435752D01*
X134985294Y-145340051D01*
X135037390Y-145258045D01*
X135116903Y-145202216D01*
X135127531Y-145197814D01*
X135129608Y-145197009D01*
X135252637Y-145149348D01*
X135426041Y-145041981D01*
X135576764Y-144904579D01*
X135699673Y-144741821D01*
X135790582Y-144559250D01*
X135846397Y-144363083D01*
X135865215Y-144160000D01*
X135846397Y-143956917D01*
X135790582Y-143760750D01*
X135699673Y-143578179D01*
X135628844Y-143484386D01*
X135576763Y-143415419D01*
X135426041Y-143278018D01*
X135252640Y-143170653D01*
X135127531Y-143122186D01*
X135045525Y-143070090D01*
X134996312Y-143000000D01*
X139894317Y-143000000D01*
X139912083Y-143134943D01*
X139914956Y-143156762D01*
X139974287Y-143299999D01*
X139975465Y-143302843D01*
X140071717Y-143428282D01*
X140184769Y-143515029D01*
X140197159Y-143524536D01*
X140343238Y-143585044D01*
X140500000Y-143605682D01*
X140656762Y-143585044D01*
X140802841Y-143524536D01*
X140928282Y-143428282D01*
X141024536Y-143302841D01*
X141085044Y-143156762D01*
X141105682Y-143000000D01*
X141085044Y-142843238D01*
X141024536Y-142697159D01*
X141003700Y-142670005D01*
X140928282Y-142571717D01*
X140802843Y-142475465D01*
X140802841Y-142475464D01*
X140656762Y-142414956D01*
X140638524Y-142412554D01*
X140500000Y-142394317D01*
X140343238Y-142414956D01*
X140197156Y-142475465D01*
X140071717Y-142571717D01*
X139975465Y-142697156D01*
X139914956Y-142843238D01*
X139894317Y-143000000D01*
X134996312Y-143000000D01*
X134989696Y-142990577D01*
X134968546Y-142895752D01*
X134985294Y-142800051D01*
X135037390Y-142718045D01*
X135116903Y-142662216D01*
X135127531Y-142657814D01*
X135140383Y-142652835D01*
X135252637Y-142609348D01*
X135426041Y-142501981D01*
X135576764Y-142364579D01*
X135699673Y-142201821D01*
X135790582Y-142019250D01*
X135846397Y-141823083D01*
X135865215Y-141620000D01*
X135846397Y-141416917D01*
X135790582Y-141220750D01*
X135699673Y-141038179D01*
X135652313Y-140975464D01*
X135576763Y-140875419D01*
X135426041Y-140738018D01*
X135252640Y-140630653D01*
X135127531Y-140582186D01*
X135045525Y-140530090D01*
X134989696Y-140450577D01*
X134968546Y-140355752D01*
X134985294Y-140260051D01*
X135037390Y-140178045D01*
X135116903Y-140122216D01*
X135127531Y-140117814D01*
X135129608Y-140117009D01*
X135252637Y-140069348D01*
X135426041Y-139961981D01*
X135454478Y-139936057D01*
X135576763Y-139824580D01*
X135594431Y-139801184D01*
X135699673Y-139661821D01*
X135790582Y-139479250D01*
X135846397Y-139283083D01*
X135865215Y-139080000D01*
X135846397Y-138876917D01*
X135790582Y-138680750D01*
X135699673Y-138498179D01*
X135636825Y-138414955D01*
X135576763Y-138335419D01*
X135426041Y-138198018D01*
X135252640Y-138090653D01*
X135127531Y-138042186D01*
X135061125Y-138000000D01*
X146394317Y-138000000D01*
X146409886Y-138118253D01*
X146414956Y-138156762D01*
X146474777Y-138301182D01*
X146475465Y-138302843D01*
X146571717Y-138428282D01*
X146697156Y-138524534D01*
X146697159Y-138524536D01*
X146843238Y-138585044D01*
X147000000Y-138605682D01*
X147156762Y-138585044D01*
X147302841Y-138524536D01*
X147428282Y-138428282D01*
X147524536Y-138302841D01*
X147585044Y-138156762D01*
X147605682Y-138000000D01*
X147585044Y-137843238D01*
X147524536Y-137697159D01*
X147524534Y-137697156D01*
X147428282Y-137571717D01*
X147302843Y-137475465D01*
X147302841Y-137475464D01*
X147156762Y-137414956D01*
X147138524Y-137412554D01*
X147000000Y-137394317D01*
X146843238Y-137414956D01*
X146697156Y-137475465D01*
X146571717Y-137571717D01*
X146475465Y-137697156D01*
X146414956Y-137843238D01*
X146394317Y-138000000D01*
X135061125Y-138000000D01*
X135045525Y-137990090D01*
X134989696Y-137910577D01*
X134968546Y-137815752D01*
X134985294Y-137720051D01*
X135037390Y-137638045D01*
X135116903Y-137582216D01*
X135127531Y-137577814D01*
X135129608Y-137577009D01*
X135252637Y-137529348D01*
X135426041Y-137421981D01*
X135576764Y-137284579D01*
X135699673Y-137121821D01*
X135760332Y-137000000D01*
X136394317Y-137000000D01*
X136410356Y-137121821D01*
X136414956Y-137156762D01*
X136467900Y-137284579D01*
X136475465Y-137302843D01*
X136571717Y-137428282D01*
X136697156Y-137524534D01*
X136697159Y-137524536D01*
X136843238Y-137585044D01*
X137000000Y-137605682D01*
X137156762Y-137585044D01*
X137302841Y-137524536D01*
X137428282Y-137428282D01*
X137524536Y-137302841D01*
X137585044Y-137156762D01*
X137605682Y-137000000D01*
X137585044Y-136843238D01*
X137524536Y-136697159D01*
X137447804Y-136597159D01*
X137428282Y-136571717D01*
X137302843Y-136475465D01*
X137293795Y-136471717D01*
X137156762Y-136414956D01*
X137138524Y-136412554D01*
X137000000Y-136394317D01*
X136843238Y-136414956D01*
X136697156Y-136475465D01*
X136571717Y-136571717D01*
X136475465Y-136697156D01*
X136414956Y-136843238D01*
X136394317Y-137000000D01*
X135760332Y-137000000D01*
X135790582Y-136939250D01*
X135846397Y-136743083D01*
X135865215Y-136540000D01*
X135846397Y-136336917D01*
X135790582Y-136140750D01*
X135699673Y-135958179D01*
X135659822Y-135905409D01*
X135576763Y-135795419D01*
X135426041Y-135658018D01*
X135252640Y-135550653D01*
X135127531Y-135502186D01*
X135045525Y-135450090D01*
X134989696Y-135370577D01*
X134968546Y-135275752D01*
X134985294Y-135180051D01*
X135037390Y-135098045D01*
X135116903Y-135042216D01*
X135127531Y-135037814D01*
X135129608Y-135037009D01*
X135252637Y-134989348D01*
X135426041Y-134881981D01*
X135576764Y-134744579D01*
X135699673Y-134581821D01*
X135790582Y-134399250D01*
X135846397Y-134203083D01*
X135865215Y-134000000D01*
X135846397Y-133796917D01*
X135790582Y-133600750D01*
X135699673Y-133418179D01*
X135629413Y-133325139D01*
X135576763Y-133255419D01*
X135426041Y-133118018D01*
X135252640Y-133010653D01*
X135062452Y-132936974D01*
X134861978Y-132899500D01*
X134861976Y-132899500D01*
X134658024Y-132899500D01*
X134658022Y-132899500D01*
X134457547Y-132936974D01*
X134267359Y-133010653D01*
X134093958Y-133118018D01*
X133943236Y-133255419D01*
X133820327Y-133418178D01*
X133729417Y-133600750D01*
X133673603Y-133796914D01*
X133654784Y-134000000D01*
X133673603Y-134203085D01*
X133729417Y-134399249D01*
X133820327Y-134581821D01*
X133943236Y-134744580D01*
X134093958Y-134881981D01*
X134267359Y-134989346D01*
X134267361Y-134989346D01*
X134267363Y-134989348D01*
X134333500Y-135014969D01*
X134392468Y-135037814D01*
X134474475Y-135089911D01*
X134530303Y-135169424D01*
X134551453Y-135264249D01*
X134534705Y-135359949D01*
X134482608Y-135441956D01*
X134403095Y-135497784D01*
X134392468Y-135502186D01*
X134267359Y-135550653D01*
X134093958Y-135658018D01*
X133943236Y-135795419D01*
X133820327Y-135958178D01*
X133729417Y-136140750D01*
X133673603Y-136336914D01*
X133654784Y-136539999D01*
X133673603Y-136743085D01*
X133729417Y-136939249D01*
X133820327Y-137121821D01*
X133943236Y-137284580D01*
X134093958Y-137421981D01*
X134267359Y-137529346D01*
X134267361Y-137529346D01*
X134267363Y-137529348D01*
X134333500Y-137554969D01*
X134392468Y-137577814D01*
X134474475Y-137629911D01*
X134530303Y-137709424D01*
X134551453Y-137804249D01*
X134534705Y-137899949D01*
X134482608Y-137981956D01*
X134403095Y-138037784D01*
X134392468Y-138042186D01*
X134267359Y-138090653D01*
X134093958Y-138198018D01*
X133943236Y-138335419D01*
X133820327Y-138498178D01*
X133729417Y-138680750D01*
X133673603Y-138876914D01*
X133654784Y-139079999D01*
X133673603Y-139283085D01*
X133729417Y-139479249D01*
X133820327Y-139661821D01*
X133943236Y-139824580D01*
X134093958Y-139961981D01*
X134267359Y-140069346D01*
X134267361Y-140069346D01*
X134267363Y-140069348D01*
X134326240Y-140092157D01*
X134392468Y-140117814D01*
X134474475Y-140169911D01*
X134530303Y-140249424D01*
X134551453Y-140344249D01*
X134534705Y-140439949D01*
X134482608Y-140521956D01*
X134403095Y-140577784D01*
X134392468Y-140582186D01*
X134267359Y-140630653D01*
X134093958Y-140738018D01*
X133943236Y-140875419D01*
X133820327Y-141038178D01*
X133729417Y-141220750D01*
X133673603Y-141416914D01*
X133654784Y-141619999D01*
X133673603Y-141823085D01*
X133729417Y-142019249D01*
X133820327Y-142201821D01*
X133943236Y-142364580D01*
X134093958Y-142501981D01*
X134267359Y-142609346D01*
X134267361Y-142609346D01*
X134267363Y-142609348D01*
X134307296Y-142624818D01*
X134392468Y-142657814D01*
X134474475Y-142709911D01*
X134530303Y-142789424D01*
X134551453Y-142884249D01*
X134534705Y-142979949D01*
X134482608Y-143061956D01*
X134403095Y-143117784D01*
X134392468Y-143122186D01*
X134267359Y-143170653D01*
X134093958Y-143278018D01*
X133943236Y-143415419D01*
X133820327Y-143578178D01*
X133729417Y-143760750D01*
X133673603Y-143956914D01*
X133654784Y-144160000D01*
X133673603Y-144363085D01*
X133729417Y-144559249D01*
X133820327Y-144741821D01*
X133943236Y-144904580D01*
X134093958Y-145041981D01*
X134267359Y-145149346D01*
X134267361Y-145149346D01*
X134267363Y-145149348D01*
X134333500Y-145174969D01*
X134392468Y-145197814D01*
X134474475Y-145249911D01*
X134530303Y-145329424D01*
X134551453Y-145424249D01*
X134534705Y-145519949D01*
X134482608Y-145601956D01*
X134403095Y-145657784D01*
X134392468Y-145662186D01*
X134267359Y-145710653D01*
X134093958Y-145818018D01*
X133943236Y-145955419D01*
X133820327Y-146118178D01*
X133729417Y-146300750D01*
X133673603Y-146496914D01*
X133654784Y-146700000D01*
X133673603Y-146903085D01*
X133729417Y-147099249D01*
X133820327Y-147281821D01*
X133943236Y-147444580D01*
X134093958Y-147581981D01*
X134267359Y-147689346D01*
X134267361Y-147689346D01*
X134267363Y-147689348D01*
X134296150Y-147700500D01*
X134392468Y-147737814D01*
X134474475Y-147789911D01*
X134530303Y-147869424D01*
X134551453Y-147964249D01*
X134534705Y-148059949D01*
X134482608Y-148141956D01*
X134403095Y-148197784D01*
X134392468Y-148202186D01*
X134267359Y-148250653D01*
X134093958Y-148358018D01*
X133943236Y-148495419D01*
X133820327Y-148658178D01*
X133729417Y-148840750D01*
X133673603Y-149036914D01*
X133654784Y-149240000D01*
X124097849Y-149240000D01*
X124178282Y-149178282D01*
X124274536Y-149052841D01*
X124335044Y-148906762D01*
X124355682Y-148750000D01*
X124335044Y-148593238D01*
X124274536Y-148447159D01*
X124233990Y-148394318D01*
X124178282Y-148321717D01*
X124052843Y-148225465D01*
X124052841Y-148225464D01*
X123906762Y-148164956D01*
X123886122Y-148162238D01*
X123749999Y-148144317D01*
X123593238Y-148164956D01*
X123447156Y-148225465D01*
X123321717Y-148321717D01*
X123225465Y-148447156D01*
X123164956Y-148593238D01*
X123144317Y-148749999D01*
X81700500Y-148749999D01*
X81700500Y-145749999D01*
X120144317Y-145749999D01*
X120162238Y-145886122D01*
X120164956Y-145906762D01*
X120213739Y-146024534D01*
X120225465Y-146052843D01*
X120321717Y-146178282D01*
X120447156Y-146274534D01*
X120447159Y-146274536D01*
X120593238Y-146335044D01*
X120750000Y-146355682D01*
X120906762Y-146335044D01*
X121052841Y-146274536D01*
X121178282Y-146178282D01*
X121274536Y-146052841D01*
X121335044Y-145906762D01*
X121355682Y-145750000D01*
X121335044Y-145593238D01*
X121296423Y-145500000D01*
X127394317Y-145500000D01*
X127412351Y-145636976D01*
X127414956Y-145656762D01*
X127453576Y-145749999D01*
X127475465Y-145802843D01*
X127571717Y-145928282D01*
X127697156Y-146024534D01*
X127697159Y-146024536D01*
X127843238Y-146085044D01*
X128000000Y-146105682D01*
X128156762Y-146085044D01*
X128302841Y-146024536D01*
X128428282Y-145928282D01*
X128524536Y-145802841D01*
X128585044Y-145656762D01*
X128605682Y-145500000D01*
X129594317Y-145500000D01*
X129612351Y-145636976D01*
X129614956Y-145656762D01*
X129653576Y-145749999D01*
X129675465Y-145802843D01*
X129771717Y-145928282D01*
X129897156Y-146024534D01*
X129897159Y-146024536D01*
X130043238Y-146085044D01*
X130200000Y-146105682D01*
X130356762Y-146085044D01*
X130502841Y-146024536D01*
X130628282Y-145928282D01*
X130724536Y-145802841D01*
X130785044Y-145656762D01*
X130805682Y-145500000D01*
X130785044Y-145343238D01*
X130724536Y-145197159D01*
X130699826Y-145164956D01*
X130628282Y-145071717D01*
X130502843Y-144975465D01*
X130502841Y-144975464D01*
X130356762Y-144914956D01*
X130338524Y-144912554D01*
X130200000Y-144894317D01*
X130043238Y-144914956D01*
X129897156Y-144975465D01*
X129771717Y-145071717D01*
X129675465Y-145197156D01*
X129614956Y-145343238D01*
X129594317Y-145500000D01*
X128605682Y-145500000D01*
X128585044Y-145343238D01*
X128524536Y-145197159D01*
X128499826Y-145164956D01*
X128428282Y-145071717D01*
X128302843Y-144975465D01*
X128302841Y-144975464D01*
X128156762Y-144914956D01*
X128138524Y-144912554D01*
X128000000Y-144894317D01*
X127843238Y-144914956D01*
X127697156Y-144975465D01*
X127571717Y-145071717D01*
X127475465Y-145197156D01*
X127414956Y-145343238D01*
X127394317Y-145500000D01*
X121296423Y-145500000D01*
X121274536Y-145447159D01*
X121256957Y-145424249D01*
X121178282Y-145321717D01*
X121052843Y-145225465D01*
X120996715Y-145202216D01*
X120906762Y-145164956D01*
X120886123Y-145162238D01*
X120749999Y-145144317D01*
X120593238Y-145164956D01*
X120447156Y-145225465D01*
X120321717Y-145321717D01*
X120225465Y-145447156D01*
X120164956Y-145593238D01*
X120144317Y-145749999D01*
X81700500Y-145749999D01*
X81700500Y-144028698D01*
X81700954Y-144013664D01*
X81701114Y-144011011D01*
X81704358Y-143957394D01*
X81694190Y-143901912D01*
X81691936Y-143887103D01*
X81685140Y-143831128D01*
X81685138Y-143831124D01*
X81685049Y-143830386D01*
X81673997Y-143790741D01*
X81673695Y-143790069D01*
X81650557Y-143738660D01*
X81644807Y-143724779D01*
X81624818Y-143672070D01*
X81624816Y-143672068D01*
X81624557Y-143671383D01*
X81604334Y-143635526D01*
X81569120Y-143590579D01*
X81560205Y-143578463D01*
X81528184Y-143532072D01*
X81520529Y-143525290D01*
X81485984Y-143494686D01*
X81475049Y-143484393D01*
X80970605Y-142979949D01*
X80570656Y-142579999D01*
X114494658Y-142579999D01*
X114513976Y-142776132D01*
X114571185Y-142964725D01*
X114664091Y-143138541D01*
X114789116Y-143290883D01*
X114941458Y-143415908D01*
X114941462Y-143415910D01*
X115115273Y-143508814D01*
X115303868Y-143566024D01*
X115480682Y-143583438D01*
X115499999Y-143585341D01*
X115499999Y-143585340D01*
X115500000Y-143585341D01*
X115696132Y-143566024D01*
X115884727Y-143508814D01*
X116058538Y-143415910D01*
X116058539Y-143415908D01*
X116058541Y-143415908D01*
X116210883Y-143290883D01*
X116335908Y-143138541D01*
X116335910Y-143138538D01*
X116428814Y-142964727D01*
X116486024Y-142776132D01*
X116505341Y-142580000D01*
X116486024Y-142383868D01*
X116445416Y-142250001D01*
X119199999Y-142250001D01*
X119200000Y-142841156D01*
X119200713Y-142854465D01*
X119206401Y-142907373D01*
X119256647Y-143042090D01*
X119342810Y-143157189D01*
X119457909Y-143243352D01*
X119592626Y-143293598D01*
X119645534Y-143299286D01*
X119658843Y-143300000D01*
X120249999Y-143300000D01*
X120250000Y-143299999D01*
X120250000Y-142315686D01*
X120261955Y-142327641D01*
X120374852Y-142385165D01*
X120468519Y-142400000D01*
X120531481Y-142400000D01*
X120625148Y-142385165D01*
X120738045Y-142327641D01*
X120749999Y-142315687D01*
X120749999Y-143299999D01*
X120750001Y-143300000D01*
X121341157Y-143300000D01*
X121354465Y-143299286D01*
X121407373Y-143293598D01*
X121542090Y-143243352D01*
X121657189Y-143157189D01*
X121743352Y-143042090D01*
X121793598Y-142907373D01*
X121799286Y-142854465D01*
X121800000Y-142841156D01*
X121800000Y-142810800D01*
X121818954Y-142715512D01*
X121872930Y-142634730D01*
X121953712Y-142580754D01*
X122049000Y-142561800D01*
X122144288Y-142580754D01*
X122225070Y-142634730D01*
X122241468Y-142652823D01*
X122289117Y-142710883D01*
X122329461Y-142743993D01*
X122441458Y-142835908D01*
X122455172Y-142843238D01*
X122615273Y-142928814D01*
X122803868Y-142986024D01*
X123000000Y-143005341D01*
X123196132Y-142986024D01*
X123384727Y-142928814D01*
X123558538Y-142835910D01*
X123558539Y-142835908D01*
X123558541Y-142835908D01*
X123710883Y-142710883D01*
X123835908Y-142558541D01*
X123835910Y-142558538D01*
X123928814Y-142384727D01*
X123986024Y-142196132D01*
X124005341Y-142000000D01*
X123986024Y-141803868D01*
X123928814Y-141615273D01*
X123835910Y-141441462D01*
X123835908Y-141441458D01*
X123710883Y-141289116D01*
X123558541Y-141164091D01*
X123384725Y-141071185D01*
X123196132Y-141013976D01*
X123000000Y-140994658D01*
X122803867Y-141013976D01*
X122615274Y-141071185D01*
X122441458Y-141164091D01*
X122289119Y-141289115D01*
X122289117Y-141289117D01*
X122244701Y-141343238D01*
X122241478Y-141347165D01*
X122166376Y-141408799D01*
X122073404Y-141437000D01*
X121976717Y-141427476D01*
X121891034Y-141381677D01*
X121829400Y-141306575D01*
X121801199Y-141213603D01*
X121800000Y-141189199D01*
X121800000Y-141158843D01*
X121799286Y-141145534D01*
X121793598Y-141092626D01*
X121743352Y-140957909D01*
X121657189Y-140842810D01*
X121542090Y-140756647D01*
X121407373Y-140706401D01*
X121354465Y-140700713D01*
X121341157Y-140700000D01*
X120750001Y-140700000D01*
X120749999Y-140700001D01*
X120749999Y-141684313D01*
X120738045Y-141672359D01*
X120625148Y-141614835D01*
X120531481Y-141600000D01*
X120468519Y-141600000D01*
X120374852Y-141614835D01*
X120261955Y-141672359D01*
X120249999Y-141684314D01*
X120250000Y-140700001D01*
X120249999Y-140700000D01*
X119658843Y-140700000D01*
X119645534Y-140700713D01*
X119592626Y-140706401D01*
X119457909Y-140756647D01*
X119342810Y-140842810D01*
X119256647Y-140957909D01*
X119206401Y-141092626D01*
X119200713Y-141145534D01*
X119200000Y-141158843D01*
X119199999Y-141749999D01*
X119200001Y-141750000D01*
X120184314Y-141750000D01*
X120172359Y-141761955D01*
X120114835Y-141874852D01*
X120095014Y-142000000D01*
X120114835Y-142125148D01*
X120172359Y-142238045D01*
X120184314Y-142250000D01*
X119200001Y-142250000D01*
X119199999Y-142250001D01*
X116445416Y-142250001D01*
X116428814Y-142195273D01*
X116335910Y-142021462D01*
X116335908Y-142021458D01*
X116210883Y-141869116D01*
X116058541Y-141744091D01*
X115884725Y-141651185D01*
X115696132Y-141593976D01*
X115500000Y-141574658D01*
X115303867Y-141593976D01*
X115115274Y-141651185D01*
X114941458Y-141744091D01*
X114789116Y-141869116D01*
X114664091Y-142021458D01*
X114571185Y-142195274D01*
X114513976Y-142383867D01*
X114494658Y-142579999D01*
X80570656Y-142579999D01*
X80465367Y-142474710D01*
X80465347Y-142474691D01*
X79515606Y-141524949D01*
X79505296Y-141513996D01*
X79467929Y-141471817D01*
X79421531Y-141439790D01*
X79409430Y-141430886D01*
X79381238Y-141408799D01*
X79364473Y-141395664D01*
X79328620Y-141375443D01*
X79275221Y-141355191D01*
X79261334Y-141349438D01*
X79242967Y-141341173D01*
X79209262Y-141326003D01*
X79169607Y-141314949D01*
X79112933Y-141308067D01*
X79098071Y-141305805D01*
X79042608Y-141295642D01*
X79042606Y-141295642D01*
X79003610Y-141298001D01*
X78986335Y-141299046D01*
X78971301Y-141299500D01*
X71949500Y-141299500D01*
X71854212Y-141280546D01*
X71773430Y-141226570D01*
X71719454Y-141145788D01*
X71700500Y-141050500D01*
X71700500Y-139000000D01*
X82894317Y-139000000D01*
X82904850Y-139079999D01*
X82914956Y-139156762D01*
X82919509Y-139167754D01*
X82975465Y-139302843D01*
X83071717Y-139428282D01*
X83197156Y-139524534D01*
X83197159Y-139524536D01*
X83343238Y-139585044D01*
X83483624Y-139603526D01*
X83575623Y-139634756D01*
X83648668Y-139698814D01*
X83691639Y-139785950D01*
X83697993Y-139882897D01*
X83666763Y-139974896D01*
X83602705Y-140047941D01*
X83571716Y-140071719D01*
X83475465Y-140197156D01*
X83414956Y-140343238D01*
X83394317Y-140500000D01*
X83404558Y-140577784D01*
X83414956Y-140656762D01*
X83448614Y-140738019D01*
X83475465Y-140802843D01*
X83571717Y-140928282D01*
X83697156Y-141024534D01*
X83697159Y-141024536D01*
X83843238Y-141085044D01*
X84000000Y-141105682D01*
X84156762Y-141085044D01*
X84302841Y-141024536D01*
X84428282Y-140928282D01*
X84524536Y-140802841D01*
X84585044Y-140656762D01*
X84605682Y-140500000D01*
X86394317Y-140500000D01*
X86404558Y-140577784D01*
X86414956Y-140656762D01*
X86448614Y-140738019D01*
X86475465Y-140802843D01*
X86571717Y-140928282D01*
X86697156Y-141024534D01*
X86697159Y-141024536D01*
X86843238Y-141085044D01*
X87000000Y-141105682D01*
X87156762Y-141085044D01*
X87302841Y-141024536D01*
X87428282Y-140928282D01*
X87524536Y-140802841D01*
X87585044Y-140656762D01*
X87605682Y-140500000D01*
X87585044Y-140343238D01*
X87524536Y-140197159D01*
X87524534Y-140197156D01*
X87428283Y-140071718D01*
X87397296Y-140047942D01*
X87333237Y-139974898D01*
X87302007Y-139882899D01*
X87308360Y-139785952D01*
X87351330Y-139698816D01*
X87424374Y-139634757D01*
X87516373Y-139603527D01*
X87516374Y-139603526D01*
X87656762Y-139585044D01*
X87802841Y-139524536D01*
X87928282Y-139428282D01*
X88024536Y-139302841D01*
X88085044Y-139156762D01*
X88105682Y-139000000D01*
X88105682Y-138999999D01*
X91545598Y-138999999D01*
X91563937Y-139186193D01*
X91618248Y-139365233D01*
X91706443Y-139530234D01*
X91825134Y-139674860D01*
X91969760Y-139793551D01*
X92103886Y-139865243D01*
X92134763Y-139881747D01*
X92313802Y-139936058D01*
X92481656Y-139952589D01*
X92499994Y-139954396D01*
X92499994Y-139954395D01*
X92499995Y-139954396D01*
X92686188Y-139936058D01*
X92865227Y-139881747D01*
X93030229Y-139793551D01*
X93174855Y-139674860D01*
X93293546Y-139530234D01*
X93381742Y-139365232D01*
X93436053Y-139186193D01*
X93454391Y-139000000D01*
X96894317Y-139000000D01*
X96904850Y-139079999D01*
X96914956Y-139156762D01*
X96919509Y-139167754D01*
X96975465Y-139302843D01*
X97071717Y-139428282D01*
X97197156Y-139524534D01*
X97197159Y-139524536D01*
X97343238Y-139585044D01*
X97483624Y-139603526D01*
X97575623Y-139634756D01*
X97648668Y-139698814D01*
X97691639Y-139785950D01*
X97697993Y-139882897D01*
X97666763Y-139974896D01*
X97602705Y-140047941D01*
X97571716Y-140071719D01*
X97475465Y-140197156D01*
X97414956Y-140343238D01*
X97394317Y-140500000D01*
X97404558Y-140577784D01*
X97414956Y-140656762D01*
X97448614Y-140738019D01*
X97475465Y-140802843D01*
X97571717Y-140928282D01*
X97697156Y-141024534D01*
X97697159Y-141024536D01*
X97843238Y-141085044D01*
X98000000Y-141105682D01*
X98156762Y-141085044D01*
X98302841Y-141024536D01*
X98428282Y-140928282D01*
X98524536Y-140802841D01*
X98585044Y-140656762D01*
X98605682Y-140500000D01*
X100394317Y-140500000D01*
X100404558Y-140577784D01*
X100414956Y-140656762D01*
X100448614Y-140738019D01*
X100475465Y-140802843D01*
X100571717Y-140928282D01*
X100697156Y-141024534D01*
X100697159Y-141024536D01*
X100843238Y-141085044D01*
X101000000Y-141105682D01*
X101156762Y-141085044D01*
X101302841Y-141024536D01*
X101428282Y-140928282D01*
X101524536Y-140802841D01*
X101585044Y-140656762D01*
X101605682Y-140500000D01*
X101585044Y-140343238D01*
X101524536Y-140197159D01*
X101524534Y-140197156D01*
X101428283Y-140071718D01*
X101397296Y-140047942D01*
X101333237Y-139974898D01*
X101302007Y-139882899D01*
X101308360Y-139785952D01*
X101351330Y-139698816D01*
X101424374Y-139634757D01*
X101516373Y-139603527D01*
X101516374Y-139603526D01*
X101656762Y-139585044D01*
X101802841Y-139524536D01*
X101928282Y-139428282D01*
X102024536Y-139302841D01*
X102085044Y-139156762D01*
X102105682Y-139000000D01*
X105545603Y-139000000D01*
X105563942Y-139186193D01*
X105618253Y-139365233D01*
X105706448Y-139530234D01*
X105825139Y-139674860D01*
X105969765Y-139793551D01*
X106103891Y-139865243D01*
X106134768Y-139881747D01*
X106313807Y-139936058D01*
X106500000Y-139954396D01*
X106686193Y-139936058D01*
X106865232Y-139881747D01*
X107030234Y-139793551D01*
X107174860Y-139674860D01*
X107293551Y-139530234D01*
X107381747Y-139365232D01*
X107436058Y-139186193D01*
X107454396Y-139000000D01*
X107436058Y-138813807D01*
X107381747Y-138634768D01*
X107355168Y-138585043D01*
X107293551Y-138469765D01*
X107174860Y-138325139D01*
X107030234Y-138206448D01*
X106865233Y-138118253D01*
X106686193Y-138063942D01*
X106500000Y-138045603D01*
X106313806Y-138063942D01*
X106134766Y-138118253D01*
X105969765Y-138206448D01*
X105825139Y-138325139D01*
X105706448Y-138469765D01*
X105618253Y-138634766D01*
X105563942Y-138813806D01*
X105545603Y-139000000D01*
X102105682Y-139000000D01*
X102085044Y-138843238D01*
X102024536Y-138697159D01*
X101976662Y-138634768D01*
X101928282Y-138571717D01*
X101802843Y-138475465D01*
X101802841Y-138475464D01*
X101656762Y-138414956D01*
X101633608Y-138411907D01*
X101516374Y-138396473D01*
X101424375Y-138365243D01*
X101351330Y-138301184D01*
X101308360Y-138214048D01*
X101302006Y-138117101D01*
X101333236Y-138025102D01*
X101355250Y-138000000D01*
X112394317Y-138000000D01*
X112409886Y-138118253D01*
X112414956Y-138156762D01*
X112474777Y-138301182D01*
X112475465Y-138302843D01*
X112571717Y-138428282D01*
X112697156Y-138524534D01*
X112697159Y-138524536D01*
X112843238Y-138585044D01*
X113000000Y-138605682D01*
X113156762Y-138585044D01*
X113302841Y-138524536D01*
X113428282Y-138428282D01*
X113524536Y-138302841D01*
X113585044Y-138156762D01*
X113605682Y-138000000D01*
X117894317Y-138000000D01*
X117909886Y-138118253D01*
X117914956Y-138156762D01*
X117974777Y-138301182D01*
X117975465Y-138302843D01*
X118071717Y-138428282D01*
X118197156Y-138524534D01*
X118197159Y-138524536D01*
X118343238Y-138585044D01*
X118500000Y-138605682D01*
X118656762Y-138585044D01*
X118802841Y-138524536D01*
X118928282Y-138428282D01*
X119024536Y-138302841D01*
X119085044Y-138156762D01*
X119105682Y-138000000D01*
X119085044Y-137843238D01*
X119024536Y-137697159D01*
X119024534Y-137697156D01*
X118928282Y-137571717D01*
X118802843Y-137475465D01*
X118802841Y-137475464D01*
X118656762Y-137414956D01*
X118638524Y-137412554D01*
X118500000Y-137394317D01*
X118343238Y-137414956D01*
X118197156Y-137475465D01*
X118071717Y-137571717D01*
X117975465Y-137697156D01*
X117914956Y-137843238D01*
X117894317Y-138000000D01*
X113605682Y-138000000D01*
X113585044Y-137843238D01*
X113524536Y-137697159D01*
X113524534Y-137697156D01*
X113428282Y-137571717D01*
X113302843Y-137475465D01*
X113302841Y-137475464D01*
X113156762Y-137414956D01*
X113138524Y-137412554D01*
X113000000Y-137394317D01*
X112843238Y-137414956D01*
X112697156Y-137475465D01*
X112571717Y-137571717D01*
X112475465Y-137697156D01*
X112414956Y-137843238D01*
X112394317Y-138000000D01*
X101355250Y-138000000D01*
X101397289Y-137952063D01*
X101428282Y-137928282D01*
X101524536Y-137802841D01*
X101585044Y-137656762D01*
X101605682Y-137500000D01*
X101585044Y-137343238D01*
X101524536Y-137197159D01*
X101524534Y-137197156D01*
X101428282Y-137071717D01*
X101302843Y-136975465D01*
X101302841Y-136975464D01*
X101156762Y-136914956D01*
X101138524Y-136912554D01*
X101043167Y-136900000D01*
X106794317Y-136900000D01*
X106799485Y-136939250D01*
X106814956Y-137056762D01*
X106875464Y-137202841D01*
X106875465Y-137202843D01*
X106971717Y-137328282D01*
X107084674Y-137414956D01*
X107097159Y-137424536D01*
X107243238Y-137485044D01*
X107400000Y-137505682D01*
X107556762Y-137485044D01*
X107702841Y-137424536D01*
X107828282Y-137328282D01*
X107924536Y-137202841D01*
X107985044Y-137056762D01*
X108005682Y-136900000D01*
X107985044Y-136743238D01*
X107924536Y-136597159D01*
X107924534Y-136597156D01*
X107828282Y-136471717D01*
X107702843Y-136375465D01*
X107609780Y-136336917D01*
X107556762Y-136314956D01*
X107538524Y-136312554D01*
X107400000Y-136294317D01*
X107243238Y-136314956D01*
X107097156Y-136375465D01*
X106971717Y-136471717D01*
X106875465Y-136597156D01*
X106814956Y-136743238D01*
X106794317Y-136900000D01*
X101043167Y-136900000D01*
X101000000Y-136894317D01*
X100843238Y-136914956D01*
X100697156Y-136975465D01*
X100571717Y-137071717D01*
X100475465Y-137197156D01*
X100414956Y-137343238D01*
X100394317Y-137500000D01*
X100405514Y-137585043D01*
X100414956Y-137656762D01*
X100475464Y-137802841D01*
X100475465Y-137802843D01*
X100571717Y-137928282D01*
X100697156Y-138024534D01*
X100697159Y-138024536D01*
X100843238Y-138085044D01*
X100983624Y-138103526D01*
X101075623Y-138134756D01*
X101148668Y-138198814D01*
X101191639Y-138285950D01*
X101197993Y-138382897D01*
X101166763Y-138474896D01*
X101102705Y-138547941D01*
X101071716Y-138571719D01*
X100975465Y-138697157D01*
X100909974Y-138855265D01*
X100855997Y-138936046D01*
X100775215Y-138990022D01*
X100728178Y-138999378D01*
X100752208Y-139001745D01*
X100837891Y-139047543D01*
X100899526Y-139122644D01*
X100909974Y-139144734D01*
X100914955Y-139156761D01*
X100914956Y-139156762D01*
X100919504Y-139167743D01*
X100975465Y-139302843D01*
X101071716Y-139428280D01*
X101071718Y-139428282D01*
X101102704Y-139452058D01*
X101166762Y-139525101D01*
X101197992Y-139617099D01*
X101191639Y-139714046D01*
X101148670Y-139801182D01*
X101075625Y-139865242D01*
X100983627Y-139896472D01*
X100983625Y-139896473D01*
X100843238Y-139914955D01*
X100697156Y-139975465D01*
X100571717Y-140071717D01*
X100475465Y-140197156D01*
X100414956Y-140343238D01*
X100394317Y-140500000D01*
X98605682Y-140500000D01*
X98585044Y-140343238D01*
X98524536Y-140197159D01*
X98511753Y-140180500D01*
X98428282Y-140071717D01*
X98302843Y-139975465D01*
X98302841Y-139975464D01*
X98156762Y-139914956D01*
X98133608Y-139911907D01*
X98016374Y-139896473D01*
X97924375Y-139865243D01*
X97851330Y-139801184D01*
X97808360Y-139714048D01*
X97802006Y-139617101D01*
X97833236Y-139525102D01*
X97897289Y-139452063D01*
X97928282Y-139428282D01*
X98024536Y-139302841D01*
X98085044Y-139156762D01*
X98085044Y-139156759D01*
X98090020Y-139144747D01*
X98143996Y-139063966D01*
X98224777Y-139009989D01*
X98271894Y-139000616D01*
X98271650Y-139000592D01*
X98368115Y-139000592D01*
X98415354Y-139009989D01*
X98496135Y-139063965D01*
X98550112Y-139144746D01*
X98558344Y-139167754D01*
X98618248Y-139365232D01*
X98706444Y-139530234D01*
X98825135Y-139674860D01*
X98969761Y-139793551D01*
X99103887Y-139865243D01*
X99134764Y-139881747D01*
X99313803Y-139936058D01*
X99481657Y-139952589D01*
X99499995Y-139954396D01*
X99499995Y-139954395D01*
X99499996Y-139954396D01*
X99686189Y-139936058D01*
X99865228Y-139881747D01*
X100030230Y-139793551D01*
X100174856Y-139674860D01*
X100293547Y-139530234D01*
X100381743Y-139365232D01*
X100436054Y-139186193D01*
X100436054Y-139186189D01*
X100441650Y-139167743D01*
X100487448Y-139082060D01*
X100562549Y-139020425D01*
X100631829Y-138999408D01*
X100584639Y-138990022D01*
X100503858Y-138936045D01*
X100449882Y-138855263D01*
X100441650Y-138832256D01*
X100436053Y-138813806D01*
X100381743Y-138634768D01*
X100381743Y-138634767D01*
X100293547Y-138469765D01*
X100174856Y-138325139D01*
X100030230Y-138206448D01*
X99865229Y-138118253D01*
X99686189Y-138063942D01*
X99499995Y-138045603D01*
X99313802Y-138063942D01*
X99134762Y-138118253D01*
X98969761Y-138206448D01*
X98825135Y-138325139D01*
X98706444Y-138469765D01*
X98618249Y-138634765D01*
X98558344Y-138832246D01*
X98512545Y-138917929D01*
X98437443Y-138979563D01*
X98368115Y-139000592D01*
X98271650Y-139000592D01*
X98247784Y-138998242D01*
X98162101Y-138952443D01*
X98100467Y-138877341D01*
X98090020Y-138855252D01*
X98080489Y-138832243D01*
X98024536Y-138697159D01*
X98024535Y-138697158D01*
X98024535Y-138697157D01*
X97928283Y-138571718D01*
X97897296Y-138547942D01*
X97833237Y-138474898D01*
X97802007Y-138382899D01*
X97808360Y-138285952D01*
X97851330Y-138198816D01*
X97924374Y-138134757D01*
X98016373Y-138103527D01*
X98016374Y-138103526D01*
X98156762Y-138085044D01*
X98302841Y-138024536D01*
X98428282Y-137928282D01*
X98524536Y-137802841D01*
X98585044Y-137656762D01*
X98605682Y-137500000D01*
X98585044Y-137343238D01*
X98524536Y-137197159D01*
X98524534Y-137197156D01*
X98428282Y-137071717D01*
X98302843Y-136975465D01*
X98302841Y-136975464D01*
X98156762Y-136914956D01*
X98138524Y-136912554D01*
X98000000Y-136894317D01*
X97843238Y-136914956D01*
X97697156Y-136975465D01*
X97571717Y-137071717D01*
X97475465Y-137197156D01*
X97414956Y-137343238D01*
X97394317Y-137500000D01*
X97405514Y-137585043D01*
X97414956Y-137656762D01*
X97475464Y-137802841D01*
X97475465Y-137802843D01*
X97571716Y-137928280D01*
X97571718Y-137928282D01*
X97602704Y-137952058D01*
X97666762Y-138025101D01*
X97697992Y-138117099D01*
X97691639Y-138214046D01*
X97648670Y-138301182D01*
X97575625Y-138365242D01*
X97483627Y-138396472D01*
X97483625Y-138396473D01*
X97343238Y-138414955D01*
X97197156Y-138475465D01*
X97071717Y-138571717D01*
X96975465Y-138697156D01*
X96914956Y-138843238D01*
X96894317Y-139000000D01*
X93454391Y-139000000D01*
X93453408Y-138990024D01*
X93446308Y-138917929D01*
X93436053Y-138813807D01*
X93381742Y-138634768D01*
X93355163Y-138585043D01*
X93293546Y-138469765D01*
X93174855Y-138325139D01*
X93030229Y-138206448D01*
X92865228Y-138118253D01*
X92686188Y-138063942D01*
X92499994Y-138045603D01*
X92313801Y-138063942D01*
X92134761Y-138118253D01*
X91969760Y-138206448D01*
X91825134Y-138325139D01*
X91706443Y-138469765D01*
X91618248Y-138634766D01*
X91563937Y-138813806D01*
X91545598Y-138999999D01*
X88105682Y-138999999D01*
X88085044Y-138843238D01*
X88024536Y-138697159D01*
X87976662Y-138634768D01*
X87928282Y-138571717D01*
X87802843Y-138475465D01*
X87802841Y-138475464D01*
X87656762Y-138414956D01*
X87633608Y-138411907D01*
X87516374Y-138396473D01*
X87424375Y-138365243D01*
X87351330Y-138301184D01*
X87308360Y-138214048D01*
X87302006Y-138117101D01*
X87333236Y-138025102D01*
X87397289Y-137952063D01*
X87428282Y-137928282D01*
X87524536Y-137802841D01*
X87585044Y-137656762D01*
X87605682Y-137500000D01*
X87585044Y-137343238D01*
X87524536Y-137197159D01*
X87524534Y-137197156D01*
X87428282Y-137071717D01*
X87302843Y-136975465D01*
X87302841Y-136975464D01*
X87156762Y-136914956D01*
X87138524Y-136912554D01*
X87000000Y-136894317D01*
X86843238Y-136914956D01*
X86697156Y-136975465D01*
X86571717Y-137071717D01*
X86475465Y-137197156D01*
X86414956Y-137343238D01*
X86394317Y-137500000D01*
X86405514Y-137585043D01*
X86414956Y-137656762D01*
X86475464Y-137802841D01*
X86475465Y-137802843D01*
X86571717Y-137928282D01*
X86697156Y-138024534D01*
X86697159Y-138024536D01*
X86843238Y-138085044D01*
X86983624Y-138103526D01*
X87075623Y-138134756D01*
X87148668Y-138198814D01*
X87191639Y-138285950D01*
X87197993Y-138382897D01*
X87166763Y-138474896D01*
X87102705Y-138547941D01*
X87071716Y-138571719D01*
X86975465Y-138697157D01*
X86909973Y-138855267D01*
X86855996Y-138936048D01*
X86775214Y-138990024D01*
X86728190Y-138999377D01*
X86752207Y-139001743D01*
X86837890Y-139047541D01*
X86899525Y-139122642D01*
X86909973Y-139144732D01*
X86914955Y-139156761D01*
X86914956Y-139156762D01*
X86975464Y-139302841D01*
X86975465Y-139302842D01*
X87071714Y-139428278D01*
X87071718Y-139428282D01*
X87102704Y-139452058D01*
X87166762Y-139525101D01*
X87197992Y-139617099D01*
X87191639Y-139714046D01*
X87148670Y-139801182D01*
X87075625Y-139865242D01*
X86983627Y-139896472D01*
X86983625Y-139896473D01*
X86843238Y-139914955D01*
X86697156Y-139975465D01*
X86571717Y-140071717D01*
X86475465Y-140197156D01*
X86414956Y-140343238D01*
X86394317Y-140500000D01*
X84605682Y-140500000D01*
X84585044Y-140343238D01*
X84524536Y-140197159D01*
X84511753Y-140180500D01*
X84428282Y-140071717D01*
X84302843Y-139975465D01*
X84302841Y-139975464D01*
X84156762Y-139914956D01*
X84133608Y-139911907D01*
X84016374Y-139896473D01*
X83924375Y-139865243D01*
X83851330Y-139801184D01*
X83808360Y-139714048D01*
X83802006Y-139617101D01*
X83833236Y-139525102D01*
X83897289Y-139452063D01*
X83928282Y-139428282D01*
X84024536Y-139302841D01*
X84085044Y-139156762D01*
X84085044Y-139156760D01*
X84090019Y-139144750D01*
X84143995Y-139063968D01*
X84224776Y-139009991D01*
X84271907Y-139000615D01*
X84271684Y-139000593D01*
X84368106Y-139000593D01*
X84415352Y-139009991D01*
X84496134Y-139063967D01*
X84550111Y-139144748D01*
X84558343Y-139167756D01*
X84618247Y-139365233D01*
X84706442Y-139530234D01*
X84825133Y-139674860D01*
X84969759Y-139793551D01*
X85103885Y-139865243D01*
X85134762Y-139881747D01*
X85313801Y-139936058D01*
X85481655Y-139952589D01*
X85499993Y-139954396D01*
X85499993Y-139954395D01*
X85499994Y-139954396D01*
X85686187Y-139936058D01*
X85865226Y-139881747D01*
X86030228Y-139793551D01*
X86174854Y-139674860D01*
X86293545Y-139530234D01*
X86381741Y-139365232D01*
X86436052Y-139186193D01*
X86436052Y-139186191D01*
X86441649Y-139167741D01*
X86487447Y-139082058D01*
X86562548Y-139020423D01*
X86631820Y-138999409D01*
X86584638Y-138990024D01*
X86503857Y-138936047D01*
X86449881Y-138855265D01*
X86441649Y-138832258D01*
X86381741Y-138634767D01*
X86293545Y-138469765D01*
X86174854Y-138325139D01*
X86030228Y-138206448D01*
X85865227Y-138118253D01*
X85686187Y-138063942D01*
X85499993Y-138045603D01*
X85313800Y-138063942D01*
X85134760Y-138118253D01*
X84969759Y-138206448D01*
X84825133Y-138325139D01*
X84706442Y-138469765D01*
X84618247Y-138634767D01*
X84558343Y-138832243D01*
X84512544Y-138917926D01*
X84437442Y-138979561D01*
X84368106Y-139000593D01*
X84271684Y-139000593D01*
X84247784Y-138998240D01*
X84162101Y-138952441D01*
X84100466Y-138877339D01*
X84090019Y-138855250D01*
X84085044Y-138843239D01*
X84085044Y-138843238D01*
X84024536Y-138697159D01*
X84024535Y-138697158D01*
X84024535Y-138697157D01*
X83928283Y-138571718D01*
X83897296Y-138547942D01*
X83833237Y-138474898D01*
X83802007Y-138382899D01*
X83808360Y-138285952D01*
X83851330Y-138198816D01*
X83924374Y-138134757D01*
X84016373Y-138103527D01*
X84016374Y-138103526D01*
X84156762Y-138085044D01*
X84302841Y-138024536D01*
X84428282Y-137928282D01*
X84524536Y-137802841D01*
X84585044Y-137656762D01*
X84605682Y-137500000D01*
X84585044Y-137343238D01*
X84524536Y-137197159D01*
X84524534Y-137197156D01*
X84428282Y-137071717D01*
X84302843Y-136975465D01*
X84302841Y-136975464D01*
X84156762Y-136914956D01*
X84138524Y-136912554D01*
X84000000Y-136894317D01*
X83843238Y-136914956D01*
X83697156Y-136975465D01*
X83571717Y-137071717D01*
X83475465Y-137197156D01*
X83414956Y-137343238D01*
X83394317Y-137500000D01*
X83405514Y-137585043D01*
X83414956Y-137656762D01*
X83475464Y-137802841D01*
X83475465Y-137802843D01*
X83571716Y-137928280D01*
X83571718Y-137928282D01*
X83602704Y-137952058D01*
X83666762Y-138025101D01*
X83697992Y-138117099D01*
X83691639Y-138214046D01*
X83648670Y-138301182D01*
X83575625Y-138365242D01*
X83483627Y-138396472D01*
X83483625Y-138396473D01*
X83343238Y-138414955D01*
X83197156Y-138475465D01*
X83071717Y-138571717D01*
X82975465Y-138697156D01*
X82914956Y-138843238D01*
X82894317Y-139000000D01*
X71700500Y-139000000D01*
X71700500Y-134000000D01*
X88045598Y-134000000D01*
X88063937Y-134186193D01*
X88118248Y-134365233D01*
X88206443Y-134530234D01*
X88325134Y-134674860D01*
X88469760Y-134793551D01*
X88634761Y-134881746D01*
X88634763Y-134881747D01*
X88813802Y-134936058D01*
X88981655Y-134952589D01*
X88999994Y-134954396D01*
X88999994Y-134954395D01*
X88999995Y-134954396D01*
X89186188Y-134936058D01*
X89365227Y-134881747D01*
X89530229Y-134793551D01*
X89674855Y-134674860D01*
X89793546Y-134530234D01*
X89881742Y-134365232D01*
X89936053Y-134186193D01*
X89954391Y-134000000D01*
X95045599Y-134000000D01*
X95063938Y-134186193D01*
X95118249Y-134365233D01*
X95206444Y-134530234D01*
X95325135Y-134674860D01*
X95469761Y-134793551D01*
X95634762Y-134881746D01*
X95634764Y-134881747D01*
X95813803Y-134936058D01*
X95981657Y-134952589D01*
X95999995Y-134954396D01*
X95999995Y-134954395D01*
X95999996Y-134954396D01*
X96186189Y-134936058D01*
X96365228Y-134881747D01*
X96530230Y-134793551D01*
X96674856Y-134674860D01*
X96793547Y-134530234D01*
X96881743Y-134365232D01*
X96936054Y-134186193D01*
X96954392Y-134000000D01*
X102045600Y-134000000D01*
X102063939Y-134186193D01*
X102118250Y-134365233D01*
X102206445Y-134530234D01*
X102325136Y-134674860D01*
X102469762Y-134793551D01*
X102634763Y-134881746D01*
X102634765Y-134881747D01*
X102813804Y-134936058D01*
X102981657Y-134952589D01*
X102999996Y-134954396D01*
X102999996Y-134954395D01*
X102999997Y-134954396D01*
X103186190Y-134936058D01*
X103365229Y-134881747D01*
X103530231Y-134793551D01*
X103674857Y-134674860D01*
X103793548Y-134530234D01*
X103881744Y-134365232D01*
X103936055Y-134186193D01*
X103954393Y-134000000D01*
X103954393Y-133999999D01*
X109045604Y-133999999D01*
X109063943Y-134186193D01*
X109118254Y-134365233D01*
X109206449Y-134530234D01*
X109325140Y-134674860D01*
X109469766Y-134793551D01*
X109634767Y-134881746D01*
X109634769Y-134881747D01*
X109813808Y-134936058D01*
X110000001Y-134954396D01*
X110186194Y-134936058D01*
X110365233Y-134881747D01*
X110530235Y-134793551D01*
X110674861Y-134674860D01*
X110793552Y-134530234D01*
X110881748Y-134365232D01*
X110936059Y-134186193D01*
X110954397Y-134000000D01*
X110936059Y-133813807D01*
X110916704Y-133750001D01*
X119199999Y-133750001D01*
X119200000Y-134341156D01*
X119200713Y-134354465D01*
X119206401Y-134407373D01*
X119256647Y-134542090D01*
X119342810Y-134657189D01*
X119457909Y-134743352D01*
X119592626Y-134793598D01*
X119645534Y-134799286D01*
X119658843Y-134800000D01*
X120249999Y-134800000D01*
X120250000Y-134799999D01*
X120250000Y-133815686D01*
X120261955Y-133827641D01*
X120374852Y-133885165D01*
X120468519Y-133900000D01*
X120531481Y-133900000D01*
X120625148Y-133885165D01*
X120738045Y-133827641D01*
X120749999Y-133815686D01*
X120749999Y-134799999D01*
X120750001Y-134800000D01*
X121341157Y-134800000D01*
X121354465Y-134799286D01*
X121407373Y-134793598D01*
X121542090Y-134743352D01*
X121657189Y-134657189D01*
X121743352Y-134542090D01*
X121793598Y-134407373D01*
X121799286Y-134354465D01*
X121800000Y-134341156D01*
X121800000Y-134310800D01*
X121818954Y-134215512D01*
X121872930Y-134134730D01*
X121953712Y-134080754D01*
X122049000Y-134061800D01*
X122144288Y-134080754D01*
X122225070Y-134134730D01*
X122241468Y-134152823D01*
X122289117Y-134210883D01*
X122329461Y-134243993D01*
X122441458Y-134335908D01*
X122476176Y-134354465D01*
X122615273Y-134428814D01*
X122803868Y-134486024D01*
X123000000Y-134505341D01*
X123196132Y-134486024D01*
X123384727Y-134428814D01*
X123558538Y-134335910D01*
X123558539Y-134335908D01*
X123558541Y-134335908D01*
X123710883Y-134210883D01*
X123835908Y-134058541D01*
X123867199Y-134000000D01*
X123928814Y-133884727D01*
X123986024Y-133696132D01*
X124005341Y-133500000D01*
X123986024Y-133303868D01*
X123928814Y-133115273D01*
X123835910Y-132941462D01*
X123835908Y-132941458D01*
X123710883Y-132789116D01*
X123558541Y-132664091D01*
X123384725Y-132571185D01*
X123196132Y-132513976D01*
X123000000Y-132494658D01*
X122803867Y-132513976D01*
X122615274Y-132571185D01*
X122441458Y-132664091D01*
X122289119Y-132789115D01*
X122241478Y-132847165D01*
X122166376Y-132908799D01*
X122073404Y-132937000D01*
X121976717Y-132927476D01*
X121891034Y-132881677D01*
X121829400Y-132806575D01*
X121801199Y-132713603D01*
X121800000Y-132689199D01*
X121800000Y-132658843D01*
X121799286Y-132645534D01*
X121793598Y-132592626D01*
X121743352Y-132457909D01*
X121657189Y-132342810D01*
X121542090Y-132256647D01*
X121407373Y-132206401D01*
X121354465Y-132200713D01*
X121341157Y-132200000D01*
X120750001Y-132200000D01*
X120749999Y-132200001D01*
X120749999Y-133184313D01*
X120738045Y-133172359D01*
X120625148Y-133114835D01*
X120531481Y-133100000D01*
X120468519Y-133100000D01*
X120374852Y-133114835D01*
X120261955Y-133172359D01*
X120250000Y-133184313D01*
X120250000Y-132200001D01*
X120249999Y-132200000D01*
X119658843Y-132200000D01*
X119645534Y-132200713D01*
X119592626Y-132206401D01*
X119457909Y-132256647D01*
X119342810Y-132342810D01*
X119256647Y-132457909D01*
X119206401Y-132592626D01*
X119200713Y-132645534D01*
X119200000Y-132658843D01*
X119199999Y-133249998D01*
X119200001Y-133250000D01*
X120184314Y-133250000D01*
X120172359Y-133261955D01*
X120114835Y-133374852D01*
X120095014Y-133500000D01*
X120114835Y-133625148D01*
X120172359Y-133738045D01*
X120184314Y-133750000D01*
X119200001Y-133750000D01*
X119199999Y-133750001D01*
X110916704Y-133750001D01*
X110881748Y-133634768D01*
X110863565Y-133600750D01*
X110793552Y-133469765D01*
X110674861Y-133325139D01*
X110530235Y-133206448D01*
X110365234Y-133118253D01*
X110186194Y-133063942D01*
X110000001Y-133045603D01*
X109813807Y-133063942D01*
X109634767Y-133118253D01*
X109469766Y-133206448D01*
X109325140Y-133325139D01*
X109206449Y-133469765D01*
X109118254Y-133634766D01*
X109063943Y-133813806D01*
X109045604Y-133999999D01*
X103954393Y-133999999D01*
X103936055Y-133813807D01*
X103881744Y-133634768D01*
X103863561Y-133600750D01*
X103793548Y-133469765D01*
X103674857Y-133325139D01*
X103530231Y-133206448D01*
X103365230Y-133118253D01*
X103186190Y-133063942D01*
X102999997Y-133045603D01*
X102813803Y-133063942D01*
X102634763Y-133118253D01*
X102469762Y-133206448D01*
X102325136Y-133325139D01*
X102206445Y-133469765D01*
X102118250Y-133634766D01*
X102063939Y-133813806D01*
X102045600Y-134000000D01*
X96954392Y-134000000D01*
X96936054Y-133813807D01*
X96881743Y-133634768D01*
X96863560Y-133600750D01*
X96793547Y-133469765D01*
X96674856Y-133325139D01*
X96530230Y-133206448D01*
X96365229Y-133118253D01*
X96186189Y-133063942D01*
X95999995Y-133045603D01*
X95813802Y-133063942D01*
X95634762Y-133118253D01*
X95469761Y-133206448D01*
X95325135Y-133325139D01*
X95206444Y-133469765D01*
X95118249Y-133634766D01*
X95063938Y-133813806D01*
X95045599Y-134000000D01*
X89954391Y-134000000D01*
X89936053Y-133813807D01*
X89881742Y-133634768D01*
X89863559Y-133600750D01*
X89793546Y-133469765D01*
X89674855Y-133325139D01*
X89530229Y-133206448D01*
X89365228Y-133118253D01*
X89186188Y-133063942D01*
X88999994Y-133045603D01*
X88813801Y-133063942D01*
X88634761Y-133118253D01*
X88469760Y-133206448D01*
X88325134Y-133325139D01*
X88206443Y-133469765D01*
X88118248Y-133634766D01*
X88063937Y-133813806D01*
X88045598Y-134000000D01*
X71700500Y-134000000D01*
X71700500Y-132670000D01*
X114221127Y-132670000D01*
X114273732Y-132866322D01*
X114369866Y-133072484D01*
X114500335Y-133258813D01*
X114661186Y-133419664D01*
X114847515Y-133550133D01*
X115053677Y-133646267D01*
X115249999Y-133698872D01*
X115249999Y-133698871D01*
X115249999Y-132735685D01*
X115261955Y-132747641D01*
X115374852Y-132805165D01*
X115468519Y-132820000D01*
X115531481Y-132820000D01*
X115625148Y-132805165D01*
X115738045Y-132747641D01*
X115749999Y-132735686D01*
X115750000Y-133698872D01*
X115946322Y-133646267D01*
X116152484Y-133550133D01*
X116338813Y-133419664D01*
X116499664Y-133258813D01*
X116630133Y-133072484D01*
X116726267Y-132866322D01*
X116778872Y-132670000D01*
X115815686Y-132670000D01*
X115827641Y-132658045D01*
X115885165Y-132545148D01*
X115904986Y-132420000D01*
X115885165Y-132294852D01*
X115827641Y-132181955D01*
X115815686Y-132170000D01*
X116778872Y-132170000D01*
X116778872Y-132169999D01*
X116726267Y-131973677D01*
X116630133Y-131767515D01*
X116499664Y-131581186D01*
X116338813Y-131420335D01*
X116152486Y-131289867D01*
X115946322Y-131193731D01*
X115750000Y-131141126D01*
X115750000Y-132104313D01*
X115738045Y-132092359D01*
X115625148Y-132034835D01*
X115531481Y-132020000D01*
X115468519Y-132020000D01*
X115374852Y-132034835D01*
X115261955Y-132092359D01*
X115249999Y-132104314D01*
X115250000Y-131141127D01*
X115249999Y-131141126D01*
X115053677Y-131193731D01*
X114847513Y-131289867D01*
X114661186Y-131420335D01*
X114500335Y-131581186D01*
X114369866Y-131767515D01*
X114273732Y-131973677D01*
X114221127Y-132169999D01*
X114221128Y-132170000D01*
X115184314Y-132170000D01*
X115172359Y-132181955D01*
X115114835Y-132294852D01*
X115095014Y-132420000D01*
X115114835Y-132545148D01*
X115172359Y-132658045D01*
X115184314Y-132670000D01*
X114221127Y-132670000D01*
X71700500Y-132670000D01*
X71700500Y-131100000D01*
X87274317Y-131100000D01*
X87294956Y-131256761D01*
X87355465Y-131402843D01*
X87451717Y-131528282D01*
X87577156Y-131624534D01*
X87577159Y-131624536D01*
X87723238Y-131685044D01*
X87880000Y-131705682D01*
X88036762Y-131685044D01*
X88182841Y-131624536D01*
X88308282Y-131528282D01*
X88404536Y-131402841D01*
X88465044Y-131256762D01*
X88485682Y-131100000D01*
X90830317Y-131100000D01*
X90850956Y-131256761D01*
X90911465Y-131402843D01*
X91007717Y-131528282D01*
X91133156Y-131624534D01*
X91133159Y-131624536D01*
X91279238Y-131685044D01*
X91436000Y-131705682D01*
X91592762Y-131685044D01*
X91738841Y-131624536D01*
X91864282Y-131528282D01*
X91960536Y-131402841D01*
X92021044Y-131256762D01*
X92041682Y-131100000D01*
X94386317Y-131100000D01*
X94406956Y-131256761D01*
X94467465Y-131402843D01*
X94563717Y-131528282D01*
X94689156Y-131624534D01*
X94689159Y-131624536D01*
X94835238Y-131685044D01*
X94992000Y-131705682D01*
X95148762Y-131685044D01*
X95294841Y-131624536D01*
X95420282Y-131528282D01*
X95516536Y-131402841D01*
X95577044Y-131256762D01*
X95597682Y-131100000D01*
X101494317Y-131100000D01*
X101514956Y-131256761D01*
X101575465Y-131402843D01*
X101671717Y-131528282D01*
X101797156Y-131624534D01*
X101797159Y-131624536D01*
X101943238Y-131685044D01*
X102100000Y-131705682D01*
X102256762Y-131685044D01*
X102402841Y-131624536D01*
X102528282Y-131528282D01*
X102624536Y-131402841D01*
X102685044Y-131256762D01*
X102705682Y-131100000D01*
X105054317Y-131100000D01*
X105074956Y-131256761D01*
X105135465Y-131402843D01*
X105231717Y-131528282D01*
X105357156Y-131624534D01*
X105357159Y-131624536D01*
X105503238Y-131685044D01*
X105660000Y-131705682D01*
X105816762Y-131685044D01*
X105962841Y-131624536D01*
X106088282Y-131528282D01*
X106184536Y-131402841D01*
X106245044Y-131256762D01*
X106265682Y-131100000D01*
X106245044Y-130943238D01*
X106184536Y-130797159D01*
X106184534Y-130797156D01*
X106088282Y-130671717D01*
X105962843Y-130575465D01*
X105962841Y-130575464D01*
X105816762Y-130514956D01*
X105798524Y-130512554D01*
X105660000Y-130494317D01*
X105503238Y-130514956D01*
X105357156Y-130575465D01*
X105231717Y-130671717D01*
X105135465Y-130797156D01*
X105074956Y-130943238D01*
X105054317Y-131100000D01*
X102705682Y-131100000D01*
X102685044Y-130943238D01*
X102624536Y-130797159D01*
X102624534Y-130797156D01*
X102528282Y-130671717D01*
X102402843Y-130575465D01*
X102402841Y-130575464D01*
X102256762Y-130514956D01*
X102238524Y-130512554D01*
X102100000Y-130494317D01*
X101943238Y-130514956D01*
X101797156Y-130575465D01*
X101671717Y-130671717D01*
X101575465Y-130797156D01*
X101514956Y-130943238D01*
X101494317Y-131100000D01*
X95597682Y-131100000D01*
X95577044Y-130943238D01*
X95516536Y-130797159D01*
X95516534Y-130797156D01*
X95420282Y-130671717D01*
X95294843Y-130575465D01*
X95294841Y-130575464D01*
X95148762Y-130514956D01*
X95130524Y-130512554D01*
X94992000Y-130494317D01*
X94835238Y-130514956D01*
X94689156Y-130575465D01*
X94563717Y-130671717D01*
X94467465Y-130797156D01*
X94406956Y-130943238D01*
X94386317Y-131100000D01*
X92041682Y-131100000D01*
X92021044Y-130943238D01*
X91960536Y-130797159D01*
X91960534Y-130797156D01*
X91864282Y-130671717D01*
X91738843Y-130575465D01*
X91738841Y-130575464D01*
X91592762Y-130514956D01*
X91574524Y-130512554D01*
X91436000Y-130494317D01*
X91279238Y-130514956D01*
X91133156Y-130575465D01*
X91007717Y-130671717D01*
X90911465Y-130797156D01*
X90850956Y-130943238D01*
X90830317Y-131100000D01*
X88485682Y-131100000D01*
X88465044Y-130943238D01*
X88404536Y-130797159D01*
X88404534Y-130797156D01*
X88308282Y-130671717D01*
X88182843Y-130575465D01*
X88182841Y-130575464D01*
X88036762Y-130514956D01*
X88018524Y-130512554D01*
X87880000Y-130494317D01*
X87723238Y-130514956D01*
X87577156Y-130575465D01*
X87451717Y-130671717D01*
X87355465Y-130797156D01*
X87294956Y-130943238D01*
X87274317Y-131100000D01*
X71700500Y-131100000D01*
X71700500Y-129269999D01*
X87274317Y-129269999D01*
X87290685Y-129394318D01*
X87294956Y-129426762D01*
X87354999Y-129571718D01*
X87355465Y-129572843D01*
X87451717Y-129698282D01*
X87577156Y-129794534D01*
X87577159Y-129794536D01*
X87723238Y-129855044D01*
X87880000Y-129875682D01*
X88036762Y-129855044D01*
X88182841Y-129794536D01*
X88308282Y-129698282D01*
X88404536Y-129572841D01*
X88465044Y-129426762D01*
X88479889Y-129313999D01*
X90830317Y-129313999D01*
X90840892Y-129394317D01*
X90850956Y-129470762D01*
X90911464Y-129616841D01*
X90911465Y-129616843D01*
X91007717Y-129742282D01*
X91133156Y-129838534D01*
X91133159Y-129838536D01*
X91279238Y-129899044D01*
X91436000Y-129919682D01*
X91592762Y-129899044D01*
X91738841Y-129838536D01*
X91864282Y-129742282D01*
X91960536Y-129616841D01*
X92021044Y-129470762D01*
X92041682Y-129314000D01*
X92034309Y-129258000D01*
X94386317Y-129258000D01*
X94404554Y-129396524D01*
X94406956Y-129414762D01*
X94453588Y-129527341D01*
X94467465Y-129560843D01*
X94563717Y-129686282D01*
X94689156Y-129782534D01*
X94689159Y-129782536D01*
X94835238Y-129843044D01*
X94992000Y-129863682D01*
X95148762Y-129843044D01*
X95294841Y-129782536D01*
X95420282Y-129686282D01*
X95516536Y-129560841D01*
X95577044Y-129414762D01*
X95597682Y-129258000D01*
X95590046Y-129200000D01*
X101498317Y-129200000D01*
X101510187Y-129290157D01*
X101518956Y-129356762D01*
X101578287Y-129500000D01*
X101579465Y-129502843D01*
X101675717Y-129628282D01*
X101801156Y-129724534D01*
X101801159Y-129724536D01*
X101947238Y-129785044D01*
X102104000Y-129805682D01*
X102260762Y-129785044D01*
X102406841Y-129724536D01*
X102532282Y-129628282D01*
X102628536Y-129502841D01*
X102689044Y-129356762D01*
X102706457Y-129224500D01*
X105054317Y-129224500D01*
X105072554Y-129363024D01*
X105074956Y-129381262D01*
X105093803Y-129426762D01*
X105135465Y-129527343D01*
X105231717Y-129652782D01*
X105348357Y-129742282D01*
X105357159Y-129749036D01*
X105503238Y-129809544D01*
X105660000Y-129830182D01*
X105816762Y-129809544D01*
X105962841Y-129749036D01*
X106088282Y-129652782D01*
X106184536Y-129527341D01*
X106195861Y-129500000D01*
X114894317Y-129500000D01*
X114912554Y-129638524D01*
X114914956Y-129656762D01*
X114968092Y-129785043D01*
X114975465Y-129802843D01*
X115071717Y-129928282D01*
X115197156Y-130024534D01*
X115197159Y-130024536D01*
X115343238Y-130085044D01*
X115500000Y-130105682D01*
X115656762Y-130085044D01*
X115802841Y-130024536D01*
X115928282Y-129928282D01*
X116024536Y-129802841D01*
X116085044Y-129656762D01*
X116105682Y-129500000D01*
X116085044Y-129343238D01*
X116024536Y-129197159D01*
X115993904Y-129157238D01*
X115928282Y-129071717D01*
X115802843Y-128975465D01*
X115802841Y-128975464D01*
X115656762Y-128914956D01*
X115638524Y-128912554D01*
X115500000Y-128894317D01*
X115343238Y-128914956D01*
X115197156Y-128975465D01*
X115071717Y-129071717D01*
X114975465Y-129197156D01*
X114914956Y-129343238D01*
X114894317Y-129500000D01*
X106195861Y-129500000D01*
X106245044Y-129381262D01*
X106265682Y-129224500D01*
X106245044Y-129067738D01*
X106184536Y-128921659D01*
X106165737Y-128897159D01*
X106088282Y-128796217D01*
X105962843Y-128699965D01*
X105962841Y-128699964D01*
X105816762Y-128639456D01*
X105786949Y-128635531D01*
X105660000Y-128618817D01*
X105503238Y-128639456D01*
X105357156Y-128699965D01*
X105231717Y-128796217D01*
X105135465Y-128921656D01*
X105074956Y-129067738D01*
X105054317Y-129224500D01*
X102706457Y-129224500D01*
X102709682Y-129200000D01*
X102689044Y-129043238D01*
X102628536Y-128897159D01*
X102626356Y-128894318D01*
X102532282Y-128771717D01*
X102406843Y-128675465D01*
X102398647Y-128672070D01*
X102260762Y-128614956D01*
X102242524Y-128612554D01*
X102104000Y-128594317D01*
X101947238Y-128614956D01*
X101801156Y-128675465D01*
X101675717Y-128771717D01*
X101579465Y-128897156D01*
X101518956Y-129043238D01*
X101498317Y-129200000D01*
X95590046Y-129200000D01*
X95577044Y-129101238D01*
X95516536Y-128955159D01*
X95490831Y-128921659D01*
X95420282Y-128829717D01*
X95294843Y-128733465D01*
X95294841Y-128733464D01*
X95148762Y-128672956D01*
X95130524Y-128670554D01*
X94992000Y-128652317D01*
X94835238Y-128672956D01*
X94689156Y-128733465D01*
X94563717Y-128829717D01*
X94467465Y-128955156D01*
X94406956Y-129101238D01*
X94386317Y-129258000D01*
X92034309Y-129258000D01*
X92021044Y-129157238D01*
X91960536Y-129011159D01*
X91960534Y-129011156D01*
X91864282Y-128885717D01*
X91738843Y-128789465D01*
X91695998Y-128771718D01*
X91592762Y-128728956D01*
X91574524Y-128726554D01*
X91436000Y-128708317D01*
X91279238Y-128728956D01*
X91133156Y-128789465D01*
X91007717Y-128885717D01*
X90911465Y-129011156D01*
X90850956Y-129157238D01*
X90830317Y-129313999D01*
X88479889Y-129313999D01*
X88485682Y-129270000D01*
X88465044Y-129113238D01*
X88404536Y-128967159D01*
X88397043Y-128957394D01*
X88308282Y-128841717D01*
X88182843Y-128745465D01*
X88166465Y-128738681D01*
X88036762Y-128684956D01*
X88018524Y-128682554D01*
X87880000Y-128664317D01*
X87723238Y-128684956D01*
X87577156Y-128745465D01*
X87451717Y-128841717D01*
X87355465Y-128967156D01*
X87294956Y-129113238D01*
X87274317Y-129269999D01*
X71700500Y-129269999D01*
X71700500Y-128500000D01*
X103394317Y-128500000D01*
X103412084Y-128634944D01*
X103414956Y-128656762D01*
X103470174Y-128790069D01*
X103475465Y-128802843D01*
X103571717Y-128928282D01*
X103697156Y-129024534D01*
X103697159Y-129024536D01*
X103843238Y-129085044D01*
X104000000Y-129105682D01*
X104156762Y-129085044D01*
X104302841Y-129024536D01*
X104428282Y-128928282D01*
X104524536Y-128802841D01*
X104585044Y-128656762D01*
X104605682Y-128500000D01*
X104604985Y-128494709D01*
X104596240Y-128428282D01*
X104585044Y-128343238D01*
X104524536Y-128197159D01*
X104524534Y-128197156D01*
X104428282Y-128071717D01*
X104302843Y-127975465D01*
X104301192Y-127974781D01*
X104156762Y-127914956D01*
X104138524Y-127912554D01*
X104000000Y-127894317D01*
X103843238Y-127914956D01*
X103697156Y-127975465D01*
X103571717Y-128071717D01*
X103475465Y-128197156D01*
X103414956Y-128343238D01*
X103394317Y-128500000D01*
X71700500Y-128500000D01*
X71700500Y-126750000D01*
X120644317Y-126750000D01*
X120664956Y-126906761D01*
X120725465Y-127052843D01*
X120821717Y-127178282D01*
X120947156Y-127274534D01*
X120947159Y-127274536D01*
X121093238Y-127335044D01*
X121231762Y-127353280D01*
X121249999Y-127355682D01*
X121249999Y-127355681D01*
X121250000Y-127355682D01*
X121406762Y-127335044D01*
X121552841Y-127274536D01*
X121678282Y-127178282D01*
X121774536Y-127052841D01*
X121835044Y-126906762D01*
X121855682Y-126750000D01*
X121835044Y-126593238D01*
X121774536Y-126447159D01*
X121765348Y-126435185D01*
X121678282Y-126321717D01*
X121552843Y-126225465D01*
X121552841Y-126225464D01*
X121406762Y-126164956D01*
X121388524Y-126162554D01*
X121250000Y-126144317D01*
X121093238Y-126164956D01*
X120947156Y-126225465D01*
X120821717Y-126321717D01*
X120725465Y-126447156D01*
X120664956Y-126593238D01*
X120644317Y-126750000D01*
X71700500Y-126750000D01*
X71700500Y-125000000D01*
X87394317Y-125000000D01*
X87414956Y-125156761D01*
X87475465Y-125302843D01*
X87571717Y-125428282D01*
X87697156Y-125524534D01*
X87697159Y-125524536D01*
X87843238Y-125585044D01*
X88000000Y-125605682D01*
X88156762Y-125585044D01*
X88302841Y-125524536D01*
X88428282Y-125428282D01*
X88524536Y-125302841D01*
X88585044Y-125156762D01*
X88605682Y-125000000D01*
X88585044Y-124843238D01*
X88524536Y-124697159D01*
X88524534Y-124697156D01*
X88428282Y-124571717D01*
X88302843Y-124475465D01*
X88302841Y-124475464D01*
X88156762Y-124414956D01*
X88138524Y-124412554D01*
X88000000Y-124394317D01*
X87843238Y-124414956D01*
X87697156Y-124475465D01*
X87571717Y-124571717D01*
X87475465Y-124697156D01*
X87414956Y-124843238D01*
X87394317Y-125000000D01*
X71700500Y-125000000D01*
X71700500Y-122250000D01*
X87394317Y-122250000D01*
X87412554Y-122388524D01*
X87414956Y-122406762D01*
X87475464Y-122552841D01*
X87475465Y-122552843D01*
X87571717Y-122678282D01*
X87697156Y-122774534D01*
X87697159Y-122774536D01*
X87843238Y-122835044D01*
X88000000Y-122855682D01*
X88156762Y-122835044D01*
X88302841Y-122774536D01*
X88428282Y-122678282D01*
X88524536Y-122552841D01*
X88585044Y-122406762D01*
X88605682Y-122250000D01*
X88585044Y-122093238D01*
X88524536Y-121947159D01*
X88524534Y-121947156D01*
X88428282Y-121821717D01*
X88302843Y-121725465D01*
X88302841Y-121725464D01*
X88156762Y-121664956D01*
X88138524Y-121662554D01*
X88000000Y-121644317D01*
X87843238Y-121664956D01*
X87697156Y-121725465D01*
X87571717Y-121821717D01*
X87475465Y-121947156D01*
X87414956Y-122093238D01*
X87394317Y-122250000D01*
X71700500Y-122250000D01*
X71700500Y-119457393D01*
X78545642Y-119457393D01*
X78555914Y-119627196D01*
X78606522Y-119789606D01*
X78623589Y-119817839D01*
X78694528Y-119935185D01*
X78814815Y-120055472D01*
X78960394Y-120143478D01*
X79122804Y-120194086D01*
X79292606Y-120204358D01*
X79459932Y-120173695D01*
X79615057Y-120103878D01*
X79715367Y-120025290D01*
X79842226Y-119898429D01*
X79923009Y-119844454D01*
X80018297Y-119825500D01*
X81901936Y-119825500D01*
X81916970Y-119825954D01*
X81920427Y-119826163D01*
X81973241Y-119829358D01*
X82028737Y-119819187D01*
X82043531Y-119816936D01*
X82099507Y-119810140D01*
X82099510Y-119810138D01*
X82100249Y-119810049D01*
X82139894Y-119798997D01*
X82140563Y-119798695D01*
X82140567Y-119798695D01*
X82191977Y-119775556D01*
X82205849Y-119769809D01*
X82258565Y-119749818D01*
X82258569Y-119749815D01*
X82259263Y-119749552D01*
X82295106Y-119729336D01*
X82295688Y-119728879D01*
X82295692Y-119728878D01*
X82340073Y-119694106D01*
X82352159Y-119685213D01*
X82398564Y-119653183D01*
X82435942Y-119610990D01*
X82446220Y-119600070D01*
X84475070Y-117571220D01*
X84485991Y-117560941D01*
X84528183Y-117523564D01*
X84528184Y-117523562D01*
X84539800Y-117513272D01*
X84623694Y-117464273D01*
X84640958Y-117461911D01*
X84634587Y-117443141D01*
X84640942Y-117346194D01*
X84654396Y-117308447D01*
X84664615Y-117285742D01*
X84673695Y-117265567D01*
X84673695Y-117265564D01*
X84673996Y-117264897D01*
X84685049Y-117225249D01*
X84685138Y-117224510D01*
X84685140Y-117224507D01*
X84691936Y-117168531D01*
X84694187Y-117153737D01*
X84704358Y-117098241D01*
X84700954Y-117041968D01*
X84700500Y-117026935D01*
X84700500Y-116949500D01*
X84719454Y-116854212D01*
X84773430Y-116773430D01*
X84854212Y-116719454D01*
X84949500Y-116700500D01*
X85106703Y-116700500D01*
X85201991Y-116719454D01*
X85282773Y-116773430D01*
X85499666Y-116990323D01*
X85553642Y-117071105D01*
X85572596Y-117166393D01*
X85553642Y-117261681D01*
X85499666Y-117342463D01*
X85418884Y-117396439D01*
X85356098Y-117413263D01*
X85343238Y-117414956D01*
X85197156Y-117475465D01*
X85045710Y-117591674D01*
X85045593Y-117591522D01*
X85005954Y-117626285D01*
X84944233Y-117647235D01*
X84953459Y-117714693D01*
X84934961Y-117794940D01*
X84914956Y-117843236D01*
X84894317Y-118000000D01*
X84905514Y-118085043D01*
X84914956Y-118156762D01*
X84961115Y-118268200D01*
X84975465Y-118302843D01*
X85071717Y-118428282D01*
X85185512Y-118515599D01*
X85197159Y-118524536D01*
X85343238Y-118585044D01*
X85500000Y-118605682D01*
X85656762Y-118585044D01*
X85802841Y-118524536D01*
X85928282Y-118428282D01*
X85988782Y-118349436D01*
X86061821Y-118285381D01*
X86153820Y-118254151D01*
X86250767Y-118260504D01*
X86337903Y-118303473D01*
X86382331Y-118347455D01*
X86430876Y-118409417D01*
X86439790Y-118421531D01*
X86471815Y-118467927D01*
X86471816Y-118467928D01*
X86471817Y-118467929D01*
X86514006Y-118505305D01*
X86524942Y-118515599D01*
X90484400Y-122475057D01*
X90494693Y-122485992D01*
X90532071Y-122528183D01*
X90578459Y-122560202D01*
X90590573Y-122569116D01*
X90635530Y-122604337D01*
X90671379Y-122624555D01*
X90672066Y-122624815D01*
X90672070Y-122624818D01*
X90724781Y-122644808D01*
X90738681Y-122650566D01*
X90790741Y-122673997D01*
X90830391Y-122685049D01*
X90831122Y-122685137D01*
X90831128Y-122685140D01*
X90887114Y-122691937D01*
X90901935Y-122694193D01*
X90957394Y-122704357D01*
X91011378Y-122701091D01*
X91013654Y-122700954D01*
X91028687Y-122700500D01*
X119106703Y-122700500D01*
X119201991Y-122719454D01*
X119282773Y-122773430D01*
X125726570Y-129217227D01*
X125780546Y-129298009D01*
X125799500Y-129393297D01*
X125799500Y-142156538D01*
X125780546Y-142251826D01*
X125726570Y-142332608D01*
X125691943Y-142361465D01*
X125673072Y-142374490D01*
X125635523Y-142395668D01*
X125590566Y-142430888D01*
X125578462Y-142439794D01*
X125532069Y-142471818D01*
X125494700Y-142513998D01*
X125484394Y-142524946D01*
X124947173Y-143062167D01*
X124947171Y-143062171D01*
X124944528Y-143064813D01*
X124930232Y-143088461D01*
X124913158Y-143113198D01*
X124896120Y-143134945D01*
X124884783Y-143160135D01*
X124870815Y-143186749D01*
X124856522Y-143210393D01*
X124848306Y-143236760D01*
X124837645Y-143264871D01*
X124826305Y-143290066D01*
X124821323Y-143317253D01*
X124814130Y-143346436D01*
X124805913Y-143372807D01*
X124804245Y-143400373D01*
X124800622Y-143430211D01*
X124795641Y-143457392D01*
X124797309Y-143484971D01*
X124797309Y-143515029D01*
X124795641Y-143542604D01*
X124800621Y-143569776D01*
X124804245Y-143599622D01*
X124805913Y-143627193D01*
X124814130Y-143653565D01*
X124821323Y-143682748D01*
X124826305Y-143709932D01*
X124836149Y-143731805D01*
X124837642Y-143735121D01*
X124848305Y-143763238D01*
X124856520Y-143789603D01*
X124856522Y-143789606D01*
X124869529Y-143811123D01*
X124870813Y-143813246D01*
X124884781Y-143839860D01*
X124896122Y-143865057D01*
X124913159Y-143886803D01*
X124930239Y-143911548D01*
X124944528Y-143935185D01*
X125484399Y-144475056D01*
X125494694Y-144485993D01*
X125503766Y-144496233D01*
X125532072Y-144528184D01*
X125578468Y-144560209D01*
X125590556Y-144569103D01*
X125634944Y-144603878D01*
X125634946Y-144603879D01*
X125635531Y-144604337D01*
X125671383Y-144624557D01*
X125672068Y-144624816D01*
X125672070Y-144624818D01*
X125724791Y-144644812D01*
X125738661Y-144650557D01*
X125790069Y-144673695D01*
X125790070Y-144673695D01*
X125790741Y-144673997D01*
X125830386Y-144685049D01*
X125831124Y-144685138D01*
X125831128Y-144685140D01*
X125887103Y-144691936D01*
X125901912Y-144694190D01*
X125957394Y-144704358D01*
X126010628Y-144701137D01*
X126013665Y-144700954D01*
X126028699Y-144700500D01*
X126585056Y-144700500D01*
X126611878Y-144693888D01*
X126641443Y-144688469D01*
X126668872Y-144685140D01*
X126694702Y-144675343D01*
X126723410Y-144666399D01*
X126725116Y-144665978D01*
X126750225Y-144659790D01*
X126774686Y-144646951D01*
X126802106Y-144634611D01*
X126827930Y-144624818D01*
X126850670Y-144609120D01*
X126876396Y-144593568D01*
X126900852Y-144580734D01*
X126921533Y-144562411D01*
X126945186Y-144543880D01*
X126967929Y-144528183D01*
X126986249Y-144507502D01*
X127007502Y-144486249D01*
X127028183Y-144467929D01*
X127043880Y-144445186D01*
X127062411Y-144421533D01*
X127080734Y-144400852D01*
X127093568Y-144376396D01*
X127109124Y-144350665D01*
X127124818Y-144327930D01*
X127134611Y-144302106D01*
X127146951Y-144274686D01*
X127159790Y-144250225D01*
X127166398Y-144223410D01*
X127175345Y-144194698D01*
X127185140Y-144168872D01*
X127188469Y-144141443D01*
X127193889Y-144111875D01*
X127200500Y-144085055D01*
X127200500Y-141148358D01*
X127219454Y-141053070D01*
X127273430Y-140972288D01*
X127354212Y-140918312D01*
X127449500Y-140899358D01*
X127544788Y-140918312D01*
X127601081Y-140950813D01*
X127697159Y-141024536D01*
X127843238Y-141085044D01*
X128000000Y-141105682D01*
X128156762Y-141085044D01*
X128302841Y-141024536D01*
X128428282Y-140928282D01*
X128524536Y-140802841D01*
X128585044Y-140656762D01*
X128605682Y-140500000D01*
X129594317Y-140500000D01*
X129604558Y-140577784D01*
X129614956Y-140656762D01*
X129648614Y-140738019D01*
X129675465Y-140802843D01*
X129771717Y-140928282D01*
X129897156Y-141024534D01*
X129897159Y-141024536D01*
X130043238Y-141085044D01*
X130200000Y-141105682D01*
X130356762Y-141085044D01*
X130502841Y-141024536D01*
X130628282Y-140928282D01*
X130724536Y-140802841D01*
X130785044Y-140656762D01*
X130805682Y-140500000D01*
X130785044Y-140343238D01*
X130724536Y-140197159D01*
X130711753Y-140180500D01*
X130628282Y-140071717D01*
X130502843Y-139975465D01*
X130502841Y-139975464D01*
X130356762Y-139914956D01*
X130338524Y-139912554D01*
X130200000Y-139894317D01*
X130043238Y-139914956D01*
X129897156Y-139975465D01*
X129771717Y-140071717D01*
X129675465Y-140197156D01*
X129614956Y-140343238D01*
X129594317Y-140500000D01*
X128605682Y-140500000D01*
X128585044Y-140343238D01*
X128524536Y-140197159D01*
X128511753Y-140180500D01*
X128428282Y-140071717D01*
X128302843Y-139975465D01*
X128302841Y-139975464D01*
X128156762Y-139914956D01*
X128138524Y-139912554D01*
X128000000Y-139894317D01*
X127843246Y-139914955D01*
X127843238Y-139914956D01*
X127698526Y-139974898D01*
X127697157Y-139975465D01*
X127601080Y-140049187D01*
X127513945Y-140092157D01*
X127416998Y-140098511D01*
X127324999Y-140067281D01*
X127251954Y-140003221D01*
X127208984Y-139916086D01*
X127200500Y-139851641D01*
X127200500Y-137500000D01*
X128394317Y-137500000D01*
X128405514Y-137585043D01*
X128414956Y-137656762D01*
X128475464Y-137802841D01*
X128475465Y-137802843D01*
X128571717Y-137928282D01*
X128697156Y-138024534D01*
X128697159Y-138024536D01*
X128843238Y-138085044D01*
X129000000Y-138105682D01*
X129156762Y-138085044D01*
X129302841Y-138024536D01*
X129428282Y-137928282D01*
X129524536Y-137802841D01*
X129585044Y-137656762D01*
X129605682Y-137500000D01*
X129585044Y-137343238D01*
X129524536Y-137197159D01*
X129524534Y-137197156D01*
X129428282Y-137071717D01*
X129302843Y-136975465D01*
X129302841Y-136975464D01*
X129156762Y-136914956D01*
X129138524Y-136912554D01*
X129000000Y-136894317D01*
X128843238Y-136914956D01*
X128697156Y-136975465D01*
X128571717Y-137071717D01*
X128475465Y-137197156D01*
X128414956Y-137343238D01*
X128394317Y-137500000D01*
X127200500Y-137500000D01*
X127200500Y-134486023D01*
X127200500Y-131500000D01*
X152394317Y-131500000D01*
X152398041Y-131528282D01*
X152414956Y-131656762D01*
X152475464Y-131802841D01*
X152475465Y-131802843D01*
X152571717Y-131928282D01*
X152697156Y-132024534D01*
X152697159Y-132024536D01*
X152843238Y-132085044D01*
X153000000Y-132105682D01*
X153156762Y-132085044D01*
X153302841Y-132024536D01*
X153428282Y-131928282D01*
X153524536Y-131802841D01*
X153585044Y-131656762D01*
X153605682Y-131500000D01*
X153585044Y-131343238D01*
X153524536Y-131197159D01*
X153521906Y-131193731D01*
X153428282Y-131071717D01*
X153302843Y-130975465D01*
X153302841Y-130975464D01*
X153156762Y-130914956D01*
X153138524Y-130912554D01*
X153000000Y-130894317D01*
X152843238Y-130914956D01*
X152697156Y-130975465D01*
X152571717Y-131071717D01*
X152475465Y-131197156D01*
X152414956Y-131343238D01*
X152394317Y-131500000D01*
X127200500Y-131500000D01*
X127200500Y-130000000D01*
X137894317Y-130000000D01*
X137914956Y-130156761D01*
X137975465Y-130302843D01*
X138071717Y-130428282D01*
X138184674Y-130514956D01*
X138197159Y-130524536D01*
X138343238Y-130585044D01*
X138500000Y-130605682D01*
X138656762Y-130585044D01*
X138802841Y-130524536D01*
X138928282Y-130428282D01*
X139024536Y-130302841D01*
X139085044Y-130156762D01*
X139105682Y-130000000D01*
X140894317Y-130000000D01*
X140914956Y-130156761D01*
X140975465Y-130302843D01*
X141071717Y-130428282D01*
X141184674Y-130514956D01*
X141197159Y-130524536D01*
X141343238Y-130585044D01*
X141500000Y-130605682D01*
X141656762Y-130585044D01*
X141802841Y-130524536D01*
X141928282Y-130428282D01*
X142024536Y-130302841D01*
X142085044Y-130156762D01*
X142105682Y-130000000D01*
X143394317Y-130000000D01*
X143414956Y-130156761D01*
X143475465Y-130302843D01*
X143571717Y-130428282D01*
X143684674Y-130514956D01*
X143697159Y-130524536D01*
X143843238Y-130585044D01*
X144000000Y-130605682D01*
X144156762Y-130585044D01*
X144302841Y-130524536D01*
X144428282Y-130428282D01*
X144524536Y-130302841D01*
X144585044Y-130156762D01*
X144605682Y-130000000D01*
X144585044Y-129843238D01*
X144524536Y-129697159D01*
X144516190Y-129686282D01*
X144428282Y-129571717D01*
X144302843Y-129475465D01*
X144291487Y-129470761D01*
X144156762Y-129414956D01*
X144138524Y-129412554D01*
X144000000Y-129394317D01*
X143843238Y-129414956D01*
X143697156Y-129475465D01*
X143571717Y-129571717D01*
X143475465Y-129697156D01*
X143414956Y-129843238D01*
X143394317Y-130000000D01*
X142105682Y-130000000D01*
X142085044Y-129843238D01*
X142024536Y-129697159D01*
X142016190Y-129686282D01*
X141928282Y-129571717D01*
X141802843Y-129475465D01*
X141791487Y-129470761D01*
X141656762Y-129414956D01*
X141638524Y-129412554D01*
X141500000Y-129394317D01*
X141343238Y-129414956D01*
X141197156Y-129475465D01*
X141071717Y-129571717D01*
X140975465Y-129697156D01*
X140914956Y-129843238D01*
X140894317Y-130000000D01*
X139105682Y-130000000D01*
X139085044Y-129843238D01*
X139024536Y-129697159D01*
X139016190Y-129686282D01*
X138928282Y-129571717D01*
X138802843Y-129475465D01*
X138791487Y-129470761D01*
X138656762Y-129414956D01*
X138638524Y-129412554D01*
X138500000Y-129394317D01*
X138343238Y-129414956D01*
X138197156Y-129475465D01*
X138071717Y-129571717D01*
X137975465Y-129697156D01*
X137914956Y-129843238D01*
X137894317Y-130000000D01*
X127200500Y-130000000D01*
X127200500Y-129028664D01*
X127200951Y-129013698D01*
X127204358Y-128957394D01*
X127194190Y-128901912D01*
X127191936Y-128887103D01*
X127185140Y-128831128D01*
X127185138Y-128831124D01*
X127185049Y-128830386D01*
X127173997Y-128790741D01*
X127173423Y-128789465D01*
X127150557Y-128738661D01*
X127144807Y-128724779D01*
X127124818Y-128672070D01*
X127124816Y-128672068D01*
X127124557Y-128671383D01*
X127104337Y-128635531D01*
X127103879Y-128634946D01*
X127103878Y-128634944D01*
X127069103Y-128590556D01*
X127060209Y-128578468D01*
X127028184Y-128532072D01*
X127028183Y-128532071D01*
X126985993Y-128494694D01*
X126975056Y-128484399D01*
X126490657Y-128000000D01*
X128394317Y-128000000D01*
X128412367Y-128137096D01*
X128414956Y-128156762D01*
X128465458Y-128278685D01*
X128475465Y-128302843D01*
X128571717Y-128428282D01*
X128697156Y-128524534D01*
X128697159Y-128524536D01*
X128843238Y-128585044D01*
X129000000Y-128605682D01*
X129156762Y-128585044D01*
X129302841Y-128524536D01*
X129428282Y-128428282D01*
X129524536Y-128302841D01*
X129585044Y-128156762D01*
X129605682Y-128000000D01*
X132394317Y-128000000D01*
X132412367Y-128137096D01*
X132414956Y-128156762D01*
X132465458Y-128278685D01*
X132475465Y-128302843D01*
X132571717Y-128428282D01*
X132697156Y-128524534D01*
X132697159Y-128524536D01*
X132843238Y-128585044D01*
X133000000Y-128605682D01*
X133156762Y-128585044D01*
X133302841Y-128524536D01*
X133428282Y-128428282D01*
X133524536Y-128302841D01*
X133585044Y-128156762D01*
X133605682Y-128000000D01*
X134144317Y-128000000D01*
X134162367Y-128137096D01*
X134164956Y-128156762D01*
X134215458Y-128278685D01*
X134225465Y-128302843D01*
X134321717Y-128428282D01*
X134447156Y-128524534D01*
X134447159Y-128524536D01*
X134593238Y-128585044D01*
X134731762Y-128603280D01*
X134749999Y-128605682D01*
X134749999Y-128605681D01*
X134750000Y-128605682D01*
X134906762Y-128585044D01*
X135052841Y-128524536D01*
X135178282Y-128428282D01*
X135274536Y-128302841D01*
X135335044Y-128156762D01*
X135355682Y-128000000D01*
X135894317Y-128000000D01*
X135912367Y-128137096D01*
X135914956Y-128156762D01*
X135965458Y-128278685D01*
X135975465Y-128302843D01*
X136071717Y-128428282D01*
X136197156Y-128524534D01*
X136197159Y-128524536D01*
X136343238Y-128585044D01*
X136500000Y-128605682D01*
X136656762Y-128585044D01*
X136802841Y-128524536D01*
X136928282Y-128428282D01*
X137024536Y-128302841D01*
X137085044Y-128156762D01*
X137105682Y-128000000D01*
X137085044Y-127843238D01*
X137024536Y-127697159D01*
X137024534Y-127697156D01*
X136928282Y-127571717D01*
X136802843Y-127475465D01*
X136802841Y-127475464D01*
X136656762Y-127414956D01*
X136638524Y-127412554D01*
X136500000Y-127394317D01*
X136343238Y-127414956D01*
X136197156Y-127475465D01*
X136071717Y-127571717D01*
X135975465Y-127697156D01*
X135914956Y-127843238D01*
X135894317Y-128000000D01*
X135355682Y-128000000D01*
X135335044Y-127843238D01*
X135274536Y-127697159D01*
X135274534Y-127697156D01*
X135178282Y-127571717D01*
X135052843Y-127475465D01*
X135052841Y-127475464D01*
X134906762Y-127414956D01*
X134886122Y-127412238D01*
X134749999Y-127394317D01*
X134593238Y-127414956D01*
X134447156Y-127475465D01*
X134321717Y-127571717D01*
X134225465Y-127697156D01*
X134164956Y-127843238D01*
X134144317Y-128000000D01*
X133605682Y-128000000D01*
X133585044Y-127843238D01*
X133524536Y-127697159D01*
X133524534Y-127697156D01*
X133428282Y-127571717D01*
X133302843Y-127475465D01*
X133302841Y-127475464D01*
X133156762Y-127414956D01*
X133138524Y-127412554D01*
X133000000Y-127394317D01*
X132843238Y-127414956D01*
X132697156Y-127475465D01*
X132571717Y-127571717D01*
X132475465Y-127697156D01*
X132414956Y-127843238D01*
X132394317Y-128000000D01*
X129605682Y-128000000D01*
X129585044Y-127843238D01*
X129524536Y-127697159D01*
X129524534Y-127697156D01*
X129428282Y-127571717D01*
X129302843Y-127475465D01*
X129302841Y-127475464D01*
X129156762Y-127414956D01*
X129138524Y-127412554D01*
X129000000Y-127394317D01*
X128843238Y-127414956D01*
X128697156Y-127475465D01*
X128571717Y-127571717D01*
X128475465Y-127697156D01*
X128414956Y-127843238D01*
X128394317Y-128000000D01*
X126490657Y-128000000D01*
X124666726Y-126176069D01*
X124612750Y-126095287D01*
X124593796Y-125999999D01*
X124612750Y-125904711D01*
X124666723Y-125823932D01*
X125990655Y-124500000D01*
X132394317Y-124500000D01*
X132414956Y-124656761D01*
X132475465Y-124802843D01*
X132571717Y-124928282D01*
X132677359Y-125009343D01*
X132697159Y-125024536D01*
X132843238Y-125085044D01*
X133000000Y-125105682D01*
X133156762Y-125085044D01*
X133302841Y-125024536D01*
X133428282Y-124928282D01*
X133524536Y-124802841D01*
X133585044Y-124656762D01*
X133605682Y-124500000D01*
X134144317Y-124500000D01*
X134164956Y-124656761D01*
X134225465Y-124802843D01*
X134321717Y-124928282D01*
X134427359Y-125009343D01*
X134447159Y-125024536D01*
X134593238Y-125085044D01*
X134750000Y-125105682D01*
X134906762Y-125085044D01*
X135052841Y-125024536D01*
X135178282Y-124928282D01*
X135274536Y-124802841D01*
X135335044Y-124656762D01*
X135355682Y-124500000D01*
X135894317Y-124500000D01*
X135914956Y-124656761D01*
X135975465Y-124802843D01*
X136071717Y-124928282D01*
X136177359Y-125009343D01*
X136197159Y-125024536D01*
X136343238Y-125085044D01*
X136500000Y-125105682D01*
X136656762Y-125085044D01*
X136802841Y-125024536D01*
X136928282Y-124928282D01*
X137024536Y-124802841D01*
X137085044Y-124656762D01*
X137105682Y-124500000D01*
X137894317Y-124500000D01*
X137914956Y-124656761D01*
X137975465Y-124802843D01*
X138071717Y-124928282D01*
X138177359Y-125009343D01*
X138197159Y-125024536D01*
X138343238Y-125085044D01*
X138500000Y-125105682D01*
X138656762Y-125085044D01*
X138802841Y-125024536D01*
X138928282Y-124928282D01*
X139024536Y-124802841D01*
X139085044Y-124656762D01*
X139105682Y-124500000D01*
X140894317Y-124500000D01*
X140914956Y-124656761D01*
X140975465Y-124802843D01*
X141071717Y-124928282D01*
X141177359Y-125009343D01*
X141197159Y-125024536D01*
X141343238Y-125085044D01*
X141500000Y-125105682D01*
X141656762Y-125085044D01*
X141802841Y-125024536D01*
X141928282Y-124928282D01*
X142024536Y-124802841D01*
X142085044Y-124656762D01*
X142105682Y-124500000D01*
X143394317Y-124500000D01*
X143414956Y-124656761D01*
X143475465Y-124802843D01*
X143571717Y-124928282D01*
X143677359Y-125009343D01*
X143697159Y-125024536D01*
X143843238Y-125085044D01*
X144000000Y-125105682D01*
X144156762Y-125085044D01*
X144302841Y-125024536D01*
X144428282Y-124928282D01*
X144524536Y-124802841D01*
X144585044Y-124656762D01*
X144605682Y-124500000D01*
X144585044Y-124343238D01*
X144524536Y-124197159D01*
X144524534Y-124197156D01*
X144428282Y-124071717D01*
X144302843Y-123975465D01*
X144302841Y-123975464D01*
X144156762Y-123914956D01*
X144138524Y-123912554D01*
X144000000Y-123894317D01*
X143843238Y-123914956D01*
X143697156Y-123975465D01*
X143571717Y-124071717D01*
X143475465Y-124197156D01*
X143414956Y-124343238D01*
X143394317Y-124500000D01*
X142105682Y-124500000D01*
X142085044Y-124343238D01*
X142024536Y-124197159D01*
X142024534Y-124197156D01*
X141928282Y-124071717D01*
X141802843Y-123975465D01*
X141802841Y-123975464D01*
X141656762Y-123914956D01*
X141638524Y-123912554D01*
X141500000Y-123894317D01*
X141343238Y-123914956D01*
X141197156Y-123975465D01*
X141071717Y-124071717D01*
X140975465Y-124197156D01*
X140914956Y-124343238D01*
X140894317Y-124500000D01*
X139105682Y-124500000D01*
X139085044Y-124343238D01*
X139024536Y-124197159D01*
X139024534Y-124197156D01*
X138928282Y-124071717D01*
X138802843Y-123975465D01*
X138802841Y-123975464D01*
X138656762Y-123914956D01*
X138638524Y-123912554D01*
X138500000Y-123894317D01*
X138343238Y-123914956D01*
X138197156Y-123975465D01*
X138071717Y-124071717D01*
X137975465Y-124197156D01*
X137914956Y-124343238D01*
X137894317Y-124500000D01*
X137105682Y-124500000D01*
X137085044Y-124343238D01*
X137024536Y-124197159D01*
X137024534Y-124197156D01*
X136928282Y-124071717D01*
X136802843Y-123975465D01*
X136802841Y-123975464D01*
X136656762Y-123914956D01*
X136638524Y-123912554D01*
X136500000Y-123894317D01*
X136343238Y-123914956D01*
X136197156Y-123975465D01*
X136071717Y-124071717D01*
X135975465Y-124197156D01*
X135914956Y-124343238D01*
X135894317Y-124500000D01*
X135355682Y-124500000D01*
X135335044Y-124343238D01*
X135274536Y-124197159D01*
X135274534Y-124197156D01*
X135178282Y-124071717D01*
X135052843Y-123975465D01*
X135052841Y-123975464D01*
X134906762Y-123914956D01*
X134888524Y-123912554D01*
X134750000Y-123894317D01*
X134593238Y-123914956D01*
X134447156Y-123975465D01*
X134321717Y-124071717D01*
X134225465Y-124197156D01*
X134164956Y-124343238D01*
X134144317Y-124500000D01*
X133605682Y-124500000D01*
X133585044Y-124343238D01*
X133524536Y-124197159D01*
X133524534Y-124197156D01*
X133428282Y-124071717D01*
X133302843Y-123975465D01*
X133302841Y-123975464D01*
X133156762Y-123914956D01*
X133138524Y-123912554D01*
X133000000Y-123894317D01*
X132843238Y-123914956D01*
X132697156Y-123975465D01*
X132571717Y-124071717D01*
X132475465Y-124197156D01*
X132414956Y-124343238D01*
X132394317Y-124500000D01*
X125990655Y-124500000D01*
X131823929Y-118666726D01*
X131904712Y-118612750D01*
X132000000Y-118593796D01*
X132095288Y-118612750D01*
X132176070Y-118666726D01*
X134984392Y-121475048D01*
X134994687Y-121485985D01*
X135032071Y-121528183D01*
X135078494Y-121560226D01*
X135090556Y-121569102D01*
X135134943Y-121603877D01*
X135135533Y-121604339D01*
X135171379Y-121624555D01*
X135172066Y-121624815D01*
X135172070Y-121624818D01*
X135224781Y-121644808D01*
X135238681Y-121650566D01*
X135290741Y-121673997D01*
X135330391Y-121685049D01*
X135331122Y-121685137D01*
X135331128Y-121685140D01*
X135387114Y-121691937D01*
X135401935Y-121694193D01*
X135457394Y-121704357D01*
X135511883Y-121701061D01*
X135513653Y-121700954D01*
X135528686Y-121700500D01*
X148606703Y-121700500D01*
X148701991Y-121719454D01*
X148782773Y-121773430D01*
X155476570Y-128467227D01*
X155530546Y-128548009D01*
X155549500Y-128643297D01*
X155549500Y-141212726D01*
X155530546Y-141308014D01*
X155476570Y-141388796D01*
X155395788Y-141442772D01*
X155300500Y-141461726D01*
X155205212Y-141442772D01*
X155124430Y-141388796D01*
X155070454Y-141308015D01*
X155036718Y-141226570D01*
X155024536Y-141197159D01*
X154984923Y-141145534D01*
X154928282Y-141071717D01*
X154802843Y-140975465D01*
X154795173Y-140972288D01*
X154656762Y-140914956D01*
X154638524Y-140912554D01*
X154500000Y-140894317D01*
X154343238Y-140914956D01*
X154197156Y-140975465D01*
X154071717Y-141071717D01*
X153975465Y-141197156D01*
X153914956Y-141343238D01*
X153894317Y-141500000D01*
X153904147Y-141574659D01*
X153914956Y-141656762D01*
X153969016Y-141787273D01*
X153975465Y-141802843D01*
X154071717Y-141928282D01*
X154197156Y-142024534D01*
X154197159Y-142024536D01*
X154343238Y-142085044D01*
X154500000Y-142105682D01*
X154656762Y-142085044D01*
X154802841Y-142024536D01*
X154928282Y-141928282D01*
X155024536Y-141802841D01*
X155070454Y-141691984D01*
X155124430Y-141611203D01*
X155205212Y-141557227D01*
X155300500Y-141538273D01*
X155395788Y-141557227D01*
X155476570Y-141611203D01*
X155530546Y-141691985D01*
X155549500Y-141787273D01*
X155549500Y-147042372D01*
X155564860Y-147168872D01*
X155564861Y-147168874D01*
X155599156Y-147259304D01*
X155615223Y-147355121D01*
X155593400Y-147449793D01*
X155537008Y-147528908D01*
X155454633Y-147580419D01*
X155398839Y-147594470D01*
X155243238Y-147614956D01*
X155097156Y-147675465D01*
X154971717Y-147771717D01*
X154875465Y-147897156D01*
X154814956Y-148043238D01*
X154794317Y-148200000D01*
X154810342Y-148321717D01*
X154814956Y-148356762D01*
X154872390Y-148495419D01*
X154875465Y-148502843D01*
X154971717Y-148628282D01*
X155097156Y-148724534D01*
X155097159Y-148724536D01*
X155243238Y-148785044D01*
X155400000Y-148805682D01*
X155556762Y-148785044D01*
X155702841Y-148724536D01*
X155828282Y-148628282D01*
X155924536Y-148502841D01*
X155985044Y-148356762D01*
X156005682Y-148200000D01*
X155985044Y-148043238D01*
X155985042Y-148043234D01*
X155984390Y-148038277D01*
X155966732Y-147949501D01*
X155985686Y-147854213D01*
X156039662Y-147773431D01*
X156120443Y-147719454D01*
X156215731Y-147700500D01*
X156335055Y-147700500D01*
X156335056Y-147700500D01*
X156500225Y-147659790D01*
X156650852Y-147580734D01*
X156778183Y-147467929D01*
X156790702Y-147449793D01*
X156856049Y-147355121D01*
X156874818Y-147327930D01*
X156935140Y-147168872D01*
X156950500Y-147042372D01*
X156950500Y-128278685D01*
X156950954Y-128263652D01*
X156954357Y-128207394D01*
X156944193Y-128151935D01*
X156941937Y-128137114D01*
X156935140Y-128081128D01*
X156935137Y-128081122D01*
X156935049Y-128080391D01*
X156923997Y-128040741D01*
X156900566Y-127988681D01*
X156894808Y-127974781D01*
X156874818Y-127922070D01*
X156874815Y-127922066D01*
X156874555Y-127921379D01*
X156854337Y-127885530D01*
X156819116Y-127840573D01*
X156810202Y-127828459D01*
X156778183Y-127782071D01*
X156735992Y-127744693D01*
X156725057Y-127734400D01*
X151990657Y-123000000D01*
X156394317Y-123000000D01*
X156414956Y-123156761D01*
X156475465Y-123302843D01*
X156571717Y-123428282D01*
X156697156Y-123524534D01*
X156697159Y-123524536D01*
X156843238Y-123585044D01*
X157000000Y-123605682D01*
X157156762Y-123585044D01*
X157302841Y-123524536D01*
X157428282Y-123428282D01*
X157524536Y-123302841D01*
X157585044Y-123156762D01*
X157605682Y-123000000D01*
X157585044Y-122843238D01*
X157524536Y-122697159D01*
X157521223Y-122692841D01*
X157428282Y-122571717D01*
X157302843Y-122475465D01*
X157301858Y-122475057D01*
X157156762Y-122414956D01*
X157138524Y-122412554D01*
X157000000Y-122394317D01*
X156843238Y-122414956D01*
X156697156Y-122475465D01*
X156571717Y-122571717D01*
X156475465Y-122697156D01*
X156414956Y-122843238D01*
X156394317Y-123000000D01*
X151990657Y-123000000D01*
X149515599Y-120524942D01*
X149505305Y-120514006D01*
X149467929Y-120471817D01*
X149467928Y-120471816D01*
X149467927Y-120471815D01*
X149421531Y-120439790D01*
X149409430Y-120430886D01*
X149383984Y-120410951D01*
X149364473Y-120395664D01*
X149328620Y-120375443D01*
X149275221Y-120355191D01*
X149261334Y-120349438D01*
X149242967Y-120341173D01*
X149209262Y-120326003D01*
X149169607Y-120314949D01*
X149112933Y-120308067D01*
X149098071Y-120305805D01*
X149042608Y-120295642D01*
X149042606Y-120295642D01*
X149003610Y-120298001D01*
X148986335Y-120299046D01*
X148971301Y-120299500D01*
X135893296Y-120299500D01*
X135798008Y-120280546D01*
X135717226Y-120226570D01*
X133166726Y-117676070D01*
X133112750Y-117595288D01*
X133093796Y-117500000D01*
X133112750Y-117404712D01*
X133166726Y-117323930D01*
X133490656Y-117000000D01*
X135894317Y-117000000D01*
X135912083Y-117134943D01*
X135914956Y-117156762D01*
X135970173Y-117290068D01*
X135975465Y-117302843D01*
X136071717Y-117428282D01*
X136195892Y-117523564D01*
X136197159Y-117524536D01*
X136343238Y-117585044D01*
X136500000Y-117605682D01*
X136656762Y-117585044D01*
X136802841Y-117524536D01*
X136834817Y-117500000D01*
X145394317Y-117500000D01*
X145410944Y-117626285D01*
X145414956Y-117656762D01*
X145467152Y-117782773D01*
X145475465Y-117802843D01*
X145571717Y-117928282D01*
X145697156Y-118024534D01*
X145697159Y-118024536D01*
X145843238Y-118085044D01*
X146000000Y-118105682D01*
X146156762Y-118085044D01*
X146302841Y-118024536D01*
X146428282Y-117928282D01*
X146524536Y-117802841D01*
X146585044Y-117656762D01*
X146605682Y-117500000D01*
X146585044Y-117343238D01*
X146524536Y-117197159D01*
X146524534Y-117197156D01*
X146428282Y-117071717D01*
X146302843Y-116975465D01*
X146302841Y-116975464D01*
X146156762Y-116914956D01*
X146138524Y-116912554D01*
X146000000Y-116894317D01*
X145843238Y-116914956D01*
X145697156Y-116975465D01*
X145571717Y-117071717D01*
X145475465Y-117197156D01*
X145414956Y-117343238D01*
X145394317Y-117500000D01*
X136834817Y-117500000D01*
X136928282Y-117428282D01*
X137024536Y-117302841D01*
X137085044Y-117156762D01*
X137105682Y-117000000D01*
X137085044Y-116843238D01*
X137024536Y-116697159D01*
X137024534Y-116697156D01*
X136928282Y-116571717D01*
X136834818Y-116500000D01*
X147894317Y-116500000D01*
X147911174Y-116628032D01*
X147914956Y-116656762D01*
X147975464Y-116802841D01*
X147975465Y-116802843D01*
X148071717Y-116928282D01*
X148197156Y-117024534D01*
X148197159Y-117024536D01*
X148343238Y-117085044D01*
X148500000Y-117105682D01*
X148656762Y-117085044D01*
X148802841Y-117024536D01*
X148928282Y-116928282D01*
X149024536Y-116802841D01*
X149085044Y-116656762D01*
X149088826Y-116628030D01*
X149120055Y-116536033D01*
X149184113Y-116462988D01*
X149271249Y-116420017D01*
X149368194Y-116413662D01*
X149450000Y-116424432D01*
X149606762Y-116403794D01*
X149752841Y-116343286D01*
X149878282Y-116247032D01*
X149974536Y-116121591D01*
X150035044Y-115975512D01*
X150055682Y-115818750D01*
X150046631Y-115750000D01*
X154644317Y-115750000D01*
X154659465Y-115865056D01*
X154664956Y-115906762D01*
X154694581Y-115978282D01*
X154725465Y-116052843D01*
X154821717Y-116178282D01*
X154924862Y-116257427D01*
X154947159Y-116274536D01*
X155093238Y-116335044D01*
X155231762Y-116353280D01*
X155249999Y-116355682D01*
X155249999Y-116355681D01*
X155250000Y-116355682D01*
X155406762Y-116335044D01*
X155552841Y-116274536D01*
X155678282Y-116178282D01*
X155774536Y-116052841D01*
X155835044Y-115906762D01*
X155855682Y-115750000D01*
X155855652Y-115749775D01*
X155850407Y-115709931D01*
X155835044Y-115593238D01*
X155774536Y-115447159D01*
X155753133Y-115419266D01*
X155678282Y-115321717D01*
X155552843Y-115225465D01*
X155522912Y-115213067D01*
X155406762Y-115164956D01*
X155388524Y-115162554D01*
X155250000Y-115144317D01*
X155093238Y-115164956D01*
X154947156Y-115225465D01*
X154821717Y-115321717D01*
X154725465Y-115447156D01*
X154664956Y-115593238D01*
X154644317Y-115750000D01*
X150046631Y-115750000D01*
X150035044Y-115661988D01*
X149974536Y-115515909D01*
X149972879Y-115513749D01*
X149878282Y-115390467D01*
X149752843Y-115294215D01*
X149752841Y-115294214D01*
X149606762Y-115233706D01*
X149588524Y-115231304D01*
X149450000Y-115213067D01*
X149293238Y-115233706D01*
X149147156Y-115294215D01*
X149021717Y-115390467D01*
X148925465Y-115515906D01*
X148864954Y-115661992D01*
X148861172Y-115690721D01*
X148829942Y-115782720D01*
X148765882Y-115855764D01*
X148678746Y-115898733D01*
X148581803Y-115905087D01*
X148500000Y-115894317D01*
X148343238Y-115914956D01*
X148197156Y-115975465D01*
X148071717Y-116071717D01*
X147975465Y-116197156D01*
X147914956Y-116343238D01*
X147894317Y-116500000D01*
X136834818Y-116500000D01*
X136802843Y-116475465D01*
X136802841Y-116475464D01*
X136656762Y-116414956D01*
X136638524Y-116412554D01*
X136500000Y-116394317D01*
X136343238Y-116414956D01*
X136197156Y-116475465D01*
X136071717Y-116571717D01*
X135975465Y-116697156D01*
X135914956Y-116843238D01*
X135894317Y-117000000D01*
X133490656Y-117000000D01*
X134921908Y-115568749D01*
X142694317Y-115568749D01*
X142710376Y-115690721D01*
X142714956Y-115725512D01*
X142767823Y-115853143D01*
X142775465Y-115871593D01*
X142871717Y-115997032D01*
X142972723Y-116074536D01*
X142997159Y-116093286D01*
X143143238Y-116153794D01*
X143300000Y-116174432D01*
X143456762Y-116153794D01*
X143602841Y-116093286D01*
X143728282Y-115997032D01*
X143824536Y-115871591D01*
X143885044Y-115725512D01*
X143905682Y-115568750D01*
X143905682Y-115568749D01*
X145344317Y-115568749D01*
X145360376Y-115690721D01*
X145364956Y-115725512D01*
X145417823Y-115853143D01*
X145425465Y-115871593D01*
X145521717Y-115997032D01*
X145622723Y-116074536D01*
X145647159Y-116093286D01*
X145793238Y-116153794D01*
X145950000Y-116174432D01*
X146106762Y-116153794D01*
X146252841Y-116093286D01*
X146378282Y-115997032D01*
X146474536Y-115871591D01*
X146535044Y-115725512D01*
X146555682Y-115568750D01*
X146535044Y-115411988D01*
X146474536Y-115265909D01*
X146460147Y-115247157D01*
X146378282Y-115140467D01*
X146252843Y-115044215D01*
X146252841Y-115044214D01*
X146106762Y-114983706D01*
X146086123Y-114980988D01*
X145949999Y-114963067D01*
X145793238Y-114983706D01*
X145647156Y-115044215D01*
X145521717Y-115140467D01*
X145425465Y-115265906D01*
X145364956Y-115411988D01*
X145344317Y-115568749D01*
X143905682Y-115568749D01*
X143903847Y-115554815D01*
X143892921Y-115471817D01*
X143885044Y-115411988D01*
X143824536Y-115265909D01*
X143824533Y-115265906D01*
X143816553Y-115246639D01*
X143797599Y-115151351D01*
X143816553Y-115056063D01*
X143870529Y-114975281D01*
X143895010Y-114953811D01*
X143928282Y-114928282D01*
X144024536Y-114802841D01*
X144085044Y-114656762D01*
X144105682Y-114500000D01*
X144085044Y-114343238D01*
X144024536Y-114197159D01*
X144024534Y-114197156D01*
X143928282Y-114071717D01*
X143802843Y-113975465D01*
X143802841Y-113975464D01*
X143656762Y-113914956D01*
X143638524Y-113912554D01*
X143500000Y-113894317D01*
X143343238Y-113914956D01*
X143197156Y-113975465D01*
X143071717Y-114071717D01*
X142975465Y-114197156D01*
X142914956Y-114343238D01*
X142894317Y-114500000D01*
X142912554Y-114638524D01*
X142914956Y-114656762D01*
X142972482Y-114795642D01*
X142983446Y-114822110D01*
X143002400Y-114917399D01*
X142983446Y-115012687D01*
X142929470Y-115093468D01*
X142904981Y-115114944D01*
X142871717Y-115140467D01*
X142775465Y-115265906D01*
X142714956Y-115411988D01*
X142694317Y-115568749D01*
X134921908Y-115568749D01*
X136147419Y-114343238D01*
X137921907Y-112568749D01*
X143094317Y-112568749D01*
X143105905Y-112656762D01*
X143114956Y-112725512D01*
X143146987Y-112802841D01*
X143175465Y-112871593D01*
X143271717Y-112997032D01*
X143393430Y-113090425D01*
X143397159Y-113093286D01*
X143543238Y-113153794D01*
X143700000Y-113174432D01*
X143856762Y-113153794D01*
X144002841Y-113093286D01*
X144128282Y-112997032D01*
X144224536Y-112871591D01*
X144285044Y-112725512D01*
X144305682Y-112568750D01*
X144285044Y-112411988D01*
X144224536Y-112265909D01*
X144193502Y-112225464D01*
X144128282Y-112140467D01*
X144002843Y-112044215D01*
X143955329Y-112024534D01*
X143856762Y-111983706D01*
X143836123Y-111980988D01*
X143699999Y-111963067D01*
X143543238Y-111983706D01*
X143397156Y-112044215D01*
X143271717Y-112140467D01*
X143175465Y-112265906D01*
X143114956Y-112411988D01*
X143094317Y-112568749D01*
X137921907Y-112568749D01*
X138990656Y-111500000D01*
X151394317Y-111500000D01*
X151411403Y-111629775D01*
X151414956Y-111656762D01*
X151463282Y-111773430D01*
X151475465Y-111802843D01*
X151571717Y-111928282D01*
X151697156Y-112024534D01*
X151697159Y-112024536D01*
X151843238Y-112085044D01*
X151981762Y-112103280D01*
X151999999Y-112105682D01*
X151999999Y-112105681D01*
X152000000Y-112105682D01*
X152156762Y-112085044D01*
X152302841Y-112024536D01*
X152428282Y-111928282D01*
X152524536Y-111802841D01*
X152585044Y-111656762D01*
X152605682Y-111500000D01*
X152585044Y-111343238D01*
X152524536Y-111197159D01*
X152524534Y-111197156D01*
X152428282Y-111071717D01*
X152302843Y-110975465D01*
X152302841Y-110975464D01*
X152156762Y-110914956D01*
X152138524Y-110912554D01*
X152000000Y-110894317D01*
X151843238Y-110914956D01*
X151697156Y-110975465D01*
X151571717Y-111071717D01*
X151475465Y-111197156D01*
X151414956Y-111343238D01*
X151394317Y-111500000D01*
X138990656Y-111500000D01*
X139217226Y-111273430D01*
X139298009Y-111219454D01*
X139393297Y-111200500D01*
X144734502Y-111200500D01*
X144749536Y-111200954D01*
X144752993Y-111201163D01*
X144805807Y-111204358D01*
X144861303Y-111194187D01*
X144876097Y-111191936D01*
X144932073Y-111185140D01*
X144932076Y-111185138D01*
X144932815Y-111185049D01*
X144972460Y-111173997D01*
X144973129Y-111173695D01*
X144973133Y-111173695D01*
X145024543Y-111150556D01*
X145038415Y-111144809D01*
X145091131Y-111124818D01*
X145091135Y-111124815D01*
X145091829Y-111124552D01*
X145127672Y-111104336D01*
X145128254Y-111103879D01*
X145128258Y-111103878D01*
X145172639Y-111069106D01*
X145184725Y-111060213D01*
X145231130Y-111028183D01*
X145268508Y-110985990D01*
X145278787Y-110975069D01*
X146462763Y-109791092D01*
X146473683Y-109780814D01*
X146515884Y-109743429D01*
X146547915Y-109697022D01*
X146556809Y-109684935D01*
X146591579Y-109640556D01*
X146591580Y-109640551D01*
X146592039Y-109639967D01*
X146612255Y-109604122D01*
X146612515Y-109603435D01*
X146612519Y-109603430D01*
X146632510Y-109550714D01*
X146638253Y-109536849D01*
X146661396Y-109485431D01*
X146661397Y-109485425D01*
X146661696Y-109484761D01*
X146672750Y-109445114D01*
X146672839Y-109444375D01*
X146672841Y-109444372D01*
X146679636Y-109388405D01*
X146681891Y-109373587D01*
X146692059Y-109318106D01*
X146688655Y-109261833D01*
X146688201Y-109246800D01*
X146688201Y-107276095D01*
X146707155Y-107180807D01*
X146761128Y-107100028D01*
X146761133Y-107100023D01*
X146837729Y-107023429D01*
X146918510Y-106969453D01*
X147013797Y-106950500D01*
X149856703Y-106950500D01*
X149951991Y-106969454D01*
X150032772Y-107023429D01*
X151534633Y-108525290D01*
X151634362Y-108603422D01*
X151634946Y-108603879D01*
X151790063Y-108673693D01*
X151790067Y-108673693D01*
X151790068Y-108673694D01*
X151957394Y-108704357D01*
X152127196Y-108694086D01*
X152289606Y-108643478D01*
X152435184Y-108555472D01*
X152555472Y-108435184D01*
X152643478Y-108289606D01*
X152694086Y-108127196D01*
X152701780Y-108000000D01*
X153894317Y-108000000D01*
X153914956Y-108156761D01*
X153975465Y-108302843D01*
X154071717Y-108428282D01*
X154197156Y-108524534D01*
X154197159Y-108524536D01*
X154343238Y-108585044D01*
X154481762Y-108603280D01*
X154499999Y-108605682D01*
X154499999Y-108605681D01*
X154500000Y-108605682D01*
X154656762Y-108585044D01*
X154802841Y-108524536D01*
X154928282Y-108428282D01*
X155024536Y-108302841D01*
X155085044Y-108156762D01*
X155105682Y-108000000D01*
X155085044Y-107843238D01*
X155024536Y-107697159D01*
X155024534Y-107697156D01*
X154928282Y-107571717D01*
X154802843Y-107475465D01*
X154802841Y-107475464D01*
X154656762Y-107414956D01*
X154638524Y-107412554D01*
X154500000Y-107394317D01*
X154343238Y-107414956D01*
X154197156Y-107475465D01*
X154071717Y-107571717D01*
X153975465Y-107697156D01*
X153914956Y-107843238D01*
X153894317Y-108000000D01*
X152701780Y-108000000D01*
X152704357Y-107957394D01*
X152673694Y-107790068D01*
X152673693Y-107790067D01*
X152673693Y-107790063D01*
X152603879Y-107634946D01*
X152529929Y-107540554D01*
X152529926Y-107540551D01*
X152525290Y-107534633D01*
X150965367Y-105974710D01*
X150765598Y-105774942D01*
X150755305Y-105764006D01*
X150717929Y-105721817D01*
X150717928Y-105721816D01*
X150717927Y-105721815D01*
X150671531Y-105689790D01*
X150659430Y-105680886D01*
X150631242Y-105658802D01*
X150614473Y-105645664D01*
X150578620Y-105625443D01*
X150525221Y-105605191D01*
X150511334Y-105599438D01*
X150492967Y-105591173D01*
X150459262Y-105576003D01*
X150419607Y-105564949D01*
X150362933Y-105558067D01*
X150348071Y-105555805D01*
X150292608Y-105545642D01*
X150292606Y-105545642D01*
X150253610Y-105548001D01*
X150236335Y-105549046D01*
X150221301Y-105549500D01*
X146649199Y-105549500D01*
X146634165Y-105549046D01*
X146623960Y-105548428D01*
X146577894Y-105545642D01*
X146577893Y-105545642D01*
X146577890Y-105545642D01*
X146522427Y-105555805D01*
X146507567Y-105558067D01*
X146450898Y-105564948D01*
X146411236Y-105576004D01*
X146359165Y-105599439D01*
X146345277Y-105605191D01*
X146291885Y-105625440D01*
X146256023Y-105645667D01*
X146238563Y-105659346D01*
X146211081Y-105680877D01*
X146211077Y-105680880D01*
X146198969Y-105689788D01*
X146152571Y-105721815D01*
X146115200Y-105763998D01*
X146104894Y-105774947D01*
X145512648Y-106367193D01*
X145501699Y-106377499D01*
X145459516Y-106414870D01*
X145427489Y-106461268D01*
X145418581Y-106473376D01*
X145383368Y-106518322D01*
X145363143Y-106554182D01*
X145342896Y-106607568D01*
X145337142Y-106621459D01*
X145313705Y-106673533D01*
X145302649Y-106713198D01*
X145295767Y-106769871D01*
X145293506Y-106784729D01*
X145283343Y-106840193D01*
X145286747Y-106896463D01*
X145287201Y-106911497D01*
X145287201Y-108882202D01*
X145268247Y-108977490D01*
X145214271Y-109058271D01*
X144545974Y-109726569D01*
X144465192Y-109780546D01*
X144369904Y-109799500D01*
X139028699Y-109799500D01*
X139013665Y-109799046D01*
X139003460Y-109798428D01*
X138957394Y-109795642D01*
X138957393Y-109795642D01*
X138957390Y-109795642D01*
X138901927Y-109805805D01*
X138887067Y-109808067D01*
X138830398Y-109814948D01*
X138790736Y-109826004D01*
X138738665Y-109849439D01*
X138724777Y-109855191D01*
X138671385Y-109875440D01*
X138635523Y-109895667D01*
X138590577Y-109930880D01*
X138578469Y-109939788D01*
X138532071Y-109971815D01*
X138494700Y-110013998D01*
X138484394Y-110024947D01*
X136735912Y-111773430D01*
X131564815Y-116944527D01*
X131417041Y-117092296D01*
X131416987Y-117092355D01*
X123676070Y-124833273D01*
X123595288Y-124887249D01*
X123500000Y-124906203D01*
X123404712Y-124887249D01*
X123323930Y-124833273D01*
X120740657Y-122250000D01*
X122394317Y-122250000D01*
X122412554Y-122388524D01*
X122414956Y-122406762D01*
X122475464Y-122552841D01*
X122475465Y-122552843D01*
X122571717Y-122678282D01*
X122697156Y-122774534D01*
X122697159Y-122774536D01*
X122843238Y-122835044D01*
X123000000Y-122855682D01*
X123156762Y-122835044D01*
X123302841Y-122774536D01*
X123428282Y-122678282D01*
X123524536Y-122552841D01*
X123585044Y-122406762D01*
X123605682Y-122250000D01*
X123585044Y-122093238D01*
X123524536Y-121947159D01*
X123524534Y-121947156D01*
X123428282Y-121821717D01*
X123302843Y-121725465D01*
X123302841Y-121725464D01*
X123156762Y-121664956D01*
X123138524Y-121662554D01*
X123000000Y-121644317D01*
X122843238Y-121664956D01*
X122697156Y-121725465D01*
X122571717Y-121821717D01*
X122475465Y-121947156D01*
X122414956Y-122093238D01*
X122394317Y-122250000D01*
X120740657Y-122250000D01*
X120015599Y-121524942D01*
X120005305Y-121514006D01*
X119967929Y-121471817D01*
X119967928Y-121471816D01*
X119967927Y-121471815D01*
X119921531Y-121439790D01*
X119909430Y-121430886D01*
X119883984Y-121410951D01*
X119864473Y-121395664D01*
X119828620Y-121375443D01*
X119775221Y-121355191D01*
X119761334Y-121349438D01*
X119742967Y-121341173D01*
X119709262Y-121326003D01*
X119669607Y-121314949D01*
X119612933Y-121308067D01*
X119598071Y-121305805D01*
X119542608Y-121295642D01*
X119542606Y-121295642D01*
X119503610Y-121298001D01*
X119486335Y-121299046D01*
X119471301Y-121299500D01*
X117295021Y-121299500D01*
X117199733Y-121280546D01*
X117118951Y-121226570D01*
X117064975Y-121145788D01*
X117046021Y-121050500D01*
X117064975Y-120955212D01*
X117085044Y-120906762D01*
X117105682Y-120750000D01*
X117085044Y-120593238D01*
X117024536Y-120447159D01*
X117018882Y-120439790D01*
X116928282Y-120321717D01*
X116802843Y-120225465D01*
X116802841Y-120225464D01*
X116656762Y-120164956D01*
X116638524Y-120162554D01*
X116500000Y-120144317D01*
X116343238Y-120164956D01*
X116197156Y-120225465D01*
X116071717Y-120321717D01*
X115975465Y-120447156D01*
X115914956Y-120593238D01*
X115894317Y-120750000D01*
X115914955Y-120906760D01*
X115914956Y-120906762D01*
X115935025Y-120955212D01*
X115953979Y-121050499D01*
X115935026Y-121145787D01*
X115881050Y-121226569D01*
X115800268Y-121280546D01*
X115704980Y-121299500D01*
X91393297Y-121299500D01*
X91298009Y-121280546D01*
X91217227Y-121226570D01*
X87990657Y-118000000D01*
X90394317Y-118000000D01*
X90405514Y-118085043D01*
X90414956Y-118156762D01*
X90461115Y-118268200D01*
X90475465Y-118302843D01*
X90571717Y-118428282D01*
X90685512Y-118515599D01*
X90697159Y-118524536D01*
X90843238Y-118585044D01*
X91000000Y-118605682D01*
X91156762Y-118585044D01*
X91302841Y-118524536D01*
X91428282Y-118428282D01*
X91524536Y-118302841D01*
X91585044Y-118156762D01*
X91605682Y-118000000D01*
X91585044Y-117843238D01*
X91524536Y-117697159D01*
X91500733Y-117666138D01*
X91428282Y-117571717D01*
X91334818Y-117500000D01*
X94394317Y-117500000D01*
X94410944Y-117626285D01*
X94414956Y-117656762D01*
X94467152Y-117782773D01*
X94475465Y-117802843D01*
X94571717Y-117928282D01*
X94697156Y-118024534D01*
X94697159Y-118024536D01*
X94843238Y-118085044D01*
X95000000Y-118105682D01*
X95156762Y-118085044D01*
X95302841Y-118024536D01*
X95428282Y-117928282D01*
X95524536Y-117802841D01*
X95585044Y-117656762D01*
X95605682Y-117500000D01*
X115894317Y-117500000D01*
X115910944Y-117626285D01*
X115914956Y-117656762D01*
X115967152Y-117782773D01*
X115975465Y-117802843D01*
X116071717Y-117928282D01*
X116197156Y-118024534D01*
X116197159Y-118024536D01*
X116343238Y-118085044D01*
X116500000Y-118105682D01*
X116656762Y-118085044D01*
X116802841Y-118024536D01*
X116928282Y-117928282D01*
X117024536Y-117802841D01*
X117085044Y-117656762D01*
X117105682Y-117500000D01*
X117085044Y-117343238D01*
X117024536Y-117197159D01*
X117024534Y-117197156D01*
X116928282Y-117071717D01*
X116802843Y-116975465D01*
X116802841Y-116975464D01*
X116656762Y-116914956D01*
X116638524Y-116912554D01*
X116500000Y-116894317D01*
X116343238Y-116914956D01*
X116197156Y-116975465D01*
X116071717Y-117071717D01*
X115975465Y-117197156D01*
X115914956Y-117343238D01*
X115894317Y-117500000D01*
X95605682Y-117500000D01*
X95585044Y-117343238D01*
X95524536Y-117197159D01*
X95524534Y-117197156D01*
X95428282Y-117071717D01*
X95302843Y-116975465D01*
X95302841Y-116975464D01*
X95156762Y-116914956D01*
X95138524Y-116912554D01*
X95000000Y-116894317D01*
X94843238Y-116914956D01*
X94697156Y-116975465D01*
X94571717Y-117071717D01*
X94475465Y-117197156D01*
X94414956Y-117343238D01*
X94394317Y-117500000D01*
X91334818Y-117500000D01*
X91302843Y-117475465D01*
X91292025Y-117470984D01*
X91156762Y-117414956D01*
X91138524Y-117412554D01*
X91000000Y-117394317D01*
X90843238Y-117414956D01*
X90697156Y-117475465D01*
X90571717Y-117571717D01*
X90475465Y-117697156D01*
X90414956Y-117843238D01*
X90394317Y-118000000D01*
X87990657Y-118000000D01*
X87773430Y-117782773D01*
X87719454Y-117701991D01*
X87700500Y-117606703D01*
X87700500Y-117528685D01*
X87700954Y-117513652D01*
X87701780Y-117499999D01*
X87704357Y-117457394D01*
X87694193Y-117401935D01*
X87691937Y-117387114D01*
X87685140Y-117331128D01*
X87685137Y-117331122D01*
X87685049Y-117330391D01*
X87673997Y-117290741D01*
X87650566Y-117238681D01*
X87644808Y-117224781D01*
X87644704Y-117224507D01*
X87624818Y-117172070D01*
X87624815Y-117172066D01*
X87624555Y-117171379D01*
X87604337Y-117135530D01*
X87569116Y-117090573D01*
X87560202Y-117078459D01*
X87555549Y-117071718D01*
X87528183Y-117032071D01*
X87485983Y-116994685D01*
X87475049Y-116984392D01*
X87210111Y-116719454D01*
X86990656Y-116500000D01*
X96894317Y-116500000D01*
X96911174Y-116628032D01*
X96914956Y-116656762D01*
X96975464Y-116802841D01*
X96975465Y-116802843D01*
X97071717Y-116928282D01*
X97197156Y-117024534D01*
X97197159Y-117024536D01*
X97343238Y-117085044D01*
X97500000Y-117105682D01*
X97656762Y-117085044D01*
X97802841Y-117024536D01*
X97928282Y-116928282D01*
X98024536Y-116802841D01*
X98085044Y-116656762D01*
X98098575Y-116553981D01*
X98116900Y-116500000D01*
X118644317Y-116500000D01*
X118661174Y-116628032D01*
X118664956Y-116656762D01*
X118725464Y-116802841D01*
X118725465Y-116802843D01*
X118821717Y-116928282D01*
X118947156Y-117024534D01*
X118947159Y-117024536D01*
X119093238Y-117085044D01*
X119231762Y-117103280D01*
X119249999Y-117105682D01*
X119249999Y-117105681D01*
X119250000Y-117105682D01*
X119406762Y-117085044D01*
X119552841Y-117024536D01*
X119678282Y-116928282D01*
X119774536Y-116802841D01*
X119835044Y-116656762D01*
X119847532Y-116561899D01*
X119878761Y-116469903D01*
X119942820Y-116396858D01*
X120029955Y-116353887D01*
X120061894Y-116347533D01*
X120156762Y-116335044D01*
X120302841Y-116274536D01*
X120428282Y-116178282D01*
X120524536Y-116052841D01*
X120585044Y-115906762D01*
X120605682Y-115750000D01*
X120605652Y-115749775D01*
X120600407Y-115709931D01*
X120585044Y-115593238D01*
X120524536Y-115447159D01*
X120503133Y-115419266D01*
X120428282Y-115321717D01*
X120302843Y-115225465D01*
X120272912Y-115213067D01*
X120156762Y-115164956D01*
X120138524Y-115162554D01*
X120000000Y-115144317D01*
X119843238Y-115164956D01*
X119697156Y-115225465D01*
X119571717Y-115321717D01*
X119475465Y-115447156D01*
X119414956Y-115593238D01*
X119402467Y-115688099D01*
X119371237Y-115780098D01*
X119307178Y-115853143D01*
X119220042Y-115896113D01*
X119188099Y-115902467D01*
X119093238Y-115914956D01*
X118947156Y-115975465D01*
X118821717Y-116071717D01*
X118725465Y-116197156D01*
X118664956Y-116343238D01*
X118644317Y-116500000D01*
X98116900Y-116500000D01*
X98129805Y-116461983D01*
X98193863Y-116388938D01*
X98280999Y-116345968D01*
X98377944Y-116339613D01*
X98500000Y-116355682D01*
X98656762Y-116335044D01*
X98802841Y-116274536D01*
X98928282Y-116178282D01*
X99024536Y-116052841D01*
X99085044Y-115906762D01*
X99105682Y-115750000D01*
X99085044Y-115593238D01*
X99067134Y-115549999D01*
X113344317Y-115549999D01*
X113355763Y-115636937D01*
X113364956Y-115706762D01*
X113399940Y-115791220D01*
X113425465Y-115852843D01*
X113521717Y-115978282D01*
X113647156Y-116074534D01*
X113647159Y-116074536D01*
X113793238Y-116135044D01*
X113950000Y-116155682D01*
X114106762Y-116135044D01*
X114252841Y-116074536D01*
X114378282Y-115978282D01*
X114474536Y-115852841D01*
X114535044Y-115706762D01*
X114555682Y-115550000D01*
X115894317Y-115550000D01*
X115905763Y-115636937D01*
X115914956Y-115706762D01*
X115949940Y-115791220D01*
X115975465Y-115852843D01*
X116071717Y-115978282D01*
X116197156Y-116074534D01*
X116197159Y-116074536D01*
X116343238Y-116135044D01*
X116500000Y-116155682D01*
X116656762Y-116135044D01*
X116802841Y-116074536D01*
X116928282Y-115978282D01*
X117024536Y-115852841D01*
X117085044Y-115706762D01*
X117105682Y-115550000D01*
X117085044Y-115393238D01*
X117024536Y-115247159D01*
X117024137Y-115246639D01*
X116928282Y-115121717D01*
X116802843Y-115025465D01*
X116802841Y-115025464D01*
X116656762Y-114964956D01*
X116638524Y-114962554D01*
X116500000Y-114944317D01*
X116343238Y-114964956D01*
X116197156Y-115025465D01*
X116071717Y-115121717D01*
X115975465Y-115247156D01*
X115914956Y-115393238D01*
X115894317Y-115550000D01*
X114555682Y-115550000D01*
X114535044Y-115393238D01*
X114474536Y-115247159D01*
X114457889Y-115225464D01*
X114445379Y-115209160D01*
X114402409Y-115122024D01*
X114396055Y-115025077D01*
X114427286Y-114933078D01*
X114445372Y-114906008D01*
X114524536Y-114802841D01*
X114585044Y-114656762D01*
X114605682Y-114500000D01*
X114585044Y-114343238D01*
X114546423Y-114250000D01*
X127664317Y-114250000D01*
X127684956Y-114406761D01*
X127745465Y-114552843D01*
X127841717Y-114678282D01*
X127967156Y-114774534D01*
X127967159Y-114774536D01*
X128113238Y-114835044D01*
X128251762Y-114853280D01*
X128269999Y-114855682D01*
X128269999Y-114855681D01*
X128270000Y-114855682D01*
X128426762Y-114835044D01*
X128572841Y-114774536D01*
X128698282Y-114678282D01*
X128794536Y-114552841D01*
X128855044Y-114406762D01*
X128875682Y-114250000D01*
X128855044Y-114093238D01*
X128794536Y-113947159D01*
X128753990Y-113894318D01*
X128698282Y-113821717D01*
X128572843Y-113725465D01*
X128572841Y-113725464D01*
X128426762Y-113664956D01*
X128408524Y-113662554D01*
X128270000Y-113644317D01*
X128113238Y-113664956D01*
X127967156Y-113725465D01*
X127841717Y-113821717D01*
X127745465Y-113947156D01*
X127684956Y-114093238D01*
X127664317Y-114250000D01*
X114546423Y-114250000D01*
X114524536Y-114197159D01*
X114524534Y-114197156D01*
X114428282Y-114071717D01*
X114302843Y-113975465D01*
X114302841Y-113975464D01*
X114156762Y-113914956D01*
X114138524Y-113912554D01*
X114000000Y-113894317D01*
X113843238Y-113914956D01*
X113697156Y-113975465D01*
X113571717Y-114071717D01*
X113475465Y-114197156D01*
X113414956Y-114343238D01*
X113394317Y-114500000D01*
X113414956Y-114656761D01*
X113475465Y-114802843D01*
X113504620Y-114840839D01*
X113547590Y-114927975D01*
X113553943Y-115024922D01*
X113522713Y-115116921D01*
X113504620Y-115143999D01*
X113425465Y-115247157D01*
X113425464Y-115247158D01*
X113425464Y-115247159D01*
X113391153Y-115329994D01*
X113364956Y-115393238D01*
X113344317Y-115549999D01*
X99067134Y-115549999D01*
X99024536Y-115447159D01*
X99003133Y-115419266D01*
X98928282Y-115321717D01*
X98802843Y-115225465D01*
X98772912Y-115213067D01*
X98656762Y-115164956D01*
X98638524Y-115162554D01*
X98500000Y-115144317D01*
X98343238Y-115164956D01*
X98197156Y-115225465D01*
X98071717Y-115321717D01*
X97975465Y-115447156D01*
X97914956Y-115593238D01*
X97901424Y-115696019D01*
X97870193Y-115788018D01*
X97806134Y-115861062D01*
X97718998Y-115904032D01*
X97622054Y-115910386D01*
X97500000Y-115894317D01*
X97343238Y-115914956D01*
X97197156Y-115975465D01*
X97071717Y-116071717D01*
X96975465Y-116197156D01*
X96914956Y-116343238D01*
X96894317Y-116500000D01*
X86990656Y-116500000D01*
X86916725Y-116426069D01*
X86862749Y-116345288D01*
X86843795Y-116250000D01*
X86862749Y-116154712D01*
X86916723Y-116073932D01*
X87025290Y-115965367D01*
X87103878Y-115865056D01*
X87173695Y-115709931D01*
X87203003Y-115550000D01*
X91844317Y-115550000D01*
X91855763Y-115636937D01*
X91864956Y-115706762D01*
X91899940Y-115791220D01*
X91925465Y-115852843D01*
X92021717Y-115978282D01*
X92147156Y-116074534D01*
X92147159Y-116074536D01*
X92293238Y-116135044D01*
X92431762Y-116153280D01*
X92449999Y-116155682D01*
X92449999Y-116155681D01*
X92450000Y-116155682D01*
X92606762Y-116135044D01*
X92752841Y-116074536D01*
X92878282Y-115978282D01*
X92974536Y-115852841D01*
X93035044Y-115706762D01*
X93055682Y-115550000D01*
X93055682Y-115549999D01*
X94394317Y-115549999D01*
X94405763Y-115636937D01*
X94414956Y-115706762D01*
X94449940Y-115791220D01*
X94475465Y-115852843D01*
X94571717Y-115978282D01*
X94697156Y-116074534D01*
X94697159Y-116074536D01*
X94843238Y-116135044D01*
X95000000Y-116155682D01*
X95156762Y-116135044D01*
X95302841Y-116074536D01*
X95428282Y-115978282D01*
X95524536Y-115852841D01*
X95585044Y-115706762D01*
X95605682Y-115550000D01*
X95585044Y-115393238D01*
X95524536Y-115247159D01*
X95524137Y-115246639D01*
X95428282Y-115121717D01*
X95302843Y-115025465D01*
X95302841Y-115025464D01*
X95156762Y-114964956D01*
X95138524Y-114962554D01*
X95000000Y-114944317D01*
X94843238Y-114964956D01*
X94697156Y-115025465D01*
X94571717Y-115121717D01*
X94475465Y-115247156D01*
X94414956Y-115393238D01*
X94394317Y-115549999D01*
X93055682Y-115549999D01*
X93035044Y-115393238D01*
X92974536Y-115247159D01*
X92957889Y-115225464D01*
X92945379Y-115209160D01*
X92902409Y-115122024D01*
X92896055Y-115025077D01*
X92927286Y-114933078D01*
X92945372Y-114906008D01*
X93024536Y-114802841D01*
X93085044Y-114656762D01*
X93105682Y-114500000D01*
X93085044Y-114343238D01*
X93046423Y-114250000D01*
X105644317Y-114250000D01*
X105664956Y-114406761D01*
X105725465Y-114552843D01*
X105821717Y-114678282D01*
X105947156Y-114774534D01*
X105947159Y-114774536D01*
X106093238Y-114835044D01*
X106250000Y-114855682D01*
X106406762Y-114835044D01*
X106552841Y-114774536D01*
X106678282Y-114678282D01*
X106774536Y-114552841D01*
X106835044Y-114406762D01*
X106855682Y-114250000D01*
X106835044Y-114093238D01*
X106774536Y-113947159D01*
X106733990Y-113894318D01*
X106678282Y-113821717D01*
X106552843Y-113725465D01*
X106552841Y-113725464D01*
X106406762Y-113664956D01*
X106386122Y-113662238D01*
X106249999Y-113644317D01*
X106093238Y-113664956D01*
X105947156Y-113725465D01*
X105821717Y-113821717D01*
X105725465Y-113947156D01*
X105664956Y-114093238D01*
X105644317Y-114250000D01*
X93046423Y-114250000D01*
X93024536Y-114197159D01*
X93024534Y-114197156D01*
X92928282Y-114071717D01*
X92802843Y-113975465D01*
X92802841Y-113975464D01*
X92656762Y-113914956D01*
X92638524Y-113912554D01*
X92500000Y-113894317D01*
X92343238Y-113914956D01*
X92197156Y-113975465D01*
X92071717Y-114071717D01*
X91975465Y-114197156D01*
X91914956Y-114343238D01*
X91894317Y-114500000D01*
X91914956Y-114656761D01*
X91975465Y-114802843D01*
X92004620Y-114840839D01*
X92047590Y-114927975D01*
X92053943Y-115024922D01*
X92022713Y-115116921D01*
X92004620Y-115143999D01*
X91925465Y-115247157D01*
X91925464Y-115247158D01*
X91925464Y-115247159D01*
X91891153Y-115329994D01*
X91864956Y-115393238D01*
X91844317Y-115550000D01*
X87203003Y-115550000D01*
X87204358Y-115542606D01*
X87194086Y-115372804D01*
X87143478Y-115210394D01*
X87055472Y-115064815D01*
X86935185Y-114944528D01*
X86916244Y-114933078D01*
X86789606Y-114856522D01*
X86627196Y-114805914D01*
X86457394Y-114795642D01*
X86457393Y-114795642D01*
X86290067Y-114826305D01*
X86134943Y-114896122D01*
X86040557Y-114970068D01*
X86040548Y-114970075D01*
X86034633Y-114974710D01*
X86029324Y-114980018D01*
X86029316Y-114980026D01*
X85782773Y-115226570D01*
X85701991Y-115280546D01*
X85606703Y-115299500D01*
X85586286Y-115299500D01*
X85543341Y-115295597D01*
X85486335Y-115299046D01*
X85471301Y-115299500D01*
X83914944Y-115299500D01*
X83888116Y-115306112D01*
X83858549Y-115311530D01*
X83831128Y-115314859D01*
X83805301Y-115324654D01*
X83776607Y-115333595D01*
X83749773Y-115340209D01*
X83725308Y-115353049D01*
X83697905Y-115365383D01*
X83672066Y-115375183D01*
X83649324Y-115390880D01*
X83623609Y-115406426D01*
X83599148Y-115419265D01*
X83578468Y-115437585D01*
X83554815Y-115456116D01*
X83532069Y-115471817D01*
X83513749Y-115492496D01*
X83492496Y-115513749D01*
X83471817Y-115532069D01*
X83456116Y-115554815D01*
X83437585Y-115578468D01*
X83419265Y-115599148D01*
X83406426Y-115623609D01*
X83390880Y-115649324D01*
X83375183Y-115672066D01*
X83365383Y-115697905D01*
X83353049Y-115725308D01*
X83340209Y-115749773D01*
X83333595Y-115776607D01*
X83324654Y-115805300D01*
X83322987Y-115809696D01*
X83271478Y-115892073D01*
X83192366Y-115948467D01*
X83097695Y-115970294D01*
X83001877Y-115954230D01*
X82994877Y-115951454D01*
X82906763Y-115914956D01*
X82750000Y-115894317D01*
X82593238Y-115914956D01*
X82447156Y-115975465D01*
X82321717Y-116071717D01*
X82225465Y-116197156D01*
X82164956Y-116343238D01*
X82144317Y-116499999D01*
X82161174Y-116628032D01*
X82164956Y-116656762D01*
X82225464Y-116802841D01*
X82225465Y-116802843D01*
X82321717Y-116928282D01*
X82382224Y-116974710D01*
X82447159Y-117024536D01*
X82522385Y-117055695D01*
X82603165Y-117109672D01*
X82657141Y-117190453D01*
X82676095Y-117285742D01*
X82657141Y-117381030D01*
X82603165Y-117461811D01*
X82374348Y-117690628D01*
X82293566Y-117744604D01*
X82198278Y-117763558D01*
X82102990Y-117744604D01*
X82022208Y-117690628D01*
X82000738Y-117666145D01*
X81943478Y-117591522D01*
X81928281Y-117571716D01*
X81802843Y-117475465D01*
X81792025Y-117470984D01*
X81656762Y-117414956D01*
X81638524Y-117412554D01*
X81500000Y-117394317D01*
X81343238Y-117414956D01*
X81197156Y-117475465D01*
X81071716Y-117571718D01*
X81008178Y-117654523D01*
X80935133Y-117718582D01*
X80843134Y-117749811D01*
X80746187Y-117743456D01*
X80659052Y-117700485D01*
X80605711Y-117644389D01*
X80528183Y-117532071D01*
X80519675Y-117524534D01*
X80400852Y-117419266D01*
X80339558Y-117387096D01*
X80250226Y-117340210D01*
X80167640Y-117319854D01*
X80085056Y-117299500D01*
X79914944Y-117299500D01*
X79878644Y-117308447D01*
X79749773Y-117340210D01*
X79599149Y-117419265D01*
X79471815Y-117532071D01*
X79375181Y-117672070D01*
X79314861Y-117831124D01*
X79314860Y-117831126D01*
X79314860Y-117831128D01*
X79299500Y-117957628D01*
X79299500Y-117965144D01*
X79299500Y-117965145D01*
X79299500Y-118356702D01*
X79280546Y-118451990D01*
X79226570Y-118532772D01*
X79226567Y-118532774D01*
X79190673Y-118568667D01*
X79157559Y-118596265D01*
X79119692Y-118639007D01*
X79109387Y-118649954D01*
X78730030Y-119029312D01*
X78730022Y-119029320D01*
X78724710Y-119034633D01*
X78720079Y-119040543D01*
X78720071Y-119040553D01*
X78646121Y-119134944D01*
X78576305Y-119290065D01*
X78545642Y-119457393D01*
X71700500Y-119457393D01*
X71700500Y-114500000D01*
X80169817Y-114500000D01*
X80190456Y-114656761D01*
X80250965Y-114802843D01*
X80347217Y-114928282D01*
X80419448Y-114983706D01*
X80472659Y-115024536D01*
X80618738Y-115085044D01*
X80757262Y-115103280D01*
X80775499Y-115105682D01*
X80775499Y-115105681D01*
X80775500Y-115105682D01*
X80932262Y-115085044D01*
X81078341Y-115024536D01*
X81203782Y-114928282D01*
X81300036Y-114802841D01*
X81360544Y-114656762D01*
X81381182Y-114500000D01*
X81360544Y-114343238D01*
X81300036Y-114197159D01*
X81300034Y-114197156D01*
X81203782Y-114071717D01*
X81078343Y-113975465D01*
X81078341Y-113975464D01*
X80932262Y-113914956D01*
X80911622Y-113912238D01*
X80775499Y-113894317D01*
X80618738Y-113914956D01*
X80472656Y-113975465D01*
X80347217Y-114071717D01*
X80250965Y-114197156D01*
X80190456Y-114343238D01*
X80169817Y-114500000D01*
X71700500Y-114500000D01*
X71700500Y-111949500D01*
X71719454Y-111854212D01*
X71773430Y-111773430D01*
X71854212Y-111719454D01*
X71949500Y-111700500D01*
X82712727Y-111700500D01*
X82808015Y-111719454D01*
X82888797Y-111773430D01*
X82942773Y-111854212D01*
X82961727Y-111949500D01*
X82942773Y-112044788D01*
X82888797Y-112125570D01*
X82808015Y-112179546D01*
X82697157Y-112225464D01*
X82571717Y-112321717D01*
X82475465Y-112447156D01*
X82414956Y-112593238D01*
X82394317Y-112749999D01*
X82414956Y-112906761D01*
X82475465Y-113052843D01*
X82571717Y-113178282D01*
X82697156Y-113274534D01*
X82697159Y-113274536D01*
X82843238Y-113335044D01*
X83000000Y-113355682D01*
X83156762Y-113335044D01*
X83302841Y-113274536D01*
X83428282Y-113178282D01*
X83428283Y-113178280D01*
X83431495Y-113175816D01*
X83500497Y-113115302D01*
X83592496Y-113084072D01*
X83689443Y-113090425D01*
X83776579Y-113133394D01*
X83820641Y-113177456D01*
X83947156Y-113274534D01*
X83947159Y-113274536D01*
X84093238Y-113335044D01*
X84231762Y-113353280D01*
X84249999Y-113355682D01*
X84249999Y-113355681D01*
X84250000Y-113355682D01*
X84406762Y-113335044D01*
X84552841Y-113274536D01*
X84678282Y-113178282D01*
X84774536Y-113052841D01*
X84835044Y-112906762D01*
X84855682Y-112750000D01*
X84835044Y-112593238D01*
X84774536Y-112447159D01*
X84750572Y-112415928D01*
X84678282Y-112321717D01*
X84552842Y-112225464D01*
X84441985Y-112179546D01*
X84361203Y-112125570D01*
X84307227Y-112044788D01*
X84288273Y-111949500D01*
X84307227Y-111854212D01*
X84361203Y-111773430D01*
X84441985Y-111719454D01*
X84537273Y-111700500D01*
X92101642Y-111700500D01*
X92196930Y-111719454D01*
X92277712Y-111773430D01*
X92331688Y-111854212D01*
X92350642Y-111949500D01*
X92331688Y-112044788D01*
X92299187Y-112101081D01*
X92225465Y-112197157D01*
X92164956Y-112343238D01*
X92144317Y-112499999D01*
X92153369Y-112568749D01*
X92164956Y-112656762D01*
X92203576Y-112749999D01*
X92225465Y-112802843D01*
X92321717Y-112928282D01*
X92447156Y-113024534D01*
X92447159Y-113024536D01*
X92593238Y-113085044D01*
X92750000Y-113105682D01*
X92906762Y-113085044D01*
X93052841Y-113024536D01*
X93178282Y-112928282D01*
X93274536Y-112802841D01*
X93335044Y-112656762D01*
X93355682Y-112500000D01*
X93335044Y-112343238D01*
X93274536Y-112197159D01*
X93200813Y-112101081D01*
X93157842Y-112013946D01*
X93151488Y-111916999D01*
X93182718Y-111825000D01*
X93246777Y-111751955D01*
X93333912Y-111708984D01*
X93398358Y-111700500D01*
X94534854Y-111700500D01*
X94542372Y-111700500D01*
X94668872Y-111685140D01*
X94827930Y-111624818D01*
X94967929Y-111528183D01*
X95080734Y-111400852D01*
X95159790Y-111250225D01*
X95200500Y-111085056D01*
X95200500Y-110914944D01*
X95162084Y-110759085D01*
X95157685Y-110662034D01*
X95190761Y-110570683D01*
X95256277Y-110498943D01*
X95344261Y-110457735D01*
X95403850Y-110450500D01*
X99071502Y-110450500D01*
X99166790Y-110469454D01*
X99247572Y-110523430D01*
X99301548Y-110604212D01*
X99320502Y-110699500D01*
X99313267Y-110759087D01*
X99299500Y-110814944D01*
X99299500Y-110985056D01*
X99326640Y-111095168D01*
X99340210Y-111150226D01*
X99392695Y-111250226D01*
X99419266Y-111300852D01*
X99456817Y-111343238D01*
X99532071Y-111428184D01*
X99643382Y-111505016D01*
X99672070Y-111524818D01*
X99831128Y-111585140D01*
X99957628Y-111600500D01*
X101944317Y-111600500D01*
X101976816Y-111602629D01*
X102000000Y-111605682D01*
X102023183Y-111602629D01*
X102055683Y-111600500D01*
X104944317Y-111600500D01*
X104976816Y-111602629D01*
X105000000Y-111605682D01*
X105023183Y-111602629D01*
X105055683Y-111600500D01*
X108944317Y-111600500D01*
X108976816Y-111602629D01*
X109000000Y-111605682D01*
X109023183Y-111602629D01*
X109055683Y-111600500D01*
X111562317Y-111600500D01*
X111650612Y-111616680D01*
X111672069Y-111624817D01*
X111672070Y-111624818D01*
X111685141Y-111629775D01*
X111724781Y-111644808D01*
X111738678Y-111650564D01*
X111764730Y-111662290D01*
X111790741Y-111673997D01*
X111830391Y-111685049D01*
X111831122Y-111685137D01*
X111831128Y-111685140D01*
X111887114Y-111691937D01*
X111901935Y-111694193D01*
X111957394Y-111704357D01*
X112011378Y-111701091D01*
X112013654Y-111700954D01*
X112028687Y-111700500D01*
X113601642Y-111700500D01*
X113696930Y-111719454D01*
X113777712Y-111773430D01*
X113831688Y-111854212D01*
X113850642Y-111949500D01*
X113831688Y-112044788D01*
X113799187Y-112101081D01*
X113725465Y-112197157D01*
X113664956Y-112343238D01*
X113644317Y-112500000D01*
X113653369Y-112568750D01*
X113664956Y-112656762D01*
X113703576Y-112749999D01*
X113725465Y-112802843D01*
X113821717Y-112928282D01*
X113947156Y-113024534D01*
X113947159Y-113024536D01*
X114093238Y-113085044D01*
X114231762Y-113103280D01*
X114249999Y-113105682D01*
X114249999Y-113105681D01*
X114250000Y-113105682D01*
X114406762Y-113085044D01*
X114552841Y-113024536D01*
X114678282Y-112928282D01*
X114774536Y-112802841D01*
X114835044Y-112656762D01*
X114855682Y-112500000D01*
X114835044Y-112343238D01*
X114774536Y-112197159D01*
X114700813Y-112101081D01*
X114657842Y-112013946D01*
X114651488Y-111916999D01*
X114682718Y-111825000D01*
X114746777Y-111751955D01*
X114833912Y-111708984D01*
X114898358Y-111700500D01*
X116034854Y-111700500D01*
X116042372Y-111700500D01*
X116168872Y-111685140D01*
X116327930Y-111624818D01*
X116467929Y-111528183D01*
X116580734Y-111400852D01*
X116659790Y-111250225D01*
X116700500Y-111085056D01*
X116700500Y-110914944D01*
X116662084Y-110759085D01*
X116657685Y-110662034D01*
X116690761Y-110570683D01*
X116756277Y-110498943D01*
X116844261Y-110457735D01*
X116903850Y-110450500D01*
X120096150Y-110450500D01*
X120191438Y-110469454D01*
X120272220Y-110523430D01*
X120326196Y-110604212D01*
X120345150Y-110699500D01*
X120337915Y-110759083D01*
X120299500Y-110914944D01*
X120299500Y-111085056D01*
X120317174Y-111156762D01*
X120340210Y-111250226D01*
X120412427Y-111387822D01*
X120419266Y-111400852D01*
X120471786Y-111460135D01*
X120532071Y-111528184D01*
X120639925Y-111602630D01*
X120672070Y-111624818D01*
X120831128Y-111685140D01*
X120957628Y-111700500D01*
X132898460Y-111700500D01*
X132922008Y-111703018D01*
X133006465Y-111700602D01*
X133013586Y-111700500D01*
X133034842Y-111700500D01*
X133042372Y-111700500D01*
X133049847Y-111699591D01*
X133053145Y-111699392D01*
X133061064Y-111699039D01*
X133105050Y-111697782D01*
X133118533Y-111694046D01*
X133154989Y-111686825D01*
X133168872Y-111685140D01*
X133207431Y-111670516D01*
X133229237Y-111663377D01*
X133268988Y-111652365D01*
X133281176Y-111645516D01*
X133314848Y-111629779D01*
X133327930Y-111624818D01*
X133364154Y-111599813D01*
X133370739Y-111595421D01*
X133373510Y-111593635D01*
X133380081Y-111589944D01*
X133403328Y-111572894D01*
X133409025Y-111568841D01*
X133445674Y-111543544D01*
X133534858Y-111505016D01*
X133632002Y-111503549D01*
X133682406Y-111518424D01*
X133697156Y-111524533D01*
X133697159Y-111524536D01*
X133843238Y-111585044D01*
X134000000Y-111605682D01*
X134156762Y-111585044D01*
X134302841Y-111524536D01*
X134428282Y-111428282D01*
X134524536Y-111302841D01*
X134585044Y-111156762D01*
X134605682Y-111000000D01*
X134587842Y-110864491D01*
X134594196Y-110767547D01*
X134637167Y-110680411D01*
X134687458Y-110631200D01*
X136301889Y-109447283D01*
X136389937Y-109406220D01*
X136486999Y-109401975D01*
X136578297Y-109435198D01*
X136600718Y-109450535D01*
X136646196Y-109485431D01*
X136697159Y-109524536D01*
X136843238Y-109585044D01*
X137000000Y-109605682D01*
X137156762Y-109585044D01*
X137302841Y-109524536D01*
X137428282Y-109428282D01*
X137524536Y-109302841D01*
X137585044Y-109156762D01*
X137605682Y-109000000D01*
X137585044Y-108843238D01*
X137552774Y-108765332D01*
X137533820Y-108670047D01*
X137552773Y-108574758D01*
X137606749Y-108493977D01*
X137635565Y-108469254D01*
X138275457Y-108000000D01*
X142394317Y-108000000D01*
X142414956Y-108156761D01*
X142475465Y-108302843D01*
X142571717Y-108428282D01*
X142697156Y-108524534D01*
X142697159Y-108524536D01*
X142843238Y-108585044D01*
X143000000Y-108605682D01*
X143156762Y-108585044D01*
X143302841Y-108524536D01*
X143428282Y-108428282D01*
X143524536Y-108302841D01*
X143585044Y-108156762D01*
X143605682Y-108000000D01*
X143585044Y-107843238D01*
X143524536Y-107697159D01*
X143524534Y-107697156D01*
X143428282Y-107571717D01*
X143302843Y-107475465D01*
X143302841Y-107475464D01*
X143156762Y-107414956D01*
X143138524Y-107412554D01*
X143000000Y-107394317D01*
X142843238Y-107414956D01*
X142697156Y-107475465D01*
X142571717Y-107571717D01*
X142475465Y-107697156D01*
X142414956Y-107843238D01*
X142394317Y-108000000D01*
X138275457Y-108000000D01*
X139189210Y-107329914D01*
X139277257Y-107288851D01*
X139374319Y-107284606D01*
X139465617Y-107317829D01*
X139534002Y-107379130D01*
X139571717Y-107428282D01*
X139633208Y-107475465D01*
X139697159Y-107524536D01*
X139843238Y-107585044D01*
X140000000Y-107605682D01*
X140156762Y-107585044D01*
X140302841Y-107524536D01*
X140428282Y-107428282D01*
X140524536Y-107302841D01*
X140585044Y-107156762D01*
X140605682Y-107000000D01*
X140585044Y-106843238D01*
X140524536Y-106697159D01*
X140509320Y-106677329D01*
X140466349Y-106590194D01*
X140459994Y-106493247D01*
X140491223Y-106401248D01*
X140555282Y-106328203D01*
X140559578Y-106324978D01*
X140856950Y-106106905D01*
X140888468Y-106087233D01*
X140900852Y-106080734D01*
X140933779Y-106051561D01*
X140939779Y-106046415D01*
X140942345Y-106044282D01*
X140948420Y-106039829D01*
X140969469Y-106020076D01*
X140974602Y-106015395D01*
X141028183Y-105967929D01*
X141028187Y-105967922D01*
X141035804Y-105961175D01*
X141041343Y-105952637D01*
X141041346Y-105952635D01*
X141080259Y-105892659D01*
X141084163Y-105886825D01*
X141124818Y-105827930D01*
X141124819Y-105827927D01*
X141130603Y-105819548D01*
X141157369Y-105742385D01*
X141159786Y-105735723D01*
X141185140Y-105668872D01*
X141185140Y-105668869D01*
X141188752Y-105659346D01*
X141193760Y-105605191D01*
X141196273Y-105578022D01*
X141197030Y-105570942D01*
X141197758Y-105564948D01*
X141200500Y-105542372D01*
X141200500Y-105534834D01*
X141200700Y-105531529D01*
X141201299Y-105523682D01*
X141205356Y-105479824D01*
X141203274Y-105465993D01*
X141200500Y-105428928D01*
X141200500Y-104725858D01*
X141219454Y-104630570D01*
X141273430Y-104549788D01*
X141297919Y-104528313D01*
X141428282Y-104428282D01*
X141524534Y-104302843D01*
X141524536Y-104302841D01*
X141585044Y-104156762D01*
X141605682Y-104000000D01*
X145094317Y-104000000D01*
X145114956Y-104156761D01*
X145175465Y-104302843D01*
X145271717Y-104428282D01*
X145397156Y-104524534D01*
X145397159Y-104524536D01*
X145543238Y-104585044D01*
X145681762Y-104603280D01*
X145699999Y-104605682D01*
X145699999Y-104605681D01*
X145700000Y-104605682D01*
X145856762Y-104585044D01*
X146002841Y-104524536D01*
X146128282Y-104428282D01*
X146224536Y-104302841D01*
X146285044Y-104156762D01*
X146305682Y-104000000D01*
X149394317Y-104000000D01*
X149414956Y-104156761D01*
X149475465Y-104302843D01*
X149571717Y-104428282D01*
X149697156Y-104524534D01*
X149697159Y-104524536D01*
X149843238Y-104585044D01*
X150000000Y-104605682D01*
X150156762Y-104585044D01*
X150302841Y-104524536D01*
X150428282Y-104428282D01*
X150524536Y-104302841D01*
X150585044Y-104156762D01*
X150605682Y-104000000D01*
X150585044Y-103843238D01*
X150524536Y-103697159D01*
X150524534Y-103697156D01*
X150428282Y-103571717D01*
X150334818Y-103500000D01*
X153394317Y-103500000D01*
X153414956Y-103656761D01*
X153475465Y-103802843D01*
X153571717Y-103928282D01*
X153697156Y-104024534D01*
X153697159Y-104024536D01*
X153843238Y-104085044D01*
X153981762Y-104103280D01*
X153999999Y-104105682D01*
X153999999Y-104105681D01*
X154000000Y-104105682D01*
X154156762Y-104085044D01*
X154302841Y-104024536D01*
X154428282Y-103928282D01*
X154524536Y-103802841D01*
X154585044Y-103656762D01*
X154605682Y-103500000D01*
X155394317Y-103500000D01*
X155414956Y-103656761D01*
X155475465Y-103802843D01*
X155571717Y-103928282D01*
X155697156Y-104024534D01*
X155697159Y-104024536D01*
X155843238Y-104085044D01*
X155981762Y-104103280D01*
X155999999Y-104105682D01*
X155999999Y-104105681D01*
X156000000Y-104105682D01*
X156156762Y-104085044D01*
X156302841Y-104024536D01*
X156428282Y-103928282D01*
X156524536Y-103802841D01*
X156585044Y-103656762D01*
X156605682Y-103500000D01*
X156585044Y-103343238D01*
X156524536Y-103197159D01*
X156524534Y-103197156D01*
X156428282Y-103071717D01*
X156302843Y-102975465D01*
X156293720Y-102971686D01*
X156156762Y-102914956D01*
X156138524Y-102912554D01*
X156000000Y-102894317D01*
X155843238Y-102914956D01*
X155697156Y-102975465D01*
X155571717Y-103071717D01*
X155475465Y-103197156D01*
X155414956Y-103343238D01*
X155394317Y-103500000D01*
X154605682Y-103500000D01*
X154585044Y-103343238D01*
X154524536Y-103197159D01*
X154524534Y-103197156D01*
X154428282Y-103071717D01*
X154302843Y-102975465D01*
X154293720Y-102971686D01*
X154156762Y-102914956D01*
X154138524Y-102912554D01*
X154000000Y-102894317D01*
X153843238Y-102914956D01*
X153697156Y-102975465D01*
X153571717Y-103071717D01*
X153475465Y-103197156D01*
X153414956Y-103343238D01*
X153394317Y-103500000D01*
X150334818Y-103500000D01*
X150302843Y-103475465D01*
X150293720Y-103471686D01*
X150156762Y-103414956D01*
X150138524Y-103412554D01*
X150000000Y-103394317D01*
X149843238Y-103414956D01*
X149697156Y-103475465D01*
X149571717Y-103571717D01*
X149475465Y-103697156D01*
X149414956Y-103843238D01*
X149394317Y-104000000D01*
X146305682Y-104000000D01*
X146285044Y-103843238D01*
X146224536Y-103697159D01*
X146224534Y-103697156D01*
X146128282Y-103571717D01*
X146002843Y-103475465D01*
X145993720Y-103471686D01*
X145856762Y-103414956D01*
X145838524Y-103412554D01*
X145700000Y-103394317D01*
X145543238Y-103414956D01*
X145397156Y-103475465D01*
X145271717Y-103571717D01*
X145175465Y-103697156D01*
X145114956Y-103843238D01*
X145094317Y-104000000D01*
X141605682Y-104000000D01*
X141585044Y-103843238D01*
X141524536Y-103697159D01*
X141493538Y-103656762D01*
X141428283Y-103571719D01*
X141428280Y-103571717D01*
X141334817Y-103500000D01*
X141297918Y-103471686D01*
X141233860Y-103398641D01*
X141202630Y-103306642D01*
X141200500Y-103274141D01*
X141200500Y-102274999D01*
X144119317Y-102274999D01*
X144139956Y-102431761D01*
X144200465Y-102577843D01*
X144296717Y-102703282D01*
X144422156Y-102799534D01*
X144422159Y-102799536D01*
X144568238Y-102860044D01*
X144706762Y-102878280D01*
X144724999Y-102880682D01*
X144724999Y-102880681D01*
X144725000Y-102880682D01*
X144881762Y-102860044D01*
X145027841Y-102799536D01*
X145153282Y-102703282D01*
X145249536Y-102577841D01*
X145310044Y-102431762D01*
X145330682Y-102275000D01*
X145310044Y-102118238D01*
X145249536Y-101972159D01*
X145249534Y-101972156D01*
X145153282Y-101846717D01*
X145027843Y-101750465D01*
X145027841Y-101750464D01*
X144881762Y-101689956D01*
X144861122Y-101687238D01*
X144724999Y-101669317D01*
X144568238Y-101689956D01*
X144422156Y-101750465D01*
X144296717Y-101846717D01*
X144200465Y-101972156D01*
X144139956Y-102118238D01*
X144119317Y-102274999D01*
X141200500Y-102274999D01*
X141200500Y-101725858D01*
X141219454Y-101630570D01*
X141273430Y-101549788D01*
X141297919Y-101528313D01*
X141428282Y-101428282D01*
X141524534Y-101302843D01*
X141524536Y-101302841D01*
X141585044Y-101156762D01*
X141605682Y-101000000D01*
X141585044Y-100843238D01*
X141524536Y-100697159D01*
X141493538Y-100656762D01*
X141428283Y-100571719D01*
X141297918Y-100471686D01*
X141233860Y-100398641D01*
X141202630Y-100306642D01*
X141200500Y-100274141D01*
X141200500Y-100000000D01*
X155394317Y-100000000D01*
X155414956Y-100156761D01*
X155475465Y-100302843D01*
X155571717Y-100428282D01*
X155697156Y-100524534D01*
X155697159Y-100524536D01*
X155843238Y-100585044D01*
X156000000Y-100605682D01*
X156156762Y-100585044D01*
X156302841Y-100524536D01*
X156428282Y-100428282D01*
X156524536Y-100302841D01*
X156585044Y-100156762D01*
X156605682Y-100000000D01*
X156585044Y-99843238D01*
X156524536Y-99697159D01*
X156524534Y-99697156D01*
X156428282Y-99571717D01*
X156302843Y-99475465D01*
X156293720Y-99471686D01*
X156156762Y-99414956D01*
X156138524Y-99412554D01*
X156000000Y-99394317D01*
X155843238Y-99414956D01*
X155697156Y-99475465D01*
X155571717Y-99571717D01*
X155475465Y-99697156D01*
X155414956Y-99843238D01*
X155394317Y-100000000D01*
X141200500Y-100000000D01*
X141200500Y-98725858D01*
X141219454Y-98630570D01*
X141273430Y-98549788D01*
X141297919Y-98528313D01*
X141428282Y-98428282D01*
X141524536Y-98302841D01*
X141536261Y-98274534D01*
X141584825Y-98157290D01*
X141638800Y-98076510D01*
X141719581Y-98022533D01*
X141814869Y-98003579D01*
X141910157Y-98022533D01*
X141990939Y-98076509D01*
X142012415Y-98100997D01*
X142071718Y-98178282D01*
X142197159Y-98274536D01*
X142343238Y-98335044D01*
X142500000Y-98355682D01*
X142656762Y-98335044D01*
X142802841Y-98274536D01*
X142928282Y-98178282D01*
X143024536Y-98052841D01*
X143085044Y-97906762D01*
X143105682Y-97750000D01*
X143085044Y-97593238D01*
X143024536Y-97447159D01*
X142987307Y-97398641D01*
X142928282Y-97321717D01*
X142802842Y-97225464D01*
X142691985Y-97179546D01*
X142611203Y-97125570D01*
X142557227Y-97044788D01*
X142538273Y-96949500D01*
X142557227Y-96854212D01*
X142611203Y-96773430D01*
X142691985Y-96719454D01*
X142787273Y-96700500D01*
X154957628Y-96700500D01*
X168050500Y-96700500D01*
X168145788Y-96719454D01*
G37*
%TD.AperFunction*%
M02*
