%TF.GenerationSoftware,KiCad,Pcbnew,7.0.2*%
%TF.CreationDate,2023-06-09T00:35:45-07:00*%
%TF.ProjectId,Thyristor_Control_Board,54687972-6973-4746-9f72-5f436f6e7472,A*%
%TF.SameCoordinates,Original*%
%TF.FileFunction,Profile,NP*%
%FSLAX46Y46*%
G04 Gerber Fmt 4.6, Leading zero omitted, Abs format (unit mm)*
G04 Created by KiCad (PCBNEW 7.0.2) date 2023-06-09 00:35:45*
%MOMM*%
%LPD*%
G01*
G04 APERTURE LIST*
%TA.AperFunction,Profile*%
%ADD10C,0.100000*%
%TD*%
G04 APERTURE END LIST*
D10*
X139000000Y-94000000D02*
G75*
G03*
X138000000Y-95000000I0J-1000000D01*
G01*
X110000000Y-107000000D02*
X100000000Y-107000000D01*
X110000000Y-109000000D02*
X100000000Y-109000000D01*
X88500000Y-109000000D02*
X77000000Y-109000000D01*
X122000000Y-107000000D02*
G75*
G03*
X122000000Y-109000000I0J-1000000D01*
G01*
X100000000Y-107000000D02*
G75*
G03*
X100000000Y-109000000I0J-1000000D01*
G01*
X110000000Y-109000000D02*
G75*
G03*
X110000000Y-107000000I0J1000000D01*
G01*
X170000000Y-153000000D02*
X170000000Y-53000000D01*
X136000000Y-94000000D02*
X136000000Y-104000000D01*
X136000000Y-104000000D02*
G75*
G03*
X138000000Y-104000000I1000000J0D01*
G01*
X132000000Y-109000000D02*
X122000000Y-109000000D01*
X88500000Y-109000000D02*
G75*
G03*
X88500000Y-107000000I0J1000000D01*
G01*
X160000000Y-92000000D02*
X138000000Y-92000000D01*
X160000000Y-94000000D02*
G75*
G03*
X160000000Y-92000000I0J1000000D01*
G01*
X70000000Y-53000000D02*
X70000000Y-153000000D01*
X77000000Y-107000000D02*
G75*
G03*
X77000000Y-109000000I0J-1000000D01*
G01*
X138000000Y-92000000D02*
G75*
G03*
X136000000Y-94000000I0J-2000000D01*
G01*
X170000000Y-53000000D02*
X70000000Y-53000000D01*
X70000000Y-153000000D02*
X170000000Y-153000000D01*
X132000000Y-107000000D02*
X122000000Y-107000000D01*
X138000000Y-95000000D02*
X138000000Y-104000000D01*
X132000000Y-109000000D02*
G75*
G03*
X132000000Y-107000000I0J1000000D01*
G01*
X160000000Y-94000000D02*
X139000000Y-94000000D01*
X88500000Y-107000000D02*
X77000000Y-107000000D01*
M02*
