%TF.GenerationSoftware,KiCad,Pcbnew,7.0.2*%
%TF.CreationDate,2023-06-09T00:35:45-07:00*%
%TF.ProjectId,Thyristor_Control_Board,54687972-6973-4746-9f72-5f436f6e7472,A*%
%TF.SameCoordinates,Original*%
%TF.FileFunction,Paste,Top*%
%TF.FilePolarity,Positive*%
%FSLAX46Y46*%
G04 Gerber Fmt 4.6, Leading zero omitted, Abs format (unit mm)*
G04 Created by KiCad (PCBNEW 7.0.2) date 2023-06-09 00:35:45*
%MOMM*%
%LPD*%
G01*
G04 APERTURE LIST*
G04 Aperture macros list*
%AMRoundRect*
0 Rectangle with rounded corners*
0 $1 Rounding radius*
0 $2 $3 $4 $5 $6 $7 $8 $9 X,Y pos of 4 corners*
0 Add a 4 corners polygon primitive as box body*
4,1,4,$2,$3,$4,$5,$6,$7,$8,$9,$2,$3,0*
0 Add four circle primitives for the rounded corners*
1,1,$1+$1,$2,$3*
1,1,$1+$1,$4,$5*
1,1,$1+$1,$6,$7*
1,1,$1+$1,$8,$9*
0 Add four rect primitives between the rounded corners*
20,1,$1+$1,$2,$3,$4,$5,0*
20,1,$1+$1,$4,$5,$6,$7,0*
20,1,$1+$1,$6,$7,$8,$9,0*
20,1,$1+$1,$8,$9,$2,$3,0*%
G04 Aperture macros list end*
%ADD10RoundRect,0.062500X-0.117500X-0.062500X0.117500X-0.062500X0.117500X0.062500X-0.117500X0.062500X0*%
%ADD11RoundRect,0.150000X-0.512500X-0.150000X0.512500X-0.150000X0.512500X0.150000X-0.512500X0.150000X0*%
%ADD12RoundRect,0.250000X-0.262500X-0.450000X0.262500X-0.450000X0.262500X0.450000X-0.262500X0.450000X0*%
%ADD13RoundRect,0.250000X-0.250000X-0.475000X0.250000X-0.475000X0.250000X0.475000X-0.250000X0.475000X0*%
%ADD14RoundRect,0.250000X0.475000X-0.250000X0.475000X0.250000X-0.475000X0.250000X-0.475000X-0.250000X0*%
%ADD15RoundRect,0.250000X0.262500X0.450000X-0.262500X0.450000X-0.262500X-0.450000X0.262500X-0.450000X0*%
%ADD16R,1.500000X1.100000*%
%ADD17RoundRect,0.236300X0.458700X-0.808700X0.458700X0.808700X-0.458700X0.808700X-0.458700X-0.808700X0*%
%ADD18RoundRect,0.250000X-0.475000X0.250000X-0.475000X-0.250000X0.475000X-0.250000X0.475000X0.250000X0*%
%ADD19RoundRect,0.250000X0.650000X-1.000000X0.650000X1.000000X-0.650000X1.000000X-0.650000X-1.000000X0*%
%ADD20RoundRect,0.250000X0.450000X-0.262500X0.450000X0.262500X-0.450000X0.262500X-0.450000X-0.262500X0*%
%ADD21R,0.650000X2.250000*%
%ADD22R,0.640000X1.900000*%
%ADD23RoundRect,0.250000X0.250000X0.475000X-0.250000X0.475000X-0.250000X-0.475000X0.250000X-0.475000X0*%
%ADD24R,2.160000X1.780000*%
%ADD25RoundRect,0.225000X0.250000X-0.225000X0.250000X0.225000X-0.250000X0.225000X-0.250000X-0.225000X0*%
%ADD26RoundRect,0.150000X-0.350000X0.925000X-0.350000X-0.925000X0.350000X-0.925000X0.350000X0.925000X0*%
%ADD27RoundRect,0.250000X-0.375000X-0.625000X0.375000X-0.625000X0.375000X0.625000X-0.375000X0.625000X0*%
G04 APERTURE END LIST*
D10*
X88720000Y-130180000D03*
X87880000Y-130180000D03*
D11*
X93862500Y-114600000D03*
X93862500Y-115550000D03*
X93862500Y-116500000D03*
X96137500Y-116500000D03*
X96137500Y-114600000D03*
D12*
X123837500Y-116500000D03*
X125662500Y-116500000D03*
D10*
X92276000Y-130180000D03*
X91436000Y-130180000D03*
D13*
X157500000Y-100000000D03*
X159400000Y-100000000D03*
D14*
X152500000Y-103450000D03*
X152500000Y-101550000D03*
D15*
X150412500Y-108000000D03*
X148587500Y-108000000D03*
D16*
X158550000Y-133000000D03*
X167450000Y-133000000D03*
D17*
X125730000Y-112540000D03*
X128270000Y-112540000D03*
X128270000Y-103460000D03*
X125730000Y-103460000D03*
D15*
X146412500Y-108000000D03*
X144587500Y-108000000D03*
X163087500Y-100000000D03*
X161262500Y-100000000D03*
D12*
X80587500Y-119500000D03*
X82412500Y-119500000D03*
D13*
X82550000Y-114500000D03*
X84450000Y-114500000D03*
D14*
X149450000Y-114518750D03*
X149450000Y-112618750D03*
D18*
X128250000Y-142050000D03*
X128250000Y-143950000D03*
D11*
X144812500Y-114618750D03*
X144812500Y-115568750D03*
X144812500Y-116518750D03*
X147087500Y-116518750D03*
X147087500Y-114618750D03*
D13*
X115550000Y-112550000D03*
X117450000Y-112550000D03*
D19*
X88500000Y-99000000D03*
X88500000Y-95000000D03*
D20*
X119500000Y-150412500D03*
X119500000Y-148587500D03*
D15*
X159362500Y-103500000D03*
X157537500Y-103500000D03*
D12*
X161362500Y-103500000D03*
X163187500Y-103500000D03*
D10*
X106500000Y-130180000D03*
X105660000Y-130180000D03*
D21*
X152425000Y-88250000D03*
X151155000Y-88250000D03*
X149885000Y-88250000D03*
X148615000Y-88250000D03*
X147345000Y-88250000D03*
X146075000Y-88250000D03*
X144805000Y-88250000D03*
X143535000Y-88250000D03*
X143535000Y-97750000D03*
X144805000Y-97750000D03*
X146075000Y-97750000D03*
X147345000Y-97750000D03*
X148615000Y-97750000D03*
X149885000Y-97750000D03*
X151155000Y-97750000D03*
X152425000Y-97750000D03*
D12*
X165037500Y-100000000D03*
X166862500Y-100000000D03*
D18*
X130500000Y-147050000D03*
X130500000Y-148950000D03*
D22*
X85565000Y-105205000D03*
X84295000Y-105205000D03*
X83025000Y-105205000D03*
X81755000Y-105205000D03*
X81755000Y-110795000D03*
X83025000Y-110795000D03*
X84295000Y-110795000D03*
X85565000Y-110795000D03*
D14*
X150000000Y-102450000D03*
X150000000Y-100550000D03*
X120000000Y-114500000D03*
X120000000Y-112600000D03*
D13*
X94050000Y-112550000D03*
X95950000Y-112550000D03*
D15*
X86412500Y-119500000D03*
X84587500Y-119500000D03*
D14*
X98500000Y-114500000D03*
X98500000Y-112600000D03*
D12*
X101837500Y-116500000D03*
X103662500Y-116500000D03*
D11*
X115362500Y-114600000D03*
X115362500Y-115550000D03*
X115362500Y-116500000D03*
X117637500Y-116500000D03*
X117637500Y-114600000D03*
D23*
X166900000Y-103500000D03*
X165000000Y-103500000D03*
D20*
X156250000Y-145662500D03*
X156250000Y-143837500D03*
D13*
X145000000Y-112568750D03*
X146900000Y-112568750D03*
D18*
X130500000Y-142050000D03*
X130500000Y-143950000D03*
D17*
X103730000Y-112540000D03*
X106270000Y-112540000D03*
X106270000Y-103460000D03*
X103730000Y-103460000D03*
D24*
X125500000Y-151050000D03*
X125500000Y-147000000D03*
D25*
X146000000Y-102275000D03*
X146000000Y-100725000D03*
D10*
X102944000Y-130180000D03*
X102104000Y-130180000D03*
D26*
X77462500Y-99675000D03*
X77462500Y-94325000D03*
X79962500Y-99675000D03*
X79962500Y-94325000D03*
D10*
X95832000Y-130180000D03*
X94992000Y-130180000D03*
D27*
X113600000Y-147000000D03*
X116400000Y-147000000D03*
D20*
X122000000Y-150412500D03*
X122000000Y-148587500D03*
D18*
X128250000Y-147050000D03*
X128250000Y-148950000D03*
M02*
