%TF.GenerationSoftware,KiCad,Pcbnew,7.0.2*%
%TF.CreationDate,2023-06-09T00:35:45-07:00*%
%TF.ProjectId,Thyristor_Control_Board,54687972-6973-4746-9f72-5f436f6e7472,A*%
%TF.SameCoordinates,Original*%
%TF.FileFunction,Soldermask,Bot*%
%TF.FilePolarity,Negative*%
%FSLAX46Y46*%
G04 Gerber Fmt 4.6, Leading zero omitted, Abs format (unit mm)*
G04 Created by KiCad (PCBNEW 7.0.2) date 2023-06-09 00:35:45*
%MOMM*%
%LPD*%
G01*
G04 APERTURE LIST*
%ADD10C,2.032000*%
%ADD11C,1.600000*%
%ADD12O,1.600000X1.600000*%
%ADD13C,2.700000*%
%ADD14R,2.000000X1.905000*%
%ADD15O,2.000000X1.905000*%
%ADD16C,2.400000*%
%ADD17O,2.400000X2.400000*%
%ADD18R,1.600000X1.600000*%
%ADD19C,1.908048*%
%ADD20C,1.800000*%
%ADD21C,1.498600*%
%ADD22C,3.000000*%
G04 APERTURE END LIST*
D10*
X134080000Y-63000000D03*
X129080000Y-63000000D03*
X124080000Y-63000000D03*
X119080000Y-63000000D03*
D11*
X115500000Y-142580000D03*
D12*
X115500000Y-132420000D03*
D10*
X112080000Y-62999999D03*
X107080000Y-62999999D03*
X102080000Y-62999999D03*
X97080000Y-62999999D03*
D13*
X165000000Y-148000000D03*
D14*
X104110000Y-82460000D03*
D15*
X104110000Y-85000000D03*
X104110000Y-87540000D03*
D14*
X126055000Y-82460000D03*
D15*
X126055000Y-85000000D03*
X126055000Y-87540000D03*
D16*
X72680000Y-78500000D03*
D17*
X93000000Y-78500000D03*
D18*
X120500000Y-142000000D03*
D11*
X123000000Y-142000000D03*
D19*
X89620000Y-62700000D03*
X84540000Y-62700000D03*
D18*
X120500000Y-133500000D03*
D11*
X123000000Y-133500000D03*
D13*
X75000000Y-58000000D03*
X165000000Y-58000000D03*
D20*
X150000000Y-149240000D03*
X150000000Y-146700000D03*
X150000000Y-144160000D03*
X150000000Y-141620000D03*
X150000000Y-139080000D03*
X150000000Y-136540000D03*
X150000000Y-134000000D03*
X134760000Y-134000000D03*
X134760000Y-136540000D03*
X134760000Y-139080000D03*
X134760000Y-141620000D03*
X134760000Y-144160000D03*
X134760000Y-146700000D03*
X134760000Y-149240000D03*
D21*
X85499994Y-139000000D03*
X88999995Y-134000000D03*
X92499995Y-139000000D03*
X95999996Y-134000000D03*
X99499996Y-139000000D03*
X102999997Y-134000000D03*
X106500000Y-139000000D03*
X110000001Y-134000000D03*
D16*
X72680000Y-84000000D03*
D17*
X93000000Y-84000000D03*
D22*
X153160000Y-70056701D03*
X153160000Y-59896701D03*
X143000000Y-70056701D03*
X143000000Y-59896701D03*
D16*
X93000000Y-89500000D03*
D17*
X72680000Y-89500000D03*
D13*
X75000000Y-148000000D03*
D16*
X72680000Y-73000000D03*
D17*
X93000000Y-73000000D03*
M02*
