%TF.GenerationSoftware,KiCad,Pcbnew,7.0.2*%
%TF.CreationDate,2023-06-09T00:35:45-07:00*%
%TF.ProjectId,Thyristor_Control_Board,54687972-6973-4746-9f72-5f436f6e7472,A*%
%TF.SameCoordinates,Original*%
%TF.FileFunction,Copper,L4,Bot*%
%TF.FilePolarity,Positive*%
%FSLAX46Y46*%
G04 Gerber Fmt 4.6, Leading zero omitted, Abs format (unit mm)*
G04 Created by KiCad (PCBNEW 7.0.2) date 2023-06-09 00:35:45*
%MOMM*%
%LPD*%
G01*
G04 APERTURE LIST*
%TA.AperFunction,ComponentPad*%
%ADD10C,2.032000*%
%TD*%
%TA.AperFunction,ComponentPad*%
%ADD11C,1.600000*%
%TD*%
%TA.AperFunction,ComponentPad*%
%ADD12O,1.600000X1.600000*%
%TD*%
%TA.AperFunction,ComponentPad*%
%ADD13R,2.000000X1.905000*%
%TD*%
%TA.AperFunction,ComponentPad*%
%ADD14O,2.000000X1.905000*%
%TD*%
%TA.AperFunction,ComponentPad*%
%ADD15C,2.400000*%
%TD*%
%TA.AperFunction,ComponentPad*%
%ADD16O,2.400000X2.400000*%
%TD*%
%TA.AperFunction,ComponentPad*%
%ADD17R,1.600000X1.600000*%
%TD*%
%TA.AperFunction,ComponentPad*%
%ADD18C,1.908048*%
%TD*%
%TA.AperFunction,ComponentPad*%
%ADD19C,1.800000*%
%TD*%
%TA.AperFunction,ComponentPad*%
%ADD20C,1.498600*%
%TD*%
%TA.AperFunction,ComponentPad*%
%ADD21C,3.000000*%
%TD*%
%TA.AperFunction,ViaPad*%
%ADD22C,0.800000*%
%TD*%
%TA.AperFunction,Conductor*%
%ADD23C,0.250000*%
%TD*%
%TA.AperFunction,Conductor*%
%ADD24C,2.000000*%
%TD*%
%TA.AperFunction,Conductor*%
%ADD25C,3.000000*%
%TD*%
%TA.AperFunction,Conductor*%
%ADD26C,0.500000*%
%TD*%
G04 APERTURE END LIST*
D10*
X134080000Y-63000000D03*
X129080000Y-63000000D03*
X124080000Y-63000000D03*
X119080000Y-63000000D03*
D11*
X115500000Y-142580000D03*
D12*
X115500000Y-132420000D03*
D10*
X112080000Y-62999999D03*
X107080000Y-62999999D03*
X102080000Y-62999999D03*
X97080000Y-62999999D03*
D13*
X104110000Y-82460000D03*
D14*
X104110000Y-85000000D03*
X104110000Y-87540000D03*
D13*
X126055000Y-82460000D03*
D14*
X126055000Y-85000000D03*
X126055000Y-87540000D03*
D15*
X72680000Y-78500000D03*
D16*
X93000000Y-78500000D03*
D17*
X120500000Y-142000000D03*
D11*
X123000000Y-142000000D03*
D18*
X89620000Y-62700000D03*
X84540000Y-62700000D03*
D17*
X120500000Y-133500000D03*
D11*
X123000000Y-133500000D03*
D19*
X150000000Y-149240000D03*
X150000000Y-146700000D03*
X150000000Y-144160000D03*
X150000000Y-141620000D03*
X150000000Y-139080000D03*
X150000000Y-136540000D03*
X150000000Y-134000000D03*
X134760000Y-134000000D03*
X134760000Y-136540000D03*
X134760000Y-139080000D03*
X134760000Y-141620000D03*
X134760000Y-144160000D03*
X134760000Y-146700000D03*
X134760000Y-149240000D03*
D20*
X85499994Y-139000000D03*
X88999995Y-134000000D03*
X92499995Y-139000000D03*
X95999996Y-134000000D03*
X99499996Y-139000000D03*
X102999997Y-134000000D03*
X106500000Y-139000000D03*
X110000001Y-134000000D03*
D15*
X72680000Y-84000000D03*
D16*
X93000000Y-84000000D03*
D21*
X153160000Y-70056701D03*
X153160000Y-59896701D03*
X143000000Y-70056701D03*
X143000000Y-59896701D03*
D15*
X93000000Y-89500000D03*
D16*
X72680000Y-89500000D03*
D15*
X72680000Y-73000000D03*
D16*
X93000000Y-73000000D03*
D22*
X153000000Y-131500000D03*
X154500000Y-141500000D03*
X141500000Y-130000000D03*
X141500000Y-124500000D03*
X144000000Y-124500000D03*
X144000000Y-130000000D03*
X152000000Y-111500000D03*
X143000000Y-108000000D03*
X133000000Y-128000000D03*
X133000000Y-124500000D03*
X138500000Y-130000000D03*
X85500000Y-118000000D03*
X138500000Y-124500000D03*
X84250000Y-112750000D03*
X83000000Y-112750000D03*
X136500000Y-124500000D03*
X136500000Y-128000000D03*
X81500000Y-118000000D03*
X87000000Y-118000000D03*
X126500000Y-144000000D03*
X79250000Y-119500000D03*
X150500000Y-106500000D03*
X84000000Y-116000000D03*
X152000000Y-108000000D03*
X145987701Y-109275500D03*
X146620500Y-106250000D03*
X126500000Y-143000000D03*
X156250000Y-147000000D03*
X125500000Y-143500000D03*
X80000000Y-118000000D03*
X86500000Y-115500000D03*
X116500000Y-115550000D03*
X81000000Y-152000000D03*
X145700000Y-104000000D03*
X82750000Y-116500000D03*
X128000000Y-140500000D03*
X140500000Y-143000000D03*
X169000000Y-138000000D03*
X115500000Y-129500000D03*
X98000000Y-140500000D03*
X169000000Y-102000000D03*
X97500000Y-139000000D03*
X71000000Y-118000000D03*
X91436000Y-131100000D03*
X159000000Y-146000000D03*
X74000000Y-142000000D03*
X120750000Y-145750000D03*
X157000000Y-123000000D03*
X147000000Y-138000000D03*
X118500000Y-138000000D03*
X80000000Y-143000000D03*
X105000000Y-111000000D03*
X166000000Y-142000000D03*
X91000000Y-118000000D03*
X156000000Y-100000000D03*
X117000000Y-149500000D03*
X169000000Y-126000000D03*
X87880000Y-129270000D03*
X123000000Y-122250000D03*
X141000000Y-98000000D03*
X141000000Y-101000000D03*
X134000000Y-111000000D03*
X141000000Y-104000000D03*
X134750000Y-128000000D03*
X169000000Y-105000000D03*
X92450000Y-115550000D03*
X169000000Y-117000000D03*
X71000000Y-127000000D03*
X154500000Y-108000000D03*
X71000000Y-139000000D03*
X140000000Y-107000000D03*
X89000000Y-111000000D03*
X88000000Y-125000000D03*
X169000000Y-123000000D03*
X156000000Y-152000000D03*
X143700000Y-112568750D03*
X114250000Y-112500000D03*
X169000000Y-129000000D03*
X158000000Y-96000000D03*
X87880000Y-131100000D03*
X84000000Y-140500000D03*
X149450000Y-115818750D03*
X92000000Y-111000000D03*
X123000000Y-111000000D03*
X109000000Y-152000000D03*
X116500000Y-120750000D03*
X87000000Y-140500000D03*
X169000000Y-114000000D03*
X80775500Y-114500000D03*
X120000000Y-152000000D03*
X94992000Y-129258000D03*
X145000000Y-152000000D03*
X105660000Y-129224500D03*
X129000000Y-128000000D03*
X169000000Y-135000000D03*
X154000000Y-103500000D03*
X161000000Y-96000000D03*
X113000000Y-138000000D03*
X160000000Y-143000000D03*
X71000000Y-136000000D03*
X169000000Y-108000000D03*
X84000000Y-152000000D03*
X159000000Y-149000000D03*
X77000000Y-142000000D03*
X144725000Y-102275000D03*
X169000000Y-132000000D03*
X129000000Y-137500000D03*
X131000000Y-111000000D03*
X128000000Y-145500000D03*
X76000000Y-111000000D03*
X116500000Y-117500000D03*
X87000000Y-137500000D03*
X94992000Y-131100000D03*
X163000000Y-142000000D03*
X95000000Y-117500000D03*
X71000000Y-112000000D03*
X136500000Y-117000000D03*
X98500000Y-115750000D03*
X169000000Y-111000000D03*
X169000000Y-98000000D03*
X155400000Y-148200000D03*
X81000000Y-146000000D03*
X112000000Y-111000000D03*
X71000000Y-133000000D03*
X71000000Y-142000000D03*
X102100000Y-131100000D03*
X150000000Y-104000000D03*
X71000000Y-130000000D03*
X83500000Y-139000000D03*
X137000000Y-109000000D03*
X169000000Y-120000000D03*
X142500000Y-149000000D03*
X153500000Y-137500000D03*
X143300000Y-115568750D03*
X88000000Y-122250000D03*
X71000000Y-121000000D03*
X146000000Y-117500000D03*
X102000000Y-111000000D03*
X156000000Y-103500000D03*
X84000000Y-137500000D03*
X123750000Y-148750000D03*
X87500000Y-139000000D03*
X145950000Y-115568750D03*
X155250000Y-115750000D03*
X155000000Y-96000000D03*
X95000000Y-115550000D03*
X101000000Y-137500000D03*
X81000000Y-149000000D03*
X142500000Y-97750000D03*
X120000000Y-115750000D03*
X168500000Y-103500000D03*
X130200000Y-140500000D03*
X92750000Y-112500000D03*
X167000000Y-96000000D03*
X128270000Y-114250000D03*
X91436000Y-129314000D03*
X101000000Y-140500000D03*
X169000000Y-141000000D03*
X71000000Y-124000000D03*
X101500000Y-139000000D03*
X134750000Y-124500000D03*
X109000000Y-111000000D03*
X137000000Y-149000000D03*
X113950000Y-115550000D03*
X79000000Y-111000000D03*
X71000000Y-115000000D03*
X106250000Y-114250000D03*
X102104000Y-129200000D03*
X105660000Y-131100000D03*
X159000000Y-152000000D03*
X98000000Y-137500000D03*
X73000000Y-111000000D03*
X121250000Y-126750000D03*
X168500000Y-100000000D03*
X130200000Y-145500000D03*
X107400000Y-136900000D03*
X164000000Y-96000000D03*
X124000000Y-145250000D03*
X163450000Y-102000000D03*
X151500000Y-100550000D03*
X151250000Y-112500000D03*
X121750000Y-112500000D03*
X131000000Y-120750000D03*
X149250000Y-111000000D03*
X129750000Y-122250000D03*
X154000000Y-101500000D03*
X149500000Y-124500000D03*
X118000000Y-111000000D03*
X106000000Y-123750000D03*
X119250000Y-111000000D03*
X123500000Y-146000000D03*
X125250000Y-122250000D03*
X152250000Y-122000000D03*
X103500000Y-120750000D03*
X100250000Y-112000000D03*
X126750000Y-120750000D03*
X151500000Y-121250000D03*
X125500000Y-148500000D03*
X148750000Y-123750000D03*
X104750000Y-123750000D03*
X96500000Y-111000000D03*
X150250000Y-125250000D03*
X97750000Y-111000000D03*
X153000000Y-122750000D03*
X123500000Y-147000000D03*
X104750000Y-120750000D03*
X160950000Y-101500000D03*
X147250000Y-110750000D03*
X103500000Y-123750000D03*
X106000000Y-120750000D03*
X126750000Y-145250000D03*
X148500000Y-116500000D03*
X104000000Y-128500000D03*
X143500000Y-114500000D03*
X150000000Y-86500000D03*
X153000000Y-85500000D03*
X149000000Y-78000000D03*
X156000000Y-84500000D03*
X151000000Y-85500000D03*
X149000000Y-76500000D03*
X149000000Y-82500000D03*
X156000000Y-82500000D03*
X153000000Y-86500000D03*
X156000000Y-81000000D03*
X150500000Y-68000000D03*
X156000000Y-86500000D03*
X149000000Y-73500000D03*
X149000000Y-81000000D03*
X151000000Y-86500000D03*
X156000000Y-76500000D03*
X149000000Y-75000000D03*
X150000000Y-71250000D03*
X156000000Y-79500000D03*
X156000000Y-78000000D03*
X149000000Y-72000000D03*
X156000000Y-72000000D03*
X150500000Y-70000000D03*
X151000000Y-84000000D03*
X156000000Y-75000000D03*
X155000000Y-71250000D03*
X156000000Y-70500000D03*
X156000000Y-73500000D03*
X152000000Y-86500000D03*
X149500000Y-69000000D03*
X149000000Y-84000000D03*
X154000000Y-86500000D03*
X149000000Y-86500000D03*
X149000000Y-79500000D03*
X149000000Y-85500000D03*
X153000000Y-84000000D03*
X156000000Y-69000000D03*
X149000000Y-70500000D03*
X140000000Y-84500000D03*
X140000000Y-72000000D03*
X145000000Y-86500000D03*
X147000000Y-79500000D03*
X143000000Y-86500000D03*
X147000000Y-78000000D03*
X140000000Y-82500000D03*
X145000000Y-85500000D03*
X140000000Y-86500000D03*
X145500000Y-70000000D03*
X142000000Y-86500000D03*
X140000000Y-79500000D03*
X143000000Y-85500000D03*
X144000000Y-86500000D03*
X141000000Y-71250000D03*
X146500000Y-69000000D03*
X147000000Y-76500000D03*
X145000000Y-84000000D03*
X143000000Y-84000000D03*
X147000000Y-70500000D03*
X140000000Y-69000000D03*
X140000000Y-75000000D03*
X147000000Y-82500000D03*
X147000000Y-84000000D03*
X147000000Y-73500000D03*
X146000000Y-86500000D03*
X147000000Y-85500000D03*
X140000000Y-70500000D03*
X145500000Y-68000000D03*
X146000000Y-71250000D03*
X140000000Y-73500000D03*
X147000000Y-75000000D03*
X140000000Y-81000000D03*
X147000000Y-81000000D03*
X140000000Y-78000000D03*
X147000000Y-86500000D03*
X147000000Y-72000000D03*
X140000000Y-76500000D03*
X103750000Y-100500000D03*
X125750000Y-100500000D03*
X145500000Y-149000000D03*
X122000000Y-151500000D03*
X114000000Y-114500000D03*
X119250000Y-116500000D03*
X84500000Y-73000000D03*
X80000000Y-92500000D03*
X148500000Y-151000000D03*
X137000000Y-137000000D03*
X92500000Y-114500000D03*
X97500000Y-116500000D03*
X83000000Y-99000000D03*
D23*
X153000000Y-131500000D02*
X154500000Y-133000000D01*
X154500000Y-133000000D02*
X154500000Y-141500000D01*
X141500000Y-124500000D02*
X141500000Y-130000000D01*
X144000000Y-124500000D02*
X144000000Y-130000000D01*
X152000000Y-111500000D02*
X152000000Y-111000000D01*
X143000000Y-109000000D02*
X143000000Y-108000000D01*
X144000000Y-110000000D02*
X143000000Y-109000000D01*
X152000000Y-111000000D02*
X151000000Y-110000000D01*
X151000000Y-110000000D02*
X144000000Y-110000000D01*
X133000000Y-124500000D02*
X133000000Y-128000000D01*
X84250000Y-112750000D02*
X84750000Y-112750000D01*
X84750000Y-112750000D02*
X85500000Y-113500000D01*
X85500000Y-113500000D02*
X85500000Y-118000000D01*
X138500000Y-124500000D02*
X138500000Y-130000000D01*
X136500000Y-124500000D02*
X136500000Y-128000000D01*
X82250000Y-112750000D02*
X81500000Y-113500000D01*
X81500000Y-113500000D02*
X81500000Y-118000000D01*
X83000000Y-112750000D02*
X82250000Y-112750000D01*
X148500000Y-116500000D02*
X146500000Y-114500000D01*
X146500000Y-114500000D02*
X143500000Y-114500000D01*
X104000000Y-128500000D02*
X122000000Y-128500000D01*
X122000000Y-128500000D02*
X136000000Y-114500000D01*
X136000000Y-114500000D02*
X143500000Y-114500000D01*
D24*
X126050000Y-82450000D02*
X126050000Y-74045000D01*
X126050000Y-74045000D02*
X124075000Y-72070000D01*
X124075000Y-72070000D02*
X124075000Y-62990000D01*
X130190000Y-85000000D02*
X126055000Y-85000000D01*
X129070000Y-70280000D02*
X129070000Y-63199999D01*
X130990000Y-84200000D02*
X130190000Y-85000000D01*
X130990000Y-72200000D02*
X129070000Y-70280000D01*
X130990000Y-84200000D02*
X130990000Y-72200000D01*
D25*
X153160000Y-70056701D02*
X153160000Y-59896701D01*
X143000000Y-70000000D02*
X143000000Y-59840000D01*
D26*
X103750000Y-93250000D02*
X105000000Y-92000000D01*
X103750000Y-100500000D02*
X103750000Y-93250000D01*
X112080000Y-90000000D02*
X112080000Y-62999999D01*
X110080000Y-92000000D02*
X112080000Y-90000000D01*
X105000000Y-92000000D02*
X110080000Y-92000000D01*
X125750000Y-93250000D02*
X125750000Y-100500000D01*
X134080000Y-63000000D02*
X134080000Y-89920000D01*
X132000000Y-92000000D02*
X127000000Y-92000000D01*
X127000000Y-92000000D02*
X125750000Y-93250000D01*
X134080000Y-89920000D02*
X132000000Y-92000000D01*
D23*
X122000000Y-151500000D02*
X143000000Y-151500000D01*
X143000000Y-151500000D02*
X145500000Y-149000000D01*
X117250000Y-114500000D02*
X119250000Y-116500000D01*
X114000000Y-114500000D02*
X117250000Y-114500000D01*
D26*
X93000000Y-73000000D02*
X84500000Y-73000000D01*
X84500000Y-78500000D02*
X93000000Y-78500000D01*
X80000000Y-83000000D02*
X84500000Y-78500000D01*
X80000000Y-92500000D02*
X80000000Y-83000000D01*
D24*
X104105000Y-74045000D02*
X102130000Y-72070000D01*
X104105000Y-82450000D02*
X104105000Y-74045000D01*
X102130000Y-72070000D02*
X102130000Y-62990000D01*
X108990000Y-84000000D02*
X108990000Y-72000000D01*
X107070000Y-70080000D02*
X107070000Y-62999999D01*
X107990000Y-85000000D02*
X108990000Y-84000000D01*
X104100000Y-85000000D02*
X107990000Y-85000000D01*
X108990000Y-72000000D02*
X107070000Y-70080000D01*
D23*
X148500000Y-151000000D02*
X147500000Y-150000000D01*
X147500000Y-150000000D02*
X147500000Y-147500000D01*
X147500000Y-147500000D02*
X137000000Y-137000000D01*
X95500000Y-114500000D02*
X92500000Y-114500000D01*
X97500000Y-116500000D02*
X95500000Y-114500000D01*
D26*
X72680000Y-94680000D02*
X72680000Y-89500000D01*
X83000000Y-99000000D02*
X81000000Y-97000000D01*
X75000000Y-97000000D02*
X72680000Y-94680000D01*
X81000000Y-97000000D02*
X75000000Y-97000000D01*
%TA.AperFunction,Conductor*%
G36*
X144023542Y-66019685D02*
G01*
X144033965Y-66027172D01*
X147703462Y-68962770D01*
X147743514Y-69020020D01*
X147750000Y-69059597D01*
X147750000Y-89448637D01*
X147730315Y-89515676D01*
X147713681Y-89536318D01*
X147536319Y-89713681D01*
X147474996Y-89747166D01*
X147448638Y-89750000D01*
X143051362Y-89750000D01*
X142984323Y-89730315D01*
X142963681Y-89713681D01*
X142786319Y-89536318D01*
X142752834Y-89474995D01*
X142750000Y-89448637D01*
X142750000Y-87250000D01*
X142500000Y-87000000D01*
X139301362Y-87000000D01*
X139234323Y-86980315D01*
X139213681Y-86963681D01*
X139036319Y-86786319D01*
X139002834Y-86724996D01*
X139000000Y-86698638D01*
X139000000Y-68558078D01*
X139019685Y-68491039D01*
X139044617Y-68462819D01*
X141965511Y-66028741D01*
X142029614Y-66000945D01*
X142044894Y-66000000D01*
X143956503Y-66000000D01*
X144023542Y-66019685D01*
G37*
%TD.AperFunction*%
%TA.AperFunction,Conductor*%
G36*
X154515677Y-66019685D02*
G01*
X154536319Y-66036319D01*
X156963682Y-68463682D01*
X156997166Y-68525003D01*
X157000000Y-68551361D01*
X157000000Y-86698638D01*
X156980315Y-86765677D01*
X156963681Y-86786319D01*
X156786319Y-86963681D01*
X156724996Y-86997166D01*
X156698638Y-87000000D01*
X153499999Y-87000000D01*
X153250000Y-87249999D01*
X153250000Y-89448638D01*
X153230315Y-89515677D01*
X153213681Y-89536319D01*
X153036319Y-89713681D01*
X152974996Y-89747166D01*
X152948638Y-89750000D01*
X148551362Y-89750000D01*
X148484323Y-89730315D01*
X148463681Y-89713681D01*
X148286319Y-89536318D01*
X148252834Y-89474995D01*
X148250000Y-89448637D01*
X148250000Y-69059597D01*
X148269685Y-68992558D01*
X148296536Y-68962771D01*
X151966034Y-66027171D01*
X152030681Y-66000664D01*
X152043497Y-66000000D01*
X154448638Y-66000000D01*
X154515677Y-66019685D01*
G37*
%TD.AperFunction*%
%TA.AperFunction,Conductor*%
G36*
X105992148Y-120018954D02*
G01*
X106072930Y-120072930D01*
X106427070Y-120427070D01*
X106481046Y-120507852D01*
X106500000Y-120603140D01*
X106500000Y-123896860D01*
X106481046Y-123992148D01*
X106427070Y-124072930D01*
X106072930Y-124427070D01*
X105992148Y-124481046D01*
X105896860Y-124500000D01*
X103603140Y-124500000D01*
X103507852Y-124481046D01*
X103427070Y-124427070D01*
X103072930Y-124072930D01*
X103018954Y-123992148D01*
X103000000Y-123896860D01*
X103000000Y-120603140D01*
X103018954Y-120507852D01*
X103072930Y-120427070D01*
X103427070Y-120072930D01*
X103507852Y-120018954D01*
X103603140Y-120000000D01*
X105896860Y-120000000D01*
X105992148Y-120018954D01*
G37*
%TD.AperFunction*%
%TA.AperFunction,Conductor*%
G36*
X168992148Y-95518954D02*
G01*
X169072930Y-95572930D01*
X169427070Y-95927070D01*
X169481046Y-96007852D01*
X169500000Y-96103140D01*
X169500000Y-142751000D01*
X169481046Y-142846288D01*
X169427070Y-142927070D01*
X169346288Y-142981046D01*
X169251000Y-143000000D01*
X162000000Y-143000000D01*
X159500000Y-145500000D01*
X159500000Y-145500001D01*
X159500000Y-152251000D01*
X159481046Y-152346288D01*
X159427070Y-152427070D01*
X159346288Y-152481046D01*
X159251000Y-152500000D01*
X122406776Y-152500000D01*
X122311488Y-152481046D01*
X122230706Y-152427070D01*
X122176730Y-152346288D01*
X122157776Y-152251000D01*
X122176730Y-152155712D01*
X122230706Y-152074930D01*
X122280699Y-152041525D01*
X122302838Y-152024537D01*
X122302841Y-152024536D01*
X122428282Y-151928282D01*
X122428283Y-151928281D01*
X122432399Y-151922918D01*
X122505444Y-151858859D01*
X122597443Y-151827630D01*
X122629943Y-151825500D01*
X142974918Y-151825500D01*
X142996621Y-151826448D01*
X143028807Y-151829264D01*
X143060031Y-151820896D01*
X143081234Y-151816197D01*
X143092663Y-151814181D01*
X143113045Y-151810588D01*
X143113045Y-151810587D01*
X143123892Y-151808675D01*
X143130658Y-151805872D01*
X143139679Y-151799555D01*
X143139684Y-151799554D01*
X143166167Y-151781009D01*
X143184452Y-151769361D01*
X143212455Y-151753194D01*
X143233225Y-151728440D01*
X143247888Y-151712436D01*
X145284728Y-149675596D01*
X145365507Y-149621623D01*
X145460795Y-149602669D01*
X145493300Y-149604800D01*
X145499999Y-149605682D01*
X145499999Y-149605681D01*
X145500000Y-149605682D01*
X145656762Y-149585044D01*
X145802841Y-149524536D01*
X145928282Y-149428282D01*
X146024536Y-149302841D01*
X146085044Y-149156762D01*
X146105682Y-149000000D01*
X146085044Y-148843238D01*
X146024536Y-148697159D01*
X145994625Y-148658178D01*
X145928282Y-148571717D01*
X145802843Y-148475465D01*
X145802841Y-148475464D01*
X145656762Y-148414956D01*
X145638524Y-148412554D01*
X145500000Y-148394317D01*
X145343238Y-148414956D01*
X145197156Y-148475465D01*
X145071717Y-148571717D01*
X144975465Y-148697156D01*
X144914956Y-148843238D01*
X144894317Y-149000000D01*
X144895200Y-149006701D01*
X144888845Y-149103648D01*
X144845875Y-149190784D01*
X144824400Y-149215271D01*
X142938104Y-151101569D01*
X142857322Y-151155546D01*
X142762034Y-151174500D01*
X122629943Y-151174500D01*
X122534655Y-151155546D01*
X122453873Y-151101570D01*
X122432399Y-151077082D01*
X122428283Y-151071718D01*
X122302843Y-150975465D01*
X122267429Y-150960796D01*
X122156762Y-150914956D01*
X122138524Y-150912554D01*
X122000000Y-150894317D01*
X121843238Y-150914956D01*
X121697156Y-150975465D01*
X121571717Y-151071717D01*
X121475465Y-151197156D01*
X121414956Y-151343238D01*
X121394317Y-151500000D01*
X121405514Y-151585043D01*
X121414956Y-151656762D01*
X121475464Y-151802841D01*
X121475465Y-151802843D01*
X121571717Y-151928282D01*
X121719299Y-152041525D01*
X121769292Y-152074929D01*
X121823269Y-152155710D01*
X121842224Y-152250998D01*
X121823271Y-152346287D01*
X121769295Y-152427068D01*
X121688514Y-152481045D01*
X121593226Y-152500000D01*
X80749000Y-152500000D01*
X80653712Y-152481046D01*
X80572930Y-152427070D01*
X80518954Y-152346288D01*
X80500000Y-152251000D01*
X80500000Y-148500000D01*
X124894317Y-148500000D01*
X124914956Y-148656761D01*
X124975465Y-148802843D01*
X125071717Y-148928282D01*
X125197156Y-149024534D01*
X125197159Y-149024536D01*
X125343238Y-149085044D01*
X125500000Y-149105682D01*
X125656762Y-149085044D01*
X125802841Y-149024536D01*
X125928282Y-148928282D01*
X126024536Y-148802841D01*
X126085044Y-148656762D01*
X126105682Y-148500000D01*
X126085044Y-148343238D01*
X126024536Y-148197159D01*
X126009049Y-148176976D01*
X125928282Y-148071717D01*
X125802843Y-147975465D01*
X125802841Y-147975464D01*
X125656762Y-147914956D01*
X125638524Y-147912554D01*
X125500000Y-147894317D01*
X125343238Y-147914956D01*
X125197156Y-147975465D01*
X125071717Y-148071717D01*
X124975465Y-148197156D01*
X124914956Y-148343238D01*
X124894317Y-148500000D01*
X80500000Y-148500000D01*
X80500000Y-147000000D01*
X122894317Y-147000000D01*
X122914956Y-147156761D01*
X122975465Y-147302843D01*
X123071717Y-147428282D01*
X123183691Y-147514202D01*
X123197159Y-147524536D01*
X123343238Y-147585044D01*
X123500000Y-147605682D01*
X123656762Y-147585044D01*
X123802841Y-147524536D01*
X123928282Y-147428282D01*
X124024536Y-147302841D01*
X124085044Y-147156762D01*
X124105682Y-147000000D01*
X124085044Y-146843238D01*
X124025712Y-146699999D01*
X133355202Y-146699999D01*
X133374362Y-146931223D01*
X133431318Y-147156136D01*
X133524516Y-147368609D01*
X133608811Y-147497633D01*
X134268866Y-146837577D01*
X134291318Y-146914040D01*
X134370605Y-147037413D01*
X134481438Y-147133451D01*
X134614839Y-147194373D01*
X134618633Y-147194918D01*
X133961199Y-147852352D01*
X133991646Y-147876049D01*
X134083724Y-147925879D01*
X134158506Y-147987901D01*
X134203861Y-148073819D01*
X134212885Y-148170554D01*
X134184202Y-148263379D01*
X134122180Y-148338161D01*
X134096297Y-148356571D01*
X134093956Y-148358019D01*
X133943236Y-148495419D01*
X133820327Y-148658178D01*
X133729417Y-148840750D01*
X133673603Y-149036914D01*
X133654784Y-149240000D01*
X133673603Y-149443085D01*
X133729417Y-149639249D01*
X133820327Y-149821821D01*
X133943236Y-149984580D01*
X134093958Y-150121981D01*
X134267359Y-150229346D01*
X134267361Y-150229346D01*
X134267363Y-150229348D01*
X134457544Y-150303024D01*
X134457547Y-150303025D01*
X134658022Y-150340500D01*
X134658024Y-150340500D01*
X134861978Y-150340500D01*
X135062452Y-150303025D01*
X135062453Y-150303024D01*
X135062456Y-150303024D01*
X135252637Y-150229348D01*
X135426041Y-150121981D01*
X135576764Y-149984579D01*
X135699673Y-149821821D01*
X135790582Y-149639250D01*
X135846397Y-149443083D01*
X135865215Y-149240000D01*
X135846397Y-149036917D01*
X135790582Y-148840750D01*
X135699673Y-148658179D01*
X135580222Y-148500000D01*
X135576763Y-148495419D01*
X135426044Y-148358021D01*
X135423707Y-148356574D01*
X135352668Y-148290297D01*
X135312401Y-148201879D01*
X135309034Y-148104783D01*
X135343080Y-148013789D01*
X135409357Y-147942750D01*
X135436276Y-147925878D01*
X135528354Y-147876048D01*
X135558798Y-147852352D01*
X134901364Y-147194918D01*
X134905161Y-147194373D01*
X135038562Y-147133451D01*
X135149395Y-147037413D01*
X135228682Y-146914040D01*
X135251133Y-146837579D01*
X135911186Y-147497633D01*
X135995484Y-147368606D01*
X136088681Y-147156139D01*
X136145637Y-146931223D01*
X136164797Y-146700000D01*
X136145637Y-146468776D01*
X136088681Y-146243863D01*
X135995482Y-146031389D01*
X135911187Y-145902365D01*
X135251132Y-146562419D01*
X135228682Y-146485960D01*
X135149395Y-146362587D01*
X135038562Y-146266549D01*
X134905161Y-146205627D01*
X134901363Y-146205080D01*
X135558798Y-145547646D01*
X135558799Y-145547646D01*
X135528353Y-145523950D01*
X135436275Y-145474120D01*
X135361492Y-145412098D01*
X135316137Y-145326179D01*
X135307114Y-145229444D01*
X135335797Y-145136620D01*
X135397819Y-145061837D01*
X135423710Y-145043424D01*
X135426041Y-145041981D01*
X135576764Y-144904579D01*
X135699673Y-144741821D01*
X135790582Y-144559250D01*
X135846397Y-144363083D01*
X135865215Y-144160000D01*
X135846397Y-143956917D01*
X135790582Y-143760750D01*
X135699673Y-143578179D01*
X135640635Y-143500000D01*
X135576763Y-143415419D01*
X135426041Y-143278018D01*
X135252640Y-143170653D01*
X135127531Y-143122186D01*
X135045525Y-143070090D01*
X134989696Y-142990577D01*
X134968546Y-142895752D01*
X134985294Y-142800051D01*
X135037390Y-142718045D01*
X135116903Y-142662216D01*
X135127531Y-142657814D01*
X135135040Y-142654905D01*
X135252637Y-142609348D01*
X135426041Y-142501981D01*
X135576764Y-142364579D01*
X135699673Y-142201821D01*
X135790582Y-142019250D01*
X135846397Y-141823083D01*
X135865215Y-141620000D01*
X135846397Y-141416917D01*
X135790582Y-141220750D01*
X135699673Y-141038179D01*
X135644672Y-140965346D01*
X135576763Y-140875419D01*
X135426041Y-140738018D01*
X135252640Y-140630653D01*
X135127531Y-140582186D01*
X135045525Y-140530090D01*
X134989696Y-140450577D01*
X134968546Y-140355752D01*
X134985294Y-140260051D01*
X135037390Y-140178045D01*
X135116903Y-140122216D01*
X135127531Y-140117814D01*
X135129608Y-140117009D01*
X135252637Y-140069348D01*
X135426041Y-139961981D01*
X135576764Y-139824579D01*
X135699673Y-139661821D01*
X135790582Y-139479250D01*
X135846397Y-139283083D01*
X135865215Y-139080000D01*
X135846397Y-138876917D01*
X135790582Y-138680750D01*
X135699673Y-138498179D01*
X135605112Y-138372960D01*
X135576763Y-138335419D01*
X135426041Y-138198018D01*
X135252640Y-138090653D01*
X135127531Y-138042186D01*
X135045525Y-137990090D01*
X134989696Y-137910577D01*
X134968546Y-137815752D01*
X134985294Y-137720051D01*
X135037390Y-137638045D01*
X135116903Y-137582216D01*
X135127531Y-137577814D01*
X135129608Y-137577009D01*
X135252637Y-137529348D01*
X135426041Y-137421981D01*
X135576764Y-137284579D01*
X135699673Y-137121821D01*
X135760332Y-137000000D01*
X136394317Y-137000000D01*
X136414956Y-137156761D01*
X136475465Y-137302843D01*
X136571717Y-137428282D01*
X136697156Y-137524534D01*
X136697159Y-137524536D01*
X136843238Y-137585044D01*
X137000000Y-137605682D01*
X137006698Y-137604800D01*
X137103643Y-137611152D01*
X137190780Y-137654120D01*
X137215273Y-137675599D01*
X147101570Y-147561896D01*
X147155546Y-147642678D01*
X147174500Y-147737966D01*
X147174500Y-149974917D01*
X147173552Y-149996620D01*
X147170735Y-150028805D01*
X147179100Y-150060023D01*
X147183799Y-150081219D01*
X147191321Y-150123876D01*
X147194138Y-150130675D01*
X147218978Y-150166151D01*
X147230647Y-150184468D01*
X147246806Y-150212455D01*
X147266938Y-150229348D01*
X147271553Y-150233220D01*
X147287570Y-150247896D01*
X147824400Y-150784726D01*
X147878376Y-150865508D01*
X147897330Y-150960796D01*
X147895200Y-150993295D01*
X147894317Y-150999997D01*
X147903760Y-151071718D01*
X147914956Y-151156762D01*
X147931688Y-151197156D01*
X147975465Y-151302843D01*
X148071717Y-151428282D01*
X148197156Y-151524534D01*
X148197159Y-151524536D01*
X148343238Y-151585044D01*
X148500000Y-151605682D01*
X148656762Y-151585044D01*
X148802841Y-151524536D01*
X148928282Y-151428282D01*
X149024536Y-151302841D01*
X149085044Y-151156762D01*
X149105682Y-151000000D01*
X149085044Y-150843238D01*
X149024536Y-150697159D01*
X149024534Y-150697156D01*
X148928282Y-150571717D01*
X148802843Y-150475465D01*
X148802841Y-150475464D01*
X148656762Y-150414956D01*
X148628445Y-150411228D01*
X148499997Y-150394317D01*
X148493295Y-150395200D01*
X148396348Y-150388845D01*
X148309213Y-150345874D01*
X148284726Y-150324400D01*
X147898430Y-149938104D01*
X147844454Y-149857322D01*
X147825500Y-149762034D01*
X147825500Y-149239999D01*
X148894784Y-149239999D01*
X148913603Y-149443085D01*
X148969417Y-149639249D01*
X149060327Y-149821821D01*
X149183236Y-149984580D01*
X149333958Y-150121981D01*
X149507359Y-150229346D01*
X149507361Y-150229346D01*
X149507363Y-150229348D01*
X149697544Y-150303024D01*
X149697547Y-150303025D01*
X149898022Y-150340500D01*
X149898024Y-150340500D01*
X150101978Y-150340500D01*
X150302452Y-150303025D01*
X150302453Y-150303024D01*
X150302456Y-150303024D01*
X150492637Y-150229348D01*
X150666041Y-150121981D01*
X150816764Y-149984579D01*
X150939673Y-149821821D01*
X151030582Y-149639250D01*
X151086397Y-149443083D01*
X151105215Y-149240000D01*
X151086397Y-149036917D01*
X151030582Y-148840750D01*
X150939673Y-148658179D01*
X150820222Y-148500000D01*
X150816763Y-148495419D01*
X150666041Y-148358018D01*
X150492640Y-148250653D01*
X150367531Y-148202186D01*
X150285525Y-148150090D01*
X150229696Y-148070577D01*
X150208546Y-147975752D01*
X150225294Y-147880051D01*
X150277390Y-147798045D01*
X150356903Y-147742216D01*
X150367531Y-147737814D01*
X150369608Y-147737009D01*
X150492637Y-147689348D01*
X150666041Y-147581981D01*
X150752278Y-147503366D01*
X150816763Y-147444580D01*
X150836253Y-147418771D01*
X150939673Y-147281821D01*
X151030582Y-147099250D01*
X151058821Y-147000000D01*
X155644317Y-147000000D01*
X155664956Y-147156761D01*
X155725465Y-147302843D01*
X155821717Y-147428282D01*
X155933691Y-147514202D01*
X155947159Y-147524536D01*
X156093238Y-147585044D01*
X156250000Y-147605682D01*
X156406762Y-147585044D01*
X156552841Y-147524536D01*
X156678282Y-147428282D01*
X156774536Y-147302841D01*
X156835044Y-147156762D01*
X156855682Y-147000000D01*
X156835044Y-146843238D01*
X156774536Y-146697159D01*
X156739563Y-146651581D01*
X156678282Y-146571717D01*
X156552843Y-146475465D01*
X156552841Y-146475464D01*
X156406762Y-146414956D01*
X156388524Y-146412554D01*
X156250000Y-146394317D01*
X156093238Y-146414956D01*
X155947156Y-146475465D01*
X155821717Y-146571717D01*
X155725465Y-146697156D01*
X155664956Y-146843238D01*
X155644317Y-147000000D01*
X151058821Y-147000000D01*
X151086397Y-146903083D01*
X151105215Y-146700000D01*
X151086397Y-146496917D01*
X151030582Y-146300750D01*
X150939673Y-146118179D01*
X150874132Y-146031389D01*
X150816763Y-145955419D01*
X150666041Y-145818018D01*
X150492640Y-145710653D01*
X150367531Y-145662186D01*
X150285525Y-145610090D01*
X150229696Y-145530577D01*
X150208546Y-145435752D01*
X150225294Y-145340051D01*
X150277390Y-145258045D01*
X150356903Y-145202216D01*
X150367531Y-145197814D01*
X150369608Y-145197009D01*
X150492637Y-145149348D01*
X150666041Y-145041981D01*
X150816764Y-144904579D01*
X150939673Y-144741821D01*
X151030582Y-144559250D01*
X151086397Y-144363083D01*
X151105215Y-144160000D01*
X151086397Y-143956917D01*
X151030582Y-143760750D01*
X150939673Y-143578179D01*
X150880635Y-143500000D01*
X150816763Y-143415419D01*
X150666041Y-143278018D01*
X150492640Y-143170653D01*
X150367531Y-143122186D01*
X150285525Y-143070090D01*
X150229696Y-142990577D01*
X150208546Y-142895752D01*
X150225294Y-142800051D01*
X150277390Y-142718045D01*
X150356903Y-142662216D01*
X150367531Y-142657814D01*
X150375040Y-142654905D01*
X150492637Y-142609348D01*
X150666041Y-142501981D01*
X150816764Y-142364579D01*
X150939673Y-142201821D01*
X151030582Y-142019250D01*
X151086397Y-141823083D01*
X151105215Y-141620000D01*
X151086397Y-141416917D01*
X151030582Y-141220750D01*
X150939673Y-141038179D01*
X150884672Y-140965346D01*
X150816763Y-140875419D01*
X150666041Y-140738018D01*
X150492640Y-140630653D01*
X150367531Y-140582186D01*
X150285525Y-140530090D01*
X150229696Y-140450577D01*
X150208546Y-140355752D01*
X150225294Y-140260051D01*
X150277390Y-140178045D01*
X150356903Y-140122216D01*
X150367531Y-140117814D01*
X150369608Y-140117009D01*
X150492637Y-140069348D01*
X150666041Y-139961981D01*
X150816764Y-139824579D01*
X150939673Y-139661821D01*
X151030582Y-139479250D01*
X151086397Y-139283083D01*
X151105215Y-139080000D01*
X151086397Y-138876917D01*
X151030582Y-138680750D01*
X150939673Y-138498179D01*
X150845112Y-138372960D01*
X150816763Y-138335419D01*
X150666041Y-138198018D01*
X150492640Y-138090653D01*
X150367531Y-138042186D01*
X150285525Y-137990090D01*
X150229696Y-137910577D01*
X150208546Y-137815752D01*
X150225294Y-137720051D01*
X150277390Y-137638045D01*
X150356903Y-137582216D01*
X150367531Y-137577814D01*
X150369608Y-137577009D01*
X150492637Y-137529348D01*
X150666041Y-137421981D01*
X150816764Y-137284579D01*
X150939673Y-137121821D01*
X151030582Y-136939250D01*
X151086397Y-136743083D01*
X151105215Y-136540000D01*
X151086397Y-136336917D01*
X151030582Y-136140750D01*
X150939673Y-135958179D01*
X150899822Y-135905409D01*
X150816763Y-135795419D01*
X150666041Y-135658018D01*
X150492640Y-135550653D01*
X150367531Y-135502186D01*
X150285525Y-135450090D01*
X150229696Y-135370577D01*
X150208546Y-135275752D01*
X150225294Y-135180051D01*
X150277390Y-135098045D01*
X150356903Y-135042216D01*
X150367531Y-135037814D01*
X150369608Y-135037009D01*
X150492637Y-134989348D01*
X150666041Y-134881981D01*
X150816764Y-134744579D01*
X150939673Y-134581821D01*
X151030582Y-134399250D01*
X151086397Y-134203083D01*
X151105215Y-134000000D01*
X151086397Y-133796917D01*
X151030582Y-133600750D01*
X150939673Y-133418179D01*
X150830334Y-133273390D01*
X150816763Y-133255419D01*
X150666041Y-133118018D01*
X150492640Y-133010653D01*
X150302452Y-132936974D01*
X150101978Y-132899500D01*
X150101976Y-132899500D01*
X149898024Y-132899500D01*
X149898022Y-132899500D01*
X149697547Y-132936974D01*
X149507359Y-133010653D01*
X149333958Y-133118018D01*
X149183236Y-133255419D01*
X149060327Y-133418178D01*
X148969417Y-133600750D01*
X148913603Y-133796914D01*
X148894784Y-134000000D01*
X148913603Y-134203085D01*
X148969417Y-134399249D01*
X149060327Y-134581821D01*
X149183236Y-134744580D01*
X149333958Y-134881981D01*
X149507359Y-134989346D01*
X149507361Y-134989346D01*
X149507363Y-134989348D01*
X149573500Y-135014969D01*
X149632468Y-135037814D01*
X149714475Y-135089911D01*
X149770303Y-135169424D01*
X149791453Y-135264249D01*
X149774705Y-135359949D01*
X149722608Y-135441956D01*
X149643095Y-135497784D01*
X149632468Y-135502186D01*
X149507359Y-135550653D01*
X149333958Y-135658018D01*
X149183236Y-135795419D01*
X149060327Y-135958178D01*
X148969417Y-136140750D01*
X148913603Y-136336914D01*
X148894784Y-136540000D01*
X148913603Y-136743085D01*
X148969417Y-136939249D01*
X149060327Y-137121821D01*
X149183236Y-137284580D01*
X149333958Y-137421981D01*
X149507359Y-137529346D01*
X149507361Y-137529346D01*
X149507363Y-137529348D01*
X149573500Y-137554969D01*
X149632468Y-137577814D01*
X149714475Y-137629911D01*
X149770303Y-137709424D01*
X149791453Y-137804249D01*
X149774705Y-137899949D01*
X149722608Y-137981956D01*
X149643095Y-138037784D01*
X149632468Y-138042186D01*
X149507359Y-138090653D01*
X149333958Y-138198018D01*
X149183236Y-138335419D01*
X149060327Y-138498178D01*
X148969417Y-138680750D01*
X148913603Y-138876914D01*
X148894784Y-139080000D01*
X148913603Y-139283085D01*
X148969417Y-139479249D01*
X149060327Y-139661821D01*
X149183236Y-139824580D01*
X149333958Y-139961981D01*
X149507359Y-140069346D01*
X149507361Y-140069346D01*
X149507363Y-140069348D01*
X149550489Y-140086055D01*
X149632468Y-140117814D01*
X149714475Y-140169911D01*
X149770303Y-140249424D01*
X149791453Y-140344249D01*
X149774705Y-140439949D01*
X149722608Y-140521956D01*
X149643095Y-140577784D01*
X149632468Y-140582186D01*
X149507359Y-140630653D01*
X149333958Y-140738018D01*
X149183236Y-140875419D01*
X149060327Y-141038178D01*
X148969417Y-141220750D01*
X148913603Y-141416914D01*
X148894784Y-141620000D01*
X148913603Y-141823085D01*
X148969417Y-142019249D01*
X149060327Y-142201821D01*
X149183236Y-142364580D01*
X149333958Y-142501981D01*
X149507359Y-142609346D01*
X149507361Y-142609346D01*
X149507363Y-142609348D01*
X149573500Y-142634969D01*
X149632468Y-142657814D01*
X149714475Y-142709911D01*
X149770303Y-142789424D01*
X149791453Y-142884249D01*
X149774705Y-142979949D01*
X149722608Y-143061956D01*
X149643095Y-143117784D01*
X149632468Y-143122186D01*
X149507359Y-143170653D01*
X149333958Y-143278018D01*
X149183236Y-143415419D01*
X149060327Y-143578178D01*
X148969417Y-143760750D01*
X148913603Y-143956914D01*
X148894784Y-144159999D01*
X148913603Y-144363085D01*
X148969417Y-144559249D01*
X149060327Y-144741821D01*
X149183236Y-144904580D01*
X149333958Y-145041981D01*
X149507359Y-145149346D01*
X149507361Y-145149346D01*
X149507363Y-145149348D01*
X149573500Y-145174969D01*
X149632468Y-145197814D01*
X149714475Y-145249911D01*
X149770303Y-145329424D01*
X149791453Y-145424249D01*
X149774705Y-145519949D01*
X149722608Y-145601956D01*
X149643095Y-145657784D01*
X149632468Y-145662186D01*
X149507359Y-145710653D01*
X149333958Y-145818018D01*
X149183236Y-145955419D01*
X149060327Y-146118178D01*
X148969417Y-146300750D01*
X148913603Y-146496914D01*
X148894784Y-146699999D01*
X148913603Y-146903085D01*
X148969417Y-147099249D01*
X149060327Y-147281821D01*
X149183236Y-147444580D01*
X149333958Y-147581981D01*
X149507359Y-147689346D01*
X149507361Y-147689346D01*
X149507363Y-147689348D01*
X149573500Y-147714969D01*
X149632468Y-147737814D01*
X149714475Y-147789911D01*
X149770303Y-147869424D01*
X149791453Y-147964249D01*
X149774705Y-148059949D01*
X149722608Y-148141956D01*
X149643095Y-148197784D01*
X149632468Y-148202186D01*
X149507359Y-148250653D01*
X149333958Y-148358018D01*
X149183236Y-148495419D01*
X149060327Y-148658178D01*
X148969417Y-148840750D01*
X148913603Y-149036914D01*
X148894784Y-149239999D01*
X147825500Y-149239999D01*
X147825500Y-147525069D01*
X147826448Y-147503366D01*
X147829263Y-147471193D01*
X147820898Y-147439977D01*
X147816201Y-147418790D01*
X147810588Y-147386955D01*
X147810586Y-147386952D01*
X147808677Y-147376124D01*
X147805862Y-147369327D01*
X147781025Y-147333855D01*
X147769354Y-147315534D01*
X147753195Y-147287546D01*
X147728451Y-147266783D01*
X147712435Y-147252108D01*
X142698372Y-142238045D01*
X137675598Y-137215272D01*
X137621623Y-137134491D01*
X137602669Y-137039203D01*
X137604800Y-137006696D01*
X137605682Y-137000000D01*
X137585044Y-136843238D01*
X137524536Y-136697159D01*
X137524534Y-136697156D01*
X137428282Y-136571717D01*
X137302843Y-136475465D01*
X137302841Y-136475464D01*
X137156762Y-136414956D01*
X137138524Y-136412554D01*
X137000000Y-136394317D01*
X136843238Y-136414956D01*
X136697156Y-136475465D01*
X136571717Y-136571717D01*
X136475465Y-136697156D01*
X136414956Y-136843238D01*
X136394317Y-137000000D01*
X135760332Y-137000000D01*
X135790582Y-136939250D01*
X135846397Y-136743083D01*
X135865215Y-136540000D01*
X135846397Y-136336917D01*
X135790582Y-136140750D01*
X135699673Y-135958179D01*
X135659822Y-135905409D01*
X135576763Y-135795419D01*
X135426041Y-135658018D01*
X135252640Y-135550653D01*
X135127531Y-135502186D01*
X135045525Y-135450090D01*
X134989696Y-135370577D01*
X134968546Y-135275752D01*
X134985294Y-135180051D01*
X135037390Y-135098045D01*
X135116903Y-135042216D01*
X135127531Y-135037814D01*
X135129608Y-135037009D01*
X135252637Y-134989348D01*
X135426041Y-134881981D01*
X135576764Y-134744579D01*
X135699673Y-134581821D01*
X135790582Y-134399250D01*
X135846397Y-134203083D01*
X135865215Y-134000000D01*
X135846397Y-133796917D01*
X135790582Y-133600750D01*
X135699673Y-133418179D01*
X135590334Y-133273390D01*
X135576763Y-133255419D01*
X135426041Y-133118018D01*
X135252640Y-133010653D01*
X135062452Y-132936974D01*
X134861978Y-132899500D01*
X134861976Y-132899500D01*
X134658024Y-132899500D01*
X134658022Y-132899500D01*
X134457547Y-132936974D01*
X134267359Y-133010653D01*
X134093958Y-133118018D01*
X133943236Y-133255419D01*
X133820327Y-133418178D01*
X133729417Y-133600750D01*
X133673603Y-133796914D01*
X133654784Y-134000000D01*
X133673603Y-134203085D01*
X133729417Y-134399249D01*
X133820327Y-134581821D01*
X133943236Y-134744580D01*
X134093958Y-134881981D01*
X134267359Y-134989346D01*
X134267361Y-134989346D01*
X134267363Y-134989348D01*
X134333500Y-135014969D01*
X134392468Y-135037814D01*
X134474475Y-135089911D01*
X134530303Y-135169424D01*
X134551453Y-135264249D01*
X134534705Y-135359949D01*
X134482608Y-135441956D01*
X134403095Y-135497784D01*
X134392468Y-135502186D01*
X134267359Y-135550653D01*
X134093958Y-135658018D01*
X133943236Y-135795419D01*
X133820327Y-135958178D01*
X133729417Y-136140750D01*
X133673603Y-136336914D01*
X133654784Y-136539999D01*
X133673603Y-136743085D01*
X133729417Y-136939249D01*
X133820327Y-137121821D01*
X133943236Y-137284580D01*
X134093958Y-137421981D01*
X134267359Y-137529346D01*
X134267361Y-137529346D01*
X134267363Y-137529348D01*
X134333500Y-137554969D01*
X134392468Y-137577814D01*
X134474475Y-137629911D01*
X134530303Y-137709424D01*
X134551453Y-137804249D01*
X134534705Y-137899949D01*
X134482608Y-137981956D01*
X134403095Y-138037784D01*
X134392468Y-138042186D01*
X134267359Y-138090653D01*
X134093958Y-138198018D01*
X133943236Y-138335419D01*
X133820327Y-138498178D01*
X133729417Y-138680750D01*
X133673603Y-138876914D01*
X133654784Y-139079999D01*
X133673603Y-139283085D01*
X133729417Y-139479249D01*
X133820327Y-139661821D01*
X133943236Y-139824580D01*
X134093958Y-139961981D01*
X134267359Y-140069346D01*
X134267361Y-140069346D01*
X134267363Y-140069348D01*
X134310489Y-140086055D01*
X134392468Y-140117814D01*
X134474475Y-140169911D01*
X134530303Y-140249424D01*
X134551453Y-140344249D01*
X134534705Y-140439949D01*
X134482608Y-140521956D01*
X134403095Y-140577784D01*
X134392468Y-140582186D01*
X134267359Y-140630653D01*
X134093958Y-140738018D01*
X133943236Y-140875419D01*
X133820327Y-141038178D01*
X133729417Y-141220750D01*
X133673603Y-141416914D01*
X133654784Y-141619999D01*
X133673603Y-141823085D01*
X133729417Y-142019249D01*
X133820327Y-142201821D01*
X133943236Y-142364580D01*
X134093958Y-142501981D01*
X134267359Y-142609346D01*
X134267361Y-142609346D01*
X134267363Y-142609348D01*
X134333500Y-142634969D01*
X134392468Y-142657814D01*
X134474475Y-142709911D01*
X134530303Y-142789424D01*
X134551453Y-142884249D01*
X134534705Y-142979949D01*
X134482608Y-143061956D01*
X134403095Y-143117784D01*
X134392468Y-143122186D01*
X134267359Y-143170653D01*
X134093958Y-143278018D01*
X133943236Y-143415419D01*
X133820327Y-143578178D01*
X133729417Y-143760750D01*
X133673603Y-143956914D01*
X133654784Y-144160000D01*
X133673603Y-144363085D01*
X133729417Y-144559249D01*
X133820327Y-144741821D01*
X133943236Y-144904580D01*
X134093954Y-145041978D01*
X134096290Y-145043424D01*
X134167329Y-145109700D01*
X134207598Y-145198117D01*
X134210966Y-145295213D01*
X134176920Y-145386208D01*
X134110644Y-145457247D01*
X134083725Y-145474119D01*
X133991652Y-145523947D01*
X133961200Y-145547647D01*
X134618635Y-146205081D01*
X134614839Y-146205627D01*
X134481438Y-146266549D01*
X134370605Y-146362587D01*
X134291318Y-146485960D01*
X134268867Y-146562419D01*
X133608811Y-145902364D01*
X133524517Y-146031389D01*
X133431318Y-146243863D01*
X133374362Y-146468776D01*
X133355202Y-146699999D01*
X124025712Y-146699999D01*
X124024536Y-146697159D01*
X123989563Y-146651581D01*
X123946592Y-146564446D01*
X123940238Y-146467499D01*
X123971468Y-146375500D01*
X123989563Y-146348419D01*
X123992975Y-146343971D01*
X124024536Y-146302841D01*
X124085044Y-146156762D01*
X124105682Y-146000000D01*
X124105681Y-145999999D01*
X124106941Y-145990437D01*
X124138171Y-145898438D01*
X124202229Y-145825393D01*
X124258516Y-145792895D01*
X124302841Y-145774536D01*
X124428282Y-145678282D01*
X124524536Y-145552841D01*
X124585044Y-145406762D01*
X124605682Y-145250000D01*
X124585044Y-145093238D01*
X124524536Y-144947159D01*
X124524534Y-144947156D01*
X124428282Y-144821717D01*
X124302843Y-144725465D01*
X124261372Y-144708287D01*
X124156762Y-144664956D01*
X124138524Y-144662554D01*
X124000000Y-144644317D01*
X123843238Y-144664956D01*
X123697156Y-144725465D01*
X123571717Y-144821717D01*
X123475465Y-144947156D01*
X123414956Y-145093238D01*
X123393059Y-145259561D01*
X123361829Y-145351560D01*
X123297770Y-145424605D01*
X123241480Y-145457105D01*
X123197158Y-145475464D01*
X123071717Y-145571717D01*
X122975465Y-145697156D01*
X122914956Y-145843238D01*
X122894317Y-146000000D01*
X122898450Y-146031389D01*
X122914956Y-146156762D01*
X122975464Y-146302841D01*
X122975465Y-146302842D01*
X123010437Y-146348419D01*
X123053408Y-146435554D01*
X123059762Y-146532501D01*
X123028532Y-146624500D01*
X123010437Y-146651581D01*
X122975465Y-146697157D01*
X122914956Y-146843238D01*
X122894317Y-147000000D01*
X80500000Y-147000000D01*
X80500000Y-145500001D01*
X80500000Y-145500000D01*
X78000000Y-143000000D01*
X70749000Y-143000000D01*
X70653712Y-142981046D01*
X70572930Y-142927070D01*
X70518954Y-142846288D01*
X70500000Y-142751000D01*
X70500000Y-142579999D01*
X114494658Y-142579999D01*
X114513976Y-142776132D01*
X114571185Y-142964725D01*
X114664091Y-143138541D01*
X114789116Y-143290883D01*
X114941458Y-143415908D01*
X114941462Y-143415910D01*
X115115273Y-143508814D01*
X115303868Y-143566024D01*
X115480682Y-143583438D01*
X115499999Y-143585341D01*
X115499999Y-143585340D01*
X115500000Y-143585341D01*
X115696132Y-143566024D01*
X115884727Y-143508814D01*
X115901217Y-143500000D01*
X124894317Y-143500000D01*
X124904610Y-143578178D01*
X124914956Y-143656762D01*
X124975464Y-143802841D01*
X124975465Y-143802843D01*
X125071717Y-143928282D01*
X125197156Y-144024534D01*
X125197159Y-144024536D01*
X125343238Y-144085044D01*
X125481762Y-144103280D01*
X125499999Y-144105682D01*
X125499999Y-144105681D01*
X125500000Y-144105682D01*
X125656762Y-144085044D01*
X125656764Y-144085043D01*
X125684003Y-144081457D01*
X125780950Y-144087811D01*
X125868086Y-144130782D01*
X125932145Y-144203826D01*
X125946551Y-144233038D01*
X125975465Y-144302843D01*
X126071715Y-144428279D01*
X126071716Y-144428280D01*
X126071718Y-144428282D01*
X126197159Y-144524536D01*
X126197162Y-144524537D01*
X126221540Y-144543243D01*
X126285599Y-144616288D01*
X126316829Y-144708287D01*
X126310475Y-144805234D01*
X126267505Y-144892369D01*
X126225465Y-144947157D01*
X126225464Y-144947158D01*
X126225464Y-144947159D01*
X126186189Y-145041978D01*
X126164956Y-145093238D01*
X126144317Y-145250000D01*
X126162250Y-145386208D01*
X126164956Y-145406762D01*
X126203577Y-145500000D01*
X126225465Y-145552843D01*
X126321717Y-145678282D01*
X126447156Y-145774534D01*
X126447159Y-145774536D01*
X126593238Y-145835044D01*
X126731762Y-145853280D01*
X126749999Y-145855682D01*
X126749999Y-145855681D01*
X126750000Y-145855682D01*
X126906762Y-145835044D01*
X127052841Y-145774536D01*
X127178282Y-145678282D01*
X127274536Y-145552841D01*
X127335044Y-145406762D01*
X127355682Y-145250000D01*
X127335044Y-145093238D01*
X127274536Y-144947159D01*
X127274534Y-144947156D01*
X127178282Y-144821717D01*
X127028459Y-144706755D01*
X126964400Y-144633711D01*
X126933170Y-144541712D01*
X126939524Y-144444765D01*
X126982493Y-144357631D01*
X127024536Y-144302841D01*
X127085044Y-144156762D01*
X127105682Y-144000000D01*
X127085044Y-143843238D01*
X127024536Y-143697159D01*
X126989563Y-143651581D01*
X126946592Y-143564446D01*
X126940238Y-143467499D01*
X126971468Y-143375500D01*
X126989563Y-143348419D01*
X126993538Y-143343238D01*
X127024536Y-143302841D01*
X127085044Y-143156762D01*
X127105682Y-143000000D01*
X127085044Y-142843238D01*
X127024536Y-142697159D01*
X127013690Y-142683024D01*
X126928282Y-142571717D01*
X126802843Y-142475465D01*
X126802841Y-142475464D01*
X126656762Y-142414956D01*
X126638524Y-142412554D01*
X126500000Y-142394317D01*
X126343238Y-142414956D01*
X126197156Y-142475465D01*
X126071717Y-142571717D01*
X125975465Y-142697157D01*
X125946551Y-142766961D01*
X125892574Y-142847743D01*
X125811792Y-142901718D01*
X125716504Y-142920672D01*
X125684004Y-142918542D01*
X125500000Y-142894317D01*
X125343238Y-142914956D01*
X125197156Y-142975465D01*
X125071717Y-143071717D01*
X124975465Y-143197156D01*
X124914956Y-143343238D01*
X124894317Y-143500000D01*
X115901217Y-143500000D01*
X116058538Y-143415910D01*
X116058539Y-143415908D01*
X116058541Y-143415908D01*
X116210883Y-143290883D01*
X116335908Y-143138541D01*
X116335910Y-143138538D01*
X116428814Y-142964727D01*
X116472793Y-142819748D01*
X119499500Y-142819748D01*
X119504779Y-142846288D01*
X119511133Y-142878232D01*
X119555447Y-142944552D01*
X119621767Y-142988866D01*
X119621769Y-142988867D01*
X119680252Y-143000500D01*
X119680254Y-143000500D01*
X121319746Y-143000500D01*
X121319748Y-143000500D01*
X121378231Y-142988867D01*
X121444552Y-142944552D01*
X121488867Y-142878231D01*
X121494374Y-142850542D01*
X121531553Y-142760784D01*
X121600252Y-142692085D01*
X121690011Y-142654905D01*
X121787166Y-142654904D01*
X121876926Y-142692083D01*
X121910076Y-142724518D01*
X121920973Y-142725472D01*
X122602045Y-142044399D01*
X122614835Y-142125148D01*
X122672359Y-142238045D01*
X122761955Y-142327641D01*
X122874852Y-142385165D01*
X122955599Y-142397953D01*
X122274527Y-143079026D01*
X122347514Y-143130132D01*
X122553680Y-143226268D01*
X122773390Y-143285140D01*
X123000000Y-143304965D01*
X123226609Y-143285140D01*
X123446322Y-143226267D01*
X123652485Y-143130133D01*
X123725471Y-143079027D01*
X123725471Y-143079025D01*
X123044400Y-142397953D01*
X123125148Y-142385165D01*
X123238045Y-142327641D01*
X123327641Y-142238045D01*
X123385165Y-142125148D01*
X123397953Y-142044400D01*
X124079025Y-142725471D01*
X124079027Y-142725471D01*
X124130133Y-142652485D01*
X124226267Y-142446322D01*
X124285140Y-142226609D01*
X124304965Y-142000000D01*
X124285140Y-141773390D01*
X124226268Y-141553680D01*
X124130132Y-141347514D01*
X124079026Y-141274527D01*
X123397953Y-141955599D01*
X123385165Y-141874852D01*
X123327641Y-141761955D01*
X123238045Y-141672359D01*
X123125148Y-141614835D01*
X123044399Y-141602045D01*
X123725472Y-140920973D01*
X123652485Y-140869867D01*
X123446319Y-140773731D01*
X123226609Y-140714859D01*
X123000000Y-140695034D01*
X122773390Y-140714859D01*
X122553677Y-140773732D01*
X122347518Y-140869864D01*
X122274527Y-140920972D01*
X122955600Y-141602045D01*
X122874852Y-141614835D01*
X122761955Y-141672359D01*
X122672359Y-141761955D01*
X122614835Y-141874852D01*
X122602045Y-141955600D01*
X121920971Y-141274526D01*
X121909285Y-141275549D01*
X121872376Y-141310882D01*
X121781827Y-141346094D01*
X121684695Y-141343975D01*
X121595768Y-141304845D01*
X121528584Y-141234664D01*
X121494373Y-141149452D01*
X121488867Y-141121769D01*
X121488866Y-141121767D01*
X121444552Y-141055447D01*
X121378232Y-141011133D01*
X121358736Y-141007255D01*
X121319748Y-140999500D01*
X119680252Y-140999500D01*
X119651010Y-141005316D01*
X119621767Y-141011133D01*
X119555447Y-141055447D01*
X119511133Y-141121767D01*
X119503377Y-141160757D01*
X119499500Y-141180252D01*
X119499500Y-142819748D01*
X116472793Y-142819748D01*
X116486024Y-142776132D01*
X116505341Y-142580000D01*
X116486024Y-142383868D01*
X116428814Y-142195273D01*
X116335910Y-142021462D01*
X116335908Y-142021458D01*
X116210883Y-141869116D01*
X116058541Y-141744091D01*
X115884725Y-141651185D01*
X115696132Y-141593976D01*
X115500000Y-141574658D01*
X115303867Y-141593976D01*
X115115274Y-141651185D01*
X114941458Y-141744091D01*
X114789116Y-141869116D01*
X114664091Y-142021458D01*
X114571185Y-142195274D01*
X114513976Y-142383867D01*
X114494658Y-142579999D01*
X70500000Y-142579999D01*
X70500000Y-139000000D01*
X84245922Y-139000000D01*
X84264974Y-139217771D01*
X84321551Y-139428914D01*
X84413936Y-139627036D01*
X84457371Y-139689068D01*
X85020703Y-139125736D01*
X85044821Y-139207871D01*
X85121822Y-139327688D01*
X85229461Y-139420957D01*
X85359017Y-139480124D01*
X85371610Y-139481934D01*
X84810923Y-140042621D01*
X84872956Y-140086056D01*
X85071079Y-140178443D01*
X85282222Y-140235019D01*
X85499994Y-140254071D01*
X85717765Y-140235019D01*
X85928908Y-140178442D01*
X86127034Y-140086055D01*
X86189062Y-140042622D01*
X85628374Y-139481934D01*
X85640971Y-139480124D01*
X85770527Y-139420957D01*
X85878166Y-139327688D01*
X85955167Y-139207871D01*
X85979284Y-139125736D01*
X86542616Y-139689068D01*
X86586049Y-139627040D01*
X86678436Y-139428914D01*
X86735013Y-139217771D01*
X86754065Y-139000000D01*
X86754065Y-138999999D01*
X91545598Y-138999999D01*
X91563937Y-139186193D01*
X91618248Y-139365233D01*
X91706443Y-139530234D01*
X91825134Y-139674860D01*
X91969760Y-139793551D01*
X92134761Y-139881746D01*
X92134763Y-139881747D01*
X92313802Y-139936058D01*
X92481656Y-139952589D01*
X92499994Y-139954396D01*
X92499994Y-139954395D01*
X92499995Y-139954396D01*
X92686188Y-139936058D01*
X92865227Y-139881747D01*
X93030229Y-139793551D01*
X93174855Y-139674860D01*
X93293546Y-139530234D01*
X93381742Y-139365232D01*
X93436053Y-139186193D01*
X93454391Y-139000000D01*
X98245924Y-139000000D01*
X98264976Y-139217771D01*
X98321553Y-139428914D01*
X98413938Y-139627036D01*
X98457373Y-139689068D01*
X99020705Y-139125736D01*
X99044823Y-139207871D01*
X99121824Y-139327688D01*
X99229463Y-139420957D01*
X99359019Y-139480124D01*
X99371612Y-139481934D01*
X98810925Y-140042621D01*
X98872958Y-140086056D01*
X99071081Y-140178443D01*
X99282224Y-140235019D01*
X99499996Y-140254071D01*
X99717767Y-140235019D01*
X99928910Y-140178442D01*
X100127036Y-140086055D01*
X100189064Y-140042622D01*
X99628376Y-139481934D01*
X99640973Y-139480124D01*
X99770529Y-139420957D01*
X99878168Y-139327688D01*
X99955169Y-139207871D01*
X99979286Y-139125736D01*
X100542618Y-139689068D01*
X100586051Y-139627040D01*
X100678438Y-139428914D01*
X100735015Y-139217771D01*
X100754067Y-139000000D01*
X105545603Y-139000000D01*
X105563942Y-139186193D01*
X105618253Y-139365233D01*
X105706448Y-139530234D01*
X105825139Y-139674860D01*
X105969765Y-139793551D01*
X106134766Y-139881746D01*
X106134768Y-139881747D01*
X106313807Y-139936058D01*
X106500000Y-139954396D01*
X106686193Y-139936058D01*
X106865232Y-139881747D01*
X107030234Y-139793551D01*
X107174860Y-139674860D01*
X107293551Y-139530234D01*
X107381747Y-139365232D01*
X107436058Y-139186193D01*
X107454396Y-139000000D01*
X107436058Y-138813807D01*
X107381747Y-138634768D01*
X107351961Y-138579043D01*
X107293551Y-138469765D01*
X107174860Y-138325139D01*
X107030234Y-138206448D01*
X106865233Y-138118253D01*
X106686193Y-138063942D01*
X106500000Y-138045603D01*
X106313806Y-138063942D01*
X106134766Y-138118253D01*
X105969765Y-138206448D01*
X105825139Y-138325139D01*
X105706448Y-138469765D01*
X105618253Y-138634766D01*
X105563942Y-138813806D01*
X105545603Y-139000000D01*
X100754067Y-139000000D01*
X100735015Y-138782228D01*
X100678439Y-138571085D01*
X100586052Y-138372962D01*
X100542617Y-138310929D01*
X99979285Y-138874261D01*
X99955169Y-138792129D01*
X99878168Y-138672312D01*
X99770529Y-138579043D01*
X99640973Y-138519876D01*
X99628375Y-138518064D01*
X100189064Y-137957376D01*
X100127032Y-137913942D01*
X99928910Y-137821557D01*
X99717767Y-137764980D01*
X99499995Y-137745928D01*
X99282224Y-137764980D01*
X99071081Y-137821557D01*
X98872956Y-137913943D01*
X98810926Y-137957376D01*
X98810925Y-137957377D01*
X99371613Y-138518065D01*
X99359019Y-138519876D01*
X99229463Y-138579043D01*
X99121824Y-138672312D01*
X99044823Y-138792129D01*
X99020705Y-138874263D01*
X98457372Y-138310930D01*
X98413939Y-138372960D01*
X98321553Y-138571085D01*
X98264976Y-138782228D01*
X98245924Y-139000000D01*
X93454391Y-139000000D01*
X93436053Y-138813807D01*
X93381742Y-138634768D01*
X93351956Y-138579043D01*
X93293546Y-138469765D01*
X93174855Y-138325139D01*
X93030229Y-138206448D01*
X92865228Y-138118253D01*
X92686188Y-138063942D01*
X92499994Y-138045603D01*
X92313801Y-138063942D01*
X92134761Y-138118253D01*
X91969760Y-138206448D01*
X91825134Y-138325139D01*
X91706443Y-138469765D01*
X91618248Y-138634766D01*
X91563937Y-138813806D01*
X91545598Y-138999999D01*
X86754065Y-138999999D01*
X86735013Y-138782228D01*
X86678437Y-138571085D01*
X86586050Y-138372962D01*
X86542615Y-138310929D01*
X85979283Y-138874261D01*
X85955167Y-138792129D01*
X85878166Y-138672312D01*
X85770527Y-138579043D01*
X85640971Y-138519876D01*
X85628373Y-138518064D01*
X86189062Y-137957376D01*
X86127030Y-137913942D01*
X85928908Y-137821557D01*
X85717765Y-137764980D01*
X85499994Y-137745928D01*
X85282222Y-137764980D01*
X85071079Y-137821557D01*
X84872954Y-137913943D01*
X84810924Y-137957376D01*
X84810923Y-137957377D01*
X85371611Y-138518065D01*
X85359017Y-138519876D01*
X85229461Y-138579043D01*
X85121822Y-138672312D01*
X85044821Y-138792129D01*
X85020703Y-138874263D01*
X84457370Y-138310930D01*
X84413937Y-138372960D01*
X84321551Y-138571085D01*
X84264974Y-138782228D01*
X84245922Y-139000000D01*
X70500000Y-139000000D01*
X70500000Y-134000000D01*
X88045598Y-134000000D01*
X88063937Y-134186193D01*
X88118248Y-134365233D01*
X88206443Y-134530234D01*
X88325134Y-134674860D01*
X88469760Y-134793551D01*
X88634761Y-134881746D01*
X88634763Y-134881747D01*
X88813802Y-134936058D01*
X88981655Y-134952589D01*
X88999994Y-134954396D01*
X88999994Y-134954395D01*
X88999995Y-134954396D01*
X89186188Y-134936058D01*
X89365227Y-134881747D01*
X89530229Y-134793551D01*
X89674855Y-134674860D01*
X89793546Y-134530234D01*
X89881742Y-134365232D01*
X89936053Y-134186193D01*
X89954391Y-134000000D01*
X95045599Y-134000000D01*
X95063938Y-134186193D01*
X95118249Y-134365233D01*
X95206444Y-134530234D01*
X95325135Y-134674860D01*
X95469761Y-134793551D01*
X95634762Y-134881746D01*
X95634764Y-134881747D01*
X95813803Y-134936058D01*
X95981657Y-134952589D01*
X95999995Y-134954396D01*
X95999995Y-134954395D01*
X95999996Y-134954396D01*
X96186189Y-134936058D01*
X96365228Y-134881747D01*
X96530230Y-134793551D01*
X96674856Y-134674860D01*
X96793547Y-134530234D01*
X96881743Y-134365232D01*
X96936054Y-134186193D01*
X96954392Y-134000000D01*
X102045600Y-134000000D01*
X102063939Y-134186193D01*
X102118250Y-134365233D01*
X102206445Y-134530234D01*
X102325136Y-134674860D01*
X102469762Y-134793551D01*
X102634763Y-134881746D01*
X102634765Y-134881747D01*
X102813804Y-134936058D01*
X102981657Y-134952589D01*
X102999996Y-134954396D01*
X102999996Y-134954395D01*
X102999997Y-134954396D01*
X103186190Y-134936058D01*
X103365229Y-134881747D01*
X103530231Y-134793551D01*
X103674857Y-134674860D01*
X103793548Y-134530234D01*
X103881744Y-134365232D01*
X103936055Y-134186193D01*
X103954393Y-134000000D01*
X103954393Y-133999999D01*
X109045604Y-133999999D01*
X109063943Y-134186193D01*
X109118254Y-134365233D01*
X109206449Y-134530234D01*
X109325140Y-134674860D01*
X109469766Y-134793551D01*
X109634767Y-134881746D01*
X109634769Y-134881747D01*
X109813808Y-134936058D01*
X110000001Y-134954396D01*
X110186194Y-134936058D01*
X110365233Y-134881747D01*
X110530235Y-134793551D01*
X110674861Y-134674860D01*
X110793552Y-134530234D01*
X110881748Y-134365232D01*
X110895546Y-134319746D01*
X119499500Y-134319746D01*
X119511133Y-134378232D01*
X119555447Y-134444552D01*
X119621767Y-134488866D01*
X119621769Y-134488867D01*
X119680252Y-134500500D01*
X119680254Y-134500500D01*
X121319746Y-134500500D01*
X121319748Y-134500500D01*
X121378231Y-134488867D01*
X121444552Y-134444552D01*
X121488867Y-134378231D01*
X121494374Y-134350542D01*
X121531553Y-134260784D01*
X121600252Y-134192085D01*
X121690011Y-134154905D01*
X121787166Y-134154904D01*
X121876926Y-134192083D01*
X121910076Y-134224518D01*
X121920973Y-134225472D01*
X122602045Y-133544399D01*
X122614835Y-133625148D01*
X122672359Y-133738045D01*
X122761955Y-133827641D01*
X122874852Y-133885165D01*
X122955599Y-133897953D01*
X122274527Y-134579026D01*
X122347514Y-134630132D01*
X122553680Y-134726268D01*
X122773390Y-134785140D01*
X123000000Y-134804965D01*
X123226609Y-134785140D01*
X123446322Y-134726267D01*
X123652485Y-134630133D01*
X123725471Y-134579027D01*
X123725471Y-134579025D01*
X123044400Y-133897953D01*
X123125148Y-133885165D01*
X123238045Y-133827641D01*
X123327641Y-133738045D01*
X123385165Y-133625148D01*
X123397953Y-133544400D01*
X124079025Y-134225471D01*
X124079027Y-134225471D01*
X124130133Y-134152485D01*
X124226267Y-133946322D01*
X124285140Y-133726609D01*
X124304965Y-133500000D01*
X124285140Y-133273390D01*
X124226268Y-133053680D01*
X124130132Y-132847514D01*
X124079026Y-132774527D01*
X123397953Y-133455599D01*
X123385165Y-133374852D01*
X123327641Y-133261955D01*
X123238045Y-133172359D01*
X123125148Y-133114835D01*
X123044399Y-133102045D01*
X123725472Y-132420973D01*
X123652485Y-132369867D01*
X123446319Y-132273731D01*
X123226609Y-132214859D01*
X122999999Y-132195034D01*
X122773390Y-132214859D01*
X122553677Y-132273732D01*
X122347518Y-132369864D01*
X122274527Y-132420972D01*
X122955600Y-133102045D01*
X122874852Y-133114835D01*
X122761955Y-133172359D01*
X122672359Y-133261955D01*
X122614835Y-133374852D01*
X122602045Y-133455600D01*
X121920971Y-132774526D01*
X121909285Y-132775549D01*
X121872376Y-132810882D01*
X121781827Y-132846094D01*
X121684695Y-132843975D01*
X121595768Y-132804845D01*
X121528584Y-132734664D01*
X121494373Y-132649452D01*
X121488867Y-132621769D01*
X121488866Y-132621767D01*
X121444552Y-132555447D01*
X121378232Y-132511133D01*
X121358736Y-132507255D01*
X121319748Y-132499500D01*
X119680252Y-132499500D01*
X119651010Y-132505316D01*
X119621767Y-132511133D01*
X119555447Y-132555447D01*
X119511133Y-132621767D01*
X119499500Y-132680253D01*
X119499500Y-134319746D01*
X110895546Y-134319746D01*
X110936059Y-134186193D01*
X110954397Y-134000000D01*
X110936059Y-133813807D01*
X110881748Y-133634768D01*
X110809713Y-133500000D01*
X110793552Y-133469765D01*
X110674861Y-133325139D01*
X110530235Y-133206448D01*
X110365234Y-133118253D01*
X110186194Y-133063942D01*
X110000001Y-133045603D01*
X109813807Y-133063942D01*
X109634767Y-133118253D01*
X109469766Y-133206448D01*
X109325140Y-133325139D01*
X109206449Y-133469765D01*
X109118254Y-133634766D01*
X109063943Y-133813806D01*
X109045604Y-133999999D01*
X103954393Y-133999999D01*
X103936055Y-133813807D01*
X103881744Y-133634768D01*
X103809709Y-133500000D01*
X103793548Y-133469765D01*
X103674857Y-133325139D01*
X103530231Y-133206448D01*
X103365230Y-133118253D01*
X103186190Y-133063942D01*
X102999997Y-133045603D01*
X102813803Y-133063942D01*
X102634763Y-133118253D01*
X102469762Y-133206448D01*
X102325136Y-133325139D01*
X102206445Y-133469765D01*
X102118250Y-133634766D01*
X102063939Y-133813806D01*
X102045600Y-134000000D01*
X96954392Y-134000000D01*
X96936054Y-133813807D01*
X96881743Y-133634768D01*
X96809708Y-133500000D01*
X96793547Y-133469765D01*
X96674856Y-133325139D01*
X96530230Y-133206448D01*
X96365229Y-133118253D01*
X96186189Y-133063942D01*
X95999995Y-133045603D01*
X95813802Y-133063942D01*
X95634762Y-133118253D01*
X95469761Y-133206448D01*
X95325135Y-133325139D01*
X95206444Y-133469765D01*
X95118249Y-133634766D01*
X95063938Y-133813806D01*
X95045599Y-134000000D01*
X89954391Y-134000000D01*
X89936053Y-133813807D01*
X89881742Y-133634768D01*
X89809707Y-133500000D01*
X89793546Y-133469765D01*
X89674855Y-133325139D01*
X89530229Y-133206448D01*
X89365228Y-133118253D01*
X89186188Y-133063942D01*
X88999994Y-133045603D01*
X88813801Y-133063942D01*
X88634761Y-133118253D01*
X88469760Y-133206448D01*
X88325134Y-133325139D01*
X88206443Y-133469765D01*
X88118248Y-133634766D01*
X88063937Y-133813806D01*
X88045598Y-134000000D01*
X70500000Y-134000000D01*
X70500000Y-132420000D01*
X114494658Y-132420000D01*
X114513976Y-132616132D01*
X114571185Y-132804725D01*
X114664091Y-132978541D01*
X114789116Y-133130883D01*
X114941458Y-133255908D01*
X114941462Y-133255910D01*
X115115273Y-133348814D01*
X115303868Y-133406024D01*
X115480682Y-133423438D01*
X115499999Y-133425341D01*
X115499999Y-133425340D01*
X115500000Y-133425341D01*
X115696132Y-133406024D01*
X115884727Y-133348814D01*
X116058538Y-133255910D01*
X116058539Y-133255908D01*
X116058541Y-133255908D01*
X116210883Y-133130883D01*
X116335908Y-132978541D01*
X116358126Y-132936974D01*
X116428814Y-132804727D01*
X116486024Y-132616132D01*
X116505341Y-132420000D01*
X116486024Y-132223868D01*
X116428814Y-132035273D01*
X116335910Y-131861462D01*
X116335908Y-131861458D01*
X116210883Y-131709116D01*
X116058541Y-131584091D01*
X115901217Y-131500000D01*
X152394317Y-131500000D01*
X152411228Y-131628445D01*
X152414956Y-131656762D01*
X152439192Y-131715273D01*
X152475465Y-131802843D01*
X152571717Y-131928282D01*
X152697156Y-132024534D01*
X152697159Y-132024536D01*
X152843238Y-132085044D01*
X153000000Y-132105682D01*
X153006698Y-132104800D01*
X153103643Y-132111152D01*
X153190780Y-132154120D01*
X153215273Y-132175599D01*
X154101570Y-133061896D01*
X154155546Y-133142678D01*
X154174500Y-133237966D01*
X154174500Y-140870058D01*
X154155546Y-140965346D01*
X154101570Y-141046128D01*
X154077082Y-141067602D01*
X154071720Y-141071716D01*
X153975464Y-141197159D01*
X153914956Y-141343238D01*
X153894317Y-141500000D01*
X153904147Y-141574659D01*
X153914956Y-141656762D01*
X153963265Y-141773390D01*
X153975465Y-141802843D01*
X154071717Y-141928282D01*
X154197156Y-142024534D01*
X154197159Y-142024536D01*
X154343238Y-142085044D01*
X154500000Y-142105682D01*
X154656762Y-142085044D01*
X154802841Y-142024536D01*
X154928282Y-141928282D01*
X155024536Y-141802841D01*
X155085044Y-141656762D01*
X155105682Y-141500000D01*
X155085044Y-141343238D01*
X155024536Y-141197159D01*
X154928282Y-141071718D01*
X154922918Y-141067602D01*
X154858859Y-140994557D01*
X154827630Y-140902558D01*
X154825500Y-140870058D01*
X154825500Y-133025069D01*
X154826448Y-133003366D01*
X154829263Y-132971193D01*
X154820898Y-132939978D01*
X154816200Y-132918787D01*
X154810588Y-132886955D01*
X154810586Y-132886952D01*
X154808675Y-132876111D01*
X154805868Y-132869335D01*
X154799554Y-132860318D01*
X154799554Y-132860316D01*
X154781010Y-132833833D01*
X154769358Y-132815542D01*
X154753194Y-132787545D01*
X154728439Y-132766773D01*
X154712435Y-132752108D01*
X154234058Y-132273731D01*
X153675598Y-131715272D01*
X153621623Y-131634491D01*
X153602669Y-131539203D01*
X153604800Y-131506696D01*
X153605682Y-131500000D01*
X153585044Y-131343238D01*
X153524536Y-131197159D01*
X153524534Y-131197156D01*
X153428282Y-131071717D01*
X153302843Y-130975465D01*
X153302841Y-130975464D01*
X153156762Y-130914956D01*
X153138524Y-130912554D01*
X153000000Y-130894317D01*
X152843238Y-130914956D01*
X152697156Y-130975465D01*
X152571717Y-131071717D01*
X152475465Y-131197156D01*
X152414956Y-131343238D01*
X152394317Y-131500000D01*
X115901217Y-131500000D01*
X115884725Y-131491185D01*
X115696132Y-131433976D01*
X115500000Y-131414658D01*
X115303867Y-131433976D01*
X115115274Y-131491185D01*
X114941458Y-131584091D01*
X114789116Y-131709116D01*
X114664091Y-131861458D01*
X114571185Y-132035274D01*
X114513976Y-132223867D01*
X114494658Y-132420000D01*
X70500000Y-132420000D01*
X70500000Y-130000000D01*
X137894317Y-130000000D01*
X137914956Y-130156761D01*
X137975465Y-130302843D01*
X138071717Y-130428282D01*
X138197156Y-130524534D01*
X138197159Y-130524536D01*
X138343238Y-130585044D01*
X138500000Y-130605682D01*
X138656762Y-130585044D01*
X138802841Y-130524536D01*
X138928282Y-130428282D01*
X139024536Y-130302841D01*
X139085044Y-130156762D01*
X139105682Y-130000000D01*
X140894317Y-130000000D01*
X140914956Y-130156761D01*
X140975465Y-130302843D01*
X141071717Y-130428282D01*
X141197156Y-130524534D01*
X141197159Y-130524536D01*
X141343238Y-130585044D01*
X141500000Y-130605682D01*
X141656762Y-130585044D01*
X141802841Y-130524536D01*
X141928282Y-130428282D01*
X142024536Y-130302841D01*
X142085044Y-130156762D01*
X142105682Y-130000000D01*
X143394317Y-130000000D01*
X143414956Y-130156761D01*
X143475465Y-130302843D01*
X143571717Y-130428282D01*
X143697156Y-130524534D01*
X143697159Y-130524536D01*
X143843238Y-130585044D01*
X144000000Y-130605682D01*
X144156762Y-130585044D01*
X144302841Y-130524536D01*
X144428282Y-130428282D01*
X144524536Y-130302841D01*
X144585044Y-130156762D01*
X144605682Y-130000000D01*
X144585044Y-129843238D01*
X144524536Y-129697159D01*
X144428282Y-129571718D01*
X144422918Y-129567602D01*
X144358859Y-129494557D01*
X144327630Y-129402558D01*
X144325500Y-129370058D01*
X144325500Y-125129942D01*
X144344454Y-125034654D01*
X144398430Y-124953872D01*
X144422922Y-124932395D01*
X144423614Y-124931863D01*
X144428282Y-124928282D01*
X144524536Y-124802841D01*
X144585044Y-124656762D01*
X144605682Y-124500000D01*
X144585044Y-124343238D01*
X144524536Y-124197159D01*
X144516817Y-124187099D01*
X144428282Y-124071717D01*
X144302843Y-123975465D01*
X144302841Y-123975464D01*
X144156762Y-123914956D01*
X144138524Y-123912554D01*
X144000000Y-123894317D01*
X143843238Y-123914956D01*
X143697156Y-123975465D01*
X143571717Y-124071717D01*
X143475465Y-124197156D01*
X143414956Y-124343238D01*
X143394317Y-124500000D01*
X143407659Y-124601337D01*
X143414956Y-124656762D01*
X143433756Y-124702149D01*
X143475465Y-124802843D01*
X143571717Y-124928281D01*
X143577078Y-124932395D01*
X143641138Y-125005438D01*
X143672369Y-125097437D01*
X143674500Y-125129942D01*
X143674500Y-129370058D01*
X143655546Y-129465346D01*
X143601570Y-129546128D01*
X143577082Y-129567602D01*
X143571720Y-129571716D01*
X143475464Y-129697159D01*
X143414956Y-129843238D01*
X143394317Y-130000000D01*
X142105682Y-130000000D01*
X142085044Y-129843238D01*
X142024536Y-129697159D01*
X141928282Y-129571718D01*
X141922918Y-129567602D01*
X141858859Y-129494557D01*
X141827630Y-129402558D01*
X141825500Y-129370058D01*
X141825500Y-125129942D01*
X141844454Y-125034654D01*
X141898430Y-124953872D01*
X141922922Y-124932395D01*
X141923614Y-124931863D01*
X141928282Y-124928282D01*
X142024536Y-124802841D01*
X142085044Y-124656762D01*
X142105682Y-124500000D01*
X142085044Y-124343238D01*
X142024536Y-124197159D01*
X142016817Y-124187099D01*
X141928282Y-124071717D01*
X141802843Y-123975465D01*
X141802841Y-123975464D01*
X141656762Y-123914956D01*
X141638524Y-123912554D01*
X141500000Y-123894317D01*
X141343238Y-123914956D01*
X141197156Y-123975465D01*
X141071717Y-124071717D01*
X140975465Y-124197156D01*
X140914956Y-124343238D01*
X140894317Y-124500000D01*
X140907659Y-124601337D01*
X140914956Y-124656762D01*
X140933756Y-124702149D01*
X140975465Y-124802843D01*
X141071717Y-124928281D01*
X141077078Y-124932395D01*
X141141138Y-125005438D01*
X141172369Y-125097437D01*
X141174500Y-125129942D01*
X141174500Y-129370058D01*
X141155546Y-129465346D01*
X141101570Y-129546128D01*
X141077082Y-129567602D01*
X141071720Y-129571716D01*
X140975464Y-129697159D01*
X140914956Y-129843238D01*
X140894317Y-130000000D01*
X139105682Y-130000000D01*
X139085044Y-129843238D01*
X139024536Y-129697159D01*
X138928282Y-129571718D01*
X138922918Y-129567602D01*
X138858859Y-129494557D01*
X138827630Y-129402558D01*
X138825500Y-129370058D01*
X138825500Y-125129942D01*
X138844454Y-125034654D01*
X138898430Y-124953872D01*
X138922922Y-124932395D01*
X138923614Y-124931863D01*
X138928282Y-124928282D01*
X139024536Y-124802841D01*
X139085044Y-124656762D01*
X139105682Y-124500000D01*
X139085044Y-124343238D01*
X139024536Y-124197159D01*
X139016817Y-124187099D01*
X138928282Y-124071717D01*
X138802843Y-123975465D01*
X138802841Y-123975464D01*
X138656762Y-123914956D01*
X138638524Y-123912554D01*
X138500000Y-123894317D01*
X138343238Y-123914956D01*
X138197156Y-123975465D01*
X138071717Y-124071717D01*
X137975465Y-124197156D01*
X137914956Y-124343238D01*
X137894317Y-124500000D01*
X137907659Y-124601337D01*
X137914956Y-124656762D01*
X137933756Y-124702149D01*
X137975465Y-124802843D01*
X138071717Y-124928281D01*
X138077078Y-124932395D01*
X138141138Y-125005438D01*
X138172369Y-125097437D01*
X138174500Y-125129942D01*
X138174500Y-129370058D01*
X138155546Y-129465346D01*
X138101570Y-129546128D01*
X138077082Y-129567602D01*
X138071720Y-129571716D01*
X137975464Y-129697159D01*
X137914956Y-129843238D01*
X137894317Y-130000000D01*
X70500000Y-130000000D01*
X70500000Y-128500000D01*
X103394317Y-128500000D01*
X103405514Y-128585043D01*
X103414956Y-128656762D01*
X103475464Y-128802841D01*
X103475465Y-128802843D01*
X103571717Y-128928282D01*
X103697156Y-129024534D01*
X103697159Y-129024536D01*
X103843238Y-129085044D01*
X104000000Y-129105682D01*
X104156762Y-129085044D01*
X104302841Y-129024536D01*
X104428282Y-128928282D01*
X104428283Y-128928281D01*
X104432399Y-128922918D01*
X104505444Y-128858859D01*
X104597443Y-128827630D01*
X104629943Y-128825500D01*
X121974918Y-128825500D01*
X121996621Y-128826448D01*
X122028807Y-128829264D01*
X122060031Y-128820896D01*
X122081234Y-128816197D01*
X122092663Y-128814181D01*
X122113045Y-128810588D01*
X122113045Y-128810587D01*
X122123892Y-128808675D01*
X122130658Y-128805872D01*
X122139679Y-128799555D01*
X122139684Y-128799554D01*
X122166167Y-128781009D01*
X122184452Y-128769361D01*
X122212455Y-128753194D01*
X122233225Y-128728440D01*
X122247888Y-128712436D01*
X122960324Y-128000000D01*
X132394317Y-128000000D01*
X132404466Y-128077082D01*
X132414956Y-128156762D01*
X132431688Y-128197156D01*
X132475465Y-128302843D01*
X132571717Y-128428282D01*
X132697156Y-128524534D01*
X132697159Y-128524536D01*
X132843238Y-128585044D01*
X133000000Y-128605682D01*
X133156762Y-128585044D01*
X133302841Y-128524536D01*
X133428282Y-128428282D01*
X133524536Y-128302841D01*
X133585044Y-128156762D01*
X133605682Y-128000000D01*
X135894317Y-128000000D01*
X135904466Y-128077082D01*
X135914956Y-128156762D01*
X135931688Y-128197156D01*
X135975465Y-128302843D01*
X136071717Y-128428282D01*
X136197156Y-128524534D01*
X136197159Y-128524536D01*
X136343238Y-128585044D01*
X136500000Y-128605682D01*
X136656762Y-128585044D01*
X136802841Y-128524536D01*
X136928282Y-128428282D01*
X137024536Y-128302841D01*
X137085044Y-128156762D01*
X137105682Y-128000000D01*
X137085044Y-127843238D01*
X137024536Y-127697159D01*
X136928282Y-127571718D01*
X136922918Y-127567602D01*
X136858859Y-127494557D01*
X136827630Y-127402558D01*
X136825500Y-127370058D01*
X136825500Y-125129942D01*
X136844454Y-125034654D01*
X136898430Y-124953872D01*
X136922922Y-124932395D01*
X136923614Y-124931863D01*
X136928282Y-124928282D01*
X137024536Y-124802841D01*
X137085044Y-124656762D01*
X137105682Y-124500000D01*
X137085044Y-124343238D01*
X137024536Y-124197159D01*
X137016817Y-124187099D01*
X136928282Y-124071717D01*
X136802843Y-123975465D01*
X136802841Y-123975464D01*
X136656762Y-123914956D01*
X136638524Y-123912554D01*
X136500000Y-123894317D01*
X136343238Y-123914956D01*
X136197156Y-123975465D01*
X136071717Y-124071717D01*
X135975465Y-124197156D01*
X135914956Y-124343238D01*
X135894317Y-124500000D01*
X135907659Y-124601337D01*
X135914956Y-124656762D01*
X135933756Y-124702149D01*
X135975465Y-124802843D01*
X136071717Y-124928281D01*
X136077078Y-124932395D01*
X136141138Y-125005438D01*
X136172369Y-125097437D01*
X136174500Y-125129942D01*
X136174500Y-127370058D01*
X136155546Y-127465346D01*
X136101570Y-127546128D01*
X136077082Y-127567602D01*
X136071720Y-127571716D01*
X135975464Y-127697159D01*
X135914956Y-127843238D01*
X135894317Y-128000000D01*
X133605682Y-128000000D01*
X133585044Y-127843238D01*
X133524536Y-127697159D01*
X133428282Y-127571718D01*
X133422918Y-127567602D01*
X133358859Y-127494557D01*
X133327630Y-127402558D01*
X133325500Y-127370058D01*
X133325500Y-125129942D01*
X133344454Y-125034654D01*
X133398430Y-124953872D01*
X133422922Y-124932395D01*
X133423614Y-124931863D01*
X133428282Y-124928282D01*
X133524536Y-124802841D01*
X133585044Y-124656762D01*
X133605682Y-124500000D01*
X133585044Y-124343238D01*
X133524536Y-124197159D01*
X133516817Y-124187099D01*
X133428282Y-124071717D01*
X133302843Y-123975465D01*
X133302841Y-123975464D01*
X133156762Y-123914956D01*
X133138524Y-123912554D01*
X133000000Y-123894317D01*
X132843238Y-123914956D01*
X132697156Y-123975465D01*
X132571717Y-124071717D01*
X132475465Y-124197156D01*
X132414956Y-124343238D01*
X132394317Y-124500000D01*
X132407659Y-124601337D01*
X132414956Y-124656762D01*
X132433756Y-124702149D01*
X132475465Y-124802843D01*
X132571717Y-124928281D01*
X132577078Y-124932395D01*
X132641138Y-125005438D01*
X132672369Y-125097437D01*
X132674500Y-125129942D01*
X132674500Y-127370058D01*
X132655546Y-127465346D01*
X132601570Y-127546128D01*
X132577082Y-127567602D01*
X132571720Y-127571716D01*
X132475464Y-127697159D01*
X132414956Y-127843238D01*
X132394317Y-128000000D01*
X122960324Y-128000000D01*
X127210324Y-123750000D01*
X148144317Y-123750000D01*
X148150872Y-123799790D01*
X148152959Y-123836890D01*
X148151109Y-123936951D01*
X148150021Y-123995803D01*
X148149978Y-124000412D01*
X148150575Y-124006780D01*
X148150576Y-124006797D01*
X148153320Y-124036050D01*
X148153321Y-124036060D01*
X148153918Y-124042420D01*
X148155164Y-124048688D01*
X148155167Y-124048703D01*
X148172870Y-124137703D01*
X148172871Y-124137707D01*
X148172872Y-124137708D01*
X148197495Y-124197156D01*
X148203557Y-124211790D01*
X148254131Y-124287481D01*
X148254141Y-124287494D01*
X148257531Y-124292568D01*
X148283089Y-124323709D01*
X149680109Y-125720729D01*
X149709675Y-125745223D01*
X149714491Y-125748505D01*
X149714494Y-125748508D01*
X149740741Y-125766399D01*
X149786216Y-125797396D01*
X149858146Y-125828367D01*
X149953067Y-125849081D01*
X149993078Y-125853771D01*
X150512161Y-125863379D01*
X150550444Y-125860501D01*
X150641760Y-125844959D01*
X150715046Y-125817348D01*
X150797770Y-125766399D01*
X150829837Y-125742012D01*
X153447251Y-123311545D01*
X153450577Y-123308400D01*
X153478111Y-123276396D01*
X153533573Y-123196628D01*
X153565623Y-123123129D01*
X153586337Y-123028208D01*
X153591027Y-122988198D01*
X153593498Y-122854578D01*
X153595585Y-122826693D01*
X153605682Y-122750002D01*
X153605682Y-122750000D01*
X153599125Y-122700200D01*
X153597038Y-122663109D01*
X153599978Y-122504196D01*
X153600021Y-122499587D01*
X153596081Y-122457579D01*
X153577127Y-122362291D01*
X153546444Y-122288213D01*
X153546441Y-122288208D01*
X153495867Y-122212517D01*
X153495859Y-122212507D01*
X153492468Y-122207431D01*
X153466910Y-122176290D01*
X152069890Y-120779270D01*
X152049220Y-120762146D01*
X152044810Y-120758492D01*
X152044804Y-120758487D01*
X152040324Y-120754776D01*
X152035511Y-120751495D01*
X152035504Y-120751490D01*
X151963782Y-120702602D01*
X151891854Y-120671631D01*
X151802918Y-120652223D01*
X151802917Y-120652222D01*
X151796938Y-120650918D01*
X151790878Y-120650207D01*
X151790862Y-120650205D01*
X151763004Y-120646940D01*
X151762993Y-120646939D01*
X151756925Y-120646228D01*
X151750814Y-120646114D01*
X151750801Y-120646114D01*
X151243677Y-120636728D01*
X151243674Y-120636728D01*
X151237837Y-120636620D01*
X151232031Y-120637056D01*
X151232011Y-120637057D01*
X151205378Y-120639060D01*
X151205375Y-120639060D01*
X151199553Y-120639498D01*
X151193811Y-120640475D01*
X151193797Y-120640477D01*
X151108237Y-120655039D01*
X151034956Y-120682649D01*
X150957425Y-120730398D01*
X150957417Y-120730402D01*
X150952230Y-120733598D01*
X150947384Y-120737283D01*
X150947370Y-120737293D01*
X150925025Y-120754287D01*
X150925016Y-120754293D01*
X150920162Y-120757986D01*
X150915691Y-120762136D01*
X150915681Y-120762146D01*
X148481845Y-123022149D01*
X148302645Y-123188550D01*
X148299375Y-123191644D01*
X148295203Y-123196493D01*
X148295196Y-123196502D01*
X148276054Y-123218758D01*
X148276044Y-123218770D01*
X148271888Y-123223603D01*
X148268248Y-123228837D01*
X148268245Y-123228842D01*
X148216425Y-123303372D01*
X148184375Y-123376870D01*
X148164968Y-123465798D01*
X148164966Y-123465808D01*
X148163662Y-123471785D01*
X148158972Y-123511797D01*
X148158859Y-123517900D01*
X148158858Y-123517917D01*
X148156500Y-123645421D01*
X148154413Y-123673313D01*
X148144317Y-123750000D01*
X127210324Y-123750000D01*
X128736797Y-122223527D01*
X128817576Y-122169554D01*
X128912864Y-122150600D01*
X129008152Y-122169554D01*
X129088934Y-122223530D01*
X129142910Y-122304312D01*
X129159734Y-122367098D01*
X129164955Y-122406761D01*
X129225465Y-122552843D01*
X129321717Y-122678282D01*
X129447156Y-122774534D01*
X129447159Y-122774536D01*
X129593238Y-122835044D01*
X129731762Y-122853280D01*
X129749999Y-122855682D01*
X129749999Y-122855681D01*
X129750000Y-122855682D01*
X129906762Y-122835044D01*
X130052841Y-122774536D01*
X130178282Y-122678282D01*
X130274536Y-122552841D01*
X130335044Y-122406762D01*
X130355682Y-122250000D01*
X130335044Y-122093238D01*
X130274536Y-121947159D01*
X130274534Y-121947156D01*
X130178282Y-121821717D01*
X130052843Y-121725465D01*
X129906761Y-121664955D01*
X129867098Y-121659734D01*
X129775099Y-121628504D01*
X129702054Y-121564444D01*
X129659084Y-121477309D01*
X129652730Y-121380362D01*
X129683960Y-121288363D01*
X129723526Y-121236798D01*
X130045602Y-120914722D01*
X130126381Y-120860749D01*
X130221669Y-120841795D01*
X130316957Y-120860749D01*
X130397739Y-120914725D01*
X130451714Y-120995505D01*
X130475463Y-121052840D01*
X130571717Y-121178282D01*
X130697156Y-121274534D01*
X130697159Y-121274536D01*
X130843238Y-121335044D01*
X131000000Y-121355682D01*
X131156762Y-121335044D01*
X131302841Y-121274536D01*
X131428282Y-121178282D01*
X131524536Y-121052841D01*
X131585044Y-120906762D01*
X131605682Y-120750000D01*
X131585044Y-120593238D01*
X131524536Y-120447159D01*
X131483499Y-120393678D01*
X131428282Y-120321717D01*
X131302840Y-120225463D01*
X131245505Y-120201714D01*
X131164724Y-120147738D01*
X131110748Y-120066956D01*
X131091795Y-119971668D01*
X131110750Y-119876379D01*
X131164722Y-119795602D01*
X136061895Y-114898430D01*
X136142678Y-114844454D01*
X136237966Y-114825500D01*
X142870057Y-114825500D01*
X142965345Y-114844454D01*
X143046127Y-114898430D01*
X143067601Y-114922918D01*
X143071716Y-114928281D01*
X143172683Y-115005755D01*
X143197159Y-115024536D01*
X143343238Y-115085044D01*
X143500000Y-115105682D01*
X143656762Y-115085044D01*
X143802841Y-115024536D01*
X143928282Y-114928282D01*
X143928283Y-114928281D01*
X143932399Y-114922918D01*
X144005444Y-114858859D01*
X144097443Y-114827630D01*
X144129943Y-114825500D01*
X146262034Y-114825500D01*
X146357322Y-114844454D01*
X146438104Y-114898430D01*
X147824400Y-116284726D01*
X147878376Y-116365508D01*
X147897330Y-116460796D01*
X147895200Y-116493295D01*
X147894317Y-116499997D01*
X147914956Y-116656761D01*
X147975465Y-116802843D01*
X148071717Y-116928282D01*
X148197156Y-117024534D01*
X148197159Y-117024536D01*
X148343238Y-117085044D01*
X148500000Y-117105682D01*
X148656762Y-117085044D01*
X148802841Y-117024536D01*
X148928282Y-116928282D01*
X149024536Y-116802841D01*
X149085044Y-116656762D01*
X149105682Y-116500000D01*
X149085044Y-116343238D01*
X149024536Y-116197159D01*
X149024534Y-116197156D01*
X148928282Y-116071717D01*
X148802843Y-115975465D01*
X148802841Y-115975464D01*
X148656762Y-115914956D01*
X148628445Y-115911228D01*
X148499997Y-115894317D01*
X148493295Y-115895200D01*
X148396348Y-115888845D01*
X148309213Y-115845874D01*
X148284726Y-115824400D01*
X146747896Y-114287570D01*
X146733220Y-114271553D01*
X146712455Y-114246806D01*
X146684469Y-114230648D01*
X146666151Y-114218978D01*
X146630676Y-114194138D01*
X146623876Y-114191321D01*
X146581219Y-114183799D01*
X146560023Y-114179100D01*
X146528806Y-114170735D01*
X146496621Y-114173552D01*
X146474918Y-114174500D01*
X144129943Y-114174500D01*
X144034655Y-114155546D01*
X143953873Y-114101570D01*
X143932399Y-114077082D01*
X143928283Y-114071718D01*
X143802843Y-113975465D01*
X143802841Y-113975464D01*
X143656762Y-113914956D01*
X143638524Y-113912554D01*
X143500000Y-113894317D01*
X143343238Y-113914956D01*
X143197156Y-113975465D01*
X143071716Y-114071718D01*
X143067601Y-114077082D01*
X142994556Y-114141141D01*
X142902557Y-114172370D01*
X142870057Y-114174500D01*
X136025082Y-114174500D01*
X136003379Y-114173552D01*
X136001238Y-114173364D01*
X135971192Y-114170735D01*
X135939972Y-114179101D01*
X135918783Y-114183799D01*
X135886955Y-114189412D01*
X135886954Y-114189412D01*
X135876124Y-114191322D01*
X135869317Y-114194141D01*
X135833841Y-114218981D01*
X135815536Y-114230642D01*
X135787546Y-114246803D01*
X135766772Y-114271560D01*
X135752101Y-114287571D01*
X121938104Y-128101570D01*
X121857322Y-128155546D01*
X121762034Y-128174500D01*
X104629943Y-128174500D01*
X104534655Y-128155546D01*
X104453873Y-128101570D01*
X104432399Y-128077082D01*
X104428283Y-128071718D01*
X104302843Y-127975465D01*
X104302841Y-127975464D01*
X104156762Y-127914956D01*
X104138524Y-127912554D01*
X104000000Y-127894317D01*
X103843238Y-127914956D01*
X103697156Y-127975465D01*
X103571717Y-128071717D01*
X103475465Y-128197156D01*
X103414956Y-128343238D01*
X103394317Y-128500000D01*
X70500000Y-128500000D01*
X70500000Y-123890751D01*
X102794499Y-123890751D01*
X102794500Y-123890771D01*
X102794500Y-123896860D01*
X102795097Y-123902926D01*
X102795098Y-123902936D01*
X102797850Y-123930877D01*
X102797852Y-123930891D01*
X102798449Y-123936951D01*
X102799637Y-123942927D01*
X102799641Y-123942949D01*
X102817401Y-124032234D01*
X102848088Y-124106321D01*
X102898662Y-124182012D01*
X102898672Y-124182025D01*
X102902062Y-124187099D01*
X102927620Y-124218240D01*
X103281760Y-124572380D01*
X103312901Y-124597938D01*
X103317977Y-124601329D01*
X103317987Y-124601337D01*
X103393678Y-124651911D01*
X103393679Y-124651911D01*
X103393683Y-124651914D01*
X103467761Y-124682597D01*
X103467764Y-124682597D01*
X103467765Y-124682598D01*
X103557050Y-124700358D01*
X103557055Y-124700358D01*
X103563049Y-124701551D01*
X103603140Y-124705500D01*
X103609249Y-124705500D01*
X105890751Y-124705500D01*
X105896860Y-124705500D01*
X105936951Y-124701551D01*
X106032239Y-124682597D01*
X106106317Y-124651914D01*
X106187099Y-124597938D01*
X106218240Y-124572380D01*
X106572380Y-124218240D01*
X106597938Y-124187099D01*
X106651914Y-124106317D01*
X106682597Y-124032239D01*
X106701551Y-123936951D01*
X106705500Y-123896860D01*
X106705500Y-122249999D01*
X124644317Y-122249999D01*
X124651468Y-122304312D01*
X124664956Y-122406762D01*
X124705315Y-122504196D01*
X124725465Y-122552843D01*
X124821717Y-122678282D01*
X124947156Y-122774534D01*
X124947159Y-122774536D01*
X125093238Y-122835044D01*
X125250000Y-122855682D01*
X125406762Y-122835044D01*
X125552841Y-122774536D01*
X125678282Y-122678282D01*
X125774536Y-122552841D01*
X125835044Y-122406762D01*
X125855682Y-122250000D01*
X125835044Y-122093238D01*
X125774536Y-121947159D01*
X125774534Y-121947156D01*
X125678282Y-121821717D01*
X125552843Y-121725465D01*
X125552841Y-121725464D01*
X125406762Y-121664956D01*
X125386123Y-121662238D01*
X125249999Y-121644317D01*
X125093238Y-121664956D01*
X124947156Y-121725465D01*
X124821717Y-121821717D01*
X124725465Y-121947156D01*
X124664956Y-122093238D01*
X124644317Y-122249999D01*
X106705500Y-122249999D01*
X106705500Y-120749999D01*
X126144317Y-120749999D01*
X126156403Y-120841795D01*
X126164956Y-120906762D01*
X126201715Y-120995505D01*
X126225465Y-121052843D01*
X126321717Y-121178282D01*
X126447156Y-121274534D01*
X126447159Y-121274536D01*
X126593238Y-121335044D01*
X126750000Y-121355682D01*
X126906762Y-121335044D01*
X127052841Y-121274536D01*
X127178282Y-121178282D01*
X127274536Y-121052841D01*
X127335044Y-120906762D01*
X127355682Y-120750000D01*
X127335044Y-120593238D01*
X127274536Y-120447159D01*
X127233499Y-120393678D01*
X127178282Y-120321717D01*
X127052843Y-120225465D01*
X127052841Y-120225464D01*
X126906762Y-120164956D01*
X126886123Y-120162238D01*
X126749999Y-120144317D01*
X126593238Y-120164956D01*
X126447156Y-120225465D01*
X126321717Y-120321717D01*
X126225465Y-120447156D01*
X126164956Y-120593238D01*
X126144317Y-120749999D01*
X106705500Y-120749999D01*
X106705500Y-120603140D01*
X106701551Y-120563049D01*
X106682597Y-120467761D01*
X106651914Y-120393683D01*
X106651911Y-120393678D01*
X106601337Y-120317987D01*
X106601329Y-120317977D01*
X106597938Y-120312901D01*
X106572380Y-120281760D01*
X106218240Y-119927620D01*
X106187099Y-119902062D01*
X106182025Y-119898672D01*
X106182012Y-119898662D01*
X106106321Y-119848088D01*
X106106318Y-119848086D01*
X106106317Y-119848086D01*
X106032239Y-119817403D01*
X106032238Y-119817402D01*
X106032234Y-119817401D01*
X105942949Y-119799641D01*
X105942927Y-119799637D01*
X105936951Y-119798449D01*
X105930891Y-119797852D01*
X105930877Y-119797850D01*
X105902936Y-119795098D01*
X105902926Y-119795097D01*
X105896860Y-119794500D01*
X103603140Y-119794500D01*
X103597074Y-119795097D01*
X103597063Y-119795098D01*
X103569122Y-119797850D01*
X103569105Y-119797852D01*
X103563049Y-119798449D01*
X103557075Y-119799637D01*
X103557050Y-119799641D01*
X103467765Y-119817401D01*
X103393678Y-119848088D01*
X103317987Y-119898662D01*
X103317963Y-119898679D01*
X103312901Y-119902062D01*
X103308191Y-119905927D01*
X103308181Y-119905935D01*
X103286475Y-119923750D01*
X103281760Y-119927620D01*
X103277457Y-119931922D01*
X103277447Y-119931932D01*
X102931932Y-120277447D01*
X102931922Y-120277457D01*
X102927620Y-120281760D01*
X102923753Y-120286471D01*
X102923750Y-120286475D01*
X102905935Y-120308181D01*
X102905927Y-120308191D01*
X102902062Y-120312901D01*
X102898679Y-120317963D01*
X102898662Y-120317987D01*
X102848088Y-120393678D01*
X102817401Y-120467765D01*
X102799641Y-120557050D01*
X102799637Y-120557075D01*
X102798449Y-120563049D01*
X102797852Y-120569105D01*
X102797850Y-120569122D01*
X102795098Y-120597063D01*
X102795097Y-120597074D01*
X102794500Y-120603140D01*
X102794500Y-120609227D01*
X102794499Y-120609248D01*
X102794499Y-123890751D01*
X70500000Y-123890751D01*
X70500000Y-119500000D01*
X78644317Y-119500000D01*
X78664956Y-119656761D01*
X78725465Y-119802843D01*
X78821717Y-119928282D01*
X78947156Y-120024534D01*
X78947159Y-120024536D01*
X79093238Y-120085044D01*
X79231762Y-120103280D01*
X79249999Y-120105682D01*
X79249999Y-120105681D01*
X79250000Y-120105682D01*
X79406762Y-120085044D01*
X79552841Y-120024536D01*
X79678282Y-119928282D01*
X79774536Y-119802841D01*
X79835044Y-119656762D01*
X79855682Y-119500000D01*
X79835044Y-119343238D01*
X79774536Y-119197159D01*
X79678282Y-119071718D01*
X79607046Y-119017057D01*
X79542990Y-118944015D01*
X79535943Y-118923256D01*
X79523871Y-118927355D01*
X79426924Y-118921001D01*
X79410606Y-118915462D01*
X79249999Y-118894317D01*
X79093238Y-118914956D01*
X78947156Y-118975465D01*
X78821717Y-119071717D01*
X78725465Y-119197156D01*
X78664956Y-119343238D01*
X78644317Y-119500000D01*
X70500000Y-119500000D01*
X70500000Y-118000000D01*
X79394317Y-118000000D01*
X79412554Y-118138524D01*
X79414956Y-118156762D01*
X79464692Y-118276834D01*
X79475465Y-118302843D01*
X79571717Y-118428281D01*
X79642949Y-118482939D01*
X79707009Y-118555984D01*
X79714055Y-118576742D01*
X79726128Y-118572644D01*
X79823075Y-118578998D01*
X79839393Y-118584537D01*
X79843235Y-118585042D01*
X79843238Y-118585044D01*
X80000000Y-118605682D01*
X80156762Y-118585044D01*
X80302841Y-118524536D01*
X80428282Y-118428282D01*
X80428282Y-118428281D01*
X80544492Y-118276834D01*
X80544643Y-118276950D01*
X80573928Y-118233122D01*
X80654709Y-118179145D01*
X80749997Y-118160190D01*
X80845286Y-118179143D01*
X80926068Y-118233118D01*
X80955356Y-118276950D01*
X80955508Y-118276834D01*
X81071717Y-118428282D01*
X81197156Y-118524534D01*
X81197159Y-118524536D01*
X81343238Y-118585044D01*
X81500000Y-118605682D01*
X81656762Y-118585044D01*
X81802841Y-118524536D01*
X81928282Y-118428282D01*
X82024536Y-118302841D01*
X82085044Y-118156762D01*
X82105682Y-118000000D01*
X82085044Y-117843238D01*
X82024536Y-117697159D01*
X81928282Y-117571718D01*
X81922918Y-117567602D01*
X81858859Y-117494557D01*
X81827630Y-117402558D01*
X81825500Y-117370058D01*
X81825500Y-116000000D01*
X83394317Y-116000000D01*
X83414956Y-116156761D01*
X83475465Y-116302843D01*
X83571717Y-116428282D01*
X83697156Y-116524534D01*
X83697159Y-116524536D01*
X83843238Y-116585044D01*
X84000000Y-116605682D01*
X84156762Y-116585044D01*
X84302841Y-116524536D01*
X84428282Y-116428282D01*
X84524536Y-116302841D01*
X84585044Y-116156762D01*
X84605682Y-116000000D01*
X84585044Y-115843238D01*
X84524536Y-115697159D01*
X84524534Y-115697156D01*
X84428282Y-115571717D01*
X84302843Y-115475465D01*
X84302841Y-115475464D01*
X84156762Y-115414956D01*
X84138524Y-115412554D01*
X84000000Y-115394317D01*
X83843238Y-115414956D01*
X83697156Y-115475465D01*
X83571717Y-115571717D01*
X83475465Y-115697156D01*
X83414956Y-115843238D01*
X83394317Y-116000000D01*
X81825500Y-116000000D01*
X81825500Y-113737965D01*
X81844454Y-113642677D01*
X81898430Y-113561896D01*
X82073371Y-113386955D01*
X82253408Y-113206918D01*
X82334185Y-113152945D01*
X82429473Y-113133991D01*
X82524761Y-113152945D01*
X82581055Y-113185446D01*
X82697159Y-113274536D01*
X82843238Y-113335044D01*
X83000000Y-113355682D01*
X83156762Y-113335044D01*
X83302841Y-113274536D01*
X83428282Y-113178282D01*
X83428283Y-113178280D01*
X83431495Y-113175816D01*
X83500497Y-113115302D01*
X83592496Y-113084072D01*
X83689443Y-113090425D01*
X83776579Y-113133394D01*
X83820641Y-113177456D01*
X83937047Y-113266777D01*
X83947159Y-113274536D01*
X84093238Y-113335044D01*
X84231762Y-113353280D01*
X84249999Y-113355682D01*
X84249999Y-113355681D01*
X84250000Y-113355682D01*
X84406762Y-113335044D01*
X84552841Y-113274536D01*
X84552842Y-113274534D01*
X84583126Y-113261991D01*
X84584693Y-113265776D01*
X84614584Y-113251030D01*
X84711530Y-113244660D01*
X84803534Y-113275875D01*
X84855138Y-113315465D01*
X85101569Y-113561895D01*
X85155546Y-113642676D01*
X85174500Y-113737964D01*
X85174500Y-117370058D01*
X85155546Y-117465346D01*
X85101570Y-117546128D01*
X85077082Y-117567602D01*
X85071720Y-117571716D01*
X84975464Y-117697159D01*
X84914956Y-117843238D01*
X84894317Y-118000000D01*
X84912554Y-118138524D01*
X84914956Y-118156762D01*
X84964692Y-118276834D01*
X84975465Y-118302843D01*
X85071717Y-118428282D01*
X85197156Y-118524534D01*
X85197159Y-118524536D01*
X85343238Y-118585044D01*
X85500000Y-118605682D01*
X85656762Y-118585044D01*
X85802841Y-118524536D01*
X85928282Y-118428282D01*
X85928282Y-118428281D01*
X86044492Y-118276834D01*
X86044643Y-118276950D01*
X86073928Y-118233122D01*
X86154709Y-118179145D01*
X86249997Y-118160190D01*
X86345286Y-118179143D01*
X86426068Y-118233118D01*
X86455356Y-118276950D01*
X86455508Y-118276834D01*
X86571717Y-118428282D01*
X86697156Y-118524534D01*
X86697159Y-118524536D01*
X86843238Y-118585044D01*
X87000000Y-118605682D01*
X87156762Y-118585044D01*
X87302841Y-118524536D01*
X87428282Y-118428282D01*
X87524536Y-118302841D01*
X87585044Y-118156762D01*
X87605682Y-118000000D01*
X87585044Y-117843238D01*
X87524536Y-117697159D01*
X87524534Y-117697156D01*
X87428282Y-117571717D01*
X87302843Y-117475465D01*
X87278414Y-117465346D01*
X87156762Y-117414956D01*
X87138524Y-117412554D01*
X87000000Y-117394317D01*
X86843238Y-117414956D01*
X86697156Y-117475465D01*
X86571717Y-117571717D01*
X86455508Y-117723166D01*
X86455355Y-117723048D01*
X86426060Y-117766888D01*
X86345275Y-117820860D01*
X86249986Y-117839809D01*
X86154699Y-117820850D01*
X86073920Y-117766870D01*
X86044643Y-117723050D01*
X86044492Y-117723167D01*
X86024536Y-117697161D01*
X86024536Y-117697159D01*
X85928282Y-117571718D01*
X85922918Y-117567602D01*
X85858859Y-117494557D01*
X85827630Y-117402558D01*
X85825500Y-117370058D01*
X85825500Y-116243244D01*
X85844454Y-116147956D01*
X85898430Y-116067174D01*
X85979212Y-116013198D01*
X86074500Y-115994244D01*
X86169788Y-116013198D01*
X86169789Y-116013198D01*
X86197156Y-116024533D01*
X86197159Y-116024536D01*
X86343238Y-116085044D01*
X86500000Y-116105682D01*
X86656762Y-116085044D01*
X86802841Y-116024536D01*
X86928282Y-115928282D01*
X87024536Y-115802841D01*
X87085044Y-115656762D01*
X87105682Y-115500000D01*
X87085044Y-115343238D01*
X87024536Y-115197159D01*
X87024534Y-115197156D01*
X86928282Y-115071717D01*
X86802843Y-114975465D01*
X86802841Y-114975464D01*
X86656762Y-114914956D01*
X86638524Y-114912554D01*
X86500000Y-114894317D01*
X86343236Y-114914956D01*
X86169788Y-114986801D01*
X86074500Y-115005755D01*
X85979212Y-114986801D01*
X85898430Y-114932824D01*
X85844454Y-114852043D01*
X85825500Y-114756755D01*
X85825500Y-114500000D01*
X91894317Y-114500000D01*
X91914956Y-114656761D01*
X91975465Y-114802843D01*
X92071717Y-114928282D01*
X92172683Y-115005755D01*
X92197159Y-115024536D01*
X92343238Y-115085044D01*
X92500000Y-115105682D01*
X92656762Y-115085044D01*
X92802841Y-115024536D01*
X92928282Y-114928282D01*
X92928283Y-114928281D01*
X92932399Y-114922918D01*
X93005444Y-114858859D01*
X93097443Y-114827630D01*
X93129943Y-114825500D01*
X95262034Y-114825500D01*
X95357322Y-114844454D01*
X95438104Y-114898430D01*
X96824400Y-116284726D01*
X96878376Y-116365508D01*
X96897330Y-116460796D01*
X96895200Y-116493295D01*
X96894317Y-116499997D01*
X96914956Y-116656761D01*
X96975465Y-116802843D01*
X97071717Y-116928282D01*
X97197156Y-117024534D01*
X97197159Y-117024536D01*
X97343238Y-117085044D01*
X97500000Y-117105682D01*
X97656762Y-117085044D01*
X97802841Y-117024536D01*
X97928282Y-116928282D01*
X98024536Y-116802841D01*
X98085044Y-116656762D01*
X98105682Y-116500000D01*
X98085044Y-116343238D01*
X98024536Y-116197159D01*
X98024534Y-116197156D01*
X97928282Y-116071717D01*
X97802843Y-115975465D01*
X97802841Y-115975464D01*
X97656762Y-115914956D01*
X97628445Y-115911228D01*
X97499997Y-115894317D01*
X97493295Y-115895200D01*
X97396348Y-115888845D01*
X97309213Y-115845874D01*
X97284726Y-115824400D01*
X95960326Y-114500000D01*
X113394317Y-114500000D01*
X113414956Y-114656761D01*
X113475465Y-114802843D01*
X113571717Y-114928282D01*
X113672683Y-115005755D01*
X113697159Y-115024536D01*
X113843238Y-115085044D01*
X114000000Y-115105682D01*
X114156762Y-115085044D01*
X114302841Y-115024536D01*
X114428282Y-114928282D01*
X114428283Y-114928281D01*
X114432399Y-114922918D01*
X114505444Y-114858859D01*
X114597443Y-114827630D01*
X114629943Y-114825500D01*
X117012034Y-114825500D01*
X117107322Y-114844454D01*
X117188104Y-114898430D01*
X118574400Y-116284726D01*
X118628376Y-116365508D01*
X118647330Y-116460796D01*
X118645200Y-116493295D01*
X118644317Y-116499997D01*
X118664956Y-116656761D01*
X118725465Y-116802843D01*
X118821717Y-116928282D01*
X118947156Y-117024534D01*
X118947159Y-117024536D01*
X119093238Y-117085044D01*
X119231762Y-117103280D01*
X119249999Y-117105682D01*
X119249999Y-117105681D01*
X119250000Y-117105682D01*
X119406762Y-117085044D01*
X119552841Y-117024536D01*
X119678282Y-116928282D01*
X119774536Y-116802841D01*
X119835044Y-116656762D01*
X119855682Y-116500000D01*
X119835044Y-116343238D01*
X119774536Y-116197159D01*
X119774534Y-116197156D01*
X119678282Y-116071717D01*
X119552843Y-115975465D01*
X119552841Y-115975464D01*
X119406762Y-115914956D01*
X119378445Y-115911228D01*
X119249997Y-115894317D01*
X119243295Y-115895200D01*
X119146348Y-115888845D01*
X119059213Y-115845874D01*
X119034726Y-115824400D01*
X117497896Y-114287570D01*
X117483220Y-114271553D01*
X117462455Y-114246806D01*
X117434469Y-114230648D01*
X117416151Y-114218978D01*
X117380676Y-114194138D01*
X117373876Y-114191321D01*
X117331219Y-114183799D01*
X117310023Y-114179100D01*
X117278806Y-114170735D01*
X117246621Y-114173552D01*
X117224918Y-114174500D01*
X114629943Y-114174500D01*
X114534655Y-114155546D01*
X114453873Y-114101570D01*
X114432399Y-114077082D01*
X114428283Y-114071718D01*
X114302843Y-113975465D01*
X114302841Y-113975464D01*
X114156762Y-113914956D01*
X114138524Y-113912554D01*
X114000000Y-113894317D01*
X113843238Y-113914956D01*
X113697156Y-113975465D01*
X113571717Y-114071717D01*
X113475465Y-114197156D01*
X113414956Y-114343238D01*
X113394317Y-114500000D01*
X95960326Y-114500000D01*
X95747896Y-114287570D01*
X95733220Y-114271553D01*
X95712455Y-114246806D01*
X95684469Y-114230648D01*
X95666151Y-114218978D01*
X95630676Y-114194138D01*
X95623876Y-114191321D01*
X95581219Y-114183799D01*
X95560023Y-114179100D01*
X95528806Y-114170735D01*
X95496621Y-114173552D01*
X95474918Y-114174500D01*
X93129943Y-114174500D01*
X93034655Y-114155546D01*
X92953873Y-114101570D01*
X92932399Y-114077082D01*
X92928283Y-114071718D01*
X92802843Y-113975465D01*
X92802841Y-113975464D01*
X92656762Y-113914956D01*
X92638524Y-113912554D01*
X92500000Y-113894317D01*
X92343238Y-113914956D01*
X92197156Y-113975465D01*
X92071717Y-114071717D01*
X91975465Y-114197156D01*
X91914956Y-114343238D01*
X91894317Y-114500000D01*
X85825500Y-114500000D01*
X85825500Y-113525081D01*
X85826447Y-113503381D01*
X85826447Y-113503377D01*
X85829263Y-113471193D01*
X85820897Y-113439972D01*
X85816200Y-113418787D01*
X85810588Y-113386955D01*
X85810586Y-113386952D01*
X85808675Y-113376111D01*
X85805868Y-113369335D01*
X85799554Y-113360318D01*
X85799554Y-113360316D01*
X85781010Y-113333833D01*
X85769358Y-113315542D01*
X85753194Y-113287545D01*
X85728433Y-113266768D01*
X85712430Y-113252103D01*
X84997902Y-112537576D01*
X84983225Y-112521559D01*
X84962455Y-112496806D01*
X84934469Y-112480648D01*
X84916151Y-112468978D01*
X84880676Y-112444138D01*
X84873875Y-112441321D01*
X84849166Y-112436964D01*
X84758617Y-112401749D01*
X84694866Y-112343331D01*
X84678282Y-112321718D01*
X84678280Y-112321716D01*
X84678279Y-112321715D01*
X84552843Y-112225465D01*
X84552841Y-112225464D01*
X84406762Y-112164956D01*
X84388524Y-112162554D01*
X84250000Y-112144317D01*
X84093238Y-112164956D01*
X83947156Y-112225465D01*
X83818506Y-112324181D01*
X83749498Y-112384699D01*
X83657499Y-112415928D01*
X83560552Y-112409573D01*
X83473417Y-112366602D01*
X83429358Y-112322543D01*
X83302843Y-112225465D01*
X83302841Y-112225464D01*
X83156762Y-112164956D01*
X83138524Y-112162554D01*
X83000000Y-112144317D01*
X82843238Y-112164956D01*
X82697156Y-112225465D01*
X82571716Y-112321718D01*
X82567601Y-112327082D01*
X82494556Y-112391141D01*
X82402557Y-112422370D01*
X82370057Y-112424500D01*
X82275082Y-112424500D01*
X82253382Y-112423553D01*
X82221189Y-112420736D01*
X82189974Y-112429100D01*
X82168780Y-112433799D01*
X82126128Y-112441320D01*
X82119320Y-112444140D01*
X82083841Y-112468982D01*
X82065533Y-112480646D01*
X82037543Y-112496806D01*
X82016771Y-112521561D01*
X82002102Y-112537569D01*
X81287576Y-113252096D01*
X81271565Y-113266768D01*
X81246805Y-113287544D01*
X81230644Y-113315535D01*
X81218980Y-113333843D01*
X81194141Y-113369317D01*
X81191322Y-113376124D01*
X81189412Y-113386954D01*
X81189412Y-113386955D01*
X81183801Y-113418776D01*
X81179101Y-113439972D01*
X81170735Y-113471192D01*
X81173552Y-113503377D01*
X81174500Y-113525081D01*
X81174500Y-117370058D01*
X81155546Y-117465346D01*
X81101570Y-117546128D01*
X81077082Y-117567602D01*
X81071720Y-117571716D01*
X81071719Y-117571717D01*
X81071718Y-117571718D01*
X80975464Y-117697159D01*
X80975463Y-117697160D01*
X80955508Y-117723167D01*
X80955355Y-117723049D01*
X80926068Y-117766880D01*
X80845287Y-117820856D01*
X80749998Y-117839809D01*
X80654710Y-117820854D01*
X80573929Y-117766877D01*
X80544644Y-117723049D01*
X80544492Y-117723166D01*
X80428282Y-117571717D01*
X80302843Y-117475465D01*
X80278414Y-117465346D01*
X80156762Y-117414956D01*
X80138524Y-117412554D01*
X80000000Y-117394317D01*
X79843238Y-117414956D01*
X79697156Y-117475465D01*
X79571717Y-117571717D01*
X79475465Y-117697156D01*
X79414956Y-117843238D01*
X79394317Y-118000000D01*
X70500000Y-118000000D01*
X70500000Y-111999999D01*
X99644317Y-111999999D01*
X99658231Y-112105682D01*
X99664956Y-112156762D01*
X99693414Y-112225465D01*
X99725465Y-112302843D01*
X99821717Y-112428282D01*
X99947156Y-112524534D01*
X99947159Y-112524536D01*
X100093238Y-112585044D01*
X100250000Y-112605682D01*
X100406762Y-112585044D01*
X100552841Y-112524536D01*
X100584817Y-112500000D01*
X121144317Y-112500000D01*
X121164956Y-112656761D01*
X121225465Y-112802843D01*
X121321717Y-112928282D01*
X121447156Y-113024534D01*
X121447159Y-113024536D01*
X121593238Y-113085044D01*
X121750000Y-113105682D01*
X121906762Y-113085044D01*
X122052841Y-113024536D01*
X122178282Y-112928282D01*
X122274536Y-112802841D01*
X122335044Y-112656762D01*
X122355682Y-112500000D01*
X122335044Y-112343238D01*
X122274536Y-112197159D01*
X122249826Y-112164956D01*
X122178282Y-112071717D01*
X122052843Y-111975465D01*
X122052841Y-111975464D01*
X121906762Y-111914956D01*
X121888524Y-111912554D01*
X121750000Y-111894317D01*
X121593238Y-111914956D01*
X121447156Y-111975465D01*
X121321717Y-112071717D01*
X121225465Y-112197156D01*
X121164956Y-112343238D01*
X121144317Y-112500000D01*
X100584817Y-112500000D01*
X100678282Y-112428282D01*
X100774536Y-112302841D01*
X100835044Y-112156762D01*
X100855682Y-112000000D01*
X100835044Y-111843238D01*
X100774536Y-111697159D01*
X100774534Y-111697156D01*
X100678282Y-111571717D01*
X100552843Y-111475465D01*
X100552841Y-111475464D01*
X100406762Y-111414956D01*
X100388524Y-111412554D01*
X100250000Y-111394317D01*
X100093238Y-111414956D01*
X99947156Y-111475465D01*
X99821717Y-111571717D01*
X99725465Y-111697156D01*
X99664956Y-111843238D01*
X99644317Y-111999999D01*
X70500000Y-111999999D01*
X70500000Y-110603140D01*
X70518954Y-110507852D01*
X70572930Y-110427070D01*
X70927070Y-110072930D01*
X71007852Y-110018954D01*
X71103140Y-110000000D01*
X96093224Y-110000000D01*
X96188512Y-110018954D01*
X96269294Y-110072930D01*
X96323270Y-110153712D01*
X96342224Y-110249000D01*
X96323270Y-110344288D01*
X96269294Y-110425070D01*
X96219300Y-110458474D01*
X96071717Y-110571717D01*
X95975465Y-110697156D01*
X95914956Y-110843238D01*
X95894317Y-111000000D01*
X95914956Y-111156761D01*
X95975465Y-111302843D01*
X96071717Y-111428282D01*
X96197156Y-111524534D01*
X96197159Y-111524536D01*
X96343238Y-111585044D01*
X96500000Y-111605682D01*
X96656762Y-111585044D01*
X96802841Y-111524536D01*
X96928282Y-111428282D01*
X96928282Y-111428280D01*
X96931499Y-111425813D01*
X97000491Y-111365305D01*
X97092489Y-111334072D01*
X97189436Y-111340423D01*
X97276573Y-111383390D01*
X97320641Y-111427456D01*
X97383208Y-111475465D01*
X97447159Y-111524536D01*
X97593238Y-111585044D01*
X97731762Y-111603280D01*
X97749999Y-111605682D01*
X97749999Y-111605681D01*
X97750000Y-111605682D01*
X97906762Y-111585044D01*
X98052841Y-111524536D01*
X98178282Y-111428282D01*
X98274536Y-111302841D01*
X98335044Y-111156762D01*
X98355682Y-111000000D01*
X98335044Y-110843238D01*
X98274536Y-110697159D01*
X98274534Y-110697156D01*
X98178282Y-110571717D01*
X98030700Y-110458474D01*
X97980708Y-110425071D01*
X97926731Y-110344290D01*
X97907776Y-110249002D01*
X97926729Y-110153713D01*
X97980705Y-110072932D01*
X98061486Y-110018955D01*
X98156774Y-110000000D01*
X117593224Y-110000000D01*
X117688512Y-110018954D01*
X117769294Y-110072930D01*
X117823270Y-110153712D01*
X117842224Y-110249000D01*
X117823270Y-110344288D01*
X117769294Y-110425070D01*
X117719300Y-110458474D01*
X117571717Y-110571717D01*
X117475465Y-110697156D01*
X117414956Y-110843238D01*
X117394317Y-111000000D01*
X117414956Y-111156761D01*
X117475465Y-111302843D01*
X117571717Y-111428282D01*
X117697156Y-111524534D01*
X117697159Y-111524536D01*
X117843238Y-111585044D01*
X118000000Y-111605682D01*
X118156762Y-111585044D01*
X118302841Y-111524536D01*
X118428282Y-111428282D01*
X118428282Y-111428280D01*
X118431499Y-111425813D01*
X118500491Y-111365305D01*
X118592489Y-111334072D01*
X118689436Y-111340423D01*
X118776573Y-111383390D01*
X118820641Y-111427456D01*
X118883208Y-111475465D01*
X118947159Y-111524536D01*
X119093238Y-111585044D01*
X119250000Y-111605682D01*
X119406762Y-111585044D01*
X119552841Y-111524536D01*
X119678282Y-111428282D01*
X119774536Y-111302841D01*
X119835044Y-111156762D01*
X119855682Y-111000000D01*
X119835044Y-110843238D01*
X119774536Y-110697159D01*
X119774534Y-110697156D01*
X119678282Y-110571717D01*
X119530700Y-110458474D01*
X119480708Y-110425071D01*
X119426731Y-110344290D01*
X119407776Y-110249002D01*
X119426729Y-110153713D01*
X119480705Y-110072932D01*
X119561486Y-110018955D01*
X119656774Y-110000000D01*
X132999999Y-110000000D01*
X133000000Y-110000000D01*
X133500000Y-110000000D01*
X136100000Y-108000000D01*
X142394317Y-108000000D01*
X142414956Y-108156761D01*
X142475465Y-108302843D01*
X142571717Y-108428281D01*
X142577078Y-108432395D01*
X142641138Y-108505438D01*
X142672369Y-108597437D01*
X142674500Y-108629942D01*
X142674500Y-108974917D01*
X142673552Y-108996620D01*
X142670735Y-109028805D01*
X142679100Y-109060023D01*
X142683799Y-109081219D01*
X142691321Y-109123876D01*
X142694138Y-109130675D01*
X142718978Y-109166151D01*
X142730647Y-109184468D01*
X142746805Y-109212454D01*
X142771553Y-109233220D01*
X142787570Y-109247896D01*
X143752103Y-110212429D01*
X143766769Y-110228434D01*
X143787545Y-110253194D01*
X143815535Y-110269354D01*
X143833834Y-110281011D01*
X143860316Y-110299554D01*
X143860318Y-110299554D01*
X143869335Y-110305868D01*
X143876111Y-110308675D01*
X143886952Y-110310586D01*
X143886955Y-110310588D01*
X143918779Y-110316199D01*
X143939961Y-110320895D01*
X143971193Y-110329264D01*
X143998579Y-110326868D01*
X144003395Y-110326447D01*
X144025094Y-110325500D01*
X146416274Y-110325500D01*
X146511562Y-110344454D01*
X146592344Y-110398430D01*
X146646320Y-110479212D01*
X146665274Y-110574500D01*
X146663144Y-110607001D01*
X146644317Y-110749999D01*
X146655357Y-110833849D01*
X146664956Y-110906762D01*
X146693487Y-110975642D01*
X146725465Y-111052843D01*
X146821717Y-111178282D01*
X146947156Y-111274534D01*
X146947159Y-111274536D01*
X147093238Y-111335044D01*
X147231762Y-111353280D01*
X147249999Y-111355682D01*
X147249999Y-111355681D01*
X147250000Y-111355682D01*
X147406762Y-111335044D01*
X147552841Y-111274536D01*
X147678282Y-111178282D01*
X147774536Y-111052841D01*
X147835044Y-110906762D01*
X147855682Y-110750000D01*
X147840502Y-110634699D01*
X147836856Y-110607001D01*
X147843210Y-110510054D01*
X147886181Y-110422918D01*
X147959226Y-110358860D01*
X148051225Y-110327630D01*
X148083726Y-110325500D01*
X148506756Y-110325500D01*
X148602044Y-110344454D01*
X148682826Y-110398430D01*
X148736802Y-110479212D01*
X148755756Y-110574500D01*
X148736802Y-110669788D01*
X148736802Y-110669789D01*
X148725465Y-110697156D01*
X148725464Y-110697159D01*
X148672533Y-110824945D01*
X148664956Y-110843238D01*
X148644317Y-111000000D01*
X148664956Y-111156761D01*
X148725465Y-111302843D01*
X148821717Y-111428282D01*
X148947156Y-111524534D01*
X148947159Y-111524536D01*
X149093238Y-111585044D01*
X149250000Y-111605682D01*
X149406762Y-111585044D01*
X149552841Y-111524536D01*
X149678282Y-111428282D01*
X149774536Y-111302841D01*
X149835044Y-111156762D01*
X149855682Y-111000000D01*
X149835044Y-110843238D01*
X149774536Y-110697159D01*
X149774533Y-110697156D01*
X149763198Y-110669789D01*
X149744244Y-110574501D01*
X149763198Y-110479213D01*
X149817174Y-110398431D01*
X149897955Y-110344454D01*
X149993243Y-110325500D01*
X150762034Y-110325500D01*
X150857322Y-110344454D01*
X150938104Y-110398430D01*
X151434534Y-110894860D01*
X151488510Y-110975642D01*
X151507464Y-111070930D01*
X151488510Y-111166218D01*
X151487694Y-111167632D01*
X151414956Y-111343238D01*
X151394317Y-111500000D01*
X151410386Y-111622054D01*
X151404031Y-111719001D01*
X151361061Y-111806136D01*
X151288015Y-111870195D01*
X151196019Y-111901424D01*
X151093238Y-111914956D01*
X150947156Y-111975465D01*
X150821717Y-112071717D01*
X150725465Y-112197156D01*
X150664956Y-112343238D01*
X150644317Y-112500000D01*
X150664956Y-112656761D01*
X150725465Y-112802843D01*
X150821717Y-112928282D01*
X150947156Y-113024534D01*
X150947159Y-113024536D01*
X151093238Y-113085044D01*
X151250000Y-113105682D01*
X151406762Y-113085044D01*
X151552841Y-113024536D01*
X151678282Y-112928282D01*
X151774536Y-112802841D01*
X151835044Y-112656762D01*
X151855682Y-112500000D01*
X151839613Y-112377944D01*
X151845967Y-112281000D01*
X151888938Y-112193864D01*
X151961982Y-112129805D01*
X152053979Y-112098575D01*
X152156762Y-112085044D01*
X152302841Y-112024536D01*
X152428282Y-111928282D01*
X152524536Y-111802841D01*
X152585044Y-111656762D01*
X152605682Y-111500000D01*
X152585044Y-111343238D01*
X152524536Y-111197159D01*
X152493538Y-111156762D01*
X152428283Y-111071719D01*
X152406668Y-111055133D01*
X152342609Y-110982088D01*
X152313033Y-110900825D01*
X152310588Y-110886955D01*
X152310586Y-110886952D01*
X152308675Y-110876112D01*
X152305867Y-110869332D01*
X152281022Y-110833849D01*
X152269356Y-110815539D01*
X152253194Y-110787545D01*
X152228444Y-110766777D01*
X152212429Y-110752103D01*
X151247896Y-109787570D01*
X151233220Y-109771553D01*
X151212455Y-109746806D01*
X151184469Y-109730648D01*
X151166151Y-109718978D01*
X151130676Y-109694138D01*
X151123876Y-109691321D01*
X151081219Y-109683799D01*
X151060023Y-109679100D01*
X151028806Y-109670735D01*
X150996621Y-109673552D01*
X150974918Y-109674500D01*
X146824784Y-109674500D01*
X146729496Y-109655546D01*
X146648714Y-109601570D01*
X146594738Y-109520788D01*
X146575784Y-109425500D01*
X146577914Y-109392999D01*
X146593383Y-109275500D01*
X146589749Y-109247896D01*
X146572745Y-109118738D01*
X146512237Y-108972659D01*
X146512235Y-108972656D01*
X146415983Y-108847217D01*
X146290544Y-108750965D01*
X146290542Y-108750964D01*
X146144463Y-108690456D01*
X146126225Y-108688054D01*
X145987701Y-108669817D01*
X145830939Y-108690456D01*
X145684857Y-108750965D01*
X145559418Y-108847217D01*
X145463166Y-108972656D01*
X145402657Y-109118738D01*
X145382018Y-109275500D01*
X145397488Y-109392999D01*
X145391134Y-109489946D01*
X145348163Y-109577081D01*
X145275118Y-109641140D01*
X145183119Y-109672370D01*
X145150618Y-109674500D01*
X144237966Y-109674500D01*
X144142678Y-109655546D01*
X144061896Y-109601570D01*
X143398430Y-108938104D01*
X143344454Y-108857322D01*
X143325500Y-108762034D01*
X143325500Y-108629942D01*
X143344454Y-108534654D01*
X143398430Y-108453872D01*
X143422922Y-108432395D01*
X143423614Y-108431863D01*
X143428282Y-108428282D01*
X143524536Y-108302841D01*
X143585044Y-108156762D01*
X143605682Y-108000000D01*
X151394317Y-108000000D01*
X151414956Y-108156761D01*
X151475465Y-108302843D01*
X151571717Y-108428282D01*
X151697156Y-108524534D01*
X151697159Y-108524536D01*
X151843238Y-108585044D01*
X152000000Y-108605682D01*
X152156762Y-108585044D01*
X152302841Y-108524536D01*
X152428282Y-108428282D01*
X152524536Y-108302841D01*
X152585044Y-108156762D01*
X152605682Y-108000000D01*
X152585044Y-107843238D01*
X152524536Y-107697159D01*
X152524534Y-107697156D01*
X152428282Y-107571717D01*
X152302843Y-107475465D01*
X152302841Y-107475464D01*
X152156762Y-107414956D01*
X152138524Y-107412554D01*
X152000000Y-107394317D01*
X151843238Y-107414956D01*
X151697156Y-107475465D01*
X151571717Y-107571717D01*
X151475465Y-107697156D01*
X151414956Y-107843238D01*
X151394317Y-108000000D01*
X143605682Y-108000000D01*
X143585044Y-107843238D01*
X143524536Y-107697159D01*
X143524534Y-107697156D01*
X143428282Y-107571717D01*
X143302843Y-107475465D01*
X143302841Y-107475464D01*
X143156762Y-107414956D01*
X143138524Y-107412554D01*
X143000000Y-107394317D01*
X142843238Y-107414956D01*
X142697156Y-107475465D01*
X142571717Y-107571717D01*
X142475465Y-107697156D01*
X142414956Y-107843238D01*
X142394317Y-108000000D01*
X136100000Y-108000000D01*
X138375001Y-106249999D01*
X146014817Y-106249999D01*
X146035456Y-106406761D01*
X146095965Y-106552843D01*
X146192217Y-106678282D01*
X146317656Y-106774534D01*
X146317659Y-106774536D01*
X146463738Y-106835044D01*
X146620500Y-106855682D01*
X146777262Y-106835044D01*
X146923341Y-106774536D01*
X147048782Y-106678282D01*
X147145036Y-106552841D01*
X147166923Y-106500000D01*
X149894317Y-106500000D01*
X149914956Y-106656761D01*
X149975465Y-106802843D01*
X150071717Y-106928282D01*
X150197156Y-107024534D01*
X150197159Y-107024536D01*
X150343238Y-107085044D01*
X150500000Y-107105682D01*
X150656762Y-107085044D01*
X150802841Y-107024536D01*
X150928282Y-106928282D01*
X151024536Y-106802841D01*
X151085044Y-106656762D01*
X151105682Y-106500000D01*
X151085044Y-106343238D01*
X151024536Y-106197159D01*
X151024534Y-106197156D01*
X150928282Y-106071717D01*
X150802843Y-105975465D01*
X150802841Y-105975464D01*
X150656762Y-105914956D01*
X150638524Y-105912554D01*
X150500000Y-105894317D01*
X150343238Y-105914956D01*
X150197156Y-105975465D01*
X150071717Y-106071717D01*
X149975465Y-106197156D01*
X149914956Y-106343238D01*
X149894317Y-106500000D01*
X147166923Y-106500000D01*
X147205544Y-106406762D01*
X147226182Y-106250000D01*
X147205544Y-106093238D01*
X147145036Y-105947159D01*
X147104490Y-105894318D01*
X147048782Y-105821717D01*
X146923343Y-105725465D01*
X146923341Y-105725464D01*
X146777262Y-105664956D01*
X146756622Y-105662238D01*
X146620499Y-105644317D01*
X146463738Y-105664956D01*
X146317656Y-105725465D01*
X146192217Y-105821717D01*
X146095965Y-105947156D01*
X146035456Y-106093238D01*
X146014817Y-106249999D01*
X138375001Y-106249999D01*
X140000000Y-105000000D01*
X140000000Y-101500000D01*
X153394317Y-101500000D01*
X153414956Y-101656761D01*
X153475465Y-101802843D01*
X153571717Y-101928282D01*
X153697156Y-102024534D01*
X153697159Y-102024536D01*
X153843238Y-102085044D01*
X153981762Y-102103280D01*
X153999999Y-102105682D01*
X153999999Y-102105681D01*
X154000000Y-102105682D01*
X154156762Y-102085044D01*
X154302841Y-102024536D01*
X154428282Y-101928282D01*
X154524536Y-101802841D01*
X154585044Y-101656762D01*
X154605682Y-101500000D01*
X160344317Y-101500000D01*
X160364956Y-101656761D01*
X160425465Y-101802843D01*
X160521717Y-101928282D01*
X160647156Y-102024534D01*
X160647159Y-102024536D01*
X160793238Y-102085044D01*
X160950000Y-102105682D01*
X161106762Y-102085044D01*
X161252841Y-102024536D01*
X161284817Y-102000000D01*
X162844317Y-102000000D01*
X162864956Y-102156761D01*
X162925465Y-102302843D01*
X163021717Y-102428282D01*
X163147156Y-102524534D01*
X163147159Y-102524536D01*
X163293238Y-102585044D01*
X163450000Y-102605682D01*
X163606762Y-102585044D01*
X163752841Y-102524536D01*
X163878282Y-102428282D01*
X163974536Y-102302841D01*
X164035044Y-102156762D01*
X164055682Y-102000000D01*
X164035044Y-101843238D01*
X163974536Y-101697159D01*
X163974534Y-101697156D01*
X163878282Y-101571717D01*
X163752843Y-101475465D01*
X163752841Y-101475464D01*
X163606762Y-101414956D01*
X163588524Y-101412554D01*
X163450000Y-101394317D01*
X163293238Y-101414956D01*
X163147156Y-101475465D01*
X163021717Y-101571717D01*
X162925465Y-101697156D01*
X162864956Y-101843238D01*
X162844317Y-102000000D01*
X161284817Y-102000000D01*
X161378282Y-101928282D01*
X161474536Y-101802841D01*
X161535044Y-101656762D01*
X161555682Y-101500000D01*
X161535044Y-101343238D01*
X161474536Y-101197159D01*
X161426873Y-101135043D01*
X161378282Y-101071717D01*
X161252843Y-100975465D01*
X161252841Y-100975464D01*
X161106762Y-100914956D01*
X161088524Y-100912554D01*
X160950000Y-100894317D01*
X160793238Y-100914956D01*
X160647156Y-100975465D01*
X160521717Y-101071717D01*
X160425465Y-101197156D01*
X160364956Y-101343238D01*
X160344317Y-101500000D01*
X154605682Y-101500000D01*
X154585044Y-101343238D01*
X154524536Y-101197159D01*
X154476873Y-101135043D01*
X154428282Y-101071717D01*
X154302843Y-100975465D01*
X154302841Y-100975464D01*
X154156762Y-100914956D01*
X154138524Y-100912554D01*
X154000000Y-100894317D01*
X153843238Y-100914956D01*
X153697156Y-100975465D01*
X153571717Y-101071717D01*
X153475465Y-101197156D01*
X153414956Y-101343238D01*
X153394317Y-101500000D01*
X140000000Y-101500000D01*
X140000000Y-100550000D01*
X150894317Y-100550000D01*
X150908373Y-100656762D01*
X150914956Y-100706762D01*
X150975464Y-100852841D01*
X150975465Y-100852843D01*
X151071717Y-100978282D01*
X151197156Y-101074534D01*
X151197159Y-101074536D01*
X151343238Y-101135044D01*
X151500000Y-101155682D01*
X151656762Y-101135044D01*
X151802841Y-101074536D01*
X151928282Y-100978282D01*
X152024536Y-100852841D01*
X152085044Y-100706762D01*
X152105682Y-100550000D01*
X152085044Y-100393238D01*
X152024536Y-100247159D01*
X151986170Y-100197159D01*
X151928282Y-100121717D01*
X151802843Y-100025465D01*
X151802841Y-100025464D01*
X151656762Y-99964956D01*
X151636122Y-99962238D01*
X151499999Y-99944317D01*
X151343238Y-99964956D01*
X151197156Y-100025465D01*
X151071717Y-100121717D01*
X150975465Y-100247156D01*
X150914956Y-100393238D01*
X150894317Y-100550000D01*
X140000000Y-100550000D01*
X140000000Y-96103138D01*
X140018954Y-96007851D01*
X140072927Y-95927072D01*
X140072931Y-95927069D01*
X140427071Y-95572930D01*
X140507852Y-95518954D01*
X140603140Y-95500000D01*
X168896860Y-95500000D01*
X168992148Y-95518954D01*
G37*
%TD.AperFunction*%
%TA.AperFunction,Conductor*%
G36*
X151753122Y-120851693D02*
G01*
X151848039Y-120872407D01*
X151924580Y-120924580D01*
X153321600Y-122321600D01*
X153375576Y-122402382D01*
X153394530Y-122497670D01*
X153394487Y-122502279D01*
X153385562Y-122984394D01*
X153364848Y-123079315D01*
X153309386Y-123159083D01*
X153306060Y-123162228D01*
X153027724Y-123420684D01*
X150690004Y-125591423D01*
X150607280Y-125642372D01*
X150515964Y-125657914D01*
X149996881Y-125648306D01*
X149901960Y-125627592D01*
X149825419Y-125575419D01*
X148428399Y-124178399D01*
X148374423Y-124097617D01*
X148355469Y-124002329D01*
X148355512Y-123997720D01*
X148364437Y-123515601D01*
X148385151Y-123420684D01*
X148440613Y-123340916D01*
X148443883Y-123337822D01*
X151059995Y-120908575D01*
X151142719Y-120857627D01*
X151234034Y-120842085D01*
X151753122Y-120851693D01*
G37*
%TD.AperFunction*%
M02*
