%TF.GenerationSoftware,KiCad,Pcbnew,7.0.2*%
%TF.CreationDate,2023-06-09T00:35:45-07:00*%
%TF.ProjectId,Thyristor_Control_Board,54687972-6973-4746-9f72-5f436f6e7472,A*%
%TF.SameCoordinates,Original*%
%TF.FileFunction,Copper,L2,Inr*%
%TF.FilePolarity,Positive*%
%FSLAX46Y46*%
G04 Gerber Fmt 4.6, Leading zero omitted, Abs format (unit mm)*
G04 Created by KiCad (PCBNEW 7.0.2) date 2023-06-09 00:35:45*
%MOMM*%
%LPD*%
G01*
G04 APERTURE LIST*
%TA.AperFunction,ComponentPad*%
%ADD10C,2.032000*%
%TD*%
%TA.AperFunction,ComponentPad*%
%ADD11C,1.600000*%
%TD*%
%TA.AperFunction,ComponentPad*%
%ADD12O,1.600000X1.600000*%
%TD*%
%TA.AperFunction,ComponentPad*%
%ADD13R,2.000000X1.905000*%
%TD*%
%TA.AperFunction,ComponentPad*%
%ADD14O,2.000000X1.905000*%
%TD*%
%TA.AperFunction,ComponentPad*%
%ADD15C,2.400000*%
%TD*%
%TA.AperFunction,ComponentPad*%
%ADD16O,2.400000X2.400000*%
%TD*%
%TA.AperFunction,ComponentPad*%
%ADD17R,1.600000X1.600000*%
%TD*%
%TA.AperFunction,ComponentPad*%
%ADD18C,1.908048*%
%TD*%
%TA.AperFunction,ComponentPad*%
%ADD19C,1.800000*%
%TD*%
%TA.AperFunction,ComponentPad*%
%ADD20C,1.498600*%
%TD*%
%TA.AperFunction,ComponentPad*%
%ADD21C,3.000000*%
%TD*%
%TA.AperFunction,ViaPad*%
%ADD22C,0.800000*%
%TD*%
%TA.AperFunction,Conductor*%
%ADD23C,2.000000*%
%TD*%
%TA.AperFunction,Conductor*%
%ADD24C,3.000000*%
%TD*%
G04 APERTURE END LIST*
D10*
X134080000Y-63000000D03*
X129080000Y-63000000D03*
X124080000Y-63000000D03*
X119080000Y-63000000D03*
D11*
X115500000Y-142580000D03*
D12*
X115500000Y-132420000D03*
D10*
X112080000Y-62999999D03*
X107080000Y-62999999D03*
X102080000Y-62999999D03*
X97080000Y-62999999D03*
D13*
X104110000Y-82460000D03*
D14*
X104110000Y-85000000D03*
X104110000Y-87540000D03*
D13*
X126055000Y-82460000D03*
D14*
X126055000Y-85000000D03*
X126055000Y-87540000D03*
D15*
X72680000Y-78500000D03*
D16*
X93000000Y-78500000D03*
D17*
X120500000Y-142000000D03*
D11*
X123000000Y-142000000D03*
D18*
X89620000Y-62700000D03*
X84540000Y-62700000D03*
D17*
X120500000Y-133500000D03*
D11*
X123000000Y-133500000D03*
D19*
X150000000Y-149240000D03*
X150000000Y-146700000D03*
X150000000Y-144160000D03*
X150000000Y-141620000D03*
X150000000Y-139080000D03*
X150000000Y-136540000D03*
X150000000Y-134000000D03*
X134760000Y-134000000D03*
X134760000Y-136540000D03*
X134760000Y-139080000D03*
X134760000Y-141620000D03*
X134760000Y-144160000D03*
X134760000Y-146700000D03*
X134760000Y-149240000D03*
D20*
X85499994Y-139000000D03*
X88999995Y-134000000D03*
X92499995Y-139000000D03*
X95999996Y-134000000D03*
X99499996Y-139000000D03*
X102999997Y-134000000D03*
X106500000Y-139000000D03*
X110000001Y-134000000D03*
D15*
X72680000Y-84000000D03*
D16*
X93000000Y-84000000D03*
D21*
X153160000Y-70056701D03*
X153160000Y-59896701D03*
X143000000Y-70056701D03*
X143000000Y-59896701D03*
D15*
X93000000Y-89500000D03*
D16*
X72680000Y-89500000D03*
D15*
X72680000Y-73000000D03*
D16*
X93000000Y-73000000D03*
D22*
X153000000Y-131500000D03*
X154500000Y-141500000D03*
X141500000Y-130000000D03*
X141500000Y-124500000D03*
X144000000Y-124500000D03*
X144000000Y-130000000D03*
X152000000Y-111500000D03*
X143000000Y-108000000D03*
X133000000Y-128000000D03*
X133000000Y-124500000D03*
X138500000Y-130000000D03*
X85500000Y-118000000D03*
X138500000Y-124500000D03*
X84250000Y-112750000D03*
X83000000Y-112750000D03*
X136500000Y-124500000D03*
X136500000Y-128000000D03*
X81500000Y-118000000D03*
X87000000Y-118000000D03*
X126500000Y-144000000D03*
X79250000Y-119500000D03*
X150500000Y-106500000D03*
X84000000Y-116000000D03*
X152000000Y-108000000D03*
X145987701Y-109275500D03*
X146620500Y-106250000D03*
X126500000Y-143000000D03*
X156250000Y-147000000D03*
X125500000Y-143500000D03*
X80000000Y-118000000D03*
X86500000Y-115500000D03*
X116500000Y-115550000D03*
X81000000Y-152000000D03*
X145700000Y-104000000D03*
X82750000Y-116500000D03*
X128000000Y-140500000D03*
X140500000Y-143000000D03*
X169000000Y-138000000D03*
X115500000Y-129500000D03*
X98000000Y-140500000D03*
X169000000Y-102000000D03*
X97500000Y-139000000D03*
X71000000Y-118000000D03*
X91436000Y-131100000D03*
X159000000Y-146000000D03*
X74000000Y-142000000D03*
X120750000Y-145750000D03*
X157000000Y-123000000D03*
X147000000Y-138000000D03*
X118500000Y-138000000D03*
X80000000Y-143000000D03*
X105000000Y-111000000D03*
X166000000Y-142000000D03*
X91000000Y-118000000D03*
X156000000Y-100000000D03*
X117000000Y-149500000D03*
X169000000Y-126000000D03*
X87880000Y-129270000D03*
X123000000Y-122250000D03*
X141000000Y-98000000D03*
X141000000Y-101000000D03*
X134000000Y-111000000D03*
X141000000Y-104000000D03*
X134750000Y-128000000D03*
X169000000Y-105000000D03*
X92450000Y-115550000D03*
X169000000Y-117000000D03*
X71000000Y-127000000D03*
X154500000Y-108000000D03*
X71000000Y-139000000D03*
X140000000Y-107000000D03*
X89000000Y-111000000D03*
X88000000Y-125000000D03*
X169000000Y-123000000D03*
X156000000Y-152000000D03*
X143700000Y-112568750D03*
X114250000Y-112500000D03*
X169000000Y-129000000D03*
X158000000Y-96000000D03*
X87880000Y-131100000D03*
X84000000Y-140500000D03*
X149450000Y-115818750D03*
X92000000Y-111000000D03*
X123000000Y-111000000D03*
X109000000Y-152000000D03*
X116500000Y-120750000D03*
X87000000Y-140500000D03*
X169000000Y-114000000D03*
X80775500Y-114500000D03*
X120000000Y-152000000D03*
X94992000Y-129258000D03*
X145000000Y-152000000D03*
X105660000Y-129224500D03*
X129000000Y-128000000D03*
X169000000Y-135000000D03*
X154000000Y-103500000D03*
X161000000Y-96000000D03*
X113000000Y-138000000D03*
X160000000Y-143000000D03*
X71000000Y-136000000D03*
X169000000Y-108000000D03*
X84000000Y-152000000D03*
X159000000Y-149000000D03*
X77000000Y-142000000D03*
X144725000Y-102275000D03*
X169000000Y-132000000D03*
X129000000Y-137500000D03*
X131000000Y-111000000D03*
X128000000Y-145500000D03*
X76000000Y-111000000D03*
X116500000Y-117500000D03*
X87000000Y-137500000D03*
X94992000Y-131100000D03*
X163000000Y-142000000D03*
X95000000Y-117500000D03*
X71000000Y-112000000D03*
X136500000Y-117000000D03*
X98500000Y-115750000D03*
X169000000Y-111000000D03*
X169000000Y-98000000D03*
X155400000Y-148200000D03*
X81000000Y-146000000D03*
X112000000Y-111000000D03*
X71000000Y-133000000D03*
X71000000Y-142000000D03*
X102100000Y-131100000D03*
X150000000Y-104000000D03*
X71000000Y-130000000D03*
X83500000Y-139000000D03*
X137000000Y-109000000D03*
X169000000Y-120000000D03*
X142500000Y-149000000D03*
X153500000Y-137500000D03*
X143300000Y-115568750D03*
X88000000Y-122250000D03*
X71000000Y-121000000D03*
X146000000Y-117500000D03*
X102000000Y-111000000D03*
X156000000Y-103500000D03*
X84000000Y-137500000D03*
X123750000Y-148750000D03*
X87500000Y-139000000D03*
X145950000Y-115568750D03*
X155250000Y-115750000D03*
X155000000Y-96000000D03*
X95000000Y-115550000D03*
X101000000Y-137500000D03*
X81000000Y-149000000D03*
X142500000Y-97750000D03*
X120000000Y-115750000D03*
X168500000Y-103500000D03*
X130200000Y-140500000D03*
X92750000Y-112500000D03*
X167000000Y-96000000D03*
X128270000Y-114250000D03*
X91436000Y-129314000D03*
X101000000Y-140500000D03*
X169000000Y-141000000D03*
X71000000Y-124000000D03*
X101500000Y-139000000D03*
X134750000Y-124500000D03*
X109000000Y-111000000D03*
X137000000Y-149000000D03*
X113950000Y-115550000D03*
X79000000Y-111000000D03*
X71000000Y-115000000D03*
X106250000Y-114250000D03*
X102104000Y-129200000D03*
X105660000Y-131100000D03*
X159000000Y-152000000D03*
X98000000Y-137500000D03*
X73000000Y-111000000D03*
X121250000Y-126750000D03*
X168500000Y-100000000D03*
X130200000Y-145500000D03*
X107400000Y-136900000D03*
X164000000Y-96000000D03*
X124000000Y-145250000D03*
X163450000Y-102000000D03*
X151500000Y-100550000D03*
X151250000Y-112500000D03*
X121750000Y-112500000D03*
X131000000Y-120750000D03*
X149250000Y-111000000D03*
X129750000Y-122250000D03*
X154000000Y-101500000D03*
X149500000Y-124500000D03*
X118000000Y-111000000D03*
X106000000Y-123750000D03*
X119250000Y-111000000D03*
X123500000Y-146000000D03*
X125250000Y-122250000D03*
X152250000Y-122000000D03*
X103500000Y-120750000D03*
X100250000Y-112000000D03*
X126750000Y-120750000D03*
X151500000Y-121250000D03*
X125500000Y-148500000D03*
X148750000Y-123750000D03*
X104750000Y-123750000D03*
X96500000Y-111000000D03*
X150250000Y-125250000D03*
X97750000Y-111000000D03*
X153000000Y-122750000D03*
X123500000Y-147000000D03*
X104750000Y-120750000D03*
X160950000Y-101500000D03*
X147250000Y-110750000D03*
X103500000Y-123750000D03*
X106000000Y-120750000D03*
X126750000Y-145250000D03*
X148500000Y-116500000D03*
X104000000Y-128500000D03*
X143500000Y-114500000D03*
X150000000Y-86500000D03*
X153000000Y-85500000D03*
X149000000Y-78000000D03*
X156000000Y-84500000D03*
X151000000Y-85500000D03*
X149000000Y-76500000D03*
X149000000Y-82500000D03*
X156000000Y-82500000D03*
X153000000Y-86500000D03*
X156000000Y-81000000D03*
X150500000Y-68000000D03*
X156000000Y-86500000D03*
X149000000Y-73500000D03*
X149000000Y-81000000D03*
X151000000Y-86500000D03*
X156000000Y-76500000D03*
X149000000Y-75000000D03*
X150000000Y-71250000D03*
X156000000Y-79500000D03*
X156000000Y-78000000D03*
X149000000Y-72000000D03*
X156000000Y-72000000D03*
X150500000Y-70000000D03*
X151000000Y-84000000D03*
X156000000Y-75000000D03*
X155000000Y-71250000D03*
X156000000Y-70500000D03*
X156000000Y-73500000D03*
X152000000Y-86500000D03*
X149500000Y-69000000D03*
X149000000Y-84000000D03*
X154000000Y-86500000D03*
X149000000Y-86500000D03*
X149000000Y-79500000D03*
X149000000Y-85500000D03*
X153000000Y-84000000D03*
X156000000Y-69000000D03*
X149000000Y-70500000D03*
X140000000Y-84500000D03*
X140000000Y-72000000D03*
X145000000Y-86500000D03*
X147000000Y-79500000D03*
X143000000Y-86500000D03*
X147000000Y-78000000D03*
X140000000Y-82500000D03*
X145000000Y-85500000D03*
X140000000Y-86500000D03*
X145500000Y-70000000D03*
X142000000Y-86500000D03*
X140000000Y-79500000D03*
X143000000Y-85500000D03*
X144000000Y-86500000D03*
X141000000Y-71250000D03*
X146500000Y-69000000D03*
X147000000Y-76500000D03*
X145000000Y-84000000D03*
X143000000Y-84000000D03*
X147000000Y-70500000D03*
X140000000Y-69000000D03*
X140000000Y-75000000D03*
X147000000Y-82500000D03*
X147000000Y-84000000D03*
X147000000Y-73500000D03*
X146000000Y-86500000D03*
X147000000Y-85500000D03*
X140000000Y-70500000D03*
X145500000Y-68000000D03*
X146000000Y-71250000D03*
X140000000Y-73500000D03*
X147000000Y-75000000D03*
X140000000Y-81000000D03*
X147000000Y-81000000D03*
X140000000Y-78000000D03*
X147000000Y-86500000D03*
X147000000Y-72000000D03*
X140000000Y-76500000D03*
X103750000Y-100500000D03*
X125750000Y-100500000D03*
X145500000Y-149000000D03*
X122000000Y-151500000D03*
X114000000Y-114500000D03*
X119250000Y-116500000D03*
X84500000Y-73000000D03*
X80000000Y-92500000D03*
X148500000Y-151000000D03*
X137000000Y-137000000D03*
X92500000Y-114500000D03*
X97500000Y-116500000D03*
X83000000Y-99000000D03*
D23*
X126050000Y-78300000D02*
X126050000Y-77200000D01*
X126050000Y-75000000D02*
X126050000Y-74045000D01*
X126050000Y-82450000D02*
X126050000Y-80400000D01*
X126050000Y-80400000D02*
X126050000Y-79350000D01*
X126050000Y-77200000D02*
X126050000Y-76100000D01*
X126050000Y-76100000D02*
X126050000Y-75000000D01*
X126050000Y-74045000D02*
X124075000Y-72070000D01*
X126050000Y-79350000D02*
X126050000Y-78300000D01*
X124075000Y-72070000D02*
X124075000Y-62990000D01*
X130990000Y-72200000D02*
X129070000Y-70280000D01*
X130990000Y-84200000D02*
X130990000Y-72200000D01*
X130190000Y-85000000D02*
X126055000Y-85000000D01*
X130990000Y-84200000D02*
X130190000Y-85000000D01*
X129070000Y-70280000D02*
X129070000Y-63199999D01*
D24*
X153160000Y-70056701D02*
X153160000Y-59896701D01*
X143000000Y-70000000D02*
X143000000Y-59840000D01*
D23*
X104105000Y-80400000D02*
X104105000Y-79350000D01*
X104105000Y-74045000D02*
X102130000Y-72070000D01*
X104105000Y-78300000D02*
X104105000Y-77200000D01*
X104105000Y-77200000D02*
X104105000Y-76100000D01*
X102130000Y-72070000D02*
X102130000Y-62990000D01*
X104105000Y-75000000D02*
X104105000Y-74045000D01*
X104105000Y-82450000D02*
X104105000Y-80400000D01*
X104105000Y-76100000D02*
X104105000Y-75000000D01*
X104105000Y-79350000D02*
X104105000Y-78300000D01*
X107070000Y-70080000D02*
X107070000Y-62999999D01*
X108990000Y-72000000D02*
X107070000Y-70080000D01*
X104100000Y-85000000D02*
X106100000Y-85000000D01*
X108990000Y-84000000D02*
X108990000Y-72000000D01*
X106100000Y-85000000D02*
X107100000Y-85000000D01*
X107990000Y-85000000D02*
X108990000Y-84000000D01*
X107100000Y-85000000D02*
X107990000Y-85000000D01*
%TA.AperFunction,Conductor*%
G36*
X144023542Y-66019685D02*
G01*
X144033965Y-66027172D01*
X147703462Y-68962770D01*
X147743514Y-69020020D01*
X147750000Y-69059597D01*
X147750000Y-89448637D01*
X147730315Y-89515676D01*
X147713681Y-89536318D01*
X147536319Y-89713681D01*
X147474996Y-89747166D01*
X147448638Y-89750000D01*
X143051362Y-89750000D01*
X142984323Y-89730315D01*
X142963681Y-89713681D01*
X142786319Y-89536318D01*
X142752834Y-89474995D01*
X142750000Y-89448637D01*
X142750000Y-87250000D01*
X142500000Y-87000000D01*
X139301362Y-87000000D01*
X139234323Y-86980315D01*
X139213681Y-86963681D01*
X139036319Y-86786319D01*
X139002834Y-86724996D01*
X139000000Y-86698638D01*
X139000000Y-68558078D01*
X139019685Y-68491039D01*
X139044617Y-68462819D01*
X141965511Y-66028741D01*
X142029614Y-66000945D01*
X142044894Y-66000000D01*
X143956503Y-66000000D01*
X144023542Y-66019685D01*
G37*
%TD.AperFunction*%
%TA.AperFunction,Conductor*%
G36*
X154515677Y-66019685D02*
G01*
X154536319Y-66036319D01*
X156963682Y-68463682D01*
X156997166Y-68525003D01*
X157000000Y-68551361D01*
X157000000Y-86698638D01*
X156980315Y-86765677D01*
X156963681Y-86786319D01*
X156786319Y-86963681D01*
X156724996Y-86997166D01*
X156698638Y-87000000D01*
X153499999Y-87000000D01*
X153250000Y-87249999D01*
X153250000Y-89448638D01*
X153230315Y-89515677D01*
X153213681Y-89536319D01*
X153036319Y-89713681D01*
X152974996Y-89747166D01*
X152948638Y-89750000D01*
X148551362Y-89750000D01*
X148484323Y-89730315D01*
X148463681Y-89713681D01*
X148286319Y-89536318D01*
X148252834Y-89474995D01*
X148250000Y-89448637D01*
X148250000Y-69059597D01*
X148269685Y-68992558D01*
X148296536Y-68962771D01*
X151966034Y-66027171D01*
X152030681Y-66000664D01*
X152043497Y-66000000D01*
X154448638Y-66000000D01*
X154515677Y-66019685D01*
G37*
%TD.AperFunction*%
%TA.AperFunction,Conductor*%
G36*
X169443039Y-95519685D02*
G01*
X169488794Y-95572489D01*
X169500000Y-95624000D01*
X169500000Y-142876000D01*
X169480315Y-142943039D01*
X169427511Y-142988794D01*
X169376000Y-143000000D01*
X161999999Y-143000000D01*
X159500000Y-145499999D01*
X159500000Y-152376000D01*
X159480315Y-152443039D01*
X159427511Y-152488794D01*
X159376000Y-152500000D01*
X80624000Y-152500000D01*
X80556961Y-152480315D01*
X80511206Y-152427511D01*
X80500000Y-152376000D01*
X80500000Y-151499999D01*
X121394317Y-151499999D01*
X121414956Y-151656762D01*
X121475463Y-151802840D01*
X121571717Y-151928282D01*
X121697158Y-152024536D01*
X121697159Y-152024536D01*
X121843238Y-152085044D01*
X122000000Y-152105682D01*
X122156762Y-152085044D01*
X122302841Y-152024536D01*
X122428282Y-151928282D01*
X122524536Y-151802841D01*
X122585044Y-151656762D01*
X122605682Y-151500000D01*
X122585044Y-151343238D01*
X122524536Y-151197159D01*
X122524536Y-151197158D01*
X122428282Y-151071717D01*
X122334816Y-150999999D01*
X147894317Y-150999999D01*
X147914956Y-151156762D01*
X147975463Y-151302840D01*
X148071717Y-151428282D01*
X148165183Y-151500000D01*
X148197159Y-151524536D01*
X148343238Y-151585044D01*
X148500000Y-151605682D01*
X148656762Y-151585044D01*
X148802841Y-151524536D01*
X148928282Y-151428282D01*
X149024536Y-151302841D01*
X149085044Y-151156762D01*
X149105682Y-151000000D01*
X149085044Y-150843238D01*
X149024536Y-150697159D01*
X149024535Y-150697159D01*
X148928282Y-150571717D01*
X148802840Y-150475463D01*
X148656762Y-150414956D01*
X148500000Y-150394317D01*
X148343237Y-150414956D01*
X148197159Y-150475463D01*
X148071717Y-150571717D01*
X147975463Y-150697159D01*
X147914956Y-150843237D01*
X147894317Y-150999999D01*
X122334816Y-150999999D01*
X122302840Y-150975463D01*
X122156762Y-150914956D01*
X122000000Y-150894317D01*
X121843237Y-150914956D01*
X121697159Y-150975463D01*
X121571717Y-151071717D01*
X121475463Y-151197159D01*
X121414956Y-151343237D01*
X121394317Y-151499999D01*
X80500000Y-151499999D01*
X80500000Y-148500000D01*
X124894317Y-148500000D01*
X124914956Y-148656762D01*
X124975463Y-148802840D01*
X125071717Y-148928282D01*
X125165183Y-149000000D01*
X125197159Y-149024536D01*
X125343238Y-149085044D01*
X125500000Y-149105682D01*
X125656762Y-149085044D01*
X125802841Y-149024536D01*
X125928282Y-148928282D01*
X126024536Y-148802841D01*
X126085044Y-148656762D01*
X126105682Y-148500000D01*
X126085044Y-148343238D01*
X126024536Y-148197159D01*
X125979106Y-148137953D01*
X125928282Y-148071717D01*
X125802840Y-147975463D01*
X125656762Y-147914956D01*
X125500000Y-147894317D01*
X125343237Y-147914956D01*
X125197159Y-147975463D01*
X125071717Y-148071717D01*
X124975463Y-148197159D01*
X124914956Y-148343237D01*
X124894317Y-148500000D01*
X80500000Y-148500000D01*
X80500000Y-146999999D01*
X122894317Y-146999999D01*
X122914956Y-147156762D01*
X122975463Y-147302840D01*
X123071717Y-147428282D01*
X123197158Y-147524535D01*
X123197159Y-147524536D01*
X123343238Y-147585044D01*
X123500000Y-147605682D01*
X123656762Y-147585044D01*
X123802841Y-147524536D01*
X123928282Y-147428282D01*
X124024536Y-147302841D01*
X124085044Y-147156762D01*
X124105682Y-147000000D01*
X124085044Y-146843238D01*
X124025713Y-146700000D01*
X133355201Y-146700000D01*
X133374361Y-146931217D01*
X133431319Y-147156139D01*
X133524516Y-147368609D01*
X133608811Y-147497633D01*
X134268866Y-146837579D01*
X134291318Y-146914040D01*
X134370605Y-147037413D01*
X134481438Y-147133451D01*
X134614839Y-147194373D01*
X134618633Y-147194918D01*
X133961199Y-147852351D01*
X133991650Y-147876051D01*
X134195700Y-147986477D01*
X134274081Y-148013386D01*
X134331096Y-148053772D01*
X134357227Y-148118571D01*
X134344175Y-148187211D01*
X134296087Y-148237899D01*
X134278614Y-148246293D01*
X134267362Y-148250652D01*
X134093958Y-148358018D01*
X133943236Y-148495419D01*
X133820324Y-148658181D01*
X133729418Y-148840748D01*
X133673602Y-149036916D01*
X133654785Y-149239999D01*
X133673602Y-149443083D01*
X133729418Y-149639251D01*
X133820324Y-149821818D01*
X133943236Y-149984580D01*
X134093958Y-150121981D01*
X134267361Y-150229347D01*
X134267363Y-150229348D01*
X134457544Y-150303024D01*
X134658024Y-150340500D01*
X134658026Y-150340500D01*
X134861974Y-150340500D01*
X134861976Y-150340500D01*
X135062456Y-150303024D01*
X135252637Y-150229348D01*
X135426041Y-150121981D01*
X135576764Y-149984579D01*
X135699673Y-149821821D01*
X135699673Y-149821819D01*
X135699675Y-149821818D01*
X135745313Y-149730161D01*
X135790582Y-149639250D01*
X135846397Y-149443083D01*
X135865215Y-149240000D01*
X135846397Y-149036917D01*
X135835893Y-148999999D01*
X144894317Y-148999999D01*
X144914956Y-149156762D01*
X144975463Y-149302840D01*
X145071717Y-149428282D01*
X145197158Y-149524535D01*
X145197159Y-149524536D01*
X145343238Y-149585044D01*
X145500000Y-149605682D01*
X145656762Y-149585044D01*
X145802841Y-149524536D01*
X145928282Y-149428282D01*
X146024536Y-149302841D01*
X146050566Y-149240000D01*
X148894785Y-149240000D01*
X148913602Y-149443083D01*
X148969418Y-149639251D01*
X149060324Y-149821818D01*
X149183236Y-149984580D01*
X149333958Y-150121981D01*
X149507361Y-150229347D01*
X149507363Y-150229348D01*
X149697544Y-150303024D01*
X149898024Y-150340500D01*
X149898026Y-150340500D01*
X150101974Y-150340500D01*
X150101976Y-150340500D01*
X150302456Y-150303024D01*
X150492637Y-150229348D01*
X150666041Y-150121981D01*
X150816764Y-149984579D01*
X150939673Y-149821821D01*
X150939673Y-149821819D01*
X150939675Y-149821818D01*
X150985313Y-149730161D01*
X151030582Y-149639250D01*
X151086397Y-149443083D01*
X151105215Y-149240000D01*
X151086397Y-149036917D01*
X151030582Y-148840750D01*
X150959083Y-148697159D01*
X150939675Y-148658181D01*
X150816763Y-148495419D01*
X150666041Y-148358018D01*
X150492638Y-148250652D01*
X150302457Y-148176976D01*
X150235629Y-148164483D01*
X150101976Y-148139500D01*
X149898024Y-148139500D01*
X149797783Y-148158238D01*
X149697542Y-148176976D01*
X149507361Y-148250652D01*
X149333958Y-148358018D01*
X149183236Y-148495419D01*
X149060324Y-148658181D01*
X148969418Y-148840748D01*
X148913602Y-149036916D01*
X148894785Y-149240000D01*
X146050566Y-149240000D01*
X146085044Y-149156762D01*
X146105682Y-149000000D01*
X146085044Y-148843238D01*
X146024536Y-148697159D01*
X145994626Y-148658179D01*
X145928282Y-148571717D01*
X145802840Y-148475463D01*
X145656762Y-148414956D01*
X145500000Y-148394317D01*
X145343237Y-148414956D01*
X145197159Y-148475463D01*
X145071717Y-148571717D01*
X144975463Y-148697159D01*
X144914956Y-148843237D01*
X144894317Y-148999999D01*
X135835893Y-148999999D01*
X135790582Y-148840750D01*
X135719083Y-148697159D01*
X135699675Y-148658181D01*
X135576763Y-148495419D01*
X135426041Y-148358018D01*
X135252635Y-148250650D01*
X135241387Y-148246293D01*
X135185985Y-148203720D01*
X135162395Y-148137953D01*
X135178106Y-148069873D01*
X135228131Y-148021094D01*
X135245918Y-148013386D01*
X135324297Y-147986478D01*
X135528353Y-147876048D01*
X135558798Y-147852351D01*
X134901365Y-147194918D01*
X134905161Y-147194373D01*
X135038562Y-147133451D01*
X135149395Y-147037413D01*
X135228682Y-146914040D01*
X135251133Y-146837579D01*
X135911186Y-147497634D01*
X135995483Y-147368607D01*
X136088680Y-147156138D01*
X136145638Y-146931217D01*
X136164798Y-146700000D01*
X136164798Y-146699999D01*
X148894785Y-146699999D01*
X148913602Y-146903083D01*
X148969418Y-147099251D01*
X149060324Y-147281818D01*
X149183236Y-147444580D01*
X149333958Y-147581981D01*
X149507361Y-147689347D01*
X149507363Y-147689348D01*
X149697544Y-147763024D01*
X149898024Y-147800500D01*
X149898026Y-147800500D01*
X150101974Y-147800500D01*
X150101976Y-147800500D01*
X150302456Y-147763024D01*
X150492637Y-147689348D01*
X150666041Y-147581981D01*
X150758565Y-147497634D01*
X150816763Y-147444580D01*
X150939675Y-147281818D01*
X150985313Y-147190161D01*
X151030582Y-147099250D01*
X151058821Y-147000000D01*
X155644317Y-147000000D01*
X155664956Y-147156762D01*
X155725463Y-147302840D01*
X155821717Y-147428282D01*
X155947158Y-147524535D01*
X155947159Y-147524536D01*
X156093238Y-147585044D01*
X156250000Y-147605682D01*
X156406762Y-147585044D01*
X156552841Y-147524536D01*
X156678282Y-147428282D01*
X156774536Y-147302841D01*
X156835044Y-147156762D01*
X156855682Y-147000000D01*
X156835044Y-146843238D01*
X156774536Y-146697159D01*
X156678282Y-146571717D01*
X156552840Y-146475463D01*
X156406762Y-146414956D01*
X156250000Y-146394317D01*
X156093237Y-146414956D01*
X155947159Y-146475463D01*
X155821717Y-146571717D01*
X155725463Y-146697159D01*
X155664956Y-146843237D01*
X155644317Y-147000000D01*
X151058821Y-147000000D01*
X151086397Y-146903083D01*
X151105215Y-146700000D01*
X151086397Y-146496917D01*
X151083279Y-146485960D01*
X151031177Y-146302841D01*
X151030582Y-146300750D01*
X151013552Y-146266549D01*
X150939675Y-146118181D01*
X150816763Y-145955419D01*
X150666041Y-145818018D01*
X150492638Y-145710652D01*
X150302457Y-145636976D01*
X150235629Y-145624483D01*
X150101976Y-145599500D01*
X149898024Y-145599500D01*
X149797783Y-145618238D01*
X149697542Y-145636976D01*
X149507361Y-145710652D01*
X149333958Y-145818018D01*
X149183236Y-145955419D01*
X149060324Y-146118181D01*
X148969418Y-146300748D01*
X148913602Y-146496916D01*
X148894785Y-146699999D01*
X136164798Y-146699999D01*
X136145638Y-146468782D01*
X136088680Y-146243860D01*
X135995484Y-146031392D01*
X135911186Y-145902364D01*
X135251132Y-146562418D01*
X135228682Y-146485960D01*
X135149395Y-146362587D01*
X135038562Y-146266549D01*
X134905161Y-146205627D01*
X134901364Y-146205081D01*
X135558799Y-145547647D01*
X135528349Y-145523948D01*
X135324301Y-145413523D01*
X135245917Y-145386613D01*
X135188902Y-145346227D01*
X135162772Y-145281427D01*
X135175824Y-145212787D01*
X135223913Y-145162100D01*
X135241383Y-145153707D01*
X135252637Y-145149348D01*
X135426041Y-145041981D01*
X135576764Y-144904579D01*
X135699673Y-144741821D01*
X135699673Y-144741819D01*
X135699675Y-144741818D01*
X135780232Y-144580035D01*
X135790582Y-144559250D01*
X135846397Y-144363083D01*
X135865215Y-144160000D01*
X148894785Y-144160000D01*
X148913602Y-144363083D01*
X148969418Y-144559251D01*
X149060324Y-144741818D01*
X149183236Y-144904580D01*
X149333958Y-145041981D01*
X149507361Y-145149347D01*
X149507363Y-145149348D01*
X149697544Y-145223024D01*
X149898024Y-145260500D01*
X149898026Y-145260500D01*
X150101974Y-145260500D01*
X150101976Y-145260500D01*
X150302456Y-145223024D01*
X150492637Y-145149348D01*
X150666041Y-145041981D01*
X150816764Y-144904579D01*
X150939673Y-144741821D01*
X150939673Y-144741819D01*
X150939675Y-144741818D01*
X151020232Y-144580035D01*
X151030582Y-144559250D01*
X151086397Y-144363083D01*
X151105215Y-144160000D01*
X151086397Y-143956917D01*
X151030582Y-143760750D01*
X150998918Y-143697159D01*
X150939675Y-143578181D01*
X150816763Y-143415419D01*
X150666041Y-143278018D01*
X150492638Y-143170652D01*
X150302457Y-143096976D01*
X150206426Y-143079025D01*
X150101976Y-143059500D01*
X149898024Y-143059500D01*
X149797783Y-143078238D01*
X149697542Y-143096976D01*
X149507361Y-143170652D01*
X149333958Y-143278018D01*
X149183236Y-143415419D01*
X149060324Y-143578181D01*
X148969418Y-143760748D01*
X148913602Y-143956916D01*
X148894785Y-144160000D01*
X135865215Y-144160000D01*
X135846397Y-143956917D01*
X135790582Y-143760750D01*
X135758918Y-143697159D01*
X135699675Y-143578181D01*
X135576763Y-143415419D01*
X135426041Y-143278018D01*
X135252638Y-143170652D01*
X135062457Y-143096976D01*
X134966426Y-143079025D01*
X134861976Y-143059500D01*
X134658024Y-143059500D01*
X134557783Y-143078238D01*
X134457542Y-143096976D01*
X134267361Y-143170652D01*
X134093958Y-143278018D01*
X133943236Y-143415419D01*
X133820324Y-143578181D01*
X133729418Y-143760748D01*
X133673602Y-143956916D01*
X133654785Y-144160000D01*
X133673602Y-144363083D01*
X133729418Y-144559251D01*
X133820324Y-144741818D01*
X133943236Y-144904580D01*
X134093958Y-145041981D01*
X134176740Y-145093237D01*
X134267363Y-145149348D01*
X134278607Y-145153704D01*
X134278610Y-145153705D01*
X134334012Y-145196276D01*
X134357604Y-145262043D01*
X134341894Y-145330123D01*
X134291871Y-145378903D01*
X134274082Y-145386613D01*
X134195701Y-145413521D01*
X133991645Y-145523952D01*
X133961200Y-145547646D01*
X133961200Y-145547647D01*
X134618635Y-146205081D01*
X134614839Y-146205627D01*
X134481438Y-146266549D01*
X134370605Y-146362587D01*
X134291318Y-146485960D01*
X134268867Y-146562418D01*
X133608812Y-145902365D01*
X133524516Y-146031390D01*
X133431319Y-146243860D01*
X133374361Y-146468782D01*
X133355201Y-146700000D01*
X124025713Y-146700000D01*
X124024537Y-146697161D01*
X124024536Y-146697160D01*
X124024536Y-146697159D01*
X123931171Y-146575484D01*
X123905979Y-146510317D01*
X123920017Y-146441873D01*
X123931167Y-146424521D01*
X124024536Y-146302841D01*
X124085044Y-146156762D01*
X124105682Y-146000000D01*
X124100148Y-145957972D01*
X124110914Y-145888937D01*
X124157294Y-145836681D01*
X124175636Y-145827226D01*
X124197866Y-145818018D01*
X124302841Y-145774536D01*
X124428282Y-145678282D01*
X124524536Y-145552841D01*
X124585044Y-145406762D01*
X124605682Y-145250000D01*
X124585044Y-145093238D01*
X124524536Y-144947159D01*
X124491864Y-144904580D01*
X124428282Y-144821717D01*
X124302840Y-144725463D01*
X124156762Y-144664956D01*
X124000000Y-144644317D01*
X123843237Y-144664956D01*
X123697159Y-144725463D01*
X123571717Y-144821717D01*
X123475463Y-144947159D01*
X123414956Y-145093237D01*
X123394317Y-145250001D01*
X123399850Y-145292028D01*
X123389084Y-145361063D01*
X123342703Y-145413319D01*
X123324364Y-145422773D01*
X123197158Y-145475463D01*
X123071717Y-145571717D01*
X122975463Y-145697159D01*
X122914956Y-145843237D01*
X122894317Y-145999999D01*
X122914956Y-146156762D01*
X122975463Y-146302840D01*
X123068826Y-146424514D01*
X123094020Y-146489683D01*
X123079981Y-146558128D01*
X123068826Y-146575486D01*
X122975463Y-146697159D01*
X122914956Y-146843237D01*
X122894317Y-146999999D01*
X80500000Y-146999999D01*
X80500000Y-145500000D01*
X78000000Y-143000000D01*
X70624000Y-143000000D01*
X70556961Y-142980315D01*
X70511206Y-142927511D01*
X70500000Y-142876000D01*
X70500000Y-142580000D01*
X114494659Y-142580000D01*
X114501798Y-142652480D01*
X114513976Y-142776133D01*
X114571185Y-142964726D01*
X114632280Y-143079026D01*
X114664090Y-143138538D01*
X114789117Y-143290883D01*
X114941462Y-143415910D01*
X115115273Y-143508814D01*
X115303868Y-143566024D01*
X115500000Y-143585341D01*
X115696132Y-143566024D01*
X115884727Y-143508814D01*
X115901217Y-143500000D01*
X124894317Y-143500000D01*
X124914956Y-143656762D01*
X124975463Y-143802840D01*
X125071717Y-143928282D01*
X125165183Y-144000000D01*
X125197159Y-144024536D01*
X125343238Y-144085044D01*
X125500000Y-144105682D01*
X125656762Y-144085044D01*
X125743352Y-144049176D01*
X125812821Y-144041708D01*
X125875300Y-144072983D01*
X125910952Y-144133072D01*
X125913743Y-144147549D01*
X125914956Y-144156762D01*
X125975463Y-144302840D01*
X126071717Y-144428282D01*
X126197159Y-144524536D01*
X126331145Y-144580035D01*
X126385549Y-144623876D01*
X126407614Y-144690170D01*
X126390335Y-144757869D01*
X126359180Y-144792971D01*
X126321718Y-144821716D01*
X126225463Y-144947159D01*
X126164956Y-145093237D01*
X126144317Y-145249999D01*
X126164956Y-145406762D01*
X126225463Y-145552840D01*
X126321717Y-145678282D01*
X126447158Y-145774536D01*
X126447159Y-145774536D01*
X126593238Y-145835044D01*
X126750000Y-145855682D01*
X126906762Y-145835044D01*
X127052841Y-145774536D01*
X127178282Y-145678282D01*
X127274536Y-145552841D01*
X127335044Y-145406762D01*
X127355682Y-145250000D01*
X127335044Y-145093238D01*
X127274536Y-144947159D01*
X127241864Y-144904580D01*
X127178282Y-144821717D01*
X127052841Y-144725464D01*
X126918853Y-144669964D01*
X126864450Y-144626123D01*
X126842385Y-144559829D01*
X126859664Y-144492129D01*
X126890818Y-144457028D01*
X126928282Y-144428282D01*
X127024536Y-144302841D01*
X127085044Y-144156762D01*
X127105682Y-144000000D01*
X127085044Y-143843238D01*
X127024536Y-143697159D01*
X126931171Y-143575484D01*
X126905979Y-143510317D01*
X126920017Y-143441873D01*
X126931167Y-143424521D01*
X127024536Y-143302841D01*
X127085044Y-143156762D01*
X127105682Y-143000000D01*
X127085044Y-142843238D01*
X127024536Y-142697159D01*
X126990253Y-142652480D01*
X126928282Y-142571717D01*
X126802840Y-142475463D01*
X126656762Y-142414956D01*
X126499999Y-142394317D01*
X126343237Y-142414956D01*
X126197159Y-142475463D01*
X126071717Y-142571717D01*
X125975463Y-142697159D01*
X125914956Y-142843237D01*
X125913743Y-142852451D01*
X125885474Y-142916346D01*
X125827148Y-142954815D01*
X125757283Y-142955644D01*
X125743352Y-142950822D01*
X125656762Y-142914956D01*
X125500000Y-142894317D01*
X125343237Y-142914956D01*
X125197159Y-142975463D01*
X125071717Y-143071717D01*
X124975463Y-143197159D01*
X124914956Y-143343237D01*
X124894317Y-143500000D01*
X115901217Y-143500000D01*
X116058538Y-143415910D01*
X116210883Y-143290883D01*
X116335910Y-143138538D01*
X116428814Y-142964727D01*
X116472793Y-142819748D01*
X119499500Y-142819748D01*
X119511132Y-142878230D01*
X119555447Y-142944552D01*
X119621769Y-142988867D01*
X119680251Y-143000500D01*
X119680252Y-143000500D01*
X121319749Y-143000500D01*
X121348989Y-142994683D01*
X121378231Y-142988867D01*
X121444552Y-142944552D01*
X121488867Y-142878231D01*
X121500500Y-142819748D01*
X121500500Y-142368479D01*
X121520185Y-142301441D01*
X121572989Y-142255686D01*
X121642147Y-142245742D01*
X121705703Y-142274767D01*
X121743477Y-142333545D01*
X121744275Y-142336386D01*
X121773733Y-142446326D01*
X121869866Y-142652484D01*
X121920972Y-142725471D01*
X121920974Y-142725472D01*
X122602046Y-142044399D01*
X122614835Y-142125148D01*
X122672359Y-142238045D01*
X122761955Y-142327641D01*
X122874852Y-142385165D01*
X122955599Y-142397953D01*
X122274526Y-143079025D01*
X122274526Y-143079026D01*
X122347515Y-143130133D01*
X122553673Y-143226266D01*
X122773397Y-143285141D01*
X122999999Y-143304966D01*
X123226602Y-143285141D01*
X123446326Y-143226266D01*
X123652480Y-143130134D01*
X123725472Y-143079025D01*
X123044401Y-142397953D01*
X123125148Y-142385165D01*
X123238045Y-142327641D01*
X123327641Y-142238045D01*
X123385165Y-142125148D01*
X123397953Y-142044400D01*
X124079025Y-142725472D01*
X124130134Y-142652480D01*
X124226266Y-142446326D01*
X124285141Y-142226602D01*
X124304966Y-142000000D01*
X124285141Y-141773397D01*
X124244038Y-141619999D01*
X133654785Y-141619999D01*
X133673602Y-141823083D01*
X133729418Y-142019251D01*
X133820324Y-142201818D01*
X133943236Y-142364580D01*
X134093958Y-142501981D01*
X134219964Y-142580000D01*
X134267363Y-142609348D01*
X134457544Y-142683024D01*
X134658024Y-142720500D01*
X134658026Y-142720500D01*
X134861974Y-142720500D01*
X134861976Y-142720500D01*
X135062456Y-142683024D01*
X135252637Y-142609348D01*
X135426041Y-142501981D01*
X135576764Y-142364579D01*
X135699673Y-142201821D01*
X135699673Y-142201819D01*
X135699675Y-142201818D01*
X135757821Y-142085043D01*
X135790582Y-142019250D01*
X135846397Y-141823083D01*
X135865215Y-141620000D01*
X148894785Y-141620000D01*
X148913602Y-141823083D01*
X148969418Y-142019251D01*
X149060324Y-142201818D01*
X149183236Y-142364580D01*
X149333958Y-142501981D01*
X149459964Y-142580000D01*
X149507363Y-142609348D01*
X149697544Y-142683024D01*
X149898024Y-142720500D01*
X149898026Y-142720500D01*
X150101974Y-142720500D01*
X150101976Y-142720500D01*
X150302456Y-142683024D01*
X150492637Y-142609348D01*
X150666041Y-142501981D01*
X150816764Y-142364579D01*
X150939673Y-142201821D01*
X150939673Y-142201819D01*
X150939675Y-142201818D01*
X150997821Y-142085043D01*
X151030582Y-142019250D01*
X151086397Y-141823083D01*
X151105215Y-141620000D01*
X151094096Y-141500000D01*
X153894317Y-141500000D01*
X153914956Y-141656762D01*
X153975463Y-141802840D01*
X154071717Y-141928282D01*
X154165183Y-142000000D01*
X154197159Y-142024536D01*
X154343238Y-142085044D01*
X154500000Y-142105682D01*
X154656762Y-142085044D01*
X154802841Y-142024536D01*
X154928282Y-141928282D01*
X155024536Y-141802841D01*
X155085044Y-141656762D01*
X155105682Y-141500000D01*
X155085044Y-141343238D01*
X155024536Y-141197159D01*
X155011562Y-141180251D01*
X154928282Y-141071717D01*
X154802840Y-140975463D01*
X154656762Y-140914956D01*
X154500000Y-140894317D01*
X154343237Y-140914956D01*
X154197159Y-140975463D01*
X154071717Y-141071717D01*
X153975463Y-141197159D01*
X153914956Y-141343237D01*
X153894317Y-141500000D01*
X151094096Y-141500000D01*
X151086397Y-141416917D01*
X151066650Y-141347516D01*
X151030581Y-141220748D01*
X150939675Y-141038181D01*
X150816763Y-140875419D01*
X150666041Y-140738018D01*
X150492638Y-140630652D01*
X150302457Y-140556976D01*
X150235629Y-140544483D01*
X150101976Y-140519500D01*
X149898024Y-140519500D01*
X149797783Y-140538238D01*
X149697542Y-140556976D01*
X149507361Y-140630652D01*
X149333958Y-140738018D01*
X149183236Y-140875419D01*
X149060324Y-141038181D01*
X148969418Y-141220748D01*
X148913602Y-141416916D01*
X148894785Y-141620000D01*
X135865215Y-141620000D01*
X135846397Y-141416917D01*
X135826650Y-141347516D01*
X135790581Y-141220748D01*
X135699675Y-141038181D01*
X135576763Y-140875419D01*
X135426041Y-140738018D01*
X135252638Y-140630652D01*
X135062457Y-140556976D01*
X134995629Y-140544483D01*
X134861976Y-140519500D01*
X134658024Y-140519500D01*
X134557783Y-140538238D01*
X134457542Y-140556976D01*
X134267361Y-140630652D01*
X134093958Y-140738018D01*
X133943236Y-140875419D01*
X133820324Y-141038181D01*
X133729418Y-141220748D01*
X133673602Y-141416916D01*
X133654785Y-141619999D01*
X124244038Y-141619999D01*
X124226266Y-141553673D01*
X124130133Y-141347515D01*
X124079025Y-141274526D01*
X123397953Y-141955598D01*
X123385165Y-141874852D01*
X123327641Y-141761955D01*
X123238045Y-141672359D01*
X123125148Y-141614835D01*
X123044400Y-141602046D01*
X123725472Y-140920974D01*
X123725471Y-140920972D01*
X123652484Y-140869866D01*
X123446326Y-140773733D01*
X123226602Y-140714858D01*
X123000000Y-140695033D01*
X122773397Y-140714858D01*
X122553672Y-140773733D01*
X122347516Y-140869865D01*
X122274527Y-140920973D01*
X122274526Y-140920973D01*
X122955600Y-141602046D01*
X122874852Y-141614835D01*
X122761955Y-141672359D01*
X122672359Y-141761955D01*
X122614835Y-141874852D01*
X122602046Y-141955599D01*
X121920973Y-141274526D01*
X121920973Y-141274527D01*
X121869865Y-141347516D01*
X121773733Y-141553673D01*
X121744275Y-141663613D01*
X121707910Y-141723273D01*
X121645063Y-141753802D01*
X121575687Y-141745507D01*
X121521809Y-141701022D01*
X121500535Y-141634470D01*
X121500500Y-141631519D01*
X121500500Y-141180251D01*
X121488867Y-141121769D01*
X121444552Y-141055447D01*
X121378230Y-141011132D01*
X121319749Y-140999500D01*
X121319748Y-140999500D01*
X119680252Y-140999500D01*
X119680251Y-140999500D01*
X119621769Y-141011132D01*
X119555447Y-141055447D01*
X119511132Y-141121769D01*
X119499500Y-141180251D01*
X119499500Y-142819748D01*
X116472793Y-142819748D01*
X116486024Y-142776132D01*
X116505341Y-142580000D01*
X116486024Y-142383868D01*
X116428814Y-142195273D01*
X116335910Y-142021462D01*
X116210883Y-141869117D01*
X116058538Y-141744090D01*
X115977964Y-141701022D01*
X115884726Y-141651185D01*
X115696133Y-141593976D01*
X115500000Y-141574659D01*
X115303866Y-141593976D01*
X115115273Y-141651185D01*
X114941463Y-141744089D01*
X114789117Y-141869117D01*
X114664089Y-142021463D01*
X114571185Y-142195273D01*
X114513976Y-142383866D01*
X114504955Y-142475463D01*
X114494659Y-142580000D01*
X70500000Y-142580000D01*
X70500000Y-138999999D01*
X84245921Y-138999999D01*
X84264973Y-139217764D01*
X84321552Y-139428919D01*
X84413935Y-139627036D01*
X84457371Y-139689069D01*
X85020703Y-139125736D01*
X85044821Y-139207871D01*
X85121822Y-139327688D01*
X85229461Y-139420957D01*
X85359017Y-139480124D01*
X85371611Y-139481934D01*
X84810923Y-140042621D01*
X84810924Y-140042622D01*
X84872957Y-140086058D01*
X85071074Y-140178441D01*
X85282229Y-140235020D01*
X85499994Y-140254072D01*
X85717758Y-140235020D01*
X85928913Y-140178441D01*
X86127030Y-140086057D01*
X86189063Y-140042621D01*
X85628376Y-139481934D01*
X85640971Y-139480124D01*
X85770527Y-139420957D01*
X85878166Y-139327688D01*
X85955167Y-139207871D01*
X85979284Y-139125737D01*
X86542615Y-139689069D01*
X86586051Y-139627036D01*
X86678435Y-139428919D01*
X86735014Y-139217764D01*
X86754066Y-139000000D01*
X91545599Y-139000000D01*
X91563936Y-139186190D01*
X91563937Y-139186193D01*
X91614705Y-139353553D01*
X91618249Y-139365234D01*
X91706444Y-139530234D01*
X91825134Y-139674860D01*
X91943824Y-139772265D01*
X91969761Y-139793551D01*
X92134763Y-139881747D01*
X92313802Y-139936058D01*
X92499995Y-139954396D01*
X92686188Y-139936058D01*
X92865227Y-139881747D01*
X93030229Y-139793551D01*
X93174855Y-139674860D01*
X93293546Y-139530234D01*
X93381742Y-139365232D01*
X93436053Y-139186193D01*
X93454391Y-139000000D01*
X98245923Y-139000000D01*
X98264975Y-139217764D01*
X98321554Y-139428919D01*
X98413937Y-139627036D01*
X98457373Y-139689069D01*
X99020705Y-139125736D01*
X99044823Y-139207871D01*
X99121824Y-139327688D01*
X99229463Y-139420957D01*
X99359019Y-139480124D01*
X99371613Y-139481934D01*
X98810925Y-140042621D01*
X98810926Y-140042622D01*
X98872959Y-140086058D01*
X99071076Y-140178441D01*
X99282231Y-140235020D01*
X99499996Y-140254072D01*
X99717760Y-140235020D01*
X99928915Y-140178441D01*
X100127032Y-140086057D01*
X100189065Y-140042621D01*
X99628378Y-139481934D01*
X99640973Y-139480124D01*
X99770529Y-139420957D01*
X99878168Y-139327688D01*
X99955169Y-139207871D01*
X99979286Y-139125737D01*
X100542617Y-139689069D01*
X100586053Y-139627036D01*
X100678437Y-139428919D01*
X100735016Y-139217764D01*
X100754068Y-139000000D01*
X105545604Y-139000000D01*
X105563941Y-139186190D01*
X105563942Y-139186193D01*
X105614710Y-139353553D01*
X105618254Y-139365234D01*
X105706449Y-139530234D01*
X105825139Y-139674860D01*
X105943830Y-139772265D01*
X105969766Y-139793551D01*
X106134768Y-139881747D01*
X106313807Y-139936058D01*
X106500000Y-139954396D01*
X106686193Y-139936058D01*
X106865232Y-139881747D01*
X107030234Y-139793551D01*
X107174860Y-139674860D01*
X107293551Y-139530234D01*
X107381747Y-139365232D01*
X107436058Y-139186193D01*
X107446517Y-139080000D01*
X133654785Y-139080000D01*
X133673602Y-139283083D01*
X133729418Y-139479251D01*
X133820324Y-139661818D01*
X133943236Y-139824580D01*
X134093958Y-139961981D01*
X134267361Y-140069347D01*
X134267363Y-140069348D01*
X134457544Y-140143024D01*
X134658024Y-140180500D01*
X134658026Y-140180500D01*
X134861974Y-140180500D01*
X134861976Y-140180500D01*
X135062456Y-140143024D01*
X135252637Y-140069348D01*
X135426041Y-139961981D01*
X135576764Y-139824579D01*
X135699673Y-139661821D01*
X135699673Y-139661819D01*
X135699675Y-139661818D01*
X135782590Y-139495300D01*
X135790582Y-139479250D01*
X135846397Y-139283083D01*
X135865215Y-139080000D01*
X135865215Y-139079999D01*
X148894785Y-139079999D01*
X148913602Y-139283083D01*
X148969418Y-139479251D01*
X149060324Y-139661818D01*
X149183236Y-139824580D01*
X149333958Y-139961981D01*
X149507361Y-140069347D01*
X149507363Y-140069348D01*
X149697544Y-140143024D01*
X149898024Y-140180500D01*
X149898026Y-140180500D01*
X150101974Y-140180500D01*
X150101976Y-140180500D01*
X150302456Y-140143024D01*
X150492637Y-140069348D01*
X150666041Y-139961981D01*
X150816764Y-139824579D01*
X150939673Y-139661821D01*
X150939673Y-139661819D01*
X150939675Y-139661818D01*
X151022590Y-139495300D01*
X151030582Y-139479250D01*
X151086397Y-139283083D01*
X151105215Y-139080000D01*
X151086397Y-138876917D01*
X151030582Y-138680750D01*
X151007686Y-138634768D01*
X150939675Y-138498181D01*
X150816763Y-138335419D01*
X150666041Y-138198018D01*
X150492638Y-138090652D01*
X150302457Y-138016976D01*
X150235629Y-138004483D01*
X150101976Y-137979500D01*
X149898024Y-137979500D01*
X149797783Y-137998238D01*
X149697542Y-138016976D01*
X149507361Y-138090652D01*
X149333958Y-138198018D01*
X149183236Y-138335419D01*
X149060324Y-138498181D01*
X148969418Y-138680748D01*
X148913602Y-138876916D01*
X148894785Y-139079999D01*
X135865215Y-139079999D01*
X135846397Y-138876917D01*
X135790582Y-138680750D01*
X135767686Y-138634768D01*
X135699675Y-138498181D01*
X135576763Y-138335419D01*
X135426041Y-138198018D01*
X135252638Y-138090652D01*
X135062457Y-138016976D01*
X134995629Y-138004483D01*
X134861976Y-137979500D01*
X134658024Y-137979500D01*
X134557783Y-137998238D01*
X134457542Y-138016976D01*
X134267361Y-138090652D01*
X134093958Y-138198018D01*
X133943236Y-138335419D01*
X133820324Y-138498181D01*
X133729418Y-138680748D01*
X133673602Y-138876916D01*
X133654785Y-139080000D01*
X107446517Y-139080000D01*
X107454396Y-139000000D01*
X107436058Y-138813807D01*
X107381747Y-138634768D01*
X107293551Y-138469766D01*
X107214108Y-138372964D01*
X107174860Y-138325139D01*
X107030234Y-138206449D01*
X106865234Y-138118254D01*
X106865233Y-138118253D01*
X106865232Y-138118253D01*
X106686193Y-138063942D01*
X106686190Y-138063941D01*
X106500000Y-138045604D01*
X106313809Y-138063941D01*
X106134765Y-138118254D01*
X105969765Y-138206449D01*
X105825139Y-138325139D01*
X105706449Y-138469765D01*
X105618254Y-138634765D01*
X105563941Y-138813809D01*
X105545604Y-139000000D01*
X100754068Y-139000000D01*
X100735016Y-138782235D01*
X100678437Y-138571080D01*
X100586054Y-138372963D01*
X100542618Y-138310930D01*
X100542617Y-138310929D01*
X99979285Y-138874261D01*
X99955169Y-138792129D01*
X99878168Y-138672312D01*
X99770529Y-138579043D01*
X99640973Y-138519876D01*
X99628376Y-138518065D01*
X100189065Y-137957377D01*
X100127032Y-137913941D01*
X99928915Y-137821558D01*
X99717760Y-137764979D01*
X99499995Y-137745927D01*
X99282231Y-137764979D01*
X99071076Y-137821558D01*
X98872960Y-137913941D01*
X98810925Y-137957377D01*
X99371612Y-138518065D01*
X99359019Y-138519876D01*
X99229463Y-138579043D01*
X99121824Y-138672312D01*
X99044823Y-138792129D01*
X99020705Y-138874262D01*
X98457373Y-138310930D01*
X98413937Y-138372964D01*
X98321554Y-138571080D01*
X98264975Y-138782235D01*
X98245923Y-139000000D01*
X93454391Y-139000000D01*
X93436053Y-138813807D01*
X93381742Y-138634768D01*
X93293546Y-138469766D01*
X93214103Y-138372964D01*
X93174855Y-138325139D01*
X93030229Y-138206449D01*
X92865229Y-138118254D01*
X92865228Y-138118253D01*
X92865227Y-138118253D01*
X92686188Y-138063942D01*
X92686185Y-138063941D01*
X92499995Y-138045604D01*
X92313804Y-138063941D01*
X92134760Y-138118254D01*
X91969760Y-138206449D01*
X91825134Y-138325139D01*
X91706444Y-138469765D01*
X91618249Y-138634765D01*
X91563936Y-138813809D01*
X91545599Y-139000000D01*
X86754066Y-139000000D01*
X86735014Y-138782235D01*
X86678435Y-138571080D01*
X86586052Y-138372963D01*
X86542616Y-138310930D01*
X86542615Y-138310929D01*
X85979283Y-138874261D01*
X85955167Y-138792129D01*
X85878166Y-138672312D01*
X85770527Y-138579043D01*
X85640971Y-138519876D01*
X85628374Y-138518065D01*
X86189063Y-137957377D01*
X86127030Y-137913941D01*
X85928913Y-137821558D01*
X85717758Y-137764979D01*
X85499993Y-137745927D01*
X85282229Y-137764979D01*
X85071074Y-137821558D01*
X84872958Y-137913941D01*
X84810923Y-137957377D01*
X85371610Y-138518065D01*
X85359017Y-138519876D01*
X85229461Y-138579043D01*
X85121822Y-138672312D01*
X85044821Y-138792129D01*
X85020703Y-138874262D01*
X84457371Y-138310930D01*
X84413935Y-138372964D01*
X84321552Y-138571080D01*
X84264973Y-138782235D01*
X84245921Y-138999999D01*
X70500000Y-138999999D01*
X70500000Y-136539999D01*
X133654785Y-136539999D01*
X133673602Y-136743083D01*
X133729418Y-136939251D01*
X133820324Y-137121818D01*
X133943236Y-137284580D01*
X134093958Y-137421981D01*
X134104135Y-137428282D01*
X134267363Y-137529348D01*
X134457544Y-137603024D01*
X134658024Y-137640500D01*
X134658026Y-137640500D01*
X134861974Y-137640500D01*
X134861976Y-137640500D01*
X135062456Y-137603024D01*
X135252637Y-137529348D01*
X135426041Y-137421981D01*
X135576764Y-137284579D01*
X135699673Y-137121821D01*
X135699673Y-137121819D01*
X135699675Y-137121818D01*
X135760332Y-137000000D01*
X136394317Y-137000000D01*
X136414956Y-137156762D01*
X136475463Y-137302840D01*
X136571717Y-137428282D01*
X136697159Y-137524535D01*
X136697159Y-137524536D01*
X136843238Y-137585044D01*
X137000000Y-137605682D01*
X137156762Y-137585044D01*
X137302841Y-137524536D01*
X137428282Y-137428282D01*
X137524536Y-137302841D01*
X137585044Y-137156762D01*
X137605682Y-137000000D01*
X137585044Y-136843238D01*
X137524536Y-136697159D01*
X137524535Y-136697159D01*
X137428282Y-136571717D01*
X137386946Y-136539999D01*
X148894785Y-136539999D01*
X148913602Y-136743083D01*
X148969418Y-136939251D01*
X149060324Y-137121818D01*
X149183236Y-137284580D01*
X149333958Y-137421981D01*
X149344135Y-137428282D01*
X149507363Y-137529348D01*
X149697544Y-137603024D01*
X149898024Y-137640500D01*
X149898026Y-137640500D01*
X150101974Y-137640500D01*
X150101976Y-137640500D01*
X150302456Y-137603024D01*
X150492637Y-137529348D01*
X150666041Y-137421981D01*
X150816764Y-137284579D01*
X150939673Y-137121821D01*
X150939673Y-137121819D01*
X150939675Y-137121818D01*
X151000332Y-137000000D01*
X151030582Y-136939250D01*
X151086397Y-136743083D01*
X151105215Y-136540000D01*
X151086397Y-136336917D01*
X151030582Y-136140750D01*
X151030209Y-136140001D01*
X150939675Y-135958181D01*
X150816763Y-135795419D01*
X150666041Y-135658018D01*
X150492638Y-135550652D01*
X150302457Y-135476976D01*
X150235629Y-135464483D01*
X150101976Y-135439500D01*
X149898024Y-135439500D01*
X149797783Y-135458238D01*
X149697542Y-135476976D01*
X149507361Y-135550652D01*
X149333958Y-135658018D01*
X149183236Y-135795419D01*
X149060324Y-135958181D01*
X148969418Y-136140748D01*
X148913602Y-136336916D01*
X148894785Y-136539999D01*
X137386946Y-136539999D01*
X137302840Y-136475463D01*
X137156762Y-136414956D01*
X137000000Y-136394317D01*
X136843237Y-136414956D01*
X136697159Y-136475463D01*
X136571717Y-136571717D01*
X136475463Y-136697159D01*
X136414956Y-136843237D01*
X136394317Y-137000000D01*
X135760332Y-137000000D01*
X135790582Y-136939250D01*
X135846397Y-136743083D01*
X135865215Y-136540000D01*
X135846397Y-136336917D01*
X135790582Y-136140750D01*
X135790209Y-136140001D01*
X135699675Y-135958181D01*
X135576763Y-135795419D01*
X135426041Y-135658018D01*
X135252638Y-135550652D01*
X135062457Y-135476976D01*
X134995629Y-135464483D01*
X134861976Y-135439500D01*
X134658024Y-135439500D01*
X134557783Y-135458238D01*
X134457542Y-135476976D01*
X134267361Y-135550652D01*
X134093958Y-135658018D01*
X133943236Y-135795419D01*
X133820324Y-135958181D01*
X133729418Y-136140748D01*
X133673602Y-136336916D01*
X133654785Y-136539999D01*
X70500000Y-136539999D01*
X70500000Y-134000000D01*
X88045599Y-134000000D01*
X88063936Y-134186190D01*
X88118249Y-134365234D01*
X88206444Y-134530234D01*
X88325134Y-134674860D01*
X88410088Y-134744579D01*
X88469761Y-134793551D01*
X88634763Y-134881747D01*
X88813802Y-134936058D01*
X88999995Y-134954396D01*
X89186188Y-134936058D01*
X89365227Y-134881747D01*
X89530229Y-134793551D01*
X89674855Y-134674860D01*
X89793546Y-134530234D01*
X89881742Y-134365232D01*
X89936053Y-134186193D01*
X89954391Y-134000000D01*
X95045600Y-134000000D01*
X95063937Y-134186190D01*
X95118250Y-134365234D01*
X95206445Y-134530234D01*
X95325135Y-134674860D01*
X95410089Y-134744579D01*
X95469762Y-134793551D01*
X95634764Y-134881747D01*
X95813803Y-134936058D01*
X95999996Y-134954396D01*
X96186189Y-134936058D01*
X96365228Y-134881747D01*
X96530230Y-134793551D01*
X96674856Y-134674860D01*
X96793547Y-134530234D01*
X96881743Y-134365232D01*
X96936054Y-134186193D01*
X96954392Y-134000000D01*
X102045601Y-134000000D01*
X102063938Y-134186190D01*
X102118251Y-134365234D01*
X102206446Y-134530234D01*
X102325136Y-134674860D01*
X102410090Y-134744579D01*
X102469763Y-134793551D01*
X102634765Y-134881747D01*
X102813804Y-134936058D01*
X102999997Y-134954396D01*
X103186190Y-134936058D01*
X103365229Y-134881747D01*
X103530231Y-134793551D01*
X103674857Y-134674860D01*
X103793548Y-134530234D01*
X103881744Y-134365232D01*
X103936055Y-134186193D01*
X103954393Y-134000000D01*
X109045605Y-134000000D01*
X109063942Y-134186190D01*
X109118255Y-134365234D01*
X109206450Y-134530234D01*
X109325140Y-134674860D01*
X109410094Y-134744579D01*
X109469767Y-134793551D01*
X109634769Y-134881747D01*
X109813808Y-134936058D01*
X110000001Y-134954396D01*
X110186194Y-134936058D01*
X110365233Y-134881747D01*
X110530235Y-134793551D01*
X110674861Y-134674860D01*
X110793552Y-134530234D01*
X110881748Y-134365232D01*
X110895545Y-134319748D01*
X119499500Y-134319748D01*
X119511132Y-134378230D01*
X119555447Y-134444552D01*
X119621769Y-134488867D01*
X119680251Y-134500500D01*
X119680252Y-134500500D01*
X121319749Y-134500500D01*
X121348989Y-134494683D01*
X121378231Y-134488867D01*
X121444552Y-134444552D01*
X121488867Y-134378231D01*
X121500500Y-134319748D01*
X121500500Y-133868479D01*
X121520185Y-133801441D01*
X121572989Y-133755686D01*
X121642147Y-133745742D01*
X121705703Y-133774767D01*
X121743477Y-133833545D01*
X121744275Y-133836386D01*
X121773733Y-133946326D01*
X121869866Y-134152484D01*
X121920972Y-134225471D01*
X121920974Y-134225472D01*
X122602046Y-133544399D01*
X122614835Y-133625148D01*
X122672359Y-133738045D01*
X122761955Y-133827641D01*
X122874852Y-133885165D01*
X122955599Y-133897953D01*
X122274526Y-134579025D01*
X122274526Y-134579026D01*
X122347515Y-134630133D01*
X122553673Y-134726266D01*
X122773397Y-134785141D01*
X123000000Y-134804966D01*
X123226602Y-134785141D01*
X123446326Y-134726266D01*
X123652480Y-134630134D01*
X123725472Y-134579025D01*
X123044401Y-133897953D01*
X123125148Y-133885165D01*
X123238045Y-133827641D01*
X123327641Y-133738045D01*
X123385165Y-133625148D01*
X123397953Y-133544400D01*
X124079025Y-134225472D01*
X124130134Y-134152480D01*
X124201237Y-134000000D01*
X133654785Y-134000000D01*
X133673602Y-134203083D01*
X133729418Y-134399251D01*
X133820324Y-134581818D01*
X133943236Y-134744580D01*
X134093958Y-134881981D01*
X134210913Y-134954396D01*
X134267363Y-134989348D01*
X134457544Y-135063024D01*
X134658024Y-135100500D01*
X134658026Y-135100500D01*
X134861974Y-135100500D01*
X134861976Y-135100500D01*
X135062456Y-135063024D01*
X135252637Y-134989348D01*
X135426041Y-134881981D01*
X135576764Y-134744579D01*
X135699673Y-134581821D01*
X135699673Y-134581819D01*
X135699675Y-134581818D01*
X135768024Y-134444552D01*
X135790582Y-134399250D01*
X135846397Y-134203083D01*
X135865215Y-134000000D01*
X148894785Y-134000000D01*
X148913602Y-134203083D01*
X148969418Y-134399251D01*
X149060324Y-134581818D01*
X149183236Y-134744580D01*
X149333958Y-134881981D01*
X149450913Y-134954396D01*
X149507363Y-134989348D01*
X149697544Y-135063024D01*
X149898024Y-135100500D01*
X149898026Y-135100500D01*
X150101974Y-135100500D01*
X150101976Y-135100500D01*
X150302456Y-135063024D01*
X150492637Y-134989348D01*
X150666041Y-134881981D01*
X150816764Y-134744579D01*
X150939673Y-134581821D01*
X150939673Y-134581819D01*
X150939675Y-134581818D01*
X151008024Y-134444552D01*
X151030582Y-134399250D01*
X151086397Y-134203083D01*
X151105215Y-134000000D01*
X151086397Y-133796917D01*
X151030582Y-133600750D01*
X150980415Y-133500000D01*
X150939675Y-133418181D01*
X150816763Y-133255419D01*
X150666041Y-133118018D01*
X150492638Y-133010652D01*
X150302457Y-132936976D01*
X150235629Y-132924483D01*
X150101976Y-132899500D01*
X149898024Y-132899500D01*
X149797783Y-132918238D01*
X149697542Y-132936976D01*
X149507361Y-133010652D01*
X149333958Y-133118018D01*
X149183236Y-133255419D01*
X149060324Y-133418181D01*
X148969418Y-133600748D01*
X148913602Y-133796916D01*
X148894785Y-134000000D01*
X135865215Y-134000000D01*
X135846397Y-133796917D01*
X135790582Y-133600750D01*
X135740415Y-133500000D01*
X135699675Y-133418181D01*
X135576763Y-133255419D01*
X135426041Y-133118018D01*
X135252638Y-133010652D01*
X135062457Y-132936976D01*
X134995629Y-132924483D01*
X134861976Y-132899500D01*
X134658024Y-132899500D01*
X134557783Y-132918238D01*
X134457542Y-132936976D01*
X134267361Y-133010652D01*
X134093958Y-133118018D01*
X133943236Y-133255419D01*
X133820324Y-133418181D01*
X133729418Y-133600748D01*
X133673602Y-133796916D01*
X133654785Y-134000000D01*
X124201237Y-134000000D01*
X124226266Y-133946326D01*
X124285141Y-133726602D01*
X124304966Y-133500000D01*
X124285141Y-133273397D01*
X124226266Y-133053673D01*
X124130133Y-132847515D01*
X124079025Y-132774526D01*
X123397953Y-133455598D01*
X123385165Y-133374852D01*
X123327641Y-133261955D01*
X123238045Y-133172359D01*
X123125148Y-133114835D01*
X123044400Y-133102046D01*
X123725472Y-132420974D01*
X123725471Y-132420972D01*
X123652484Y-132369866D01*
X123446326Y-132273733D01*
X123226602Y-132214858D01*
X123000000Y-132195033D01*
X122773397Y-132214858D01*
X122553672Y-132273733D01*
X122347516Y-132369865D01*
X122274527Y-132420973D01*
X122274526Y-132420973D01*
X122955600Y-133102046D01*
X122874852Y-133114835D01*
X122761955Y-133172359D01*
X122672359Y-133261955D01*
X122614835Y-133374852D01*
X122602046Y-133455599D01*
X121920973Y-132774526D01*
X121920973Y-132774527D01*
X121869865Y-132847516D01*
X121773733Y-133053673D01*
X121744275Y-133163613D01*
X121707910Y-133223273D01*
X121645063Y-133253802D01*
X121575687Y-133245507D01*
X121521809Y-133201022D01*
X121500535Y-133134470D01*
X121500500Y-133131519D01*
X121500500Y-132680251D01*
X121488867Y-132621769D01*
X121444552Y-132555447D01*
X121378230Y-132511132D01*
X121319749Y-132499500D01*
X121319748Y-132499500D01*
X119680252Y-132499500D01*
X119680251Y-132499500D01*
X119621769Y-132511132D01*
X119555447Y-132555447D01*
X119511132Y-132621769D01*
X119499500Y-132680251D01*
X119499500Y-134319748D01*
X110895545Y-134319748D01*
X110936059Y-134186193D01*
X110954397Y-134000000D01*
X110936059Y-133813807D01*
X110881748Y-133634768D01*
X110793552Y-133469766D01*
X110772266Y-133443830D01*
X110674861Y-133325139D01*
X110530235Y-133206449D01*
X110365235Y-133118254D01*
X110365234Y-133118253D01*
X110365233Y-133118253D01*
X110186194Y-133063942D01*
X110186191Y-133063941D01*
X110000001Y-133045604D01*
X109813810Y-133063941D01*
X109694941Y-133100000D01*
X109635541Y-133118019D01*
X109634766Y-133118254D01*
X109469766Y-133206449D01*
X109325140Y-133325139D01*
X109206450Y-133469765D01*
X109118255Y-133634765D01*
X109063942Y-133813809D01*
X109045605Y-134000000D01*
X103954393Y-134000000D01*
X103936055Y-133813807D01*
X103881744Y-133634768D01*
X103793548Y-133469766D01*
X103772262Y-133443830D01*
X103674857Y-133325139D01*
X103530231Y-133206449D01*
X103365231Y-133118254D01*
X103365230Y-133118253D01*
X103365229Y-133118253D01*
X103186190Y-133063942D01*
X103186187Y-133063941D01*
X102999997Y-133045604D01*
X102813806Y-133063941D01*
X102694937Y-133100000D01*
X102635537Y-133118019D01*
X102634762Y-133118254D01*
X102469762Y-133206449D01*
X102325136Y-133325139D01*
X102206446Y-133469765D01*
X102118251Y-133634765D01*
X102063938Y-133813809D01*
X102045601Y-134000000D01*
X96954392Y-134000000D01*
X96936054Y-133813807D01*
X96881743Y-133634768D01*
X96793547Y-133469766D01*
X96772261Y-133443830D01*
X96674856Y-133325139D01*
X96530230Y-133206449D01*
X96365230Y-133118254D01*
X96365229Y-133118253D01*
X96365228Y-133118253D01*
X96186189Y-133063942D01*
X96186186Y-133063941D01*
X95999996Y-133045604D01*
X95813805Y-133063941D01*
X95694936Y-133100000D01*
X95635536Y-133118019D01*
X95634761Y-133118254D01*
X95469761Y-133206449D01*
X95325135Y-133325139D01*
X95206445Y-133469765D01*
X95118250Y-133634765D01*
X95063937Y-133813809D01*
X95045600Y-134000000D01*
X89954391Y-134000000D01*
X89936053Y-133813807D01*
X89881742Y-133634768D01*
X89793546Y-133469766D01*
X89772260Y-133443829D01*
X89674855Y-133325139D01*
X89530229Y-133206449D01*
X89365229Y-133118254D01*
X89365228Y-133118253D01*
X89365227Y-133118253D01*
X89186188Y-133063942D01*
X89186185Y-133063941D01*
X89022830Y-133047853D01*
X88999995Y-133045604D01*
X88999994Y-133045604D01*
X88813804Y-133063941D01*
X88694935Y-133100000D01*
X88635535Y-133118019D01*
X88634760Y-133118254D01*
X88469760Y-133206449D01*
X88325134Y-133325139D01*
X88206444Y-133469765D01*
X88118249Y-133634765D01*
X88063936Y-133813809D01*
X88045599Y-134000000D01*
X70500000Y-134000000D01*
X70500000Y-132419999D01*
X114494659Y-132419999D01*
X114513976Y-132616133D01*
X114571185Y-132804726D01*
X114594057Y-132847516D01*
X114664090Y-132978538D01*
X114789117Y-133130883D01*
X114941462Y-133255910D01*
X115115273Y-133348814D01*
X115303868Y-133406024D01*
X115500000Y-133425341D01*
X115696132Y-133406024D01*
X115884727Y-133348814D01*
X116058538Y-133255910D01*
X116210883Y-133130883D01*
X116335910Y-132978538D01*
X116428814Y-132804727D01*
X116486024Y-132616132D01*
X116505341Y-132420000D01*
X116486024Y-132223868D01*
X116428814Y-132035273D01*
X116335910Y-131861462D01*
X116210883Y-131709117D01*
X116058538Y-131584090D01*
X116036091Y-131572091D01*
X115901218Y-131500000D01*
X152394317Y-131500000D01*
X152414956Y-131656762D01*
X152475463Y-131802840D01*
X152571717Y-131928282D01*
X152697159Y-132024535D01*
X152697159Y-132024536D01*
X152843238Y-132085044D01*
X153000000Y-132105682D01*
X153156762Y-132085044D01*
X153302841Y-132024536D01*
X153428282Y-131928282D01*
X153524536Y-131802841D01*
X153585044Y-131656762D01*
X153605682Y-131500000D01*
X153585044Y-131343238D01*
X153524536Y-131197159D01*
X153524535Y-131197158D01*
X153428282Y-131071717D01*
X153302840Y-130975463D01*
X153156762Y-130914956D01*
X152999999Y-130894317D01*
X152843237Y-130914956D01*
X152697159Y-130975463D01*
X152571717Y-131071717D01*
X152475463Y-131197159D01*
X152414956Y-131343237D01*
X152394317Y-131500000D01*
X115901218Y-131500000D01*
X115884726Y-131491185D01*
X115696133Y-131433976D01*
X115500000Y-131414659D01*
X115303866Y-131433976D01*
X115115273Y-131491185D01*
X114941463Y-131584089D01*
X114789117Y-131709117D01*
X114664089Y-131861463D01*
X114571185Y-132035273D01*
X114513976Y-132223866D01*
X114494659Y-132419999D01*
X70500000Y-132419999D01*
X70500000Y-129999999D01*
X137894317Y-129999999D01*
X137914956Y-130156762D01*
X137975463Y-130302840D01*
X138071717Y-130428282D01*
X138197159Y-130524535D01*
X138197159Y-130524536D01*
X138343238Y-130585044D01*
X138500000Y-130605682D01*
X138656762Y-130585044D01*
X138802841Y-130524536D01*
X138928282Y-130428282D01*
X139024536Y-130302841D01*
X139085044Y-130156762D01*
X139105682Y-130000000D01*
X139105682Y-129999999D01*
X140894317Y-129999999D01*
X140914956Y-130156762D01*
X140975463Y-130302840D01*
X141071717Y-130428282D01*
X141197159Y-130524535D01*
X141197159Y-130524536D01*
X141343238Y-130585044D01*
X141500000Y-130605682D01*
X141656762Y-130585044D01*
X141802841Y-130524536D01*
X141928282Y-130428282D01*
X142024536Y-130302841D01*
X142085044Y-130156762D01*
X142105682Y-130000000D01*
X143394317Y-130000000D01*
X143414956Y-130156762D01*
X143475463Y-130302840D01*
X143571717Y-130428282D01*
X143697159Y-130524535D01*
X143697159Y-130524536D01*
X143843238Y-130585044D01*
X144000000Y-130605682D01*
X144156762Y-130585044D01*
X144302841Y-130524536D01*
X144428282Y-130428282D01*
X144524536Y-130302841D01*
X144585044Y-130156762D01*
X144605682Y-130000000D01*
X144585044Y-129843238D01*
X144524536Y-129697159D01*
X144524535Y-129697159D01*
X144428282Y-129571717D01*
X144302840Y-129475463D01*
X144156762Y-129414956D01*
X144000000Y-129394317D01*
X143843237Y-129414956D01*
X143697159Y-129475463D01*
X143571717Y-129571717D01*
X143475463Y-129697159D01*
X143414956Y-129843237D01*
X143394317Y-130000000D01*
X142105682Y-130000000D01*
X142085044Y-129843238D01*
X142024536Y-129697159D01*
X142024535Y-129697158D01*
X141928282Y-129571717D01*
X141802840Y-129475463D01*
X141656762Y-129414956D01*
X141499999Y-129394317D01*
X141343237Y-129414956D01*
X141197159Y-129475463D01*
X141071717Y-129571717D01*
X140975463Y-129697159D01*
X140914956Y-129843237D01*
X140894317Y-129999999D01*
X139105682Y-129999999D01*
X139085044Y-129843238D01*
X139024536Y-129697159D01*
X139024535Y-129697158D01*
X138928282Y-129571717D01*
X138802840Y-129475463D01*
X138656762Y-129414956D01*
X138499999Y-129394317D01*
X138343237Y-129414956D01*
X138197159Y-129475463D01*
X138071717Y-129571717D01*
X137975463Y-129697159D01*
X137914956Y-129843237D01*
X137894317Y-129999999D01*
X70500000Y-129999999D01*
X70500000Y-128500000D01*
X103394317Y-128500000D01*
X103414956Y-128656762D01*
X103475463Y-128802840D01*
X103571717Y-128928282D01*
X103697158Y-129024536D01*
X103697159Y-129024536D01*
X103843238Y-129085044D01*
X104000000Y-129105682D01*
X104156762Y-129085044D01*
X104302841Y-129024536D01*
X104428282Y-128928282D01*
X104524536Y-128802841D01*
X104585044Y-128656762D01*
X104605682Y-128500000D01*
X104585044Y-128343238D01*
X104524536Y-128197159D01*
X104524536Y-128197158D01*
X104428282Y-128071717D01*
X104334818Y-128000000D01*
X132394317Y-128000000D01*
X132414956Y-128156762D01*
X132475463Y-128302840D01*
X132571717Y-128428282D01*
X132665183Y-128500000D01*
X132697159Y-128524536D01*
X132843238Y-128585044D01*
X133000000Y-128605682D01*
X133156762Y-128585044D01*
X133302841Y-128524536D01*
X133428282Y-128428282D01*
X133524536Y-128302841D01*
X133585044Y-128156762D01*
X133605682Y-128000000D01*
X133605682Y-127999999D01*
X135894317Y-127999999D01*
X135914956Y-128156762D01*
X135975463Y-128302840D01*
X136071717Y-128428282D01*
X136165183Y-128500000D01*
X136197159Y-128524536D01*
X136343238Y-128585044D01*
X136500000Y-128605682D01*
X136656762Y-128585044D01*
X136802841Y-128524536D01*
X136928282Y-128428282D01*
X137024536Y-128302841D01*
X137085044Y-128156762D01*
X137105682Y-128000000D01*
X137085044Y-127843238D01*
X137024536Y-127697159D01*
X137024535Y-127697158D01*
X136928282Y-127571717D01*
X136802840Y-127475463D01*
X136656762Y-127414956D01*
X136499999Y-127394317D01*
X136343237Y-127414956D01*
X136197159Y-127475463D01*
X136071717Y-127571717D01*
X135975463Y-127697159D01*
X135914956Y-127843237D01*
X135894317Y-127999999D01*
X133605682Y-127999999D01*
X133585044Y-127843238D01*
X133524536Y-127697159D01*
X133524535Y-127697159D01*
X133428282Y-127571717D01*
X133302840Y-127475463D01*
X133156762Y-127414956D01*
X133000000Y-127394317D01*
X132843237Y-127414956D01*
X132697159Y-127475463D01*
X132571717Y-127571717D01*
X132475463Y-127697159D01*
X132414956Y-127843237D01*
X132394317Y-128000000D01*
X104334818Y-128000000D01*
X104302840Y-127975463D01*
X104156762Y-127914956D01*
X103999999Y-127894317D01*
X103843237Y-127914956D01*
X103697159Y-127975463D01*
X103571717Y-128071717D01*
X103475463Y-128197159D01*
X103414956Y-128343237D01*
X103394317Y-128500000D01*
X70500000Y-128500000D01*
X70500000Y-124499999D01*
X132394317Y-124499999D01*
X132414956Y-124656762D01*
X132475463Y-124802840D01*
X132571717Y-124928282D01*
X132697159Y-125024535D01*
X132697159Y-125024536D01*
X132843238Y-125085044D01*
X133000000Y-125105682D01*
X133156762Y-125085044D01*
X133302841Y-125024536D01*
X133428282Y-124928282D01*
X133524536Y-124802841D01*
X133585044Y-124656762D01*
X133605682Y-124500000D01*
X135894317Y-124500000D01*
X135914956Y-124656762D01*
X135975463Y-124802840D01*
X136071717Y-124928282D01*
X136197159Y-125024535D01*
X136197159Y-125024536D01*
X136343238Y-125085044D01*
X136500000Y-125105682D01*
X136656762Y-125085044D01*
X136802841Y-125024536D01*
X136928282Y-124928282D01*
X137024536Y-124802841D01*
X137085044Y-124656762D01*
X137105682Y-124500000D01*
X137894317Y-124500000D01*
X137914956Y-124656762D01*
X137975463Y-124802840D01*
X138071717Y-124928282D01*
X138197159Y-125024535D01*
X138197159Y-125024536D01*
X138343238Y-125085044D01*
X138500000Y-125105682D01*
X138656762Y-125085044D01*
X138802841Y-125024536D01*
X138928282Y-124928282D01*
X139024536Y-124802841D01*
X139085044Y-124656762D01*
X139105682Y-124500000D01*
X140894317Y-124500000D01*
X140914956Y-124656762D01*
X140975463Y-124802840D01*
X141071717Y-124928282D01*
X141197159Y-125024535D01*
X141197159Y-125024536D01*
X141343238Y-125085044D01*
X141500000Y-125105682D01*
X141656762Y-125085044D01*
X141802841Y-125024536D01*
X141928282Y-124928282D01*
X142024536Y-124802841D01*
X142085044Y-124656762D01*
X142105682Y-124500000D01*
X142105682Y-124499999D01*
X143394317Y-124499999D01*
X143414956Y-124656762D01*
X143475463Y-124802840D01*
X143571717Y-124928282D01*
X143697159Y-125024535D01*
X143697159Y-125024536D01*
X143843238Y-125085044D01*
X144000000Y-125105682D01*
X144156762Y-125085044D01*
X144302841Y-125024536D01*
X144428282Y-124928282D01*
X144524536Y-124802841D01*
X144585044Y-124656762D01*
X144605682Y-124500000D01*
X144585044Y-124343238D01*
X144524536Y-124197159D01*
X144510051Y-124178282D01*
X144428282Y-124071717D01*
X144302840Y-123975463D01*
X144156762Y-123914956D01*
X143999999Y-123894317D01*
X143843237Y-123914956D01*
X143697159Y-123975463D01*
X143571717Y-124071717D01*
X143475463Y-124197159D01*
X143414956Y-124343237D01*
X143394317Y-124499999D01*
X142105682Y-124499999D01*
X142085044Y-124343238D01*
X142024536Y-124197159D01*
X142010051Y-124178282D01*
X141928282Y-124071717D01*
X141802840Y-123975463D01*
X141656762Y-123914956D01*
X141500000Y-123894317D01*
X141343237Y-123914956D01*
X141197159Y-123975463D01*
X141071717Y-124071717D01*
X140975463Y-124197159D01*
X140914956Y-124343237D01*
X140894317Y-124500000D01*
X139105682Y-124500000D01*
X139085044Y-124343238D01*
X139024536Y-124197159D01*
X139010051Y-124178282D01*
X138928282Y-124071717D01*
X138802840Y-123975463D01*
X138656762Y-123914956D01*
X138500000Y-123894317D01*
X138343237Y-123914956D01*
X138197159Y-123975463D01*
X138071717Y-124071717D01*
X137975463Y-124197159D01*
X137914956Y-124343237D01*
X137894317Y-124500000D01*
X137105682Y-124500000D01*
X137085044Y-124343238D01*
X137024536Y-124197159D01*
X137010051Y-124178282D01*
X136928282Y-124071717D01*
X136802840Y-123975463D01*
X136656762Y-123914956D01*
X136500000Y-123894317D01*
X136343237Y-123914956D01*
X136197159Y-123975463D01*
X136071717Y-124071717D01*
X135975463Y-124197159D01*
X135914956Y-124343237D01*
X135894317Y-124500000D01*
X133605682Y-124500000D01*
X133585044Y-124343238D01*
X133524536Y-124197159D01*
X133510051Y-124178282D01*
X133428282Y-124071717D01*
X133302840Y-123975463D01*
X133156762Y-123914956D01*
X132999999Y-123894317D01*
X132843237Y-123914956D01*
X132697159Y-123975463D01*
X132571717Y-124071717D01*
X132475463Y-124197159D01*
X132414956Y-124343237D01*
X132394317Y-124499999D01*
X70500000Y-124499999D01*
X70500000Y-123750000D01*
X102894317Y-123750000D01*
X102914956Y-123906762D01*
X102975463Y-124052840D01*
X103071717Y-124178282D01*
X103197158Y-124274536D01*
X103197159Y-124274536D01*
X103343238Y-124335044D01*
X103479360Y-124352964D01*
X103499999Y-124355682D01*
X103499999Y-124355681D01*
X103500000Y-124355682D01*
X103656762Y-124335044D01*
X103802841Y-124274536D01*
X103928282Y-124178282D01*
X104024536Y-124052841D01*
X104024535Y-124052841D01*
X104026624Y-124050120D01*
X104083052Y-124008917D01*
X104152798Y-124004762D01*
X104213718Y-124038974D01*
X104223376Y-124050120D01*
X104321717Y-124178282D01*
X104447158Y-124274536D01*
X104447159Y-124274536D01*
X104593238Y-124335044D01*
X104750000Y-124355682D01*
X104906762Y-124335044D01*
X105052841Y-124274536D01*
X105178282Y-124178282D01*
X105274536Y-124052841D01*
X105274535Y-124052841D01*
X105276624Y-124050120D01*
X105333052Y-124008917D01*
X105402798Y-124004762D01*
X105463718Y-124038974D01*
X105473376Y-124050120D01*
X105571717Y-124178282D01*
X105697159Y-124274536D01*
X105843238Y-124335044D01*
X106000000Y-124355682D01*
X106156762Y-124335044D01*
X106302841Y-124274536D01*
X106428282Y-124178282D01*
X106524536Y-124052841D01*
X106585044Y-123906762D01*
X106605682Y-123750000D01*
X148144317Y-123750000D01*
X148164956Y-123906762D01*
X148225463Y-124052840D01*
X148321717Y-124178282D01*
X148447159Y-124274536D01*
X148593238Y-124335044D01*
X148750000Y-124355682D01*
X148755980Y-124354894D01*
X148825012Y-124365658D01*
X148877269Y-124412036D01*
X148896157Y-124479304D01*
X148895105Y-124494016D01*
X148894317Y-124499997D01*
X148914956Y-124656762D01*
X148975463Y-124802840D01*
X149071717Y-124928282D01*
X149197159Y-125024536D01*
X149343238Y-125085044D01*
X149500000Y-125105682D01*
X149505980Y-125104894D01*
X149575012Y-125115658D01*
X149627269Y-125162036D01*
X149646157Y-125229304D01*
X149645105Y-125244016D01*
X149644317Y-125249997D01*
X149664956Y-125406762D01*
X149725463Y-125552840D01*
X149821717Y-125678282D01*
X149947159Y-125774536D01*
X150093238Y-125835044D01*
X150250000Y-125855682D01*
X150406762Y-125835044D01*
X150552841Y-125774536D01*
X150678282Y-125678282D01*
X150774536Y-125552841D01*
X150835044Y-125406762D01*
X150855682Y-125250000D01*
X150835044Y-125093238D01*
X150774536Y-124947159D01*
X150760051Y-124928282D01*
X150678282Y-124821717D01*
X150552840Y-124725463D01*
X150406762Y-124664956D01*
X150249997Y-124644317D01*
X150244016Y-124645105D01*
X150174981Y-124634339D01*
X150122726Y-124587958D01*
X150103842Y-124520689D01*
X150104892Y-124505996D01*
X150105682Y-124500000D01*
X150085044Y-124343238D01*
X150024536Y-124197159D01*
X150010051Y-124178282D01*
X149928282Y-124071717D01*
X149802840Y-123975463D01*
X149656762Y-123914956D01*
X149499997Y-123894317D01*
X149494016Y-123895105D01*
X149424981Y-123884339D01*
X149372726Y-123837958D01*
X149353842Y-123770689D01*
X149354892Y-123755996D01*
X149355682Y-123750000D01*
X149335044Y-123593238D01*
X149274536Y-123447159D01*
X149274535Y-123447158D01*
X149178282Y-123321717D01*
X149052840Y-123225463D01*
X148906762Y-123164956D01*
X148750000Y-123144317D01*
X148593237Y-123164956D01*
X148447159Y-123225463D01*
X148321717Y-123321717D01*
X148225463Y-123447159D01*
X148164956Y-123593237D01*
X148144317Y-123750000D01*
X106605682Y-123750000D01*
X106585044Y-123593238D01*
X106524536Y-123447159D01*
X106428282Y-123321717D01*
X106302840Y-123225463D01*
X106156762Y-123164956D01*
X106000000Y-123144317D01*
X105843237Y-123164956D01*
X105697159Y-123225463D01*
X105571717Y-123321717D01*
X105473376Y-123449879D01*
X105416948Y-123491082D01*
X105347202Y-123495237D01*
X105286282Y-123461025D01*
X105276624Y-123449879D01*
X105178282Y-123321717D01*
X105052840Y-123225463D01*
X104906762Y-123164956D01*
X104750000Y-123144317D01*
X104593237Y-123164956D01*
X104447159Y-123225463D01*
X104321717Y-123321717D01*
X104223376Y-123449879D01*
X104166948Y-123491082D01*
X104097202Y-123495237D01*
X104036282Y-123461025D01*
X104026624Y-123449879D01*
X103928282Y-123321717D01*
X103802840Y-123225463D01*
X103656762Y-123164956D01*
X103500000Y-123144317D01*
X103343237Y-123164956D01*
X103197159Y-123225463D01*
X103071717Y-123321717D01*
X102975463Y-123447159D01*
X102914956Y-123593237D01*
X102894317Y-123750000D01*
X70500000Y-123750000D01*
X70500000Y-122396516D01*
X124426271Y-122396516D01*
X124428378Y-122476671D01*
X124448770Y-122566738D01*
X124449830Y-122571420D01*
X124450788Y-122574303D01*
X124450790Y-122574310D01*
X124461214Y-122605681D01*
X124462533Y-122609648D01*
X124463769Y-122612424D01*
X124463774Y-122612436D01*
X124495336Y-122683305D01*
X124495340Y-122683314D01*
X124496498Y-122685913D01*
X124514873Y-122718717D01*
X124566262Y-122793478D01*
X124621443Y-122847938D01*
X124702225Y-122901914D01*
X124776303Y-122932597D01*
X124871591Y-122951551D01*
X124911682Y-122955500D01*
X124914731Y-122955500D01*
X129443267Y-122955500D01*
X129448951Y-122955421D01*
X129448966Y-122955420D01*
X129449151Y-122955418D01*
X129459239Y-122955137D01*
X129459250Y-122955136D01*
X129462721Y-122955040D01*
X129508214Y-122948645D01*
X129602308Y-122924450D01*
X129640151Y-122910642D01*
X129738336Y-122863451D01*
X129775853Y-122852277D01*
X129906762Y-122835044D01*
X130052841Y-122774536D01*
X130178282Y-122678282D01*
X130192223Y-122660113D01*
X130236882Y-122623837D01*
X130350236Y-122569357D01*
X130352053Y-122568453D01*
X130355501Y-122566738D01*
X130364467Y-122562116D01*
X130364476Y-122562110D01*
X130367566Y-122560519D01*
X130405803Y-122535045D01*
X130480129Y-122472478D01*
X130508257Y-122443639D01*
X131463168Y-121249999D01*
X150894317Y-121249999D01*
X150914956Y-121406762D01*
X150975463Y-121552840D01*
X151071717Y-121678282D01*
X151197158Y-121774536D01*
X151197159Y-121774536D01*
X151343238Y-121835044D01*
X151500000Y-121855682D01*
X151505980Y-121854894D01*
X151575012Y-121865658D01*
X151627269Y-121912036D01*
X151646157Y-121979304D01*
X151645105Y-121994016D01*
X151644317Y-121999997D01*
X151664956Y-122156762D01*
X151725463Y-122302840D01*
X151821717Y-122428282D01*
X151947158Y-122524536D01*
X151947159Y-122524536D01*
X152093238Y-122585044D01*
X152250000Y-122605682D01*
X152255980Y-122604894D01*
X152325012Y-122615658D01*
X152377269Y-122662036D01*
X152396157Y-122729304D01*
X152395105Y-122744016D01*
X152394317Y-122749997D01*
X152414956Y-122906762D01*
X152475463Y-123052840D01*
X152571717Y-123178282D01*
X152697158Y-123274536D01*
X152697159Y-123274536D01*
X152843238Y-123335044D01*
X153000000Y-123355682D01*
X153156762Y-123335044D01*
X153302841Y-123274536D01*
X153428282Y-123178282D01*
X153524536Y-123052841D01*
X153585044Y-122906762D01*
X153605682Y-122750000D01*
X153585044Y-122593238D01*
X153524536Y-122447159D01*
X153485677Y-122396517D01*
X153428282Y-122321717D01*
X153302840Y-122225463D01*
X153156762Y-122164956D01*
X152999997Y-122144317D01*
X152994016Y-122145105D01*
X152924981Y-122134339D01*
X152872726Y-122087958D01*
X152853842Y-122020689D01*
X152854892Y-122005996D01*
X152855682Y-122000000D01*
X152835044Y-121843238D01*
X152774536Y-121697159D01*
X152760051Y-121678282D01*
X152678282Y-121571717D01*
X152552840Y-121475463D01*
X152406762Y-121414956D01*
X152249997Y-121394317D01*
X152244016Y-121395105D01*
X152174981Y-121384339D01*
X152122726Y-121337958D01*
X152103842Y-121270689D01*
X152104892Y-121255996D01*
X152105682Y-121250000D01*
X152085044Y-121093238D01*
X152024536Y-120947159D01*
X151928282Y-120821717D01*
X151802840Y-120725463D01*
X151656762Y-120664956D01*
X151500000Y-120644317D01*
X151343237Y-120664956D01*
X151197159Y-120725463D01*
X151071717Y-120821717D01*
X150975463Y-120947159D01*
X150914956Y-121093237D01*
X150894317Y-121249999D01*
X131463168Y-121249999D01*
X131750298Y-120891086D01*
X131769572Y-120862323D01*
X131810099Y-120789195D01*
X131833816Y-120718468D01*
X131847472Y-120622278D01*
X131843038Y-120542218D01*
X131818844Y-120448124D01*
X131805036Y-120410279D01*
X131753051Y-120302117D01*
X131735478Y-120272286D01*
X131687123Y-120204079D01*
X131687121Y-120204076D01*
X131633650Y-120152064D01*
X131622057Y-120144318D01*
X131552865Y-120098086D01*
X131478787Y-120067403D01*
X131478785Y-120067402D01*
X131478784Y-120067402D01*
X131386491Y-120049044D01*
X131386488Y-120049043D01*
X131383499Y-120048449D01*
X131380479Y-120048151D01*
X131380469Y-120048150D01*
X131346440Y-120044798D01*
X131346426Y-120044797D01*
X131343408Y-120044500D01*
X131340358Y-120044500D01*
X127050242Y-120044518D01*
X127046950Y-120044561D01*
X127046945Y-120044561D01*
X127043696Y-120044604D01*
X127040480Y-120044984D01*
X127040463Y-120044986D01*
X127004253Y-120049275D01*
X127004244Y-120049276D01*
X127001023Y-120049658D01*
X126997858Y-120050374D01*
X126997855Y-120050375D01*
X126909234Y-120070437D01*
X126906266Y-120071109D01*
X126903389Y-120072064D01*
X126903378Y-120072068D01*
X126870931Y-120082850D01*
X126870924Y-120082852D01*
X126868034Y-120083813D01*
X126865252Y-120085051D01*
X126865234Y-120085059D01*
X126741140Y-120140328D01*
X126706878Y-120149994D01*
X126593237Y-120164956D01*
X126447158Y-120225464D01*
X126316528Y-120325700D01*
X126291493Y-120340596D01*
X126127732Y-120413535D01*
X126124787Y-120414894D01*
X126124772Y-120414901D01*
X126121833Y-120416258D01*
X126119056Y-120417911D01*
X126119043Y-120417918D01*
X126087734Y-120436557D01*
X126087729Y-120436559D01*
X126084941Y-120438220D01*
X126082354Y-120440152D01*
X126082337Y-120440164D01*
X126009550Y-120494542D01*
X126009538Y-120494551D01*
X126007111Y-120496365D01*
X126004878Y-120498402D01*
X126004860Y-120498418D01*
X125979602Y-120521473D01*
X125979591Y-120521483D01*
X125977356Y-120523524D01*
X125975331Y-120525773D01*
X125975322Y-120525783D01*
X124541792Y-122118594D01*
X124541785Y-122118601D01*
X124539890Y-122120708D01*
X124538202Y-122122968D01*
X124538190Y-122122984D01*
X124519089Y-122148573D01*
X124519072Y-122148597D01*
X124517400Y-122150838D01*
X124515937Y-122153226D01*
X124515923Y-122153247D01*
X124470012Y-122228197D01*
X124442712Y-122300766D01*
X124426271Y-122396516D01*
X70500000Y-122396516D01*
X70500000Y-120750000D01*
X102894317Y-120750000D01*
X102914956Y-120906762D01*
X102975463Y-121052840D01*
X103071717Y-121178282D01*
X103165183Y-121250000D01*
X103197159Y-121274536D01*
X103343238Y-121335044D01*
X103479361Y-121352964D01*
X103499999Y-121355682D01*
X103499999Y-121355681D01*
X103500000Y-121355682D01*
X103656762Y-121335044D01*
X103802841Y-121274536D01*
X103928282Y-121178282D01*
X104024536Y-121052841D01*
X104024535Y-121052841D01*
X104026624Y-121050120D01*
X104083052Y-121008917D01*
X104152798Y-121004762D01*
X104213718Y-121038974D01*
X104223376Y-121050120D01*
X104321717Y-121178282D01*
X104415183Y-121250000D01*
X104447159Y-121274536D01*
X104593238Y-121335044D01*
X104750000Y-121355682D01*
X104906762Y-121335044D01*
X105052841Y-121274536D01*
X105178282Y-121178282D01*
X105274536Y-121052841D01*
X105274535Y-121052841D01*
X105276624Y-121050120D01*
X105333052Y-121008917D01*
X105402798Y-121004762D01*
X105463718Y-121038974D01*
X105473376Y-121050120D01*
X105571717Y-121178282D01*
X105665183Y-121250000D01*
X105697159Y-121274536D01*
X105843238Y-121335044D01*
X106000000Y-121355682D01*
X106156762Y-121335044D01*
X106302841Y-121274536D01*
X106428282Y-121178282D01*
X106524536Y-121052841D01*
X106585044Y-120906762D01*
X106605682Y-120750000D01*
X106585044Y-120593238D01*
X106524536Y-120447159D01*
X106498736Y-120413536D01*
X106428282Y-120321717D01*
X106302840Y-120225463D01*
X106156762Y-120164956D01*
X106000000Y-120144317D01*
X105843237Y-120164956D01*
X105697159Y-120225463D01*
X105571717Y-120321717D01*
X105473376Y-120449879D01*
X105416948Y-120491082D01*
X105347202Y-120495237D01*
X105286282Y-120461025D01*
X105276624Y-120449879D01*
X105178282Y-120321717D01*
X105052840Y-120225463D01*
X104906762Y-120164956D01*
X104750000Y-120144317D01*
X104593237Y-120164956D01*
X104447159Y-120225463D01*
X104321716Y-120321718D01*
X104223374Y-120449880D01*
X104166946Y-120491082D01*
X104097200Y-120495237D01*
X104036280Y-120461024D01*
X104026623Y-120449879D01*
X103928282Y-120321717D01*
X103802840Y-120225463D01*
X103656762Y-120164956D01*
X103500000Y-120144317D01*
X103343237Y-120164956D01*
X103197159Y-120225463D01*
X103071717Y-120321717D01*
X102975463Y-120447159D01*
X102914956Y-120593237D01*
X102894317Y-120750000D01*
X70500000Y-120750000D01*
X70500000Y-119499999D01*
X78644317Y-119499999D01*
X78664956Y-119656762D01*
X78725463Y-119802840D01*
X78821717Y-119928282D01*
X78947159Y-120024536D01*
X79093238Y-120085044D01*
X79229360Y-120102964D01*
X79249999Y-120105682D01*
X79249999Y-120105681D01*
X79250000Y-120105682D01*
X79406762Y-120085044D01*
X79552841Y-120024536D01*
X79678282Y-119928282D01*
X79774536Y-119802841D01*
X79835044Y-119656762D01*
X79855682Y-119500000D01*
X79835044Y-119343238D01*
X79774536Y-119197159D01*
X79678282Y-119071717D01*
X79552840Y-118975463D01*
X79406762Y-118914956D01*
X79250000Y-118894317D01*
X79093237Y-118914956D01*
X78947159Y-118975463D01*
X78821717Y-119071717D01*
X78725463Y-119197159D01*
X78664956Y-119343237D01*
X78644317Y-119499999D01*
X70500000Y-119499999D01*
X70500000Y-118000000D01*
X79394317Y-118000000D01*
X79414956Y-118156762D01*
X79475463Y-118302840D01*
X79571717Y-118428282D01*
X79697159Y-118524535D01*
X79697159Y-118524536D01*
X79843238Y-118585044D01*
X80000000Y-118605682D01*
X80156762Y-118585044D01*
X80302841Y-118524536D01*
X80428282Y-118428282D01*
X80524536Y-118302841D01*
X80585044Y-118156762D01*
X80605682Y-118000000D01*
X80894317Y-118000000D01*
X80914956Y-118156762D01*
X80975463Y-118302840D01*
X81071717Y-118428282D01*
X81197158Y-118524535D01*
X81197159Y-118524536D01*
X81343238Y-118585044D01*
X81500000Y-118605682D01*
X81656762Y-118585044D01*
X81802841Y-118524536D01*
X81928282Y-118428282D01*
X82024536Y-118302841D01*
X82085044Y-118156762D01*
X82105682Y-118000000D01*
X84894317Y-118000000D01*
X84914956Y-118156762D01*
X84975463Y-118302840D01*
X85071717Y-118428282D01*
X85197158Y-118524535D01*
X85197159Y-118524536D01*
X85343238Y-118585044D01*
X85500000Y-118605682D01*
X85656762Y-118585044D01*
X85802841Y-118524536D01*
X85928282Y-118428282D01*
X86024536Y-118302841D01*
X86085044Y-118156762D01*
X86105682Y-118000000D01*
X86394317Y-118000000D01*
X86414956Y-118156762D01*
X86475463Y-118302840D01*
X86571717Y-118428282D01*
X86697159Y-118524535D01*
X86697159Y-118524536D01*
X86843238Y-118585044D01*
X87000000Y-118605682D01*
X87156762Y-118585044D01*
X87302841Y-118524536D01*
X87428282Y-118428282D01*
X87524536Y-118302841D01*
X87585044Y-118156762D01*
X87605682Y-118000000D01*
X87585044Y-117843238D01*
X87524536Y-117697159D01*
X87524536Y-117697158D01*
X87428282Y-117571717D01*
X87302840Y-117475463D01*
X87156762Y-117414956D01*
X87000000Y-117394317D01*
X86843237Y-117414956D01*
X86697159Y-117475463D01*
X86571717Y-117571717D01*
X86475463Y-117697159D01*
X86414956Y-117843237D01*
X86394317Y-118000000D01*
X86105682Y-118000000D01*
X86085044Y-117843238D01*
X86024536Y-117697159D01*
X86024536Y-117697158D01*
X85928282Y-117571717D01*
X85802840Y-117475463D01*
X85656762Y-117414956D01*
X85500000Y-117394317D01*
X85343237Y-117414956D01*
X85197159Y-117475463D01*
X85071717Y-117571717D01*
X84975463Y-117697159D01*
X84914956Y-117843237D01*
X84894317Y-118000000D01*
X82105682Y-118000000D01*
X82085044Y-117843238D01*
X82024536Y-117697159D01*
X82024536Y-117697158D01*
X81928282Y-117571717D01*
X81802840Y-117475463D01*
X81656762Y-117414956D01*
X81500000Y-117394317D01*
X81343237Y-117414956D01*
X81197159Y-117475463D01*
X81071717Y-117571717D01*
X80975463Y-117697159D01*
X80914956Y-117843237D01*
X80894317Y-118000000D01*
X80605682Y-118000000D01*
X80585044Y-117843238D01*
X80524536Y-117697159D01*
X80428282Y-117571717D01*
X80302840Y-117475463D01*
X80156762Y-117414956D01*
X80000000Y-117394317D01*
X79843237Y-117414956D01*
X79697159Y-117475463D01*
X79571717Y-117571717D01*
X79475463Y-117697159D01*
X79414956Y-117843237D01*
X79394317Y-118000000D01*
X70500000Y-118000000D01*
X70500000Y-116000000D01*
X83394317Y-116000000D01*
X83414956Y-116156762D01*
X83475463Y-116302840D01*
X83571717Y-116428282D01*
X83665183Y-116500000D01*
X83697159Y-116524536D01*
X83843238Y-116585044D01*
X84000000Y-116605682D01*
X84156762Y-116585044D01*
X84302841Y-116524536D01*
X84334817Y-116500000D01*
X96894317Y-116500000D01*
X96914956Y-116656762D01*
X96975463Y-116802840D01*
X97071717Y-116928282D01*
X97197158Y-117024535D01*
X97197159Y-117024536D01*
X97343238Y-117085044D01*
X97500000Y-117105682D01*
X97656762Y-117085044D01*
X97802841Y-117024536D01*
X97928282Y-116928282D01*
X98024536Y-116802841D01*
X98085044Y-116656762D01*
X98105682Y-116500000D01*
X118644317Y-116500000D01*
X118664956Y-116656762D01*
X118725463Y-116802840D01*
X118821717Y-116928282D01*
X118947158Y-117024535D01*
X118947159Y-117024536D01*
X119093238Y-117085044D01*
X119229360Y-117102964D01*
X119249999Y-117105682D01*
X119249999Y-117105681D01*
X119250000Y-117105682D01*
X119406762Y-117085044D01*
X119552841Y-117024536D01*
X119678282Y-116928282D01*
X119774536Y-116802841D01*
X119835044Y-116656762D01*
X119855682Y-116500000D01*
X147894317Y-116500000D01*
X147914956Y-116656762D01*
X147975463Y-116802840D01*
X148071717Y-116928282D01*
X148197158Y-117024536D01*
X148197159Y-117024536D01*
X148343238Y-117085044D01*
X148500000Y-117105682D01*
X148656762Y-117085044D01*
X148802841Y-117024536D01*
X148928282Y-116928282D01*
X149024536Y-116802841D01*
X149085044Y-116656762D01*
X149105682Y-116500000D01*
X149085044Y-116343238D01*
X149024536Y-116197159D01*
X149024536Y-116197158D01*
X148928282Y-116071717D01*
X148802840Y-115975463D01*
X148656762Y-115914956D01*
X148500000Y-115894317D01*
X148343237Y-115914956D01*
X148197159Y-115975463D01*
X148071717Y-116071717D01*
X147975463Y-116197159D01*
X147914956Y-116343237D01*
X147894317Y-116500000D01*
X119855682Y-116500000D01*
X119835044Y-116343238D01*
X119774536Y-116197159D01*
X119774536Y-116197158D01*
X119678282Y-116071717D01*
X119552840Y-115975463D01*
X119406762Y-115914956D01*
X119250000Y-115894317D01*
X119093237Y-115914956D01*
X118947159Y-115975463D01*
X118821717Y-116071717D01*
X118725463Y-116197159D01*
X118664956Y-116343237D01*
X118644317Y-116500000D01*
X98105682Y-116500000D01*
X98085044Y-116343238D01*
X98024536Y-116197159D01*
X98024536Y-116197158D01*
X97928282Y-116071717D01*
X97802840Y-115975463D01*
X97656762Y-115914956D01*
X97500000Y-115894317D01*
X97343237Y-115914956D01*
X97197159Y-115975463D01*
X97071717Y-116071717D01*
X96975463Y-116197159D01*
X96914956Y-116343237D01*
X96894317Y-116500000D01*
X84334817Y-116500000D01*
X84428282Y-116428282D01*
X84524536Y-116302841D01*
X84585044Y-116156762D01*
X84605682Y-116000000D01*
X84585044Y-115843238D01*
X84524536Y-115697159D01*
X84524536Y-115697158D01*
X84428282Y-115571717D01*
X84334818Y-115500000D01*
X85894317Y-115500000D01*
X85914956Y-115656762D01*
X85975463Y-115802840D01*
X86071717Y-115928282D01*
X86165183Y-116000000D01*
X86197159Y-116024536D01*
X86343238Y-116085044D01*
X86500000Y-116105682D01*
X86656762Y-116085044D01*
X86802841Y-116024536D01*
X86928282Y-115928282D01*
X87024536Y-115802841D01*
X87085044Y-115656762D01*
X87105682Y-115500000D01*
X87085044Y-115343238D01*
X87024536Y-115197159D01*
X86928282Y-115071717D01*
X86802840Y-114975463D01*
X86656762Y-114914956D01*
X86500000Y-114894317D01*
X86343237Y-114914956D01*
X86197159Y-114975463D01*
X86071717Y-115071717D01*
X85975463Y-115197159D01*
X85914956Y-115343237D01*
X85894317Y-115500000D01*
X84334818Y-115500000D01*
X84302840Y-115475463D01*
X84156762Y-115414956D01*
X84000000Y-115394317D01*
X83843237Y-115414956D01*
X83697159Y-115475463D01*
X83571717Y-115571717D01*
X83475463Y-115697159D01*
X83414956Y-115843237D01*
X83394317Y-116000000D01*
X70500000Y-116000000D01*
X70500000Y-114500000D01*
X91894317Y-114500000D01*
X91914956Y-114656762D01*
X91975463Y-114802840D01*
X92071717Y-114928282D01*
X92197158Y-115024535D01*
X92197159Y-115024536D01*
X92343238Y-115085044D01*
X92500000Y-115105682D01*
X92656762Y-115085044D01*
X92802841Y-115024536D01*
X92928282Y-114928282D01*
X93024536Y-114802841D01*
X93085044Y-114656762D01*
X93105682Y-114500000D01*
X113394317Y-114500000D01*
X113414956Y-114656762D01*
X113475463Y-114802840D01*
X113571717Y-114928282D01*
X113697159Y-115024535D01*
X113697159Y-115024536D01*
X113843238Y-115085044D01*
X114000000Y-115105682D01*
X114156762Y-115085044D01*
X114302841Y-115024536D01*
X114428282Y-114928282D01*
X114524536Y-114802841D01*
X114585044Y-114656762D01*
X114605682Y-114500000D01*
X142894317Y-114500000D01*
X142914956Y-114656762D01*
X142975463Y-114802840D01*
X143071717Y-114928282D01*
X143197158Y-115024536D01*
X143197159Y-115024536D01*
X143343238Y-115085044D01*
X143500000Y-115105682D01*
X143656762Y-115085044D01*
X143802841Y-115024536D01*
X143928282Y-114928282D01*
X144024536Y-114802841D01*
X144085044Y-114656762D01*
X144105682Y-114500000D01*
X144085044Y-114343238D01*
X144024536Y-114197159D01*
X144024536Y-114197158D01*
X143928282Y-114071717D01*
X143802840Y-113975463D01*
X143656762Y-113914956D01*
X143500000Y-113894317D01*
X143343237Y-113914956D01*
X143197159Y-113975463D01*
X143071717Y-114071717D01*
X142975463Y-114197159D01*
X142914956Y-114343237D01*
X142894317Y-114500000D01*
X114605682Y-114500000D01*
X114585044Y-114343238D01*
X114524536Y-114197159D01*
X114524535Y-114197159D01*
X114428282Y-114071717D01*
X114302840Y-113975463D01*
X114156762Y-113914956D01*
X114000000Y-113894317D01*
X113843237Y-113914956D01*
X113697159Y-113975463D01*
X113571717Y-114071717D01*
X113475463Y-114197159D01*
X113414956Y-114343237D01*
X113394317Y-114500000D01*
X93105682Y-114500000D01*
X93085044Y-114343238D01*
X93024536Y-114197159D01*
X93024536Y-114197158D01*
X92928282Y-114071717D01*
X92802840Y-113975463D01*
X92656762Y-113914956D01*
X92500000Y-113894317D01*
X92343237Y-113914956D01*
X92197159Y-113975463D01*
X92071717Y-114071717D01*
X91975463Y-114197159D01*
X91914956Y-114343237D01*
X91894317Y-114500000D01*
X70500000Y-114500000D01*
X70500000Y-112750000D01*
X82394317Y-112750000D01*
X82414956Y-112906762D01*
X82475463Y-113052840D01*
X82571717Y-113178282D01*
X82697159Y-113274536D01*
X82843238Y-113335044D01*
X83000000Y-113355682D01*
X83156762Y-113335044D01*
X83302841Y-113274536D01*
X83428282Y-113178282D01*
X83524536Y-113052841D01*
X83524535Y-113052841D01*
X83526624Y-113050120D01*
X83583052Y-113008917D01*
X83652798Y-113004762D01*
X83713718Y-113038974D01*
X83723376Y-113050120D01*
X83821717Y-113178282D01*
X83947159Y-113274535D01*
X83947159Y-113274536D01*
X84093238Y-113335044D01*
X84250000Y-113355682D01*
X84406762Y-113335044D01*
X84552841Y-113274536D01*
X84678282Y-113178282D01*
X84774536Y-113052841D01*
X84835044Y-112906762D01*
X84855682Y-112750000D01*
X84835044Y-112593238D01*
X84774536Y-112447159D01*
X84694795Y-112343238D01*
X84678282Y-112321717D01*
X84552840Y-112225463D01*
X84406762Y-112164956D01*
X84250000Y-112144317D01*
X84093237Y-112164956D01*
X83947159Y-112225463D01*
X83821716Y-112321718D01*
X83723374Y-112449880D01*
X83666946Y-112491082D01*
X83597200Y-112495237D01*
X83536280Y-112461024D01*
X83526623Y-112449879D01*
X83428282Y-112321717D01*
X83302840Y-112225463D01*
X83156762Y-112164956D01*
X83000000Y-112144317D01*
X82843237Y-112164956D01*
X82697159Y-112225463D01*
X82571717Y-112321717D01*
X82475463Y-112447159D01*
X82414956Y-112593237D01*
X82394317Y-112750000D01*
X70500000Y-112750000D01*
X70500000Y-112000000D01*
X99644317Y-112000000D01*
X99664956Y-112156762D01*
X99725463Y-112302840D01*
X99821717Y-112428282D01*
X99915183Y-112500000D01*
X99947159Y-112524536D01*
X100093238Y-112585044D01*
X100250000Y-112605682D01*
X100406762Y-112585044D01*
X100552841Y-112524536D01*
X100584817Y-112500000D01*
X121144317Y-112500000D01*
X121164956Y-112656762D01*
X121225463Y-112802840D01*
X121321717Y-112928282D01*
X121421389Y-113004762D01*
X121447159Y-113024536D01*
X121593238Y-113085044D01*
X121750000Y-113105682D01*
X121906762Y-113085044D01*
X122052841Y-113024536D01*
X122178282Y-112928282D01*
X122274536Y-112802841D01*
X122335044Y-112656762D01*
X122355682Y-112500000D01*
X150644317Y-112500000D01*
X150664956Y-112656762D01*
X150725463Y-112802840D01*
X150821717Y-112928282D01*
X150921389Y-113004762D01*
X150947159Y-113024536D01*
X151093238Y-113085044D01*
X151229360Y-113102964D01*
X151249999Y-113105682D01*
X151249999Y-113105681D01*
X151250000Y-113105682D01*
X151406762Y-113085044D01*
X151552841Y-113024536D01*
X151678282Y-112928282D01*
X151774536Y-112802841D01*
X151835044Y-112656762D01*
X151855682Y-112500000D01*
X151835044Y-112343238D01*
X151803644Y-112267433D01*
X151796176Y-112197967D01*
X151827451Y-112135487D01*
X151887540Y-112099835D01*
X151934388Y-112097044D01*
X152000000Y-112105682D01*
X152156762Y-112085044D01*
X152302841Y-112024536D01*
X152428282Y-111928282D01*
X152524536Y-111802841D01*
X152585044Y-111656762D01*
X152605682Y-111500000D01*
X152585044Y-111343238D01*
X152524536Y-111197159D01*
X152510051Y-111178282D01*
X152428282Y-111071717D01*
X152302840Y-110975463D01*
X152156762Y-110914956D01*
X151999999Y-110894317D01*
X151843237Y-110914956D01*
X151697159Y-110975463D01*
X151571717Y-111071717D01*
X151475463Y-111197159D01*
X151414956Y-111343237D01*
X151394317Y-111500000D01*
X151414956Y-111656762D01*
X151446354Y-111732564D01*
X151453823Y-111802033D01*
X151422548Y-111864512D01*
X151362459Y-111900164D01*
X151315608Y-111902955D01*
X151250000Y-111894317D01*
X151093237Y-111914956D01*
X150947159Y-111975463D01*
X150821717Y-112071717D01*
X150725463Y-112197159D01*
X150664956Y-112343237D01*
X150644317Y-112500000D01*
X122355682Y-112500000D01*
X122335044Y-112343238D01*
X122274536Y-112197159D01*
X122249826Y-112164956D01*
X122178282Y-112071717D01*
X122052840Y-111975463D01*
X121906762Y-111914956D01*
X121750000Y-111894317D01*
X121593237Y-111914956D01*
X121447159Y-111975463D01*
X121321717Y-112071717D01*
X121225463Y-112197159D01*
X121164956Y-112343237D01*
X121144317Y-112500000D01*
X100584817Y-112500000D01*
X100678282Y-112428282D01*
X100774536Y-112302841D01*
X100835044Y-112156762D01*
X100855682Y-112000000D01*
X100835044Y-111843238D01*
X100774536Y-111697159D01*
X100774535Y-111697159D01*
X100678282Y-111571717D01*
X100552840Y-111475463D01*
X100406762Y-111414956D01*
X100250000Y-111394317D01*
X100093237Y-111414956D01*
X99947159Y-111475463D01*
X99821717Y-111571717D01*
X99725463Y-111697159D01*
X99664956Y-111843237D01*
X99644317Y-112000000D01*
X70500000Y-112000000D01*
X70500000Y-111000000D01*
X95894317Y-111000000D01*
X95914956Y-111156762D01*
X95975463Y-111302840D01*
X96071717Y-111428282D01*
X96165183Y-111500000D01*
X96197159Y-111524536D01*
X96343238Y-111585044D01*
X96500000Y-111605682D01*
X96656762Y-111585044D01*
X96802841Y-111524536D01*
X96928282Y-111428282D01*
X97024536Y-111302841D01*
X97024535Y-111302841D01*
X97026624Y-111300120D01*
X97083052Y-111258917D01*
X97152798Y-111254762D01*
X97213718Y-111288974D01*
X97223376Y-111300120D01*
X97321717Y-111428282D01*
X97415183Y-111500000D01*
X97447159Y-111524536D01*
X97593238Y-111585044D01*
X97750000Y-111605682D01*
X97906762Y-111585044D01*
X98052841Y-111524536D01*
X98178282Y-111428282D01*
X98274536Y-111302841D01*
X98335044Y-111156762D01*
X98355682Y-111000000D01*
X117394317Y-111000000D01*
X117414956Y-111156762D01*
X117475463Y-111302840D01*
X117571717Y-111428282D01*
X117665183Y-111500000D01*
X117697159Y-111524536D01*
X117843238Y-111585044D01*
X118000000Y-111605682D01*
X118156762Y-111585044D01*
X118302841Y-111524536D01*
X118428282Y-111428282D01*
X118524536Y-111302841D01*
X118524537Y-111302838D01*
X118526623Y-111300120D01*
X118583050Y-111258917D01*
X118652796Y-111254762D01*
X118713717Y-111288974D01*
X118723375Y-111300119D01*
X118821719Y-111428283D01*
X118883207Y-111475464D01*
X118947159Y-111524536D01*
X119093238Y-111585044D01*
X119250000Y-111605682D01*
X119406762Y-111585044D01*
X119552841Y-111524536D01*
X119678282Y-111428282D01*
X119774536Y-111302841D01*
X119835044Y-111156762D01*
X119855682Y-111000000D01*
X119835044Y-110843238D01*
X119796423Y-110749999D01*
X146644317Y-110749999D01*
X146664956Y-110906762D01*
X146725463Y-111052840D01*
X146821717Y-111178282D01*
X146921389Y-111254762D01*
X146947159Y-111274536D01*
X147093238Y-111335044D01*
X147250000Y-111355682D01*
X147406762Y-111335044D01*
X147552841Y-111274536D01*
X147678282Y-111178282D01*
X147774536Y-111052841D01*
X147796423Y-111000000D01*
X148644317Y-111000000D01*
X148664956Y-111156762D01*
X148725463Y-111302840D01*
X148821717Y-111428282D01*
X148915183Y-111500000D01*
X148947159Y-111524536D01*
X149093238Y-111585044D01*
X149250000Y-111605682D01*
X149406762Y-111585044D01*
X149552841Y-111524536D01*
X149678282Y-111428282D01*
X149774536Y-111302841D01*
X149835044Y-111156762D01*
X149855682Y-111000000D01*
X149835044Y-110843238D01*
X149774536Y-110697159D01*
X149694795Y-110593238D01*
X149678282Y-110571717D01*
X149552840Y-110475463D01*
X149406762Y-110414956D01*
X149250000Y-110394317D01*
X149093237Y-110414956D01*
X148947159Y-110475463D01*
X148821717Y-110571717D01*
X148725463Y-110697159D01*
X148664956Y-110843237D01*
X148644317Y-111000000D01*
X147796423Y-111000000D01*
X147835044Y-110906762D01*
X147855682Y-110750000D01*
X147835044Y-110593238D01*
X147774536Y-110447159D01*
X147733989Y-110394317D01*
X147678282Y-110321717D01*
X147552840Y-110225463D01*
X147406762Y-110164956D01*
X147249999Y-110144317D01*
X147093237Y-110164956D01*
X146947159Y-110225463D01*
X146821717Y-110321717D01*
X146725463Y-110447159D01*
X146664956Y-110593237D01*
X146644317Y-110749999D01*
X119796423Y-110749999D01*
X119774536Y-110697159D01*
X119694795Y-110593238D01*
X119678282Y-110571717D01*
X119552840Y-110475463D01*
X119406762Y-110414956D01*
X119250000Y-110394317D01*
X119093237Y-110414956D01*
X118947159Y-110475463D01*
X118821717Y-110571717D01*
X118723376Y-110699879D01*
X118666948Y-110741082D01*
X118597202Y-110745237D01*
X118536282Y-110711025D01*
X118526624Y-110699879D01*
X118428282Y-110571717D01*
X118302840Y-110475463D01*
X118156762Y-110414956D01*
X118000000Y-110394317D01*
X117843237Y-110414956D01*
X117697159Y-110475463D01*
X117571717Y-110571717D01*
X117475463Y-110697159D01*
X117414956Y-110843237D01*
X117394317Y-111000000D01*
X98355682Y-111000000D01*
X98335044Y-110843238D01*
X98274536Y-110697159D01*
X98194795Y-110593238D01*
X98178282Y-110571717D01*
X98052840Y-110475463D01*
X97906762Y-110414956D01*
X97750000Y-110394317D01*
X97593237Y-110414956D01*
X97447159Y-110475463D01*
X97321717Y-110571717D01*
X97223376Y-110699879D01*
X97166948Y-110741082D01*
X97097202Y-110745237D01*
X97036282Y-110711025D01*
X97026624Y-110699879D01*
X96928282Y-110571717D01*
X96802840Y-110475463D01*
X96656762Y-110414956D01*
X96500000Y-110394317D01*
X96343237Y-110414956D01*
X96197159Y-110475463D01*
X96071717Y-110571717D01*
X95975463Y-110697159D01*
X95914956Y-110843237D01*
X95894317Y-111000000D01*
X70500000Y-111000000D01*
X70500000Y-110124000D01*
X70519685Y-110056961D01*
X70572489Y-110011206D01*
X70624000Y-110000000D01*
X133500000Y-110000000D01*
X134441851Y-109275499D01*
X145382018Y-109275499D01*
X145402657Y-109432262D01*
X145463164Y-109578340D01*
X145559418Y-109703782D01*
X145684860Y-109800036D01*
X145830939Y-109860544D01*
X145987701Y-109881182D01*
X146144463Y-109860544D01*
X146290542Y-109800036D01*
X146415983Y-109703782D01*
X146512237Y-109578341D01*
X146572745Y-109432262D01*
X146593383Y-109275500D01*
X146572745Y-109118738D01*
X146512237Y-108972659D01*
X146512236Y-108972659D01*
X146415983Y-108847217D01*
X146290541Y-108750963D01*
X146144463Y-108690456D01*
X145987701Y-108669817D01*
X145830938Y-108690456D01*
X145684860Y-108750963D01*
X145559418Y-108847217D01*
X145463164Y-108972659D01*
X145402657Y-109118737D01*
X145382018Y-109275499D01*
X134441851Y-109275499D01*
X136100000Y-108000000D01*
X142394317Y-108000000D01*
X142414956Y-108156762D01*
X142475463Y-108302840D01*
X142571717Y-108428282D01*
X142697159Y-108524536D01*
X142843238Y-108585044D01*
X143000000Y-108605682D01*
X143156762Y-108585044D01*
X143302841Y-108524536D01*
X143428282Y-108428282D01*
X143524536Y-108302841D01*
X143585044Y-108156762D01*
X143605682Y-108000000D01*
X151394317Y-108000000D01*
X151414956Y-108156762D01*
X151475463Y-108302840D01*
X151571717Y-108428282D01*
X151697158Y-108524536D01*
X151697159Y-108524536D01*
X151843238Y-108585044D01*
X152000000Y-108605682D01*
X152156762Y-108585044D01*
X152302841Y-108524536D01*
X152428282Y-108428282D01*
X152524536Y-108302841D01*
X152585044Y-108156762D01*
X152605682Y-108000000D01*
X152585044Y-107843238D01*
X152524536Y-107697159D01*
X152524535Y-107697159D01*
X152428282Y-107571717D01*
X152302840Y-107475463D01*
X152156762Y-107414956D01*
X152000000Y-107394317D01*
X151843237Y-107414956D01*
X151697159Y-107475463D01*
X151571717Y-107571717D01*
X151475463Y-107697159D01*
X151414956Y-107843237D01*
X151394317Y-108000000D01*
X143605682Y-108000000D01*
X143585044Y-107843238D01*
X143524536Y-107697159D01*
X143524535Y-107697159D01*
X143428282Y-107571717D01*
X143302840Y-107475463D01*
X143156762Y-107414956D01*
X143000000Y-107394317D01*
X142843237Y-107414956D01*
X142697159Y-107475463D01*
X142571717Y-107571717D01*
X142475463Y-107697159D01*
X142414956Y-107843237D01*
X142394317Y-108000000D01*
X136100000Y-108000000D01*
X138375000Y-106250000D01*
X146014817Y-106250000D01*
X146035456Y-106406762D01*
X146095963Y-106552840D01*
X146192217Y-106678282D01*
X146317658Y-106774536D01*
X146317659Y-106774536D01*
X146463738Y-106835044D01*
X146599860Y-106852964D01*
X146620499Y-106855682D01*
X146620499Y-106855681D01*
X146620500Y-106855682D01*
X146777262Y-106835044D01*
X146923341Y-106774536D01*
X147048782Y-106678282D01*
X147145036Y-106552841D01*
X147166923Y-106500000D01*
X149894317Y-106500000D01*
X149914956Y-106656762D01*
X149975463Y-106802840D01*
X150071717Y-106928282D01*
X150197158Y-107024536D01*
X150197159Y-107024536D01*
X150343238Y-107085044D01*
X150500000Y-107105682D01*
X150656762Y-107085044D01*
X150802841Y-107024536D01*
X150928282Y-106928282D01*
X151024536Y-106802841D01*
X151085044Y-106656762D01*
X151105682Y-106500000D01*
X151085044Y-106343238D01*
X151024536Y-106197159D01*
X150944795Y-106093238D01*
X150928282Y-106071717D01*
X150802840Y-105975463D01*
X150656762Y-105914956D01*
X150500000Y-105894317D01*
X150343237Y-105914956D01*
X150197159Y-105975463D01*
X150071717Y-106071717D01*
X149975463Y-106197159D01*
X149914956Y-106343237D01*
X149894317Y-106500000D01*
X147166923Y-106500000D01*
X147205544Y-106406762D01*
X147226182Y-106250000D01*
X147205544Y-106093238D01*
X147145036Y-105947159D01*
X147104489Y-105894317D01*
X147048782Y-105821717D01*
X146923340Y-105725463D01*
X146777262Y-105664956D01*
X146620499Y-105644317D01*
X146463737Y-105664956D01*
X146317659Y-105725463D01*
X146192217Y-105821717D01*
X146095963Y-105947159D01*
X146035456Y-106093237D01*
X146014817Y-106250000D01*
X138375000Y-106250000D01*
X140000000Y-105000000D01*
X140000000Y-101500000D01*
X153394317Y-101500000D01*
X153414956Y-101656762D01*
X153475463Y-101802840D01*
X153571717Y-101928282D01*
X153665183Y-102000000D01*
X153697159Y-102024536D01*
X153843238Y-102085044D01*
X154000000Y-102105682D01*
X154156762Y-102085044D01*
X154302841Y-102024536D01*
X154428282Y-101928282D01*
X154524536Y-101802841D01*
X154585044Y-101656762D01*
X154605682Y-101500000D01*
X160344317Y-101500000D01*
X160364956Y-101656762D01*
X160425463Y-101802840D01*
X160521717Y-101928282D01*
X160615183Y-102000000D01*
X160647159Y-102024536D01*
X160793238Y-102085044D01*
X160950000Y-102105682D01*
X161106762Y-102085044D01*
X161252841Y-102024536D01*
X161284817Y-102000000D01*
X162844317Y-102000000D01*
X162864956Y-102156762D01*
X162925463Y-102302840D01*
X163021717Y-102428282D01*
X163147158Y-102524535D01*
X163147159Y-102524536D01*
X163293238Y-102585044D01*
X163450000Y-102605682D01*
X163606762Y-102585044D01*
X163752841Y-102524536D01*
X163878282Y-102428282D01*
X163974536Y-102302841D01*
X164035044Y-102156762D01*
X164055682Y-102000000D01*
X164035044Y-101843238D01*
X163974536Y-101697159D01*
X163878282Y-101571717D01*
X163752840Y-101475463D01*
X163606762Y-101414956D01*
X163450000Y-101394317D01*
X163293237Y-101414956D01*
X163147159Y-101475463D01*
X163021717Y-101571717D01*
X162925463Y-101697159D01*
X162864956Y-101843237D01*
X162844317Y-102000000D01*
X161284817Y-102000000D01*
X161378282Y-101928282D01*
X161474536Y-101802841D01*
X161535044Y-101656762D01*
X161555682Y-101500000D01*
X161535044Y-101343238D01*
X161474536Y-101197159D01*
X161426873Y-101135043D01*
X161378282Y-101071717D01*
X161252840Y-100975463D01*
X161106762Y-100914956D01*
X160950000Y-100894317D01*
X160793237Y-100914956D01*
X160647159Y-100975463D01*
X160521717Y-101071717D01*
X160425463Y-101197159D01*
X160364956Y-101343237D01*
X160344317Y-101500000D01*
X154605682Y-101500000D01*
X154585044Y-101343238D01*
X154524536Y-101197159D01*
X154476873Y-101135043D01*
X154428282Y-101071717D01*
X154302840Y-100975463D01*
X154156762Y-100914956D01*
X154000000Y-100894317D01*
X153843237Y-100914956D01*
X153697159Y-100975463D01*
X153571717Y-101071717D01*
X153475463Y-101197159D01*
X153414956Y-101343237D01*
X153394317Y-101500000D01*
X140000000Y-101500000D01*
X140000000Y-100550000D01*
X150894317Y-100550000D01*
X150914956Y-100706762D01*
X150975463Y-100852840D01*
X151071717Y-100978282D01*
X151197159Y-101074535D01*
X151197159Y-101074536D01*
X151343238Y-101135044D01*
X151500000Y-101155682D01*
X151656762Y-101135044D01*
X151802841Y-101074536D01*
X151928282Y-100978282D01*
X152024536Y-100852841D01*
X152085044Y-100706762D01*
X152105682Y-100550000D01*
X152085044Y-100393238D01*
X152024536Y-100247159D01*
X151986170Y-100197159D01*
X151928282Y-100121717D01*
X151802840Y-100025463D01*
X151656762Y-99964956D01*
X151500000Y-99944317D01*
X151343237Y-99964956D01*
X151197159Y-100025463D01*
X151071717Y-100121717D01*
X150975463Y-100247159D01*
X150914956Y-100393237D01*
X150894317Y-100550000D01*
X140000000Y-100550000D01*
X140000000Y-95623999D01*
X140019685Y-95556961D01*
X140072489Y-95511206D01*
X140124000Y-95500000D01*
X169376000Y-95500000D01*
X169443039Y-95519685D01*
G37*
%TD.AperFunction*%
%TA.AperFunction,Conductor*%
G36*
X131438696Y-120268954D02*
G01*
X131519478Y-120322930D01*
X131567833Y-120391137D01*
X131619818Y-120499299D01*
X131644012Y-120593393D01*
X131630356Y-120689583D01*
X131589829Y-120762711D01*
X130347788Y-122315264D01*
X130273462Y-122377831D01*
X130261216Y-122384139D01*
X129551131Y-122725424D01*
X129457037Y-122749619D01*
X129443267Y-122750000D01*
X124911682Y-122750000D01*
X124816394Y-122731046D01*
X124735612Y-122677070D01*
X124684223Y-122602309D01*
X124650258Y-122526044D01*
X124628807Y-122431295D01*
X124645249Y-122335541D01*
X124692637Y-122258180D01*
X125173016Y-121724424D01*
X125664491Y-121178341D01*
X126130103Y-120660996D01*
X126207933Y-120602851D01*
X126213832Y-120600129D01*
X126951639Y-120271537D01*
X127046396Y-120250086D01*
X127052942Y-120250000D01*
X131343408Y-120250000D01*
X131438696Y-120268954D01*
G37*
%TD.AperFunction*%
M02*
